<svg width="68.55000006mm" height="53.37847338mm" viewBox="0 0 26988189 21015147"  version="1.1" xmlns="http://www.w3.org/2000/svg" xmlns:xlink="http://www.w3.org/1999/xlink">
<desc>
Origin 39200000 34500000 Bound 39200000 34500000 26988189 21015147
</desc>
<g fill-rule="evenodd" fill="rgb(255, 0, 255)" stroke="black" stroke-width="1" transform="translate(0, 21015147) scale(1, -1) translate(-39200000, -34500000)">
<path id="N" d="M 65211811.00 54899087.00 L 65211811.00 50400000.00 L 66188189.00 49400000.00 L 66188189.00 36500000.00 L 65211811.00 35500000.00 L 65211811.00 34500000.00 L 39200000.00 34500000.00 L 39200000.00 55515147.00 L 64595751.00 55515147.00 L 65211811.00 54899087.00  zM 50200002.00 35499993.05 m -338174.95 0 a 338174.95 338174.95 0 1 1 676349.89 0a 338174.95 338174.95 0 1 1 -676349.89 0M 51200002.00 35499993.05 m -338174.95 0 a 338174.95 338174.95 0 1 1 676349.89 0a 338174.95 338174.95 0 1 1 -676349.89 0M 53200002.00 35499993.05 m -338174.95 0 a 338174.95 338174.95 0 1 1 676349.89 0a 338174.95 338174.95 0 1 1 -676349.89 0M 54200002.00 35499993.05 m -338174.95 0 a 338174.95 338174.95 0 1 1 676349.89 0a 338174.95 338174.95 0 1 1 -676349.89 0M 44699999.50 35500018.07 m -628006.16 0 a 628006.16 628006.16 0 1 1 1256012.32 0a 628006.16 628006.16 0 1 1 -1256012.32 0M 52200002.00 35499993.05 m -338174.95 0 a 338174.95 338174.95 0 1 1 676349.89 0a 338174.95 338174.95 0 1 1 -676349.89 0M 50899999.04 47600000.73 m -342933.27 0 a 342933.27 342933.27 0 1 1 685866.54 0a 342933.27 342933.27 0 1 1 -685866.54 0M 46899999.04 47600000.73 m -342933.27 0 a 342933.27 342933.27 0 1 1 685866.54 0a 342933.27 342933.27 0 1 1 -685866.54 0M 47899999.04 47600000.73 m -342933.27 0 a 342933.27 342933.27 0 1 1 685866.54 0a 342933.27 342933.27 0 1 1 -685866.54 0M 48899999.04 47600000.73 m -342933.27 0 a 342933.27 342933.27 0 1 1 685866.54 0a 342933.27 342933.27 0 1 1 -685866.54 0M 49899999.04 47600000.73 m -342933.27 0 a 342933.27 342933.27 0 1 1 685866.54 0a 342933.27 342933.27 0 1 1 -685866.54 0M 51899999.04 47600000.73 m -342933.27 0 a 342933.27 342933.27 0 1 1 685866.54 0a 342933.27 342933.27 0 1 1 -685866.54 0M 52899999.04 47600000.73 m -342933.27 0 a 342933.27 342933.27 0 1 1 685866.54 0a 342933.27 342933.27 0 1 1 -685866.54 0M 47399996.23 52100023.28 m -833992.72 0 a 833992.72 833992.72 0 1 1 1667985.45 0a 833992.72 833992.72 0 1 1 -1667985.45 0M 46611813.00 54499993.05 m -338174.95 0 a 338174.95 338174.95 0 1 1 676349.89 0a 338174.95 338174.95 0 1 1 -676349.89 0M 45211810.50 54500018.07 m -628006.16 0 a 628006.16 628006.16 0 1 1 1256012.32 0a 628006.16 628006.16 0 1 1 -1256012.32 0M 47611813.00 54499993.05 m -338174.95 0 a 338174.95 338174.95 0 1 1 676349.89 0a 338174.95 338174.95 0 1 1 -676349.89 0M 48611813.00 54499993.05 m -338174.95 0 a 338174.95 338174.95 0 1 1 676349.89 0a 338174.95 338174.95 0 1 1 -676349.89 0M 49611813.00 54499993.05 m -338174.95 0 a 338174.95 338174.95 0 1 1 676349.89 0a 338174.95 338174.95 0 1 1 -676349.89 0M 52399996.23 52100023.28 m -833992.72 0 a 833992.72 833992.72 0 1 1 1667985.45 0a 833992.72 833992.72 0 1 1 -1667985.45 0M 51611813.00 54499993.05 m -338174.95 0 a 338174.95 338174.95 0 1 1 676349.89 0a 338174.95 338174.95 0 1 1 -676349.89 0M 50611813.00 54499993.05 m -338174.95 0 a 338174.95 338174.95 0 1 1 676349.89 0a 338174.95 338174.95 0 1 1 -676349.89 0M 52611813.00 54499993.05 m -338174.95 0 a 338174.95 338174.95 0 1 1 676349.89 0a 338174.95 338174.95 0 1 1 -676349.89 0M 53611813.00 54499993.05 m -338174.95 0 a 338174.95 338174.95 0 1 1 676349.89 0a 338174.95 338174.95 0 1 1 -676349.89 0M 54611813.00 54499993.05 m -338174.95 0 a 338174.95 338174.95 0 1 1 676349.89 0a 338174.95 338174.95 0 1 1 -676349.89 0M 55200002.00 35499993.05 m -338174.95 0 a 338174.95 338174.95 0 1 1 676349.89 0a 338174.95 338174.95 0 1 1 -676349.89 0M 56200002.00 35499993.05 m -338174.95 0 a 338174.95 338174.95 0 1 1 676349.89 0a 338174.95 338174.95 0 1 1 -676349.89 0M 59200002.00 35499993.05 m -338174.95 0 a 338174.95 338174.95 0 1 1 676349.89 0a 338174.95 338174.95 0 1 1 -676349.89 0M 57535275.00 35835275.00 L 56864725.00 35835275.00 L 56864725.00 35164725.00 L 57535275.00 35164725.00 L 57535275.00 35835275.00  zM 55641574.00 42951810.00 L 54971024.00 42951810.00 L 54971024.00 42281260.00 L 55641574.00 42281260.00 L 55641574.00 42951810.00  zM 56093703.00 42616528.05 m -338174.95 0 a 338174.95 338174.95 0 1 1 676349.89 0a 338174.95 338174.95 0 1 1 -676349.89 0M 60200002.00 35499993.05 m -338174.95 0 a 338174.95 338174.95 0 1 1 676349.89 0a 338174.95 338174.95 0 1 1 -676349.89 0M 61200002.00 35499993.05 m -338174.95 0 a 338174.95 338174.95 0 1 1 676349.89 0a 338174.95 338174.95 0 1 1 -676349.89 0M 62200002.00 35499993.05 m -338174.95 0 a 338174.95 338174.95 0 1 1 676349.89 0a 338174.95 338174.95 0 1 1 -676349.89 0M 63200002.00 35499993.05 m -338174.95 0 a 338174.95 338174.95 0 1 1 676349.89 0a 338174.95 338174.95 0 1 1 -676349.89 0M 64535275.00 35835275.00 L 63864725.00 35835275.00 L 63864725.00 35164725.00 L 64535275.00 35164725.00 L 64535275.00 35835275.00  zM 65211810.50 37500018.07 m -628006.16 0 a 628006.16 628006.16 0 1 1 1256012.32 0a 628006.16 628006.16 0 1 1 -1256012.32 0M 65141574.00 42951810.00 L 64471024.00 42951810.00 L 64471024.00 42281260.00 L 65141574.00 42281260.00 L 65141574.00 42951810.00  zM 65593703.00 42616528.05 m -338174.95 0 a 338174.95 338174.95 0 1 1 676349.89 0a 338174.95 338174.95 0 1 1 -676349.89 0M 65211810.50 48500018.07 m -628006.16 0 a 628006.16 628006.16 0 1 1 1256012.32 0a 628006.16 628006.16 0 1 1 -1256012.32 0M 60200002.00 54499993.05 m -338174.95 0 a 338174.95 338174.95 0 1 1 676349.89 0a 338174.95 338174.95 0 1 1 -676349.89 0M 63200002.00 54499993.05 m -338174.95 0 a 338174.95 338174.95 0 1 1 676349.89 0a 338174.95 338174.95 0 1 1 -676349.89 0M 64535275.00 54835275.00 L 63864725.00 54835275.00 L 63864725.00 54164725.00 L 64535275.00 54164725.00 L 64535275.00 54835275.00  zM 55947086.00 54835275.00 L 55276536.00 54835275.00 L 55276536.00 54164725.00 L 55947086.00 54164725.00 L 55947086.00 54835275.00  zM 57200002.00 54499993.05 m -338174.95 0 a 338174.95 338174.95 0 1 1 676349.89 0a 338174.95 338174.95 0 1 1 -676349.89 0M 58200002.00 54499993.05 m -338174.95 0 a 338174.95 338174.95 0 1 1 676349.89 0a 338174.95 338174.95 0 1 1 -676349.89 0M 59200002.00 54499993.05 m -338174.95 0 a 338174.95 338174.95 0 1 1 676349.89 0a 338174.95 338174.95 0 1 1 -676349.89 0M 61200002.00 54499993.05 m -338174.95 0 a 338174.95 338174.95 0 1 1 676349.89 0a 338174.95 338174.95 0 1 1 -676349.89 0M 62200002.00 54499993.05 m -338174.95 0 a 338174.95 338174.95 0 1 1 676349.89 0a 338174.95 338174.95 0 1 1 -676349.89 0"/>
</g>
</svg>
