<svg width="68.55000006mm" height="53.37847338mm" viewBox="0 0 26988189 21015147"  version="1.1" xmlns="http://www.w3.org/2000/svg" xmlns:xlink="http://www.w3.org/1999/xlink">
<desc>
Origin 39200000 34500000 Bound 39200000 34500000 26988189 21015147
</desc>
<g fill-rule="evenodd" fill="rgb(255, 255, 0)" stroke="black" stroke-width="1" transform="translate(0, 21015147) scale(1, -1) translate(-39200000, -34500000)">
<path id="N" d="M 40322599.00 43298190.00 L 40331960.00 43275591.00 L 40331960.00 43200000.00 L 40322599.00 43177401.00 L 40300000.00 43168040.00 L 40277401.00 43177401.00 L 40268040.00 43200000.00 L 40268040.00 43243631.00 L 39831960.00 43243631.00 L 39831960.00 42756369.00 L 40268040.00 42756369.00 L 40268040.00 42800000.00 L 40277401.00 42822599.00 L 40300000.00 42831960.00 L 40322599.00 42822599.00 L 40331960.00 42800000.00 L 40331960.00 42724409.00 L 40322599.00 42701810.00 L 40300000.00 42692449.00 L 39300000.00 42692449.00 L 39277401.00 42701810.00 L 39268040.00 42724409.00 L 39268040.00 42775701.98 L 39259346.99 42808837.98 L 39256346.99 42842212.98 L 39259721.99 42879337.98 L 39270221.99 42917962.98 L 39280346.99 42935962.98 L 39301346.99 42960712.98 L 39320846.99 42973462.99 L 39347471.99 42983212.99 L 39371096.99 42986962.99 L 39374471.99 42938212.99 L 39345596.99 42929962.99 L 39332096.99 42922087.99 L 39319346.99 42910087.99 L 39308846.99 42889837.99 L 39302096.99 42860212.98 L 39301891.71 42831176.41 L 39322599.00 42822599.00 L 39331960.00 42800000.00 L 39331960.00 42765517.36 L 39350472.00 42757087.99 L 39361096.05 42756369.00 L 39382347.00 42762337.99 L 39393972.00 42771712.99 L 39398097.00 42778837.99 L 39410471.99 42809587.99 L 39437096.99 42909712.99 L 39447971.99 42938587.99 L 39468221.99 42967837.99 L 39485471.99 42983212.99 L 39507971.99 42993337.99 L 39533471.99 42998588.00 L 39557846.99 42996338.00 L 39586721.99 42986963.00 L 39606221.99 42973838.00 A 131713.71 131713.71 0 0 0 39650471.99 42891713.00 L 39653846.99 42856463.00 L 39651971.99 42826088.00 L 39643722.00 42782963.00 L 39632265.60 42756369.00 L 39768040.00 42756369.00 L 39768040.00 43243631.00 L 39647471.98 43243631.00 L 39646721.98 43042838.00 L 39636971.98 43043213.00 L 39614846.98 43048088.00 L 39582221.98 43065338.00 L 39550721.98 43091213.00 L 39504971.98 43141462.99 L 39449471.98 43202962.99 L 39420971.98 43227712.99 L 39389989.45 43243631.00 L 39345157.02 43243631.00 L 39331960.00 43237230.80 L 39331960.00 43200000.00 L 39322599.00 43177401.00 L 39301108.10 43168499.00 L 39302471.98 43159462.98 L 39309221.98 43137712.99 L 39317471.98 43124587.99 L 39329471.98 43114087.99 L 39353471.98 43103212.99 L 39377471.98 43100212.99 L 39371846.98 43051837.99 L 39348221.98 43056712.99 L 39321971.98 43066087.99 L 39301721.98 43078087.98 L 39285596.98 43094962.98 A 145177.82 145177.82 0 0 0 39267221.98 43214962.98 L 39268040.00 43275591.00 L 39277401.00 43298190.00 L 39300000.00 43307551.00 L 40300000.00 43307551.00 L 40322599.00 43298190.00  zM 39542471.99 42949463.00 L 39527471.99 42946837.99 L 39510971.99 42938587.99 L 39500096.99 42925837.99 L 39488846.99 42903337.99 L 39474971.99 42853837.99 L 39455097.00 42782212.99 L 39443367.67 42756369.00 L 39566596.55 42756369.00 L 39582597.00 42771338.00 L 39597222.00 42794963.00 L 39604721.99 42820838.00 L 39608471.99 42854213.00 L 39606221.99 42879338.00 L 39599846.99 42905213.00 L 39586346.99 42928838.00 L 39575471.99 42938963.00 L 39555971.99 42947963.00 L 39542471.99 42949463.00  zM 39602096.98 43243631.00 L 39472720.77 43243631.00 L 39478346.98 43237837.99 L 39576971.98 43127588.00 L 39602096.98 43108088.00 L 39602096.98 43243631.00  z"/>
<path id="N" d="M 48688750.00 50599374.76 L 48740625.00 50593749.77 L 48789375.00 50583124.77 L 48813125.00 50574374.77 L 48839375.00 50560624.78 L 48876250.01 50531874.78 L 48891250.01 50516249.78 L 48905625.01 50498124.78 L 48918750.01 50472499.78 L 48930625.01 50438749.78 L 48937500.02 50406249.78 L 48939375.02 50383124.78 L 48859375.02 50376874.78 L 48850625.02 50416874.78 L 48840000.01 50443124.78 L 48829375.01 50460624.78 L 48808750.01 50481249.77 L 48784375.01 50498124.77 L 48768750.01 50505624.77 L 48740625.01 50514999.77 L 48690625.01 50523749.76 L 48653125.01 50523749.76 L 48600000.01 50514999.76 L 48579375.01 50507499.75 L 48546250.01 50487499.75 L 48530000.01 50470624.75 L 48517500.01 50446249.75 A 83144.42 83144.42 0 0 1 48519375.02 50380624.75 L 48529375.02 50363124.75 L 48543125.02 50349999.75 L 48573125.02 50331249.75 L 48605000.02 50319374.76 L 48709375.03 50292499.76 L 48790625.03 50268749.77 L 48817500.03 50258124.77 L 48836250.03 50247499.78 L 48873125.03 50218749.78 L 48894375.03 50192499.78 L 48908750.04 50159374.78 L 48914375.04 50130624.78 L 48915000.04 50101874.78 L 48908750.05 50071249.78 L 48896875.05 50039999.78 L 48883125.05 50016874.78 L 48856250.05 49989374.78 L 48826875.05 49968124.78 L 48807500.06 49959374.77 L 48781250.06 49950624.77 L 48736250.06 49940624.77 L 48690625.06 49937499.76 L 48656875.06 49939374.76 L 48607500.06 49947499.76 L 48564375.05 49960624.75 L 48551250.05 49967499.75 L 48520625.05 49987499.75 L 48493125.05 50012499.75 L 48480625.05 50028749.74 L 48463125.05 50064374.74 L 48451250.04 50108124.74 L 48449375.04 50128749.74 L 48530625.04 50134374.75 L 48532500.04 50124999.75 L 48544375.04 50086249.75 L 48562500.05 50056874.75 L 48579375.05 50040624.75 L 48603750.05 50028124.76 L 48628125.05 50019999.76 L 48660625.05 50013749.76 L 48705625.05 50013124.76 L 48748125.05 50019374.77 L 48775625.05 50028124.77 L 48799375.05 50041249.77 L 48810000.05 50052499.77 L 48822500.05 50069999.77 L 48832500.04 50094374.78 L 48833125.04 50101249.78 L 48832500.04 50121249.78 L 48823750.04 50147499.77 L 48817500.04 50156874.77 L 48808750.04 50165624.77 L 48784375.04 50179999.77 L 48731875.03 50198749.77 L 48665000.03 50215624.76 L 48578125.03 50238749.75 L 48533750.03 50254999.75 L 48495000.03 50279374.75 L 48468125.03 50303124.74 L 48456250.02 50318124.74 L 48445625.02 50338124.74 L 48434375.02 50372499.74 L 48430000.02 50399374.74 L 48430625.01 50421874.74 L 48436875.01 50454999.74 L 48449375.01 50488124.74 L 48454375.01 50496249.74 L 48471250.01 50520624.74 L 48493125.00 50541874.75 L 48524375.00 50564999.75 L 48544375.00 50574999.75 L 48564375.00 50583124.75 L 48608125.00 50594374.76 L 48641875.00 50598749.76 L 48688750.00 50599374.76  z"/>
<path id="N" d="M 55263338.00 44123903.00 L 55289963.00 44111528.00 L 55307213.00 44096528.00 L 55323338.00 44071403.00 L 55331963.00 44045528.00 L 55333088.00 44027903.00 L 55327088.00 43999403.00 L 55318088.00 43982903.00 L 55302338.00 43967528.00 L 55276838.00 43953278.00 L 55296338.00 43944278.00 L 55322588.00 43925153.00 L 55331963.00 43913528.00 L 55342838.00 43889903.00 L 55348463.00 43861778.00 L 55346963.00 43837778.00 L 55337588.00 43806278.00 L 55325588.00 43785278.00 L 55310213.00 43769153.00 A 137632.31 137632.31 0 0 0 55189088.00 43742903.00 L 55159463.00 43753028.00 L 55136963.00 43766153.00 L 55124963.00 43778153.00 L 55106588.00 43807403.00 L 55099088.00 43829903.00 L 55095713.00 43856528.00 L 55100213.00 43888028.00 L 55111088.00 43913903.00 L 55122338.00 43927403.00 L 55145588.00 43944278.00 L 55168838.00 43953278.00 L 55163963.00 43955153.00 L 55137713.00 43970903.00 L 55124213.00 43984778.00 L 55115588.00 44004278.00 L 55111088.00 44032028.00 L 55112588.00 44046278.00 L 55120838.00 44073278.00 L 55135838.00 44096528.00 L 55149713.00 44108903.00 L 55173713.00 44122028.00 L 55203338.00 44129903.00 L 55263338.00 44123903.00  zM 55169963.00 43914653.00 L 55156838.00 43899278.00 L 55147463.00 43878278.00 L 55144463.00 43861778.00 L 55145213.00 43843403.00 A 74263.80 74263.80 0 0 1 55207088.00 43778903.00 L 55225838.00 43777403.00 L 55250963.00 43782653.00 A 64588.22 64588.22 0 0 1 55293338.00 43822028.00 A 77583.18 77583.18 0 0 1 55292963.00 43887653.00 L 55281713.00 43906403.00 L 55265588.00 43919528.00 L 55244213.00 43929653.00 A 80270.90 80270.90 0 0 1 55169963.00 43914653.00  zM 55199213.00 44088278.00 L 55184213.00 44080778.00 L 55174463.00 44071778.00 L 55162088.00 44050028.00 L 55159463.00 44033528.00 L 55163588.00 44010653.00 L 55171088.00 43995653.00 L 55183838.00 43983278.00 A 69140.00 69140.00 0 0 1 55260338.00 43982903.00 A 61043.87 61043.87 0 0 1 55199213.00 44088278.00  z"/>
<path id="N" d="M 40079463.00 44093903.00 L 40106088.00 44081528.00 L 40123338.00 44066528.00 L 40139463.00 44041403.00 L 40148088.00 44015528.00 L 40149213.00 43997903.00 L 40143213.00 43969403.00 L 40134213.00 43952903.00 L 40118463.00 43937528.00 L 40092963.00 43923278.00 L 40112463.00 43914278.00 L 40138713.00 43895153.00 L 40148088.00 43883528.00 L 40158963.00 43859903.00 L 40164588.00 43831778.00 L 40163088.00 43807778.00 L 40153713.00 43776278.00 L 40141713.00 43755278.00 L 40126338.00 43739153.00 A 137632.31 137632.31 0 0 0 40005213.00 43712903.00 L 39975588.00 43723028.00 L 39953088.00 43736153.00 L 39941088.00 43748153.00 L 39922713.00 43777403.00 L 39915213.00 43799903.00 L 39911838.00 43826528.00 L 39916338.00 43858028.00 L 39927213.00 43883903.00 L 39938463.00 43897403.00 L 39961713.00 43914278.00 L 39984963.00 43923278.00 L 39980088.00 43925153.00 L 39953838.00 43940903.00 L 39940338.00 43954778.00 L 39931713.00 43974278.00 L 39927213.00 44002028.00 L 39928713.00 44016278.00 L 39936963.00 44043278.00 L 39951963.00 44066528.00 L 39965838.00 44078903.00 L 39989838.00 44092028.00 L 40019463.00 44099903.00 L 40079463.00 44093903.00  zM 39986088.00 43884653.00 L 39972963.00 43869278.00 L 39963588.00 43848278.00 L 39960588.00 43831778.00 L 39961338.00 43813403.00 A 74263.80 74263.80 0 0 1 40023213.00 43748903.00 L 40041963.00 43747403.00 L 40067088.00 43752653.00 A 64588.22 64588.22 0 0 1 40109463.00 43792028.00 A 77583.18 77583.18 0 0 1 40109088.00 43857653.00 L 40097838.00 43876403.00 L 40081713.00 43889528.00 L 40060338.00 43899653.00 A 80270.90 80270.90 0 0 1 39986088.00 43884653.00  zM 40015338.00 44058278.00 L 40000338.00 44050778.00 L 39990588.00 44041778.00 L 39978213.00 44020028.00 L 39975588.00 44003528.00 L 39979713.00 43980653.00 L 39987213.00 43965653.00 L 39999963.00 43953278.00 A 69140.00 69140.00 0 0 1 40076463.00 43952903.00 A 61043.87 61043.87 0 0 1 40015338.00 44058278.00  z"/>
<path id="N" d="M 50140625.00 49598124.89 L 50176250.00 49591249.89 L 50196250.00 49584374.89 L 50223750.00 49569374.90 L 50238125.00 49556249.90 L 50251875.00 49536874.90 L 50263125.01 49515624.90 L 50270625.01 49488124.90 L 50272500.01 49461874.90 L 50266250.01 49426874.90 L 50257500.02 49404999.90 L 50240625.02 49381249.90 L 50216875.02 49359374.90 L 50182500.02 49341249.89 L 50150625.02 49331249.89 L 50067500.02 49318749.88 L 49980000.03 49303124.88 L 49950625.03 49293749.87 L 49950000.03 49279374.87 L 49952500.03 49247499.87 L 49959375.03 49224999.87 A 58691.46 58691.46 0 0 1 49989375.03 49194999.88 L 50015000.04 49185624.88 L 50051250.04 49179374.88 L 50080625.04 49180624.88 L 50119375.04 49187499.89 L 50131875.03 49192499.89 L 50143125.03 49199374.89 L 50157500.03 49214999.89 L 50170625.03 49236249.89 L 50181875.03 49268124.89 L 50258750.03 49256874.90 L 50250625.03 49228749.90 L 50240000.03 49203124.90 L 50225000.04 49177499.90 L 50206875.04 49160624.90 L 50185625.04 49145624.89 L 50155000.04 49131249.89 L 50138125.04 49125624.89 L 50091875.04 49116874.89 L 50050000.04 49114374.88 L 50022500.04 49115624.88 L 49968750.04 49123749.87 L 49947500.04 49131249.87 L 49915000.04 49149374.87 L 49899375.04 49163749.87 L 49885625.04 49186249.87 L 49875000.03 49217499.87 L 49871250.03 49256249.87 L 49869375.01 49477499.87 L 49865625.00 49534374.87 L 49858750.00 49560624.87 L 49845625.00 49589374.86 L 49927500.00 49589374.87 L 49937500.00 49564374.87 L 49944375.00 49532499.87 L 49948125.00 49535624.87 L 49997500.00 49569999.88 L 50035000.00 49587499.88 L 50081250.00 49597499.88 L 50114375.00 49599999.89 L 50140625.00 49598124.89  zM 50084375.00 49537499.88 L 50043125.01 49529999.88 L 50015000.01 49518749.88 L 49995625.01 49504374.88 L 49978125.01 49487499.88 L 49963125.01 49464374.87 L 49959375.01 49453124.87 L 49952500.01 49419999.87 L 49950625.02 49356249.87 L 49951875.02 49356874.87 L 50010625.02 49373749.88 L 50090625.02 49388124.89 L 50143125.02 49399999.89 L 50163750.02 49411874.89 L 50178750.01 49428124.89 L 50185625.01 49443749.89 L 50188750.01 49466249.89 L 50183125.01 49491249.89 L 50173125.01 49509374.89 L 50165625.01 49517499.89 L 50138125.01 49531874.89 L 50111875.00 49537499.89 L 50084375.00 49537499.88  z"/>
<path id="N" d="M 39557846.99 46894276.00 L 39586721.99 46884901.00 L 39606221.99 46871776.00 A 131713.71 131713.71 0 0 0 39650471.99 46789651.00 L 39653846.99 46754401.00 L 39651971.99 46724026.00 L 39643722.00 46680901.00 L 39632472.00 46654651.00 L 39612972.00 46628776.00 L 39592722.00 46611151.00 L 39581472.00 46605151.00 L 39550722.00 46594276.00 L 39523722.00 46590900.99 L 39519597.00 46638900.99 L 39543972.00 46644151.00 L 39567972.00 46655401.00 L 39582597.00 46669276.00 L 39597222.00 46692901.00 L 39604721.99 46718776.00 L 39608471.99 46752151.00 L 39606221.99 46777276.00 L 39599846.99 46803151.00 L 39586346.99 46826776.00 A 55490.09 55490.09 0 0 1 39510971.99 46836525.99 L 39500096.99 46823775.99 L 39488846.99 46801275.99 L 39458847.00 46692525.99 L 39446472.00 46659525.99 L 39431097.00 46637400.99 L 39410472.00 46618650.99 L 39389472.00 46609275.99 L 39362472.00 46605150.99 L 39344847.00 46607400.99 L 39317847.00 46616400.99 L 39303972.00 46624650.98 L 39281097.00 46649025.98 L 39268722.00 46671150.98 L 39259346.99 46706775.98 L 39256346.99 46740150.98 L 39259721.99 46777275.98 L 39270221.99 46815900.98 L 39280346.99 46833900.98 L 39301346.99 46858650.98 L 39320846.99 46871400.99 L 39347471.99 46881150.99 L 39371096.99 46884900.99 L 39374471.99 46836150.99 L 39358721.99 46832400.99 L 39336596.99 46823025.99 L 39320096.99 46809150.99 L 39310721.99 46792275.99 L 39303221.99 46764900.98 L 39301721.99 46731150.98 L 39308472.00 46694775.99 A 55470.31 55470.31 0 0 1 39360972.00 46654275.99 L 39382347.00 46660275.99 L 39393972.00 46669650.99 L 39398097.00 46676775.99 L 39410471.99 46707525.99 L 39427346.99 46772775.99 L 39445346.99 46831275.99 L 39461471.99 46857525.99 L 39479846.99 46877025.99 L 39496721.99 46887150.99 L 39527846.99 46895775.99 L 39557846.99 46894276.00  z"/>
<path id="N" d="M 39557846.99 39031433.00 L 39586721.99 39022058.00 L 39606221.99 39008933.00 A 131713.71 131713.71 0 0 0 39650471.99 38926808.00 L 39653846.99 38891558.00 L 39651971.99 38861183.00 L 39643722.00 38818058.00 L 39632472.00 38791808.00 L 39612972.00 38765933.00 L 39592722.00 38748308.00 L 39581472.00 38742308.00 L 39550722.00 38731433.00 L 39523722.00 38728057.99 L 39519597.00 38776057.99 L 39543972.00 38781308.00 L 39567972.00 38792558.00 L 39582597.00 38806433.00 L 39597222.00 38830058.00 L 39604721.99 38855933.00 L 39608471.99 38889308.00 L 39606221.99 38914433.00 L 39599846.99 38940308.00 L 39586346.99 38963933.00 A 55490.09 55490.09 0 0 1 39510971.99 38973682.99 L 39500096.99 38960932.99 L 39488846.99 38938432.99 L 39458847.00 38829682.99 L 39446472.00 38796682.99 L 39431097.00 38774557.99 L 39410472.00 38755807.99 L 39389472.00 38746432.99 L 39362472.00 38742307.99 L 39344847.00 38744557.99 L 39317847.00 38753557.99 L 39303972.00 38761807.98 L 39281097.00 38786182.98 L 39268722.00 38808307.98 L 39259346.99 38843932.98 L 39256346.99 38877307.98 L 39259721.99 38914432.98 L 39270221.99 38953057.98 L 39280346.99 38971057.98 L 39301346.99 38995807.98 L 39320846.99 39008557.99 L 39347471.99 39018307.99 L 39371096.99 39022057.99 L 39374471.99 38973307.99 L 39358721.99 38969557.99 L 39336596.99 38960182.99 L 39320096.99 38946307.99 L 39310721.99 38929432.99 L 39303221.99 38902057.98 L 39301721.99 38868307.98 L 39308472.00 38831932.99 A 55470.31 55470.31 0 0 1 39360972.00 38791432.99 L 39382347.00 38797432.99 L 39393972.00 38806807.99 L 39398097.00 38813932.99 L 39410471.99 38844682.99 L 39427346.99 38909932.99 L 39445346.99 38968432.99 L 39461471.99 38994682.99 L 39479846.99 39014182.99 L 39496721.99 39024307.99 L 39527846.99 39032932.99 L 39557846.99 39031433.00  z"/>
<path id="N" d="M 48574963.00 44098028.00 L 48605338.00 44087528.00 L 48622963.00 44075528.00 L 48638338.00 44057153.00 L 48649963.00 44035028.00 L 48657838.00 44005403.00 L 48610963.00 44001653.00 L 48600838.00 44030528.00 L 48592213.00 44042903.00 L 48573088.00 44056028.00 L 48555838.00 44061653.00 L 48541963.00 44062403.00 L 48519463.00 44057153.00 L 48502213.00 44046653.00 L 48481588.00 44022653.00 L 48470338.00 44000528.00 L 48462088.00 43966778.00 L 48457588.00 43913153.00 L 48459463.00 43915778.00 L 48482338.00 43940528.00 L 48501838.00 43952903.00 L 48531463.00 43962653.00 L 48558838.00 43964153.00 L 48591463.00 43955903.00 L 48611713.00 43945778.00 L 48632713.00 43928153.00 A 140686.72 140686.72 0 0 0 48660838.00 43807403.00 L 48648838.00 43772153.00 L 48631213.00 43747403.00 L 48615463.00 43732028.00 L 48595213.00 43720028.00 L 48568213.00 43711403.00 L 48543838.00 43708778.00 L 48509713.00 43714028.00 L 48486463.00 43722653.00 L 48462463.00 43737653.00 L 48447463.00 43752278.00 L 48436213.00 43771028.00 L 48422338.00 43805903.00 L 48414088.00 43844528.00 L 48410713.00 43894778.00 L 48412963.00 43932653.00 L 48420838.00 43983278.00 L 48432463.00 44023028.00 L 48444463.00 44046653.00 L 48458338.00 44063528.00 L 48483838.00 44083028.00 L 48507463.00 44094278.00 L 48537088.00 44100653.00 L 48574963.00 44098028.00  zM 48533338.00 43922153.00 L 48509713.00 43915403.00 L 48491338.00 43903778.00 L 48480088.00 43890653.00 A 93352.67 93352.67 0 0 1 48467713.00 43817528.00 L 48475213.00 43792778.00 L 48486838.00 43774778.00 L 48504838.00 43758653.00 L 48521713.00 43751153.00 L 48543088.00 43747403.00 L 48560713.00 43750403.00 L 48581713.00 43760153.00 L 48597838.00 43775903.00 A 103576.14 103576.14 0 0 1 48615088.00 43850903.00 L 48607213.00 43880153.00 L 48594838.00 43899653.00 L 48580213.00 43911278.00 L 48558463.00 43920653.00 L 48533338.00 43922153.00  z"/>
<path id="N" d="M 51941588.00 44100653.00 L 51970838.00 44095403.00 L 51993713.00 44086028.00 L 52019588.00 44066153.00 L 52033088.00 44048153.00 L 52043588.00 44019653.00 A 82966.40 82966.40 0 0 0 52016588.00 43938653.00 L 51992963.00 43923278.00 L 52020338.00 43912028.00 L 52037963.00 43899278.00 L 52051463.00 43880903.00 L 52061588.00 43854278.00 L 52064588.00 43828403.00 L 52060088.00 43799153.00 L 52049213.00 43771778.00 A 109718.16 109718.16 0 0 0 51995963.00 43723028.00 L 51964463.00 43712153.00 L 51932588.00 43708778.00 L 51898838.00 43714028.00 L 51871088.00 43724903.00 L 51849338.00 43740278.00 A 127200.82 127200.82 0 0 0 51812963.00 43817153.00 L 51860213.00 43823153.00 L 51862463.00 43813778.00 L 51875213.00 43781903.00 L 51888338.00 43764653.00 L 51907838.00 43753403.00 L 51925088.00 43748528.00 L 51943838.00 43748528.00 L 51968213.00 43755278.00 L 51986963.00 43766528.00 A 82604.06 82604.06 0 0 1 51992963.00 43881278.00 L 51974588.00 43893653.00 L 51950588.00 43901528.00 L 51938963.00 43902278.00 L 51905963.00 43897403.00 L 51911963.00 43938653.00 L 51926588.00 43938278.00 L 51954338.00 43944653.00 A 59234.54 59234.54 0 0 1 51931838.00 44062403.00 L 51910838.00 44058278.00 L 51895463.00 44050778.00 L 51883838.00 44039903.00 L 51870713.00 44015528.00 L 51865088.00 43993028.00 L 51817838.00 44001653.00 L 51828338.00 44033903.00 L 51841838.00 44058278.00 L 51857213.00 44075153.00 L 51877838.00 44087903.00 L 51909338.00 44098778.00 L 51941588.00 44100653.00  z"/>
<path id="N" d="M 44694624.93 40893125.09 L 44723874.93 40887875.09 L 44746749.94 40878500.10 L 44772624.94 40858625.10 L 44786124.94 40840625.11 L 44796624.95 40812125.11 A 82966.40 82966.40 0 0 0 44769624.96 40731125.10 L 44745999.96 40715750.10 L 44773374.97 40704500.10 L 44790999.97 40691750.11 L 44804499.97 40673375.11 L 44814624.98 40646750.11 L 44817624.98 40620875.11 L 44813124.99 40591625.11 L 44802249.99 40564250.11 A 109718.16 109718.16 0 0 0 44749000.00 40515500.10 L 44717500.00 40504625.09 L 44685625.00 40501250.09 L 44651875.00 40506500.08 L 44624125.00 40517375.08 L 44602375.00 40532750.07 A 127200.82 127200.82 0 0 0 44565999.98 40609625.07 L 44613249.98 40615625.08 L 44615499.98 40606250.08 L 44628249.99 40574375.08 L 44641374.99 40557125.08 L 44660874.99 40545875.08 L 44678124.99 40541000.09 L 44696874.99 40541000.09 L 44721249.99 40547750.09 L 44739999.99 40559000.10 A 82604.06 82604.06 0 0 1 44745999.97 40673750.10 L 44727624.97 40686125.10 L 44703624.97 40694000.09 L 44691999.97 40694750.09 L 44658999.97 40689875.08 L 44664999.96 40731125.08 L 44679624.96 40730750.09 L 44707374.96 40737125.09 A 59234.54 59234.54 0 0 1 44684874.94 40854875.09 L 44663874.94 40850750.08 L 44648499.94 40843250.08 L 44636874.94 40832375.08 L 44623749.95 40808000.08 L 44618124.95 40785500.08 L 44570874.95 40794125.07 L 44581374.94 40826375.07 L 44594874.94 40850750.07 L 44610249.94 40867625.07 L 44630874.93 40880375.08 L 44662374.93 40891250.08 L 44694624.93 40893125.09  z"/>
<path id="N" d="M 66054804.00 48190653.00 L 66084054.00 48185403.00 L 66106929.00 48176028.00 L 66132804.00 48156153.00 L 66146304.00 48138153.00 L 66156804.00 48109653.00 A 82966.40 82966.40 0 0 0 66129804.00 48028653.00 L 66106179.00 48013278.00 L 66133554.00 48002028.00 L 66151179.00 47989278.00 L 66164679.00 47970903.00 L 66174804.00 47944278.00 L 66177804.00 47918403.00 L 66173304.00 47889153.00 L 66162429.00 47861778.00 A 109718.16 109718.16 0 0 0 66109179.00 47813028.00 L 66077679.00 47802153.00 L 66045804.00 47798778.00 L 66012054.00 47804028.00 L 65984304.00 47814903.00 L 65962554.00 47830278.00 A 127200.82 127200.82 0 0 0 65926179.00 47907153.00 L 65973429.00 47913153.00 L 65975679.00 47903778.00 L 65988429.00 47871903.00 L 66001554.00 47854653.00 L 66021054.00 47843403.00 L 66038304.00 47838528.00 L 66057054.00 47838528.00 L 66081429.00 47845278.00 L 66100179.00 47856528.00 A 82604.06 82604.06 0 0 1 66106179.00 47971278.00 L 66087804.00 47983653.00 L 66063804.00 47991528.00 L 66052179.00 47992278.00 L 66019179.00 47987403.00 L 66025179.00 48028653.00 L 66039804.00 48028278.00 L 66067554.00 48034653.00 A 59234.54 59234.54 0 0 1 66045054.00 48152403.00 L 66024054.00 48148278.00 L 66008679.00 48140778.00 L 65997054.00 48129903.00 L 65983929.00 48105528.00 L 65978304.00 48083028.00 L 65931054.00 48091653.00 L 65941554.00 48123903.00 L 65955054.00 48148278.00 L 65970429.00 48165153.00 L 65991054.00 48177903.00 L 66022554.00 48188778.00 L 66054804.00 48190653.00  z"/>
<path id="N" d="M 56546558.00 47893028.00 L 56584433.00 47884403.00 L 56617808.00 47869403.00 L 56636558.00 47855903.00 L 56663183.00 47829278.00 L 56683058.00 47798528.00 L 56691683.00 47775653.00 L 56701808.00 47736653.00 L 56705183.00 47692028.00 L 56699183.00 47640278.00 L 56690558.00 47610653.00 L 56673683.00 47578403.00 L 56647433.00 47545028.00 L 56663933.00 47534528.00 L 56712683.00 47509778.00 L 56696933.00 47474903.00 L 56659058.00 47492528.00 L 56614433.00 47521028.00 L 56598683.00 47513903.00 L 56557058.00 47501528.00 L 56520308.00 47497778.00 L 56488808.00 47500778.00 L 56450183.00 47511278.00 L 56425433.00 47523278.00 L 56396558.00 47545778.00 L 56375183.00 47570153.00 L 56360183.00 47593778.00 L 56351183.00 47616653.00 L 56341433.00 47656028.00 L 56337683.00 47696903.00 L 56341808.00 47738153.00 L 56353058.00 47782028.00 L 56364683.00 47807528.00 L 56386808.00 47837528.00 L 56411183.00 47860778.00 L 56433683.00 47874653.00 L 56468183.00 47887403.00 L 56502308.00 47894153.00 L 56546558.00 47893028.00  zM 56512433.00 47850653.00 L 56481308.00 47844653.00 L 56458058.00 47834903.00 L 56434433.00 47819153.00 L 56418683.00 47801153.00 L 56401808.00 47767028.00 L 56393558.00 47735528.00 L 56390183.00 47695403.00 L 56394683.00 47653778.00 L 56405558.00 47615903.00 L 56420558.00 47588903.00 L 56433683.00 47574653.00 L 56459183.00 47557403.00 L 56491433.00 47545028.00 L 56521808.00 47541278.00 L 56546558.00 47543903.00 L 56573183.00 47551403.00 L 56550308.00 47563403.00 L 56522933.00 47573153.00 L 56535683.00 47610278.00 L 56572433.00 47596028.00 L 56608058.00 47573903.00 L 56626058.00 47597153.00 L 56642183.00 47631653.00 L 56650808.00 47667653.00 L 56652683.00 47696903.00 L 56648933.00 47737028.00 L 56639558.00 47771153.00 L 56629808.00 47789903.00 L 56610308.00 47815403.00 L 56589683.00 47832278.00 L 56574683.00 47839778.00 L 56548433.00 47848403.00 L 56512433.00 47850653.00  z"/>
<path id="N" d="M 39563471.97 47194276.00 L 39590846.97 47183401.00 L 39612221.97 47168401.00 L 39627221.98 47151901.00 L 39639596.98 47130151.00 L 39650471.98 47098651.00 L 39653846.98 47066776.00 L 39648596.98 47033026.00 L 39637721.98 47005276.00 L 39622346.98 46983526.00 A 127200.82 127200.82 0 0 0 39545471.98 46947151.00 L 39539471.98 46994401.00 L 39548846.98 46996651.00 L 39580721.98 47009401.00 L 39597971.98 47022526.00 L 39609221.98 47042026.00 L 39614096.98 47059276.00 L 39614096.98 47078026.00 L 39607346.98 47102401.00 L 39596096.98 47121151.00 A 82604.06 82604.06 0 0 1 39481346.98 47127150.99 L 39468971.98 47108775.99 L 39461096.98 47084775.99 L 39460346.98 47073150.99 L 39465221.98 47040150.99 L 39423971.98 47046150.99 L 39424346.98 47060775.99 L 39417971.98 47088525.99 A 59234.54 59234.54 0 0 1 39300221.98 47066025.98 L 39304346.98 47045025.99 L 39311846.98 47029650.99 L 39322721.98 47018025.99 L 39347096.98 47004900.99 L 39369596.98 46999275.99 L 39360971.98 46952025.99 L 39328721.98 46962525.99 L 39304346.98 46976025.99 L 39287471.98 46991400.98 L 39274721.98 47012025.98 L 39263846.98 47043525.98 L 39261971.98 47075775.98 L 39267221.98 47105025.98 L 39276596.98 47127900.98 L 39296471.98 47153775.98 L 39314471.97 47167275.99 L 39342971.97 47177775.99 A 82966.40 82966.40 0 0 0 39423971.98 47150775.99 L 39439346.98 47127150.99 L 39450596.98 47154525.99 L 39467471.97 47175900.99 L 39488846.97 47189400.99 L 39520346.97 47198025.99 L 39563471.97 47194276.00  z"/>
<path id="N" d="M 50606875.00 49596249.93 L 50640000.00 49586874.93 L 50666875.00 49574999.94 L 50691875.00 49556874.94 L 50713750.00 49534999.94 L 50736875.01 49503749.94 L 50747500.01 49483749.94 L 50757500.01 49456249.94 A 322046.50 322046.50 0 0 0 50770625.02 49324999.94 L 50762500.03 49274999.94 L 50749375.03 49231249.94 L 50731875.03 49199374.94 L 50710625.04 49171249.94 L 50688125.04 49150624.94 L 50662500.04 49134999.94 L 50634375.04 49123749.93 L 50597500.04 49115624.93 L 50570000.04 49114374.93 L 50540000.04 49118749.92 L 50515000.04 49126249.92 L 50496875.04 49135624.92 L 50465625.04 49159374.92 L 50448750.04 49178124.92 L 50448750.06 48948749.92 L 50370000.06 48948749.91 L 50370000.00 49589374.91 L 50443125.00 49589374.92 L 50443750.00 49532499.92 L 50456250.00 49547499.92 L 50484375.00 49572499.92 L 50494375.00 49578124.92 L 50516875.00 49589374.92 L 50543125.00 49596874.93 L 50573125.00 49599999.93 L 50606875.00 49596249.93  zM 50565625.00 49535624.93 L 50547500.00 49533124.93 A 118154.09 118154.09 0 0 1 50477500.01 49493124.92 L 50466875.01 49475624.92 L 50453125.01 49443749.92 L 50445000.02 49408749.92 L 50441875.02 49364374.92 L 50445000.02 49321874.92 L 50453750.03 49276874.92 L 50466250.03 49243124.92 L 50482500.03 49219999.92 L 50503750.03 49201874.92 L 50532500.04 49186249.92 L 50550000.04 49181249.93 L 50574375.04 49179374.93 L 50600000.04 49184999.93 L 50621250.03 49193124.93 L 50643125.03 49208124.93 L 50657500.03 49223124.94 L 50668125.03 49241249.94 L 50680625.03 49274374.94 L 50690625.02 49325624.94 L 50691875.02 49366874.94 L 50686875.02 49408124.94 L 50676250.01 49452499.94 L 50666875.01 49473124.94 L 50653750.01 49492499.93 L 50629375.01 49513749.93 L 50601250.01 49528749.93 L 50584375.00 49533749.93 L 50565625.00 49535624.93  z"/>
<path id="N" d="M 44411124.93 48691625.04 L 44443749.94 48678875.05 L 44462874.94 48666125.05 L 44485374.94 48642125.05 L 44503374.95 48614000.06 L 44514249.95 48586625.06 L 44463999.95 48575375.05 L 44458374.95 48589250.05 L 44441874.95 48618125.05 L 44424999.94 48635750.04 L 44403249.94 48647375.04 L 44375124.94 48654500.03 L 44353749.94 48654875.03 L 44317374.94 48648500.02 L 44292624.94 48637625.02 L 44273874.94 48622250.02 L 44256999.95 48600500.01 L 44245374.95 48576125.01 L 44237124.96 48542750.01 L 44233374.97 48502625.01 L 44235249.97 48473750.01 L 44242749.98 48431375.01 L 44251749.98 48408125.01 L 44272374.99 48378875.02 L 44292249.99 48362375.02 L 44311374.99 48353750.02 L 44344374.99 48345500.03 L 44372124.99 48345875.03 L 44405874.99 48354875.04 L 44429499.99 48369125.04 L 44442624.99 48383375.05 L 44459124.98 48410375.05 L 44469624.98 48442250.05 L 44520624.98 48428750.06 L 44518749.98 48423500.06 L 44503749.99 48386375.06 L 44483499.99 48354875.05 L 44462500.00 48333500.05 L 44427625.00 48314375.04 L 44392750.00 48304250.04 L 44355250.00 48301250.03 L 44309125.00 48307250.02 L 44275375.00 48318125.02 L 44250250.00 48333500.01 A 175278.73 175278.73 0 0 0 44194749.98 48417500.00 L 44183874.97 48463250.00 L 44180874.97 48503375.00 L 44183874.96 48538250.00 L 44193249.95 48581000.00 L 44205999.95 48611750.00 L 44229624.94 48643625.01 L 44253999.94 48665750.01 L 44273124.94 48677750.02 L 44310249.93 48691250.02 L 44343624.93 48697625.03 L 44411124.93 48691625.04  z"/>
<path id="N" d="M 44413374.93 44791625.04 L 44445999.94 44778875.05 L 44465124.94 44766125.05 L 44487624.94 44742125.05 L 44505624.95 44714000.06 L 44516499.95 44686625.06 L 44466249.95 44675375.05 L 44460624.95 44689250.05 L 44444124.95 44718125.05 L 44427249.94 44735750.04 L 44405499.94 44747375.04 L 44377374.94 44754500.03 L 44355999.94 44754875.03 L 44319624.94 44748500.02 L 44294874.94 44737625.02 L 44276124.94 44722250.02 L 44259249.95 44700500.01 L 44247624.95 44676125.01 L 44239374.96 44642750.01 L 44235624.97 44602625.01 L 44237499.97 44573750.01 L 44244999.98 44531375.01 L 44253999.98 44508125.01 L 44274624.99 44478875.02 L 44294499.99 44462375.02 L 44313624.99 44453750.02 L 44346624.99 44445500.03 L 44374374.99 44445875.03 L 44408124.99 44454875.04 L 44431749.99 44469125.04 L 44444874.99 44483375.05 L 44461374.98 44510375.05 L 44471874.98 44542250.05 L 44522874.98 44528750.06 L 44520999.98 44523500.06 L 44505999.99 44486375.06 L 44485749.99 44454875.05 L 44464750.00 44433500.05 L 44429875.00 44414375.04 L 44395000.00 44404250.04 L 44357500.00 44401250.03 L 44311375.00 44407250.02 L 44277625.00 44418125.02 L 44252500.00 44433500.01 A 175278.73 175278.73 0 0 0 44196999.98 44517500.00 L 44186124.97 44563250.00 L 44183124.97 44603375.00 L 44186124.96 44638250.00 L 44195499.95 44681000.00 L 44208249.95 44711750.00 L 44231874.94 44743625.01 L 44256249.94 44765750.01 L 44275374.94 44777750.02 L 44312499.93 44791250.02 L 44345874.93 44797625.03 L 44413374.93 44791625.04  z"/>
<path id="N" d="M 44412624.93 40891625.04 L 44445249.94 40878875.05 L 44464374.94 40866125.05 L 44486874.94 40842125.05 L 44504874.95 40814000.06 L 44515749.95 40786625.06 L 44465499.95 40775375.05 L 44459874.95 40789250.05 L 44443374.95 40818125.05 L 44426499.94 40835750.04 L 44404749.94 40847375.04 L 44376624.94 40854500.03 L 44355249.94 40854875.03 L 44318874.94 40848500.02 L 44294124.94 40837625.02 L 44275374.94 40822250.02 L 44258499.95 40800500.01 L 44246874.95 40776125.01 L 44238624.96 40742750.01 L 44234874.97 40702625.01 L 44236749.97 40673750.01 L 44244249.98 40631375.01 L 44253249.98 40608125.01 L 44273874.99 40578875.02 L 44293749.99 40562375.02 L 44312874.99 40553750.02 L 44345874.99 40545500.03 L 44373624.99 40545875.03 L 44407374.99 40554875.04 L 44430999.99 40569125.04 L 44444124.99 40583375.05 L 44460624.98 40610375.05 L 44471124.98 40642250.05 L 44522124.98 40628750.06 L 44520249.98 40623500.06 L 44505249.99 40586375.06 L 44484999.99 40554875.05 L 44464000.00 40533500.05 L 44429125.00 40514375.04 L 44394250.00 40504250.04 L 44356750.00 40501250.03 L 44310625.00 40507250.02 L 44276875.00 40518125.02 L 44251750.00 40533500.01 A 175278.73 175278.73 0 0 0 44196249.98 40617500.00 L 44185374.97 40663250.00 L 44182374.97 40703375.00 L 44185374.96 40738250.00 L 44194749.95 40781000.00 L 44207499.95 40811750.00 L 44231124.94 40843625.01 L 44255499.94 40865750.01 L 44274624.94 40877750.02 L 44311749.93 40891250.02 L 44345124.93 40897625.03 L 44412624.93 40891625.04  z"/>
<path id="N" d="M 44801124.94 48642125.11 L 44646999.94 48642125.08 L 44626749.96 48538625.08 L 44648499.96 48550625.08 L 44678124.96 48560375.09 L 44707749.96 48562250.09 L 44742249.96 48554000.10 L 44763624.96 48543875.10 L 44784624.96 48527375.11 L 44798499.96 48509000.11 L 44810874.97 48483125.11 L 44817624.97 48457625.11 L 44818749.98 48429125.11 L 44811624.99 48392750.11 L 44798499.99 48362375.11 L 44784624.99 48343625.11 L 44762125.00 48324500.10 L 44739250.00 48312125.10 L 44710375.00 48303125.09 L 44678875.00 48301625.09 L 44643625.00 48308375.08 L 44614750.00 48320750.08 L 44600125.00 48332000.07 A 127259.48 127259.48 0 0 0 44564124.98 48408500.07 L 44613624.98 48412250.08 L 44615499.98 48403625.08 L 44626374.99 48374375.08 L 44635374.99 48361625.08 L 44646624.99 48352250.08 L 44667999.99 48342875.09 L 44687499.99 48339875.09 L 44703249.99 48342125.09 L 44726124.99 48350750.10 L 44745249.99 48365375.10 L 44757249.99 48383750.10 L 44766624.98 48411500.10 L 44768874.98 48437375.10 L 44763249.97 48467000.10 L 44753499.97 48488000.10 L 44741874.97 48501125.10 A 87490.95 87490.95 0 0 1 44616624.97 48483875.08 L 44572374.97 48489500.07 L 44609499.93 48687125.07 L 44801124.93 48687125.11 L 44801124.94 48642125.11  z"/>
<path id="N" d="M 46948088.00 44050403.00 L 46793963.00 44050403.00 L 46773713.00 43946903.00 L 46795463.00 43958903.00 L 46825088.00 43968653.00 L 46854713.00 43970528.00 L 46889213.00 43962278.00 L 46910588.00 43952153.00 L 46931588.00 43935653.00 L 46945463.00 43917278.00 L 46957838.00 43891403.00 L 46964588.00 43865903.00 L 46965713.00 43837403.00 L 46958588.00 43801028.00 L 46945463.00 43770653.00 L 46931588.00 43751903.00 L 46909088.00 43732778.00 L 46886213.00 43720403.00 L 46857338.00 43711403.00 L 46825838.00 43709903.00 L 46790588.00 43716653.00 L 46761713.00 43729028.00 L 46747088.00 43740278.00 A 127259.48 127259.48 0 0 0 46711088.00 43816778.00 L 46760588.00 43820528.00 L 46762463.00 43811903.00 L 46773338.00 43782653.00 L 46782338.00 43769903.00 L 46793588.00 43760528.00 L 46814963.00 43751153.00 L 46834463.00 43748153.00 L 46850213.00 43750403.00 L 46873088.00 43759028.00 L 46892213.00 43773653.00 L 46904213.00 43792028.00 L 46913588.00 43819778.00 L 46915838.00 43845653.00 L 46910213.00 43875278.00 L 46900463.00 43896278.00 L 46888838.00 43909403.00 A 87490.95 87490.95 0 0 1 46763588.00 43892153.00 L 46719338.00 43897778.00 L 46756463.00 44095403.00 L 46948088.00 44095403.00 L 46948088.00 44050403.00  z"/>
<path id="N" d="M 61230133.00 42666354.00 L 61242614.00 42636221.00 L 61242614.00 42600094.00 L 61396850.00 42600094.00 L 61426983.00 42587613.00 L 61439464.00 42557480.00 L 61426983.00 42527347.00 L 61396850.00 42514866.00 L 61282806.96 42514866.00 L 61431527.00 42306659.00 L 61434471.47 42293943.51 L 61439464.00 42281890.00 L 61438052.04 42278481.09 L 61438885.00 42274884.00 L 61431975.73 42263811.01 L 61426983.00 42251757.00 L 61423573.04 42250344.61 L 61421619.00 42247213.00 L 61408903.51 42244268.53 L 61396850.00 42239276.00 L 61242614.00 42239276.00 L 61242614.00 42163780.00 L 61230133.00 42133647.00 L 61200000.00 42121166.00 L 61169867.00 42133647.00 L 61157386.00 42163780.00 L 61157386.00 42239276.00 L 61042520.00 42239276.00 L 61032323.85 42243499.21 L 61021378.00 42244891.00 L 61017795.28 42249516.91 L 61012387.00 42251757.00 L 61008164.07 42261952.46 L 61001407.00 42270677.00 L 61002145.32 42276483.59 L 60999906.00 42281890.00 L 61004129.21 42292086.15 L 61005521.00 42303032.00 L 61126569.00 42514866.00 L 61003150.00 42514866.00 L 60973017.00 42527347.00 L 60960536.00 42557480.00 L 60973017.00 42587613.00 L 61003150.00 42600094.00 L 61157386.00 42600094.00 L 61157386.00 42636221.00 L 61169867.00 42666354.00 L 61200000.00 42678835.00 L 61230133.00 42666354.00  zM 61203992.27 42478575.43 L 61115951.13 42324504.00 L 61314043.29 42324504.00 L 61203992.27 42478575.43  z"/>
<path id="N" d="M 62730133.00 42666354.00 L 62742614.00 42636221.00 L 62742614.00 42600094.00 L 62896850.00 42600094.00 L 62926983.00 42587613.00 L 62939464.00 42557480.00 L 62926983.00 42527347.00 L 62896850.00 42514866.00 L 62782806.96 42514866.00 L 62931527.00 42306659.00 L 62934471.47 42293943.51 L 62939464.00 42281890.00 L 62938052.04 42278481.09 L 62938885.00 42274884.00 L 62931975.73 42263811.01 L 62926983.00 42251757.00 L 62923573.04 42250344.61 L 62921619.00 42247213.00 L 62908903.51 42244268.53 L 62896850.00 42239276.00 L 62742614.00 42239276.00 L 62742614.00 42163780.00 L 62730133.00 42133647.00 L 62700000.00 42121166.00 L 62669867.00 42133647.00 L 62657386.00 42163780.00 L 62657386.00 42239276.00 L 62542520.00 42239276.00 L 62532323.85 42243499.21 L 62521378.00 42244891.00 L 62517795.28 42249516.91 L 62512387.00 42251757.00 L 62508164.07 42261952.46 L 62501407.00 42270677.00 L 62502145.32 42276483.59 L 62499906.00 42281890.00 L 62504129.21 42292086.15 L 62505521.00 42303032.00 L 62626569.00 42514866.00 L 62503150.00 42514866.00 L 62473017.00 42527347.00 L 62460536.00 42557480.00 L 62473017.00 42587613.00 L 62503150.00 42600094.00 L 62657386.00 42600094.00 L 62657386.00 42636221.00 L 62669867.00 42666354.00 L 62700000.00 42678835.00 L 62730133.00 42666354.00  zM 62703992.27 42478575.43 L 62615951.13 42324504.00 L 62814043.29 42324504.00 L 62703992.27 42478575.43  z"/>
<path id="N" d="M 50053125.06 49948749.88 L 49740000.06 49949374.85 L 49678125.06 49956249.85 L 49637500.05 49966874.85 L 49602500.05 49988749.84 L 49578750.05 50012499.84 L 49567500.05 50028124.84 L 49556875.05 50049374.84 L 49545625.04 50086249.84 L 49541250.04 50113749.84 L 49541875.04 50134999.84 L 49549375.04 50172499.84 L 49560000.03 50201249.84 L 49577500.03 50229999.84 L 49590000.03 50243124.84 L 49619375.03 50263749.84 L 49649375.03 50278749.85 L 49689375.03 50291874.85 L 49721875.03 50298124.85 L 49694375.02 50313124.85 L 49670000.02 50330624.85 L 49653125.02 50348124.85 L 49613125.02 50397499.84 L 49490000.00 50589374.83 L 49595625.00 50589374.84 L 49693750.01 50436249.85 L 49745625.02 50363124.86 L 49777500.02 50330624.86 L 49802500.02 50315624.86 L 49823750.02 50308124.86 L 49848750.02 50305624.86 L 49968125.02 50304999.87 L 49968125.00 50589374.87 L 50053125.00 50589374.88 L 50053125.06 49948749.88  zM 49968125.03 50231874.87 L 49766250.03 50231249.86 L 49723750.03 50226874.85 A 116676.34 116676.34 0 0 1 49653125.03 50191249.85 L 49640625.04 50171874.85 L 49631250.04 50146249.85 L 49628750.04 50119374.85 L 49636875.04 50085624.85 A 81113.68 81113.68 0 0 1 49687500.05 50033749.85 L 49719375.05 50023749.85 L 49752500.05 50019374.86 L 49968125.05 50019374.87 L 49968125.03 50231874.87  z"/>
<path id="N" d="M 58251526.00 44097466.00 L 58280776.00 44092216.00 L 58310026.00 44081341.00 L 58331401.00 44065591.00 L 58349026.00 44040841.00 A 104789.67 104789.67 0 0 0 58358026.00 43962091.00 L 58349401.00 43939591.00 L 58328776.00 43907716.00 L 58303651.00 43881091.00 L 58193401.00 43782466.00 L 58173901.00 43757341.00 L 58362526.00 43757341.00 L 58362526.00 43711966.00 L 58108651.00 43712716.00 L 58110526.00 43732966.00 L 58118026.00 43753966.00 L 58137526.00 43786216.00 L 58164901.00 43816216.00 L 58240651.00 43883341.00 L 58281151.00 43923466.00 L 58296526.00 43943341.00 L 58310401.00 43971841.00 L 58313776.00 43992091.00 L 58308901.00 44016091.00 L 58297276.00 44035591.00 A 77175.18 77175.18 0 0 1 58225276.00 44056966.00 L 58203526.00 44050216.00 L 58190401.00 44041966.00 L 58179901.00 44029966.00 L 58169026.00 44005966.00 L 58166026.00 43981966.00 L 58117651.00 43987591.00 L 58122526.00 44011216.00 L 58131901.00 44037466.00 L 58143901.00 44057716.00 L 58160776.00 44073841.00 A 145177.82 145177.82 0 0 0 58251526.00 44097466.00  z"/>
<path id="N" d="M 63072088.00 44167466.00 L 63101338.00 44162216.00 L 63130588.00 44151341.00 L 63151963.00 44135591.00 L 63169588.00 44110841.00 A 104789.67 104789.67 0 0 0 63178588.00 44032091.00 L 63169963.00 44009591.00 L 63149338.00 43977716.00 L 63124213.00 43951091.00 L 63013963.00 43852466.00 L 62994463.00 43827341.00 L 63183088.00 43827341.00 L 63183088.00 43781966.00 L 62929213.00 43782716.00 L 62931088.00 43802966.00 L 62938588.00 43823966.00 L 62958088.00 43856216.00 L 62985463.00 43886216.00 L 63061213.00 43953341.00 L 63101713.00 43993466.00 L 63117088.00 44013341.00 L 63130963.00 44041841.00 L 63134338.00 44062091.00 L 63129463.00 44086091.00 L 63117838.00 44105591.00 A 77175.18 77175.18 0 0 1 63045838.00 44126966.00 L 63024088.00 44120216.00 L 63010963.00 44111966.00 L 63000463.00 44099966.00 L 62989588.00 44075966.00 L 62986588.00 44051966.00 L 62938213.00 44057591.00 L 62943088.00 44081216.00 L 62952463.00 44107466.00 L 62964463.00 44127716.00 L 62981338.00 44143841.00 A 145177.82 145177.82 0 0 0 63072088.00 44167466.00  z"/>
<path id="N" d="M 50651875.06 49948749.93 L 50388750.06 49948749.91 L 50319375.06 49953749.91 L 50273125.05 49965624.90 L 50246250.05 49977499.90 L 50228750.05 49988749.90 L 50207500.05 50009999.90 L 50190000.05 50032499.89 L 50182500.05 50047499.89 L 50172500.05 50072499.89 L 50163125.04 50116874.89 L 50162500.04 50134999.89 L 50164375.04 50154999.89 L 50171875.03 50192499.89 L 50184375.03 50226874.89 L 50197500.03 50249999.89 L 50215625.03 50273124.90 L 50231250.03 50285624.90 L 50258125.03 50300624.90 L 50298750.02 50315624.90 L 50335000.02 50323749.91 L 50378125.02 50328124.91 L 50566875.02 50328749.93 L 50566875.00 50589374.93 L 50651875.00 50589374.93 L 50651875.06 49948749.93  zM 50566875.03 50253124.93 L 50393750.03 50253124.91 L 50365000.03 50250624.91 L 50317500.03 50240624.91 L 50300000.03 50233124.90 L 50285000.03 50223124.90 L 50273750.03 50210624.90 L 50261250.04 50188749.90 L 50251250.04 50156249.90 L 50250000.04 50136249.90 L 50252500.04 50113124.90 L 50258750.04 50091249.90 L 50270625.05 50068124.90 L 50285000.05 50052499.90 L 50301875.05 50039999.90 L 50328750.05 50029374.91 L 50374375.05 50024999.91 L 50566875.05 50024374.93 L 50566875.03 50253124.93  z"/>
<path id="N" d="M 66064741.00 40187466.00 L 66093991.00 40182216.00 L 66123241.00 40171341.00 L 66144616.00 40155591.00 L 66162241.00 40130841.00 A 104789.67 104789.67 0 0 0 66171241.00 40052091.00 L 66162616.00 40029591.00 L 66141991.00 39997716.00 L 66116866.00 39971091.00 L 66006616.00 39872466.00 L 65987116.00 39847341.00 L 66175741.00 39847341.00 L 66175741.00 39801966.00 L 65921866.00 39802716.00 L 65923741.00 39822966.00 L 65931241.00 39843966.00 L 65950741.00 39876216.00 L 65978116.00 39906216.00 L 66053866.00 39973341.00 L 66094366.00 40013466.00 L 66109741.00 40033341.00 L 66123616.00 40061841.00 L 66126991.00 40082091.00 L 66122116.00 40106091.00 L 66110491.00 40125591.00 A 77175.18 77175.18 0 0 1 66038491.00 40146966.00 L 66016741.00 40140216.00 L 66003616.00 40131966.00 L 65993116.00 40119966.00 L 65982241.00 40095966.00 L 65979241.00 40071966.00 L 65930866.00 40077591.00 L 65935741.00 40101216.00 L 65945116.00 40127466.00 L 65957116.00 40147716.00 L 65973991.00 40163841.00 A 145177.82 145177.82 0 0 0 66064741.00 40187466.00  z"/>
<path id="N" d="M 47141526.00 53940653.00 L 47170776.00 53935403.00 L 47200026.00 53924528.00 L 47221401.00 53908778.00 L 47239026.00 53884028.00 A 104789.67 104789.67 0 0 0 47248026.00 53805278.00 L 47239401.00 53782778.00 L 47218776.00 53750903.00 L 47193651.00 53724278.00 L 47083401.00 53625653.00 L 47063901.00 53600528.00 L 47252526.00 53600528.00 L 47252526.00 53555153.00 L 46998651.00 53555903.00 L 47000526.00 53576153.00 L 47008026.00 53597153.00 L 47027526.00 53629403.00 L 47054901.00 53659403.00 L 47130651.00 53726528.00 L 47171151.00 53766653.00 L 47186526.00 53786528.00 L 47200401.00 53815028.00 L 47203776.00 53835278.00 L 47198901.00 53859278.00 L 47187276.00 53878778.00 A 77175.18 77175.18 0 0 1 47115276.00 53900153.00 L 47093526.00 53893403.00 L 47080401.00 53885153.00 L 47069901.00 53873153.00 L 47059026.00 53849153.00 L 47056026.00 53825153.00 L 47007651.00 53830778.00 L 47012526.00 53854403.00 L 47021901.00 53880653.00 L 47033901.00 53900903.00 L 47050776.00 53917028.00 A 145177.82 145177.82 0 0 0 47141526.00 53940653.00  z"/>
<path id="N" d="M 39756588.00 44096903.00 L 39792963.00 44089028.00 L 39815088.00 44075528.00 L 39829338.00 44061278.00 L 39840963.00 44042153.00 L 39849213.00 44017028.00 L 39851838.00 43994153.00 L 39846963.00 43965278.00 L 39837588.00 43942403.00 L 39825213.00 43925528.00 L 39809838.00 43913528.00 L 39779463.00 43898528.00 L 39744213.00 43889528.00 L 39746838.00 43888403.00 L 39775338.00 43870028.00 L 39808713.00 43830278.00 L 39882588.00 43715153.00 L 39819213.00 43715153.00 L 39767838.00 43795403.00 L 39737088.00 43840403.00 L 39714588.00 43866278.00 L 39695088.00 43879403.00 L 39678963.00 43884653.00 L 39595713.00 43885778.00 L 39595713.00 43715153.00 L 39544713.00 43715153.00 L 39544713.00 44099528.00 L 39756588.00 44096903.00  zM 39595713.00 44057153.00 L 39595713.00 43929653.00 L 39710463.00 43929653.00 L 39733338.00 43931528.00 L 39759963.00 43937153.00 L 39779838.00 43949528.00 L 39789213.00 43960403.00 L 39795963.00 43975403.00 L 39799338.00 43994528.00 L 39796713.00 44010278.00 L 39788838.00 44029028.00 L 39775713.00 44042153.00 L 39755463.00 44051528.00 L 39732213.00 44056403.00 L 39595713.00 44057153.00  z"/>
<path id="N" d="M 48256963.00 44096903.00 L 48293338.00 44089028.00 L 48315463.00 44075528.00 L 48329713.00 44061278.00 L 48341338.00 44042153.00 L 48349588.00 44017028.00 L 48352213.00 43994153.00 L 48347338.00 43965278.00 L 48337963.00 43942403.00 L 48325588.00 43925528.00 L 48310213.00 43913528.00 L 48279838.00 43898528.00 L 48244588.00 43889528.00 L 48247213.00 43888403.00 L 48275713.00 43870028.00 L 48309088.00 43830278.00 L 48382963.00 43715153.00 L 48319588.00 43715153.00 L 48268213.00 43795403.00 L 48237463.00 43840403.00 L 48214963.00 43866278.00 L 48195463.00 43879403.00 L 48179338.00 43884653.00 L 48096088.00 43885778.00 L 48096088.00 43715153.00 L 48045088.00 43715153.00 L 48045088.00 44099528.00 L 48256963.00 44096903.00  zM 48096088.00 44057153.00 L 48096088.00 43929653.00 L 48210838.00 43929653.00 L 48233713.00 43931528.00 L 48260338.00 43937153.00 L 48280213.00 43949528.00 L 48289588.00 43960403.00 L 48296338.00 43975403.00 L 48299713.00 43994528.00 L 48297088.00 44010278.00 L 48289213.00 44029028.00 L 48276088.00 44042153.00 L 48255838.00 44051528.00 L 48232588.00 44056403.00 L 48096088.00 44057153.00  z"/>
<path id="N" d="M 49956963.00 44094466.00 L 49993338.00 44086591.00 L 50015463.00 44073091.00 L 50029713.00 44058841.00 L 50041338.00 44039716.00 L 50049588.00 44014591.00 L 50052213.00 43991716.00 L 50047338.00 43962841.00 L 50037963.00 43939966.00 L 50025588.00 43923091.00 L 50010213.00 43911091.00 L 49979838.00 43896091.00 L 49944588.00 43887091.00 L 49947213.00 43885966.00 L 49975713.00 43867591.00 L 50009088.00 43827841.00 L 50082963.00 43712716.00 L 50019588.00 43712716.00 L 49968213.00 43792966.00 L 49937463.00 43837966.00 L 49914963.00 43863841.00 L 49895463.00 43876966.00 L 49879338.00 43882216.00 L 49796088.00 43883341.00 L 49796088.00 43712716.00 L 49745088.00 43712716.00 L 49745088.00 44097091.00 L 49956963.00 44094466.00  zM 49796088.00 44054716.00 L 49796088.00 43927216.00 L 49910838.00 43927216.00 L 49933713.00 43929091.00 L 49960338.00 43934716.00 L 49980213.00 43947091.00 L 49989588.00 43957966.00 L 49996338.00 43972966.00 L 49999713.00 43992091.00 L 49997088.00 44007841.00 L 49989213.00 44026591.00 L 49976088.00 44039716.00 L 49955838.00 44049091.00 L 49932588.00 44053966.00 L 49796088.00 44054716.00  z"/>
<path id="N" d="M 46555463.00 44097653.00 L 46591838.00 44089778.00 L 46613963.00 44076278.00 L 46628213.00 44062028.00 L 46639838.00 44042903.00 L 46648088.00 44017778.00 L 46650713.00 43994903.00 L 46645838.00 43966028.00 L 46636463.00 43943153.00 L 46624088.00 43926278.00 L 46608713.00 43914278.00 L 46578338.00 43899278.00 L 46543088.00 43890278.00 L 46545713.00 43889153.00 L 46574213.00 43870778.00 L 46607588.00 43831028.00 L 46681463.00 43715903.00 L 46618088.00 43715903.00 L 46566713.00 43796153.00 L 46535963.00 43841153.00 L 46513463.00 43867028.00 L 46493963.00 43880153.00 L 46477838.00 43885403.00 L 46394588.00 43886528.00 L 46394588.00 43715903.00 L 46343588.00 43715903.00 L 46343588.00 44100278.00 L 46555463.00 44097653.00  zM 46394588.00 44057903.00 L 46394588.00 43930403.00 L 46509338.00 43930403.00 L 46532213.00 43932278.00 L 46558838.00 43937903.00 L 46578713.00 43950278.00 L 46588088.00 43961153.00 L 46594838.00 43976153.00 L 46598213.00 43995278.00 L 46595588.00 44011028.00 L 46587713.00 44029778.00 L 46574588.00 44042903.00 L 46554338.00 44052278.00 L 46531088.00 44057153.00 L 46394588.00 44057903.00  z"/>
<path id="N" d="M 51656963.00 44096903.00 L 51693338.00 44089028.00 L 51715463.00 44075528.00 L 51729713.00 44061278.00 L 51741338.00 44042153.00 L 51749588.00 44017028.00 L 51752213.00 43994153.00 L 51747338.00 43965278.00 L 51737963.00 43942403.00 L 51725588.00 43925528.00 L 51710213.00 43913528.00 L 51679838.00 43898528.00 L 51644588.00 43889528.00 L 51647213.00 43888403.00 L 51675713.00 43870028.00 L 51709088.00 43830278.00 L 51782963.00 43715153.00 L 51719588.00 43715153.00 L 51668213.00 43795403.00 L 51637463.00 43840403.00 L 51614963.00 43866278.00 L 51595463.00 43879403.00 L 51579338.00 43884653.00 L 51496088.00 43885778.00 L 51496088.00 43715153.00 L 51445088.00 43715153.00 L 51445088.00 44099528.00 L 51656963.00 44096903.00  zM 51496088.00 44057153.00 L 51496088.00 43929653.00 L 51610838.00 43929653.00 L 51633713.00 43931528.00 L 51660338.00 43937153.00 L 51680213.00 43949528.00 L 51689588.00 43960403.00 L 51696338.00 43975403.00 L 51699713.00 43994528.00 L 51697088.00 44010278.00 L 51689213.00 44029028.00 L 51676088.00 44042153.00 L 51655838.00 44051528.00 L 51632588.00 44056403.00 L 51496088.00 44057153.00  z"/>
<path id="N" d="M 53357713.00 44094466.00 L 53394088.00 44086591.00 L 53416213.00 44073091.00 L 53430463.00 44058841.00 L 53442088.00 44039716.00 L 53450338.00 44014591.00 L 53452963.00 43991716.00 L 53448088.00 43962841.00 L 53438713.00 43939966.00 L 53426338.00 43923091.00 L 53410963.00 43911091.00 L 53380588.00 43896091.00 L 53345338.00 43887091.00 L 53347963.00 43885966.00 L 53376463.00 43867591.00 L 53409838.00 43827841.00 L 53483713.00 43712716.00 L 53420338.00 43712716.00 L 53368963.00 43792966.00 L 53338213.00 43837966.00 L 53315713.00 43863841.00 L 53296213.00 43876966.00 L 53280088.00 43882216.00 L 53196838.00 43883341.00 L 53196838.00 43712716.00 L 53145838.00 43712716.00 L 53145838.00 44097091.00 L 53357713.00 44094466.00  zM 53196838.00 44054716.00 L 53196838.00 43927216.00 L 53311588.00 43927216.00 L 53334463.00 43929091.00 L 53361088.00 43934716.00 L 53380963.00 43947091.00 L 53390338.00 43957966.00 L 53397088.00 43972966.00 L 53400463.00 43992091.00 L 53397838.00 44007841.00 L 53389963.00 44026591.00 L 53376838.00 44039716.00 L 53356588.00 44049091.00 L 53333338.00 44053966.00 L 53196838.00 44054716.00  z"/>
<path id="N" d="M 57959026.00 44093716.00 L 57995401.00 44085841.00 L 58017526.00 44072341.00 L 58031776.00 44058091.00 L 58043401.00 44038966.00 L 58051651.00 44013841.00 L 58054276.00 43990966.00 L 58049401.00 43962091.00 L 58040026.00 43939216.00 L 58027651.00 43922341.00 L 58012276.00 43910341.00 L 57981901.00 43895341.00 L 57946651.00 43886341.00 L 57949276.00 43885216.00 L 57977776.00 43866841.00 L 58011151.00 43827091.00 L 58085026.00 43711966.00 L 58021651.00 43711966.00 L 57970276.00 43792216.00 L 57939526.00 43837216.00 L 57917026.00 43863091.00 L 57897526.00 43876216.00 L 57881401.00 43881466.00 L 57798151.00 43882591.00 L 57798151.00 43711966.00 L 57747151.00 43711966.00 L 57747151.00 44096341.00 L 57959026.00 44093716.00  zM 57798151.00 44053966.00 L 57798151.00 43926466.00 L 57912901.00 43926466.00 L 57935776.00 43928341.00 L 57962401.00 43933966.00 L 57982276.00 43946341.00 L 57991651.00 43957216.00 L 57998401.00 43972216.00 L 58001776.00 43991341.00 L 57999151.00 44007091.00 L 57991276.00 44025841.00 L 57978151.00 44038966.00 L 57957901.00 44048341.00 L 57934651.00 44053216.00 L 57798151.00 44053966.00  z"/>
<path id="N" d="M 59594120.00 44093716.00 L 59630495.00 44085841.00 L 59652620.00 44072341.00 L 59666870.00 44058091.00 L 59678495.00 44038966.00 L 59686745.00 44013841.00 L 59689370.00 43990966.00 L 59684495.00 43962091.00 L 59675120.00 43939216.00 L 59662745.00 43922341.00 L 59647370.00 43910341.00 L 59616995.00 43895341.00 L 59581745.00 43886341.00 L 59584370.00 43885216.00 L 59612870.00 43866841.00 L 59646245.00 43827091.00 L 59720120.00 43711966.00 L 59656745.00 43711966.00 L 59605370.00 43792216.00 L 59574620.00 43837216.00 L 59552120.00 43863091.00 L 59532620.00 43876216.00 L 59516495.00 43881466.00 L 59433245.00 43882591.00 L 59433245.00 43711966.00 L 59382245.00 43711966.00 L 59382245.00 44096341.00 L 59594120.00 44093716.00  zM 59433245.00 44053966.00 L 59433245.00 43926466.00 L 59547995.00 43926466.00 L 59570870.00 43928341.00 L 59597495.00 43933966.00 L 59617370.00 43946341.00 L 59626745.00 43957216.00 L 59633495.00 43972216.00 L 59636870.00 43991341.00 L 59634245.00 44007091.00 L 59626370.00 44025841.00 L 59613245.00 44038966.00 L 59592995.00 44048341.00 L 59569745.00 44053216.00 L 59433245.00 44053966.00  z"/>
<path id="N" d="M 58522599.00 43298190.00 L 58531960.00 43275591.00 L 58531960.00 43200000.00 L 58522599.00 43177401.00 L 58500000.00 43168040.00 L 58477401.00 43177401.00 L 58468040.00 43200000.00 L 58468040.00 43243631.00 L 58031960.00 43243631.00 L 58031960.00 42756369.00 L 58468040.00 42756369.00 L 58468040.00 42800000.00 L 58477401.00 42822599.00 L 58500000.00 42831960.00 L 58522599.00 42822599.00 L 58531960.00 42800000.00 L 58531960.00 42724409.00 L 58522599.00 42701810.00 L 58500000.00 42692449.00 L 57500000.00 42692449.00 L 57477401.00 42701810.00 L 57468040.00 42724409.00 L 57468040.00 42800000.00 L 57477401.00 42822599.00 L 57500000.00 42831960.00 L 57522599.00 42822599.00 L 57531960.00 42800000.00 L 57531960.00 42756369.00 L 57968040.00 42756369.00 L 57968040.00 43243631.00 L 57531960.00 43243631.00 L 57531960.00 43200000.00 L 57522599.00 43177401.00 L 57500000.00 43168040.00 L 57477401.00 43177401.00 L 57468040.00 43200000.00 L 57468040.00 43275591.00 L 57477401.00 43298190.00 L 57500000.00 43307551.00 L 58500000.00 43307551.00 L 58522599.00 43298190.00  z"/>
<path id="N" d="M 48822599.00 43298190.00 L 48831960.00 43275591.00 L 48831960.00 43200000.00 L 48822599.00 43177401.00 L 48800000.00 43168040.00 L 48777401.00 43177401.00 L 48768040.00 43200000.00 L 48768040.00 43243631.00 L 48331960.00 43243631.00 L 48331960.00 42756369.00 L 48768040.00 42756369.00 L 48768040.00 42800000.00 L 48777401.00 42822599.00 L 48800000.00 42831960.00 L 48822599.00 42822599.00 L 48831960.00 42800000.00 L 48831960.00 42724409.00 L 48822599.00 42701810.00 L 48800000.00 42692449.00 L 47800000.00 42692449.00 L 47777401.00 42701810.00 L 47768040.00 42724409.00 L 47768040.00 42800000.00 L 47777401.00 42822599.00 L 47800000.00 42831960.00 L 47822599.00 42822599.00 L 47831960.00 42800000.00 L 47831960.00 42756369.00 L 48268040.00 42756369.00 L 48268040.00 43243631.00 L 47831960.00 43243631.00 L 47831960.00 43200000.00 L 47822599.00 43177401.00 L 47800000.00 43168040.00 L 47777401.00 43177401.00 L 47768040.00 43200000.00 L 47768040.00 43275591.00 L 47777401.00 43298190.00 L 47800000.00 43307551.00 L 48800000.00 43307551.00 L 48822599.00 43298190.00  z"/>
<path id="N" d="M 47122599.00 43298190.00 L 47131960.00 43275591.00 L 47131960.00 43200000.00 L 47122599.00 43177401.00 L 47100000.00 43168040.00 L 47077401.00 43177401.00 L 47068040.00 43200000.00 L 47068040.00 43243631.00 L 46631960.00 43243631.00 L 46631960.00 42756369.00 L 47068040.00 42756369.00 L 47068040.00 42800000.00 L 47077401.00 42822599.00 L 47100000.00 42831960.00 L 47122599.00 42822599.00 L 47131960.00 42800000.00 L 47131960.00 42724409.00 L 47122599.00 42701810.00 L 47100000.00 42692449.00 L 46100000.00 42692449.00 L 46077401.00 42701810.00 L 46068040.00 42724409.00 L 46068040.00 42800000.00 L 46077401.00 42822599.00 L 46100000.00 42831960.00 L 46122599.00 42822599.00 L 46131960.00 42800000.00 L 46131960.00 42756369.00 L 46568040.00 42756369.00 L 46568040.00 43243631.00 L 46131960.00 43243631.00 L 46131960.00 43200000.00 L 46122599.00 43177401.00 L 46100000.00 43168040.00 L 46077401.00 43177401.00 L 46068040.00 43200000.00 L 46068040.00 43275591.00 L 46077401.00 43298190.00 L 46100000.00 43307551.00 L 47100000.00 43307551.00 L 47122599.00 43298190.00  z"/>
<path id="N" d="M 60222599.00 43298190.00 L 60231960.00 43275591.00 L 60231960.00 43200000.00 L 60222599.00 43177401.00 L 60200000.00 43168040.00 L 60177401.00 43177401.00 L 60168040.00 43200000.00 L 60168040.00 43243631.00 L 59731960.00 43243631.00 L 59731960.00 42756369.00 L 60168040.00 42756369.00 L 60168040.00 42800000.00 L 60177401.00 42822599.00 L 60200000.00 42831960.00 L 60222599.00 42822599.00 L 60231960.00 42800000.00 L 60231960.00 42724409.00 L 60222599.00 42701810.00 L 60200000.00 42692449.00 L 59200000.00 42692449.00 L 59177401.00 42701810.00 L 59168040.00 42724409.00 L 59168040.00 42800000.00 L 59177401.00 42822599.00 L 59200000.00 42831960.00 L 59222599.00 42822599.00 L 59231960.00 42800000.00 L 59231960.00 42756369.00 L 59668040.00 42756369.00 L 59668040.00 43243631.00 L 59231960.00 43243631.00 L 59231960.00 43200000.00 L 59222599.00 43177401.00 L 59200000.00 43168040.00 L 59177401.00 43177401.00 L 59168040.00 43200000.00 L 59168040.00 43275591.00 L 59177401.00 43298190.00 L 59200000.00 43307551.00 L 60200000.00 43307551.00 L 60222599.00 43298190.00  z"/>
<path id="N" d="M 52222599.00 43298190.00 L 52231960.00 43275591.00 L 52231960.00 43200000.00 L 52222599.00 43177401.00 L 52200000.00 43168040.00 L 52177401.00 43177401.00 L 52168040.00 43200000.00 L 52168040.00 43243631.00 L 51731960.00 43243631.00 L 51731960.00 42756369.00 L 52168040.00 42756369.00 L 52168040.00 42800000.00 L 52177401.00 42822599.00 L 52200000.00 42831960.00 L 52222599.00 42822599.00 L 52231960.00 42800000.00 L 52231960.00 42724409.00 L 52222599.00 42701810.00 L 52200000.00 42692449.00 L 51200000.00 42692449.00 L 51177401.00 42701810.00 L 51168040.00 42724409.00 L 51168040.00 42800000.00 L 51177401.00 42822599.00 L 51200000.00 42831960.00 L 51222599.00 42822599.00 L 51231960.00 42800000.00 L 51231960.00 42756369.00 L 51668040.00 42756369.00 L 51668040.00 43243631.00 L 51231960.00 43243631.00 L 51231960.00 43200000.00 L 51222599.00 43177401.00 L 51200000.00 43168040.00 L 51177401.00 43177401.00 L 51168040.00 43200000.00 L 51168040.00 43275591.00 L 51177401.00 43298190.00 L 51200000.00 43307551.00 L 52200000.00 43307551.00 L 52222599.00 43298190.00  z"/>
<path id="N" d="M 50522599.00 43298190.00 L 50531960.00 43275591.00 L 50531960.00 43200000.00 L 50522599.00 43177401.00 L 50500000.00 43168040.00 L 50477401.00 43177401.00 L 50468040.00 43200000.00 L 50468040.00 43243631.00 L 50031960.00 43243631.00 L 50031960.00 42756369.00 L 50468040.00 42756369.00 L 50468040.00 42800000.00 L 50477401.00 42822599.00 L 50500000.00 42831960.00 L 50522599.00 42822599.00 L 50531960.00 42800000.00 L 50531960.00 42724409.00 L 50522599.00 42701810.00 L 50500000.00 42692449.00 L 49500000.00 42692449.00 L 49477401.00 42701810.00 L 49468040.00 42724409.00 L 49468040.00 42800000.00 L 49477401.00 42822599.00 L 49500000.00 42831960.00 L 49522599.00 42822599.00 L 49531960.00 42800000.00 L 49531960.00 42756369.00 L 49968040.00 42756369.00 L 49968040.00 43243631.00 L 49531960.00 43243631.00 L 49531960.00 43200000.00 L 49522599.00 43177401.00 L 49500000.00 43168040.00 L 49477401.00 43177401.00 L 49468040.00 43200000.00 L 49468040.00 43275591.00 L 49477401.00 43298190.00 L 49500000.00 43307551.00 L 50500000.00 43307551.00 L 50522599.00 43298190.00  z"/>
<path id="N" d="M 53922599.00 43298190.00 L 53931960.00 43275591.00 L 53931960.00 43200000.00 L 53922599.00 43177401.00 L 53900000.00 43168040.00 L 53877401.00 43177401.00 L 53868040.00 43200000.00 L 53868040.00 43243631.00 L 53431960.00 43243631.00 L 53431960.00 42756369.00 L 53868040.00 42756369.00 L 53868040.00 42800000.00 L 53877401.00 42822599.00 L 53900000.00 42831960.00 L 53922599.00 42822599.00 L 53931960.00 42800000.00 L 53931960.00 42724409.00 L 53922599.00 42701810.00 L 53900000.00 42692449.00 L 52900000.00 42692449.00 L 52877401.00 42701810.00 L 52868040.00 42724409.00 L 52868040.00 42800000.00 L 52877401.00 42822599.00 L 52900000.00 42831960.00 L 52922599.00 42822599.00 L 52931960.00 42800000.00 L 52931960.00 42756369.00 L 53368040.00 42756369.00 L 53368040.00 43243631.00 L 52931960.00 43243631.00 L 52931960.00 43200000.00 L 52922599.00 43177401.00 L 52900000.00 43168040.00 L 52877401.00 43177401.00 L 52868040.00 43200000.00 L 52868040.00 43275591.00 L 52877401.00 43298190.00 L 52900000.00 43307551.00 L 53900000.00 43307551.00 L 53922599.00 43298190.00  z"/>
<path id="N" d="M 44798190.00 40373780.00 L 44807551.00 40351181.00 L 44807551.00 39248819.00 L 44798190.00 39226220.00 L 44775591.00 39216859.00 L 44657480.00 39216859.00 L 44634881.00 39226220.00 L 44625520.00 39248819.00 L 44634881.00 39271418.00 L 44657480.00 39280779.00 L 44743631.00 39280779.00 L 44743631.00 39768040.00 L 44256369.00 39768040.00 L 44256369.00 39280779.00 L 44342520.00 39280779.00 L 44365119.00 39271418.00 L 44374480.00 39248819.00 L 44365119.00 39226220.00 L 44342520.00 39216859.00 L 44224409.00 39216859.00 L 44201810.00 39226220.00 L 44192449.00 39248819.00 L 44192449.00 40351181.00 L 44201810.00 40373780.00 L 44224409.00 40383141.00 L 44342520.00 40383141.00 L 44365119.00 40373780.00 L 44374480.00 40351181.00 L 44365119.00 40328582.00 L 44342520.00 40319221.00 L 44256369.00 40319221.00 L 44256369.00 39831960.00 L 44743631.00 39831960.00 L 44743631.00 40319221.00 L 44657480.00 40319221.00 L 44634881.00 40328582.00 L 44625520.00 40351181.00 L 44634881.00 40373780.00 L 44657480.00 40383141.00 L 44775591.00 40383141.00 L 44798190.00 40373780.00  z"/>
<path id="N" d="M 44798190.00 48173780.00 L 44807551.00 48151181.00 L 44807551.00 47048819.00 L 44798190.00 47026220.00 L 44775591.00 47016859.00 L 44657480.00 47016859.00 L 44634881.00 47026220.00 L 44625520.00 47048819.00 L 44634881.00 47071418.00 L 44657480.00 47080779.00 L 44743631.00 47080779.00 L 44743631.00 47568040.00 L 44256369.00 47568040.00 L 44256369.00 47080779.00 L 44342520.00 47080779.00 L 44365119.00 47071418.00 L 44374480.00 47048819.00 L 44365119.00 47026220.00 L 44342520.00 47016859.00 L 44224409.00 47016859.00 L 44201810.00 47026220.00 L 44192449.00 47048819.00 L 44192449.00 48151181.00 L 44201810.00 48173780.00 L 44224409.00 48183141.00 L 44342520.00 48183141.00 L 44365119.00 48173780.00 L 44374480.00 48151181.00 L 44365119.00 48128582.00 L 44342520.00 48119221.00 L 44256369.00 48119221.00 L 44256369.00 47631960.00 L 44743631.00 47631960.00 L 44743631.00 48119221.00 L 44657480.00 48119221.00 L 44634881.00 48128582.00 L 44625520.00 48151181.00 L 44634881.00 48173780.00 L 44657480.00 48183141.00 L 44775591.00 48183141.00 L 44798190.00 48173780.00  z"/>
<path id="N" d="M 44798190.00 44273780.00 L 44807551.00 44251181.00 L 44807551.00 43148819.00 L 44798190.00 43126220.00 L 44775591.00 43116859.00 L 44657480.00 43116859.00 L 44634881.00 43126220.00 L 44625520.00 43148819.00 L 44634881.00 43171418.00 L 44657480.00 43180779.00 L 44743631.00 43180779.00 L 44743631.00 43668040.00 L 44256369.00 43668040.00 L 44256369.00 43180779.00 L 44342520.00 43180779.00 L 44365119.00 43171418.00 L 44374480.00 43148819.00 L 44365119.00 43126220.00 L 44342520.00 43116859.00 L 44224409.00 43116859.00 L 44201810.00 43126220.00 L 44192449.00 43148819.00 L 44192449.00 44251181.00 L 44201810.00 44273780.00 L 44224409.00 44283141.00 L 44342520.00 44283141.00 L 44365119.00 44273780.00 L 44374480.00 44251181.00 L 44365119.00 44228582.00 L 44342520.00 44219221.00 L 44256369.00 44219221.00 L 44256369.00 43731960.00 L 44743631.00 43731960.00 L 44743631.00 44219221.00 L 44657480.00 44219221.00 L 44634881.00 44228582.00 L 44625520.00 44251181.00 L 44634881.00 44273780.00 L 44657480.00 44283141.00 L 44775591.00 44283141.00 L 44798190.00 44273780.00  z"/>
<path id="N" d="M 61170433.00 44164841.00 A 143761.85 143761.85 0 0 0 61259308.00 44132591.00 L 61272433.00 44119091.00 L 61294558.00 44088341.00 L 61308058.00 44056466.00 L 61317433.00 44012216.00 L 61319308.00 43960466.00 L 61312558.00 43911341.00 L 61305058.00 43886216.00 L 61288558.00 43850966.00 L 61272808.00 43829591.00 L 61247308.00 43807091.00 L 61228558.00 43797341.00 L 61201933.00 43788341.00 L 61164808.00 43783091.00 L 61001683.00 43781966.00 L 61001683.00 44166341.00 L 61170433.00 44164841.00  zM 61052683.00 44120966.00 L 61052683.00 43827341.00 L 61156183.00 43828091.00 L 61194058.00 43834091.00 L 61217683.00 43845716.00 L 61234933.00 43861466.00 L 61252933.00 43891841.00 L 61260433.00 43914716.00 L 61266808.00 43961216.00 L 61265683.00 44003966.00 L 61256683.00 44048591.00 L 61246933.00 44069591.00 L 61226683.00 44094341.00 L 61209058.00 44107841.00 L 61196683.00 44113841.00 L 61162558.00 44119841.00 L 61052683.00 44120966.00  z"/>
<path id="N" d="M 65725929.00 48188028.00 A 143761.85 143761.85 0 0 0 65814804.00 48155778.00 L 65827929.00 48142278.00 L 65850054.00 48111528.00 L 65863554.00 48079653.00 L 65872929.00 48035403.00 L 65874804.00 47983653.00 L 65868054.00 47934528.00 L 65860554.00 47909403.00 L 65844054.00 47874153.00 L 65828304.00 47852778.00 L 65802804.00 47830278.00 L 65784054.00 47820528.00 L 65757429.00 47811528.00 L 65720304.00 47806278.00 L 65557179.00 47805153.00 L 65557179.00 48189528.00 L 65725929.00 48188028.00  zM 65608179.00 48144153.00 L 65608179.00 47850528.00 L 65711679.00 47851278.00 L 65749554.00 47857278.00 L 65773179.00 47868903.00 L 65790429.00 47884653.00 L 65808429.00 47915028.00 L 65815929.00 47937903.00 L 65822304.00 47984403.00 L 65821179.00 48027153.00 L 65812179.00 48071778.00 L 65802429.00 48092778.00 L 65782179.00 48117528.00 L 65764554.00 48131028.00 L 65752179.00 48137028.00 L 65718054.00 48143028.00 L 65608179.00 48144153.00  z"/>
<path id="N" d="M 65727991.00 40184841.00 A 143761.85 143761.85 0 0 0 65816866.00 40152591.00 L 65829991.00 40139091.00 L 65852116.00 40108341.00 L 65865616.00 40076466.00 L 65874991.00 40032216.00 L 65876866.00 39980466.00 L 65870116.00 39931341.00 L 65862616.00 39906216.00 L 65846116.00 39870966.00 L 65830366.00 39849591.00 L 65804866.00 39827091.00 L 65786116.00 39817341.00 L 65759491.00 39808341.00 L 65722366.00 39803091.00 L 65559241.00 39801966.00 L 65559241.00 40186341.00 L 65727991.00 40184841.00  zM 65610241.00 40140966.00 L 65610241.00 39847341.00 L 65713741.00 39848091.00 L 65751616.00 39854091.00 L 65775241.00 39865716.00 L 65792491.00 39881466.00 L 65810491.00 39911841.00 L 65817991.00 39934716.00 L 65824366.00 39981216.00 L 65823241.00 40023966.00 L 65814241.00 40068591.00 L 65804491.00 40089591.00 L 65784241.00 40114341.00 L 65766616.00 40127841.00 L 65754241.00 40133841.00 L 65720116.00 40139841.00 L 65610241.00 40140966.00  z"/>
<path id="N" d="M 46663086.00 36684841.00 A 143761.85 143761.85 0 0 0 46751961.00 36652591.00 L 46765086.00 36639091.00 L 46787211.00 36608341.00 L 46800711.00 36576466.00 L 46810086.00 36532216.00 L 46811961.00 36480466.00 L 46805211.00 36431341.00 L 46797711.00 36406216.00 L 46781211.00 36370966.00 L 46765461.00 36349591.00 L 46739961.00 36327091.00 L 46721211.00 36317341.00 L 46694586.00 36308341.00 L 46657461.00 36303091.00 L 46494336.00 36301966.00 L 46494336.00 36686341.00 L 46663086.00 36684841.00  zM 46545336.00 36640966.00 L 46545336.00 36347341.00 L 46648836.00 36348091.00 L 46686711.00 36354091.00 L 46710336.00 36365716.00 L 46727586.00 36381466.00 L 46745586.00 36411841.00 L 46753086.00 36434716.00 L 46759461.00 36481216.00 L 46758336.00 36523966.00 L 46749336.00 36568591.00 L 46739586.00 36589591.00 L 46719336.00 36614341.00 L 46701711.00 36627841.00 L 46689336.00 36633841.00 L 46655211.00 36639841.00 L 46545336.00 36640966.00  z"/>
<path id="N" d="M 62735338.00 44164841.00 A 143761.85 143761.85 0 0 0 62824213.00 44132591.00 L 62837338.00 44119091.00 L 62859463.00 44088341.00 L 62872963.00 44056466.00 L 62882338.00 44012216.00 L 62884213.00 43960466.00 L 62877463.00 43911341.00 L 62869963.00 43886216.00 L 62853463.00 43850966.00 L 62837713.00 43829591.00 L 62812213.00 43807091.00 L 62793463.00 43797341.00 L 62766838.00 43788341.00 L 62729713.00 43783091.00 L 62566588.00 43781966.00 L 62566588.00 44166341.00 L 62735338.00 44164841.00  zM 62617588.00 44120966.00 L 62617588.00 43827341.00 L 62721088.00 43828091.00 L 62758963.00 43834091.00 L 62782588.00 43845716.00 L 62799838.00 43861466.00 L 62817838.00 43891841.00 L 62825338.00 43914716.00 L 62831713.00 43961216.00 L 62830588.00 44003966.00 L 62821588.00 44048591.00 L 62811838.00 44069591.00 L 62791588.00 44094341.00 L 62773963.00 44107841.00 L 62761588.00 44113841.00 L 62727463.00 44119841.00 L 62617588.00 44120966.00  z"/>
<path id="N" d="M 46939401.00 53716778.00 L 46937151.00 53677028.00 L 46928526.00 53632028.00 L 46920276.00 53613278.00 L 46900776.00 53587403.00 L 46878276.00 53569403.00 L 46848651.00 53557403.00 L 46808901.00 53549528.00 L 46770276.00 53549903.00 L 46729026.00 53556653.00 L 46700151.00 53567528.00 L 46685526.00 53577653.00 A 114095.41 114095.41 0 0 0 46643151.00 53653028.00 L 46637901.00 53695778.00 L 46637151.00 53939528.00 L 46688151.00 53939528.00 L 46688151.00 53717153.00 L 46690401.00 53677403.00 L 46695651.00 53648528.00 L 46704651.00 53630153.00 L 46721151.00 53612528.00 L 46733151.00 53605403.00 L 46762026.00 53596403.00 L 46789776.00 53594528.00 L 46828776.00 53600528.00 L 46848276.00 53608028.00 L 46864401.00 53619653.00 L 46876401.00 53641403.00 L 46884651.00 53671778.00 L 46888026.00 53704403.00 L 46888401.00 53939528.00 L 46939401.00 53939528.00 L 46939401.00 53716778.00  z"/>
<path id="N" d="M 49108125.00 49589374.80 L 49133750.00 49578124.80 L 49159375.00 49561249.80 L 49175000.00 49544999.81 L 49188125.01 49520624.81 L 49198750.01 49486874.81 L 49202500.01 49445624.81 L 49203125.04 49124999.81 L 49124375.04 49124999.80 L 49124375.02 49403749.80 L 49120000.01 49466249.80 L 49108750.01 49491874.80 L 49096875.01 49508124.80 L 49079375.01 49520624.80 A 111862.15 111862.15 0 0 1 48986875.01 49524999.79 L 48963750.01 49514374.79 L 48946250.01 49501249.79 L 48925000.01 49476249.78 L 48916250.01 49455624.78 L 48910625.01 49429374.78 L 48906875.02 49394999.78 L 48906250.04 49124999.78 L 48827500.04 49124999.78 L 48827500.00 49589374.78 L 48898125.00 49589374.78 L 48898750.01 49522499.78 L 48913750.00 49539999.78 L 48936875.00 49560624.78 L 48970000.00 49581874.79 L 49011875.00 49596874.79 L 49028125.00 49599374.79 L 49070000.00 49598124.80 L 49108125.00 49589374.80  z"/>
<path id="N" d="M 49730000.04 49186249.85 L 49799375.04 49186249.86 L 49799375.04 49124999.86 L 49730000.04 49124999.85 L 49730000.04 49075624.85 L 49728750.05 49049999.85 L 49724375.05 49016249.85 L 49716875.05 48996249.85 L 49700000.05 48973124.85 L 49681875.06 48957499.85 L 49661250.06 48947499.85 L 49620000.06 48938749.84 L 49601875.06 48938124.84 L 49568750.06 48939999.84 L 49528125.06 48946249.84 L 49540000.05 49014374.84 L 49544375.05 49013749.84 L 49586250.05 49009999.84 L 49614375.05 49013749.84 L 49630625.05 49020624.85 L 49637500.05 49026249.85 L 49644375.05 49038124.85 L 49651250.05 49068124.85 L 49651875.04 49124999.85 L 49561250.04 49124999.84 L 49561250.04 49186249.84 L 49651250.04 49186249.85 L 49651250.00 49589374.85 L 49730000.00 49589374.85 L 49730000.04 49186249.85  z"/>
<path id="N" d="M 55032338.00 43867028.00 L 55030838.00 43840028.00 L 55024463.00 43803653.00 L 55016963.00 43786403.00 L 54999713.00 43764653.00 L 54983213.00 43752653.00 L 54957713.00 43743278.00 L 54923963.00 43738778.00 L 54906713.00 43740278.00 L 54876338.00 43748153.00 L 54857588.00 43758278.00 L 54843713.00 43770653.00 L 54830588.00 43795028.00 L 54822713.00 43824653.00 L 54820838.00 43853903.00 L 54866588.00 43859903.00 L 54871088.00 43826528.00 L 54877838.00 43807403.00 L 54885338.00 43797653.00 L 54906338.00 43786778.00 L 54923588.00 43784153.00 L 54940088.00 43786403.00 L 54957338.00 43793153.00 L 54967463.00 43802528.00 L 54976088.00 43817153.00 L 54980588.00 43843403.00 L 54981338.00 44129528.00 L 55032338.00 44129528.00 L 55032338.00 43867028.00  z"/>
<path id="N" d="M 64532713.00 43867778.00 L 64531213.00 43840778.00 L 64524838.00 43804403.00 L 64517338.00 43787153.00 L 64500088.00 43765403.00 L 64483588.00 43753403.00 L 64458088.00 43744028.00 L 64424338.00 43739528.00 L 64407088.00 43741028.00 L 64376713.00 43748903.00 L 64357963.00 43759028.00 L 64344088.00 43771403.00 L 64330963.00 43795778.00 L 64323088.00 43825403.00 L 64321213.00 43854653.00 L 64366963.00 43860653.00 L 64371463.00 43827278.00 L 64378213.00 43808153.00 L 64385713.00 43798403.00 L 64406713.00 43787528.00 L 64423963.00 43784903.00 L 64440463.00 43787153.00 L 64457713.00 43793903.00 L 64467838.00 43803278.00 L 64476463.00 43817903.00 L 64480963.00 43844153.00 L 64481713.00 44130278.00 L 64532713.00 44130278.00 L 64532713.00 43867778.00  z"/>
<path id="N" d="M 48428125.00 49589999.74 L 48448750.00 49582499.74 L 48467500.00 49567499.74 L 48481875.00 49546874.74 L 48485000.00 49536249.75 L 48490625.01 49488749.75 L 48491250.04 49186249.75 L 48549375.04 49186249.75 L 48549375.04 49124999.75 L 48491250.04 49124999.75 L 48491250.05 49010624.75 L 48412500.05 48963124.74 L 48412500.04 49124999.74 L 48333750.04 49124999.73 L 48333750.04 49186249.73 L 48412500.04 49186249.74 L 48412500.01 49459999.74 L 48410000.01 49496874.74 L 48405625.01 49507499.74 L 48394375.01 49516874.74 L 48374375.01 49522499.74 L 48333750.01 49519374.73 L 48322500.00 49588749.73 L 48361875.00 49594374.73 L 48428125.00 49589999.74  z"/>
<path id="N" d="M 49500625.04 49124999.83 L 49430000.04 49124999.83 L 49429375.03 49194999.83 L 49406250.04 49158124.83 L 49384375.04 49133749.82 L 49365000.04 49122499.82 L 49339375.04 49114999.82 L 49314375.04 49115624.82 L 49278125.04 49124999.81 L 49248125.04 49139999.81 L 49276250.03 49213124.81 L 49281250.03 49210624.81 L 49312500.03 49198124.82 L 49333750.03 49195624.82 L 49349375.03 49197499.82 L 49371875.03 49206249.82 L 49386875.03 49217499.82 L 49401250.03 49236249.83 L 49409375.03 49254999.83 L 49415625.03 49281249.83 L 49421250.02 49328124.83 L 49421875.00 49589374.83 L 49500625.00 49589374.83 L 49500625.04 49124999.83  z"/>
<path id="N" d="M 58260054.00 46914385.00 L 58272535.00 46884252.00 L 58272535.00 44915748.00 L 58260054.00 44885615.00 L 58229921.00 44873134.00 L 56970079.00 44873134.00 L 56939946.00 44885615.00 L 56927465.00 44915748.00 L 56927465.00 46884252.00 L 56939946.00 46914385.00 L 56970079.00 46926866.00 L 58229921.00 46926866.00 L 58260054.00 46914385.00  zM 58187307.00 46841638.00 L 57202450.80 46841638.00 L 57192594.00 46792083.00 L 57140384.00 46713947.00 L 57062248.00 46661737.00 L 57012693.00 46651880.20 L 57012693.00 44958362.00 L 58187307.00 44958362.00 L 58187307.00 46841638.00  z"/>
<path id="N" d="M 61122599.00 43372599.00 L 61131960.00 43350000.00 L 61131960.00 43300000.00 L 61122599.00 43277401.00 L 61100000.00 43268040.00 L 60831960.00 43268040.00 L 60831960.00 41481960.00 L 60934252.00 41481960.00 L 60956851.00 41472599.00 L 60966212.00 41450000.00 L 60956851.00 41427401.00 L 60934252.00 41418040.00 L 60800000.00 41418040.00 L 60777401.00 41427401.00 L 60768040.00 41450000.00 L 60768040.00 43350000.00 L 60777401.00 43372599.00 L 60800000.00 43381960.00 L 61100000.00 43381960.00 L 61122599.00 43372599.00  z"/>
<path id="N" d="M 61622599.00 43372599.00 L 61631960.00 43350000.00 L 61631960.00 41450000.00 L 61622599.00 41427401.00 L 61600000.00 41418040.00 L 61465748.00 41418040.00 L 61443149.00 41427401.00 L 61433788.00 41450000.00 L 61443149.00 41472599.00 L 61465748.00 41481960.00 L 61568040.00 41481960.00 L 61568040.00 43268040.00 L 61300000.00 43268040.00 L 61277401.00 43277401.00 L 61268040.00 43300000.00 L 61268040.00 43350000.00 L 61277401.00 43372599.00 L 61300000.00 43381960.00 L 61600000.00 43381960.00 L 61622599.00 43372599.00  z"/>
<path id="N" d="M 62622599.00 43372599.00 L 62631960.00 43350000.00 L 62631960.00 43300000.00 L 62622599.00 43277401.00 L 62600000.00 43268040.00 L 62331960.00 43268040.00 L 62331960.00 41481960.00 L 62434252.00 41481960.00 L 62456851.00 41472599.00 L 62466212.00 41450000.00 L 62456851.00 41427401.00 L 62434252.00 41418040.00 L 62300000.00 41418040.00 L 62277401.00 41427401.00 L 62268040.00 41450000.00 L 62268040.00 43350000.00 L 62277401.00 43372599.00 L 62300000.00 43381960.00 L 62600000.00 43381960.00 L 62622599.00 43372599.00  z"/>
<path id="N" d="M 63122599.00 43372599.00 L 63131960.00 43350000.00 L 63131960.00 41450000.00 L 63122599.00 41427401.00 L 63100000.00 41418040.00 L 62965748.00 41418040.00 L 62943149.00 41427401.00 L 62933788.00 41450000.00 L 62943149.00 41472599.00 L 62965748.00 41481960.00 L 63068040.00 41481960.00 L 63068040.00 43268040.00 L 62800000.00 43268040.00 L 62777401.00 43277401.00 L 62768040.00 43300000.00 L 62768040.00 43350000.00 L 62777401.00 43372599.00 L 62800000.00 43381960.00 L 63100000.00 43381960.00 L 63122599.00 43372599.00  z"/>
<path id="N" d="M 50364213.00 44055091.00 L 50358213.00 44048341.00 L 50318088.00 43994716.00 L 50288088.00 43944841.00 L 50252838.00 43867966.00 L 50235963.00 43817716.00 L 50225463.00 43771216.00 L 50217963.00 43712716.00 L 50169588.00 43713091.00 L 50174088.00 43759216.00 L 50187963.00 43824841.00 L 50210463.00 43890841.00 L 50236338.00 43946716.00 L 50277963.00 44013841.00 L 50303838.00 44046841.00 L 50115963.00 44046841.00 L 50115963.00 44092216.00 L 50364588.00 44092216.00 L 50364213.00 44055091.00  z"/>
<path id="N" d="M 64848088.00 44088278.00 L 64842088.00 44081528.00 L 64801963.00 44027903.00 L 64771963.00 43978028.00 L 64736713.00 43901153.00 L 64719838.00 43850903.00 L 64709338.00 43804403.00 L 64701838.00 43745903.00 L 64653463.00 43746278.00 L 64657963.00 43792403.00 L 64671838.00 43858028.00 L 64694338.00 43924028.00 L 64720213.00 43979903.00 L 64761838.00 44047028.00 L 64787713.00 44080028.00 L 64599838.00 44080028.00 L 64599838.00 44125403.00 L 64848463.00 44125403.00 L 64848088.00 44088278.00  z"/>
<path id="N" d="M 43270290.00 44989976.00 L 43282771.00 44959843.00 L 43282771.00 42450000.00 L 43270290.00 42419867.00 L 43240157.00 42407386.00 L 40759843.00 42407386.00 L 40729710.00 42419867.00 L 40717229.00 42450000.00 L 40717229.00 44959843.00 L 40729710.00 44989976.00 L 40759843.00 45002457.00 L 43240157.00 45002457.00 L 43270290.00 44989976.00  zM 43197543.00 44917229.00 L 40802457.00 44917229.00 L 40802457.00 42492614.00 L 43197543.00 42492614.00 L 43197543.00 44917229.00  z"/>
<path id="N" d="M 66391550.00 43315960.00 L 66404031.00 43285827.00 L 66404031.00 41514173.00 L 66391550.00 41484040.00 L 66361417.00 41471559.00 L 64038583.00 41471559.00 L 64008450.00 41484040.00 L 63995969.00 41514173.00 L 63995969.00 43285827.00 L 64008450.00 43315960.00 L 64038583.00 43328441.00 L 66361417.00 43328441.00 L 66391550.00 43315960.00  zM 66318803.00 43243213.00 L 64081197.00 43243213.00 L 64081197.00 41556787.00 L 66318803.00 41556787.00 L 66318803.00 43243213.00  z"/>
<path id="N" d="M 56891550.00 43315960.00 L 56904031.00 43285827.00 L 56904031.00 41514173.00 L 56891550.00 41484040.00 L 56861417.00 41471559.00 L 54538583.00 41471559.00 L 54508450.00 41484040.00 L 54495969.00 41514173.00 L 54495969.00 43285827.00 L 54508450.00 43315960.00 L 54538583.00 43328441.00 L 56861417.00 43328441.00 L 56891550.00 43315960.00  zM 56818803.00 43243213.00 L 54581197.00 43243213.00 L 54581197.00 41556787.00 L 56818803.00 41556787.00 L 56818803.00 43243213.00  z"/>
<path id="N" d="M 43270290.00 48889976.00 L 43282771.00 48859843.00 L 43282771.00 46350000.00 L 43270290.00 46319867.00 L 43240157.00 46307386.00 L 40759843.00 46307386.00 L 40729710.00 46319867.00 L 40717229.00 46350000.00 L 40717229.00 48859843.00 L 40729710.00 48889976.00 L 40759843.00 48902457.00 L 43240157.00 48902457.00 L 43270290.00 48889976.00  zM 43197543.00 48817229.00 L 40802457.00 48817229.00 L 40802457.00 46392614.00 L 43197543.00 46392614.00 L 43197543.00 48817229.00  z"/>
<path id="N" d="M 53454120.00 53100000.00 L 53454120.00 46600000.00 L 53438269.00 46561731.00 L 53400000.00 46545880.00 L 46400000.00 46545880.00 L 46361731.00 46561731.00 L 46345880.00 46600000.00 L 46345880.00 53100000.00 L 46361731.00 53138269.00 L 46400000.00 53154120.00 L 53400000.00 53154120.00 L 53438269.00 53138269.00 L 53454120.00 53100000.00  zM 53345880.00 53045880.00 L 46454120.00 53045880.00 L 46454120.00 46654120.00 L 53345880.00 46654120.00 L 53345880.00 53045880.00  z"/>
<path id="N" d="M 43270290.00 41089976.00 L 43282771.00 41059843.00 L 43282771.00 38550000.00 L 43270290.00 38519867.00 L 43240157.00 38507386.00 L 40759843.00 38507386.00 L 40729710.00 38519867.00 L 40717229.00 38550000.00 L 40717229.00 41059843.00 L 40729710.00 41089976.00 L 40759843.00 41102457.00 L 43240157.00 41102457.00 L 43270290.00 41089976.00  zM 43197543.00 41017229.00 L 40802457.00 41017229.00 L 40802457.00 38592614.00 L 43197543.00 38592614.00 L 43197543.00 41017229.00  z"/>
<path id="N" d="M 56537006.47 46984644.47 m -100354.75 0 a 100354.75 100354.75 0 1 1 200709.51 0a 100354.75 100354.75 0 1 1 -200709.51 0"/>
<path id="N" d="M 53712088.00 43847716.00 L 53763838.00 43847716.00 L 53763838.00 43804591.00 L 53712088.00 43804591.00 L 53712088.00 43712716.00 L 53664838.00 43712716.00 L 53664838.00 43804591.00 L 53497963.00 43804591.00 L 53497963.00 43847716.00 L 53673463.00 44097091.00 L 53712088.00 44097091.00 L 53712088.00 43847716.00  zM 53664838.00 44021341.00 L 53544088.00 43847716.00 L 53664838.00 43847716.00 L 53664838.00 44021341.00  z"/>
<path id="N" d="M 44765124.98 44542625.10 L 44816874.98 44542625.11 L 44816874.98 44499500.11 L 44765124.98 44499500.10 L 44765125.00 44407625.10 L 44717875.00 44407625.09 L 44717874.98 44499500.09 L 44550999.98 44499500.06 L 44550999.98 44542625.06 L 44726499.93 44792000.10 L 44765124.93 44792000.10 L 44765124.98 44542625.10  zM 44717874.95 44716250.09 L 44597124.98 44542625.07 L 44717874.98 44542625.09 L 44717874.95 44716250.09  z"/>
<path id="N" d="M 51155000.06 48948749.98 L 51063125.06 48948749.97 L 50801250.00 49589374.95 L 50897500.00 49589374.96 L 50971875.02 49395624.96 L 51240625.02 49395624.99 L 51310625.00 49589374.99 L 51400000.00 49589375.00 L 51155000.06 48948749.98  zM 51216875.02 49326874.98 L 50998125.02 49326874.96 L 51065625.04 49149374.97 L 51111250.05 49016874.97 L 51120000.05 49054374.98 L 51145625.04 49138749.98 L 51216875.02 49326874.98  z"/>
<path id="N" d="M 51400000.06 49948750.00 L 51272500.06 49948749.99 L 51120625.02 50403124.98 L 51090000.01 50496874.97 L 50901875.06 49948749.96 L 50787500.06 49948749.95 L 50787500.00 50589374.95 L 50869375.00 50589374.95 L 50869375.05 50053124.95 L 51056250.00 50589374.97 L 51132500.00 50589374.98 L 51318125.05 50043749.99 L 51318125.00 50589374.99 L 51400000.00 50589375.00 L 51400000.06 49948750.00  z"/>
<path id="N" d="M 39647471.98 39214433.00 L 39347846.98 39213682.99 L 39353096.98 39207682.99 L 39380471.98 39168307.99 L 39403721.98 39120307.99 L 39357971.98 39120682.99 L 39339221.98 39154432.99 L 39313346.98 39189307.99 L 39288971.98 39212557.98 L 39261596.98 39230932.98 L 39261596.98 39261682.98 L 39647471.98 39261683.00 L 39647471.98 39214433.00  z"/>
<path id="N" d="M 47040711.00 36301966.00 L 46993461.00 36301966.00 L 46992711.00 36601591.00 L 46986711.00 36596341.00 L 46947336.00 36568966.00 L 46899336.00 36545716.00 L 46899711.00 36591466.00 L 46933461.00 36610216.00 L 46968336.00 36636091.00 L 46991586.00 36660466.00 L 47009961.00 36687841.00 L 47040711.00 36687841.00 L 47040711.00 36301966.00  z"/>
<path id="N" d="M 59927495.00 43711966.00 L 59880245.00 43711966.00 L 59879495.00 44011591.00 L 59873495.00 44006341.00 L 59834120.00 43978966.00 L 59786120.00 43955716.00 L 59786495.00 44001466.00 L 59820245.00 44020216.00 L 59855120.00 44046091.00 L 59878370.00 44070466.00 L 59896745.00 44097841.00 L 59927495.00 44097841.00 L 59927495.00 43711966.00  z"/>
<path id="N" d="M 61548058.00 43781966.00 L 61500808.00 43781966.00 L 61500058.00 44081591.00 L 61494058.00 44076341.00 L 61454683.00 44048966.00 L 61406683.00 44025716.00 L 61407058.00 44071466.00 L 61440808.00 44090216.00 L 61475683.00 44116091.00 L 61498933.00 44140466.00 L 61517308.00 44167841.00 L 61548058.00 44167841.00 L 61548058.00 43781966.00  z"/>
<path id="N" d="M 56932058.00 47504153.00 L 56884808.00 47504153.00 L 56884058.00 47803778.00 L 56878058.00 47798528.00 L 56838683.00 47771153.00 L 56790683.00 47747903.00 L 56791058.00 47793653.00 L 56824808.00 47812403.00 L 56859683.00 47838278.00 L 56882933.00 47862653.00 L 56901308.00 47890028.00 L 56932058.00 47890028.00 L 56932058.00 47504153.00  z"/>
<path id="N" d="M 65491179.00 48144153.00 L 65282679.00 48144153.00 L 65282679.00 48025278.00 L 65463054.00 48025278.00 L 65463054.00 47979903.00 L 65282679.00 47979903.00 L 65282679.00 47805153.00 L 65231679.00 47805153.00 L 65231679.00 48189528.00 L 65491179.00 48189528.00 L 65491179.00 48144153.00  z"/>
<path id="N" d="M 65493241.00 40140966.00 L 65284741.00 40140966.00 L 65284741.00 40022091.00 L 65465116.00 40022091.00 L 65465116.00 39976716.00 L 65284741.00 39976716.00 L 65284741.00 39801966.00 L 65233741.00 39801966.00 L 65233741.00 40186341.00 L 65493241.00 40186341.00 L 65493241.00 40140966.00  z"/>
<path id="N" d="M 46428336.00 36640966.00 L 46219836.00 36640966.00 L 46219836.00 36522091.00 L 46400211.00 36522091.00 L 46400211.00 36476716.00 L 46219836.00 36476716.00 L 46219836.00 36301966.00 L 46168836.00 36301966.00 L 46168836.00 36686341.00 L 46428336.00 36686341.00 L 46428336.00 36640966.00  z"/>
<path id="N" d="M 49411875.06 49948749.83 L 49326875.06 49948749.82 L 49326875.01 50513749.82 L 49011875.01 50513749.79 L 49011875.00 50589374.79 L 49411875.00 50589374.83 L 49411875.06 49948749.83  z"/>
<path id="N" d="M 48703750.06 48948749.76 L 48625000.06 48948749.76 L 48625000.05 49039374.76 L 48703750.05 49039374.76 L 48703750.06 48948749.76  z"/>
<path id="N" d="M 48703750.04 49124999.76 L 48625000.04 49124999.76 L 48625000.00 49589374.76 L 48703750.00 49589374.76 L 48703750.04 49124999.76  z"/>
</g>
</svg>
