<svg width="68.55000006mm" height="53.37847338mm" viewBox="0 0 26988189 21015147"  version="1.1" xmlns="http://www.w3.org/2000/svg" xmlns:xlink="http://www.w3.org/1999/xlink">
<desc>
Origin 39200000 34500000 Bound 39200000 34500000 26988189 21015147
</desc>
<g fill-rule="evenodd" fill="rgb(128, 128, 0)" stroke="black" stroke-width="1" transform="translate(0, 21015147) scale(1, -1) translate(-39200000, -34500000)">
<path id="N" d="M 56141944.00 55030133.00 L 56154425.00 55000000.00 L 56154425.00 54698788.00 L 56183596.00 54695413.00 L 56210596.00 54686413.00 L 56232346.00 54673288.00 L 56245846.00 54656038.00 L 56255971.00 54630538.00 L 56260846.00 54603913.00 L 56258971.01 54572038.00 L 56251846.01 54546163.00 L 56241721.01 54527413.00 L 56228596.01 54513538.00 L 56209846.01 54500413.00 L 56184346.01 54492163.00 L 56154425.00 54488418.26 L 56154425.00 54422965.62 L 56177971.01 54417913.00 L 56204971.01 54405913.00 L 56229721.01 54386788.00 L 56245096.01 54365038.00 L 56255971.02 54337288.00 A 133123.21 133123.21 0 0 0 56252971.02 54254788.00 L 56243596.02 54233788.00 L 56227846.02 54209788.00 L 56205346.02 54191413.00 L 56183971.02 54180538.00 L 56154425.00 54172732.84 L 56154425.00 54000000.00 L 56141944.00 53969867.00 L 56111811.00 53957386.00 L 46111811.00 53957386.00 L 46081678.00 53969867.00 L 46069197.00 54000000.00 L 46069197.00 55000000.00 L 46081678.00 55030133.00 L 46111811.00 55042614.00 L 56111811.00 55042614.00 L 56141944.00 55030133.00  zM 56154425.00 54374112.00 L 56154721.02 54222913.00 A 82830.28 82830.28 0 0 1 56206846.02 54253663.00 L 56216596.02 54272413.00 A 72284.17 72284.17 0 0 1 56213221.02 54335413.00 L 56204596.02 54348538.00 L 56188096.01 54360913.00 L 56156221.01 54373663.00 L 56154425.00 54374112.00  zM 56069197.00 54957386.00 L 46154425.00 54957386.00 L 46154425.00 54042614.00 L 56069197.00 54042614.00 L 56069197.00 54200110.35 L 56057971.02 54215787.99 L 56046721.02 54243537.99 L 56036596.02 54226287.99 L 56017846.02 54206412.99 A 81789.59 81789.59 0 0 0 55950346.02 54192537.99 A 94670.64 94670.64 0 0 0 55886221.02 54238287.98 A 129368.17 129368.17 0 0 0 55879471.02 54353037.98 L 55892971.01 54376287.98 L 55911721.01 54394287.99 L 55936096.01 54407787.99 L 55968721.01 54418287.99 L 55976971.01 54371037.99 L 55954471.01 54365412.99 L 55934971.02 54355662.99 L 55922221.02 54344412.99 A 70409.30 70409.30 0 0 1 55919221.02 54263412.99 L 55928221.02 54253287.99 L 55945846.02 54242787.99 L 55963471.02 54239037.99 A 60350.43 60350.43 0 0 1 56025346.02 54281787.99 L 56031346.02 54306537.99 L 56031346.02 54324912.99 L 56069197.00 54329730.39 L 56069197.00 54487287.99 L 55870471.01 54487287.98 L 55870471.01 54538287.98 L 56069197.00 54538287.99 L 56069197.00 54957386.00  zM 56154425.00 54651899.83 L 56154425.00 54538857.08 L 56171596.01 54540913.00 L 56188846.01 54546163.00 L 56200846.01 54555538.00 L 56210221.01 54568288.00 L 56215846.00 54592663.00 L 56213221.00 54613288.00 L 56207596.00 54626038.00 L 56199721.00 54636913.00 L 56183596.00 54645538.00 L 56158846.00 54651163.00 L 56154425.00 54651899.83  z"/>
<path id="N" d="M 58254846.02 35173598.00 L 58209471.02 35173598.00 L 58209471.01 35362223.00 L 58183971.02 35342348.00 L 58101096.02 35248222.99 L 58059096.02 35207347.99 L 58029471.02 35187847.99 L 58004721.02 35178097.99 L 57979596.02 35173972.99 L 57951846.02 35176972.99 L 57925971.02 35187097.99 L 57902721.02 35203222.98 L 57889596.02 35219347.98 L 57879096.02 35240722.98 L 57870471.02 35274847.98 A 146503.41 146503.41 0 0 0 57883221.01 35358097.98 L 57896346.01 35379847.98 L 57915471.01 35396722.99 L 57942846.01 35409847.99 L 57979971.01 35418472.99 L 57984846.01 35370097.99 L 57972096.01 35369347.99 L 57951096.01 35363722.99 L 57934221.02 35354347.99 L 57921846.02 35341597.99 L 57912846.02 35323597.99 L 57907971.02 35295097.98 L 57910971.02 35273347.98 L 57917721.02 35256847.99 L 57931221.02 35238847.99 L 57950721.02 35227222.99 A 66400.73 66400.73 0 0 1 58004346.02 35229472.99 L 58031346.02 35244847.99 L 58070346.02 35281222.99 L 58146096.01 35366723.00 L 58180596.01 35398598.00 L 58206096.01 35414723.00 L 58228221.01 35424098.00 L 58254846.01 35427473.00 L 58254846.02 35173598.00  z"/>
<path id="N" d="M 49183597.00 35758255.00 L 49210597.00 35749255.00 L 49232347.00 35736130.00 L 49245847.00 35718880.00 L 49255972.00 35693380.00 L 49260847.00 35666755.00 L 49258972.01 35634880.00 L 49251847.01 35609005.00 L 49241722.01 35590255.00 L 49228597.01 35576380.00 L 49209847.01 35563255.00 L 49184347.01 35555005.00 L 49149097.01 35550880.00 L 48870472.01 35550129.98 L 48870472.01 35601129.98 L 49135222.01 35601129.99 L 49171597.01 35603755.00 L 49188847.01 35609005.00 L 49200847.01 35618380.00 L 49210222.01 35631130.00 L 49215847.00 35655505.00 L 49213222.00 35676130.00 L 49204972.00 35693755.00 L 49196347.00 35702380.00 L 49173472.00 35711380.00 L 49139722.00 35715879.99 L 49146097.00 35761630.00 L 49183597.00 35758255.00  z"/>
<path id="N" d="M 45594656.00 54694662.00 L 45621656.00 54685662.00 L 45643406.00 54672537.00 L 45656906.00 54655287.00 L 45667031.00 54629787.00 L 45671906.00 54603162.00 L 45670031.01 54571287.00 L 45662906.01 54545412.00 L 45652781.01 54526662.00 L 45639656.01 54512787.00 L 45620906.01 54499662.00 L 45595406.01 54491412.00 L 45560156.01 54487287.00 L 45281531.01 54486536.98 L 45281531.01 54537536.98 L 45546281.01 54537536.99 L 45582656.01 54540162.00 L 45599906.01 54545412.00 L 45611906.01 54554787.00 L 45621281.01 54567537.00 L 45626906.00 54591912.00 L 45624281.00 54612537.00 L 45616031.00 54630162.00 L 45607406.00 54638787.00 L 45584531.00 54647787.00 L 45550781.00 54652286.99 L 45557156.00 54698037.00 L 45594656.00 54694662.00  z"/>
<path id="N" d="M 58183596.00 35693348.00 L 58210596.00 35684348.00 L 58232346.00 35671223.00 L 58245846.00 35653973.00 L 58255971.00 35628473.00 L 58260846.00 35601848.00 L 58258971.01 35569973.00 L 58251846.01 35544098.00 L 58241721.01 35525348.00 L 58228596.01 35511473.00 L 58209846.01 35498348.00 L 58184346.01 35490098.00 L 58149096.01 35485973.00 L 57870471.01 35485222.98 L 57870471.01 35536222.98 L 58135221.01 35536222.99 L 58171596.01 35538848.00 L 58188846.01 35544098.00 L 58200846.01 35553473.00 L 58210221.01 35566223.00 L 58215846.00 35590598.00 L 58213221.00 35611223.00 L 58204971.00 35628848.00 L 58196346.00 35637473.00 L 58173471.00 35646473.00 L 58139721.00 35650972.99 L 58146096.00 35696723.00 L 58183596.00 35693348.00  z"/>
<path id="N" d="M 64730133.00 55030133.00 L 64742614.00 55000000.00 L 64742614.00 54000000.00 L 64730133.00 53969867.00 L 64700000.00 53957386.00 L 56700000.00 53957386.00 L 56669867.00 53969867.00 L 56657386.00 54000000.00 L 56657386.00 55000000.00 L 56669867.00 55030133.00 L 56700000.00 55042614.00 L 64700000.00 55042614.00 L 64730133.00 55030133.00  zM 64657386.00 54957386.00 L 56742614.00 54957386.00 L 56742614.00 54042614.00 L 64657386.00 54042614.00 L 64657386.00 54957386.00  z"/>
<path id="N" d="M 64730133.00 36030133.00 L 64742614.00 36000000.00 L 64742614.00 35000000.00 L 64730133.00 34969867.00 L 64700000.00 34957386.00 L 58700000.00 34957386.00 L 58669867.00 34969867.00 L 58657386.00 35000000.00 L 58657386.00 36000000.00 L 58669867.00 36030133.00 L 58700000.00 36042614.00 L 64700000.00 36042614.00 L 64730133.00 36030133.00  zM 64657386.00 35957386.00 L 58742614.00 35957386.00 L 58742614.00 35042614.00 L 64657386.00 35042614.00 L 64657386.00 35957386.00  z"/>
<path id="N" d="M 57730133.00 36030133.00 L 57742614.00 36000000.00 L 57742614.00 35000000.00 L 57730133.00 34969867.00 L 57700000.00 34957386.00 L 49700000.00 34957386.00 L 49669867.00 34969867.00 L 49657386.00 35000000.00 L 49657386.00 36000000.00 L 49669867.00 36030133.00 L 49700000.00 36042614.00 L 57700000.00 36042614.00 L 57730133.00 36030133.00  zM 57657386.00 35957386.00 L 49742614.00 35957386.00 L 49742614.00 35042614.00 L 57657386.00 35042614.00 L 57657386.00 35957386.00  z"/>
<path id="N" d="M 45574031.02 54271287.00 L 45665906.02 54271287.00 L 45665906.02 54224037.00 L 45574031.02 54224037.00 L 45574031.02 54172287.00 L 45530906.02 54172286.99 L 45530906.02 54224036.99 L 45281531.02 54224036.98 L 45281531.02 54262661.98 L 45530906.01 54438161.99 L 45574031.01 54438162.00 L 45574031.02 54271287.00  zM 45530906.01 54392036.99 L 45357281.02 54271286.99 L 45530906.02 54271286.99 L 45530906.01 54392036.99  z"/>
<path id="N" d="M 49003972.01 35433129.99 L 48981097.02 35391129.99 L 48954472.02 35355879.99 L 49254847.02 35355880.00 L 49254847.02 35308630.00 L 48868972.02 35308629.98 L 48868972.02 35339379.98 L 48887722.02 35351004.98 L 48913597.02 35373879.99 L 48938722.02 35404254.99 L 48965722.01 35450004.99 L 49011097.01 35450004.99 L 49003972.01 35433129.99  z"/>
</g>
</svg>
