<svg width="68.55000006mm" height="53.37847338mm" viewBox="0 0 26988189 21015147"  version="1.1" xmlns="http://www.w3.org/2000/svg" xmlns:xlink="http://www.w3.org/1999/xlink">
<desc>
Origin 39200000 34500000 Bound 39200000 34500000 26988189 21015147
</desc>
<g fill-rule="evenodd" fill="rgb(0, 0, 255)" stroke="black" stroke-width="1" transform="translate(0, 21015147) scale(1, -1) translate(-39200000, -34500000)">
<path id="N" d="M 53199997.35 35499993.57 m -297829.90 0 a 297829.90 297829.90 0 1 1 595659.80 0a 297829.90 297829.90 0 1 1 -595659.80 0M 53200000.44 35499998.65 m -180637.35 0 a 180637.35 180637.35 0 1 1 361274.69 0a 180637.35 180637.35 0 1 1 -361274.69 0"/>
<path id="N" d="M 65101574.00 42321260.00 L 64511024.00 42321260.00 L 64511024.00 42911810.00 L 65101574.00 42911810.00 L 65101574.00 42321260.00  zM 64806299.36 42616535.47 m -200706.53 0 a 200706.53 200706.53 0 1 1 401413.05 0a 200706.53 200706.53 0 1 1 -401413.05 0"/>
<path id="N" d="M 61199997.35 54499993.57 m -297829.90 0 a 297829.90 297829.90 0 1 1 595659.80 0a 297829.90 297829.90 0 1 1 -595659.80 0M 61200000.44 54499998.65 m -180637.35 0 a 180637.35 180637.35 0 1 1 361274.69 0a 180637.35 180637.35 0 1 1 -361274.69 0"/>
<path id="N" d="M 65593691.01 42616515.86 m -297844.08 0 a 297844.08 297844.08 0 1 1 595688.15 0a 297844.08 297844.08 0 1 1 -595688.15 0M 65593701.36 42616535.47 m -200706.53 0 a 200706.53 200706.53 0 1 1 401413.05 0a 200706.53 200706.53 0 1 1 -401413.05 0"/>
<path id="N" d="M 52199997.35 35499993.57 m -297829.90 0 a 297829.90 297829.90 0 1 1 595659.80 0a 297829.90 297829.90 0 1 1 -595659.80 0M 52200000.44 35499998.65 m -180637.35 0 a 180637.35 180637.35 0 1 1 361274.69 0a 180637.35 180637.35 0 1 1 -361274.69 0"/>
<path id="N" d="M 51199997.35 35499993.57 m -297829.90 0 a 297829.90 297829.90 0 1 1 595659.80 0a 297829.90 297829.90 0 1 1 -595659.80 0M 51200000.44 35499998.65 m -180637.35 0 a 180637.35 180637.35 0 1 1 361274.69 0a 180637.35 180637.35 0 1 1 -361274.69 0"/>
<path id="N" d="M 48899992.67 47599987.81 m -302603.18 0 a 302603.18 302603.18 0 1 1 605206.36 0a 302603.18 302603.18 0 1 1 -605206.36 0M 48900001.39 47599994.95 m -178433.05 0 a 178433.05 178433.05 0 1 1 356866.10 0a 178433.05 178433.05 0 1 1 -356866.10 0"/>
<path id="N" d="M 49611801.01 54499980.86 m -297844.08 0 a 297844.08 297844.08 0 1 1 595688.15 0a 297844.08 297844.08 0 1 1 -595688.15 0M 49611811.44 54499998.65 m -180637.35 0 a 180637.35 180637.35 0 1 1 361274.69 0a 180637.35 180637.35 0 1 1 -361274.69 0"/>
<path id="N" d="M 56093691.01 42616515.86 m -297844.08 0 a 297844.08 297844.08 0 1 1 595688.15 0a 297844.08 297844.08 0 1 1 -595688.15 0M 56093701.36 42616535.47 m -200706.53 0 a 200706.53 200706.53 0 1 1 401413.05 0a 200706.53 200706.53 0 1 1 -401413.05 0"/>
<path id="N" d="M 62199997.35 54499993.57 m -297829.90 0 a 297829.90 297829.90 0 1 1 595659.80 0a 297829.90 297829.90 0 1 1 -595659.80 0M 62200000.44 54499998.65 m -180637.35 0 a 180637.35 180637.35 0 1 1 361274.69 0a 180637.35 180637.35 0 1 1 -361274.69 0"/>
<path id="N" d="M 59199997.35 54499993.57 m -297829.90 0 a 297829.90 297829.90 0 1 1 595659.80 0a 297829.90 297829.90 0 1 1 -595659.80 0M 59200000.44 54499998.65 m -180637.35 0 a 180637.35 180637.35 0 1 1 361274.69 0a 180637.35 180637.35 0 1 1 -361274.69 0"/>
<path id="N" d="M 63199997.35 54499993.57 m -297829.90 0 a 297829.90 297829.90 0 1 1 595659.80 0a 297829.90 297829.90 0 1 1 -595659.80 0M 63200000.44 54499998.65 m -180637.35 0 a 180637.35 180637.35 0 1 1 361274.69 0a 180637.35 180637.35 0 1 1 -361274.69 0"/>
<path id="N" d="M 50199997.35 35499993.57 m -297829.90 0 a 297829.90 297829.90 0 1 1 595659.80 0a 297829.90 297829.90 0 1 1 -595659.80 0M 50200000.44 35499998.65 m -180637.35 0 a 180637.35 180637.35 0 1 1 361274.69 0a 180637.35 180637.35 0 1 1 -361274.69 0"/>
<path id="N" d="M 54199997.35 35499993.57 m -297829.90 0 a 297829.90 297829.90 0 1 1 595659.80 0a 297829.90 297829.90 0 1 1 -595659.80 0M 54200000.44 35499998.65 m -180637.35 0 a 180637.35 180637.35 0 1 1 361274.69 0a 180637.35 180637.35 0 1 1 -361274.69 0"/>
<path id="N" d="M 55199997.35 35499993.57 m -297829.90 0 a 297829.90 297829.90 0 1 1 595659.80 0a 297829.90 297829.90 0 1 1 -595659.80 0M 55200000.44 35499998.65 m -180637.35 0 a 180637.35 180637.35 0 1 1 361274.69 0a 180637.35 180637.35 0 1 1 -361274.69 0"/>
<path id="N" d="M 61199997.35 35499993.57 m -297829.90 0 a 297829.90 297829.90 0 1 1 595659.80 0a 297829.90 297829.90 0 1 1 -595659.80 0M 61200000.44 35499998.65 m -180637.35 0 a 180637.35 180637.35 0 1 1 361274.69 0a 180637.35 180637.35 0 1 1 -361274.69 0"/>
<path id="N" d="M 60199997.35 35499993.57 m -297829.90 0 a 297829.90 297829.90 0 1 1 595659.80 0a 297829.90 297829.90 0 1 1 -595659.80 0M 60200000.44 35499998.65 m -180637.35 0 a 180637.35 180637.35 0 1 1 361274.69 0a 180637.35 180637.35 0 1 1 -361274.69 0"/>
<path id="N" d="M 53611801.01 54499980.86 m -297844.08 0 a 297844.08 297844.08 0 1 1 595688.15 0a 297844.08 297844.08 0 1 1 -595688.15 0M 53611811.44 54499998.65 m -180637.35 0 a 180637.35 180637.35 0 1 1 361274.69 0a 180637.35 180637.35 0 1 1 -361274.69 0"/>
<path id="N" d="M 62199997.35 35499993.57 m -297829.90 0 a 297829.90 297829.90 0 1 1 595659.80 0a 297829.90 297829.90 0 1 1 -595659.80 0M 62200000.44 35499998.65 m -180637.35 0 a 180637.35 180637.35 0 1 1 361274.69 0a 180637.35 180637.35 0 1 1 -361274.69 0"/>
<path id="N" d="M 56199997.35 35499993.57 m -297829.90 0 a 297829.90 297829.90 0 1 1 595659.80 0a 297829.90 297829.90 0 1 1 -595659.80 0M 56200000.44 35499998.65 m -180637.35 0 a 180637.35 180637.35 0 1 1 361274.69 0a 180637.35 180637.35 0 1 1 -361274.69 0"/>
<path id="N" d="M 51899992.67 47599987.81 m -302603.18 0 a 302603.18 302603.18 0 1 1 605206.36 0a 302603.18 302603.18 0 1 1 -605206.36 0M 51900001.39 47599994.95 m -178433.05 0 a 178433.05 178433.05 0 1 1 356866.10 0a 178433.05 178433.05 0 1 1 -356866.10 0"/>
<path id="N" d="M 47899992.67 47599987.81 m -302603.18 0 a 302603.18 302603.18 0 1 1 605206.36 0a 302603.18 302603.18 0 1 1 -605206.36 0M 47900001.39 47599994.95 m -178433.05 0 a 178433.05 178433.05 0 1 1 356866.10 0a 178433.05 178433.05 0 1 1 -356866.10 0"/>
<path id="N" d="M 52899992.67 47599987.81 m -302603.18 0 a 302603.18 302603.18 0 1 1 605206.36 0a 302603.18 302603.18 0 1 1 -605206.36 0M 52900001.39 47599994.95 m -178433.05 0 a 178433.05 178433.05 0 1 1 356866.10 0a 178433.05 178433.05 0 1 1 -356866.10 0"/>
<path id="N" d="M 54611801.01 54499980.86 m -297844.08 0 a 297844.08 297844.08 0 1 1 595688.15 0a 297844.08 297844.08 0 1 1 -595688.15 0M 54611811.44 54499998.65 m -180637.35 0 a 180637.35 180637.35 0 1 1 361274.69 0a 180637.35 180637.35 0 1 1 -361274.69 0"/>
<path id="N" d="M 48611801.01 54499980.86 m -297844.08 0 a 297844.08 297844.08 0 1 1 595688.15 0a 297844.08 297844.08 0 1 1 -595688.15 0M 48611811.44 54499998.65 m -180637.35 0 a 180637.35 180637.35 0 1 1 361274.69 0a 180637.35 180637.35 0 1 1 -361274.69 0"/>
<path id="N" d="M 51611801.01 54499980.86 m -297844.08 0 a 297844.08 297844.08 0 1 1 595688.15 0a 297844.08 297844.08 0 1 1 -595688.15 0M 51611811.44 54499998.65 m -180637.35 0 a 180637.35 180637.35 0 1 1 361274.69 0a 180637.35 180637.35 0 1 1 -361274.69 0"/>
<path id="N" d="M 50611801.01 54499980.86 m -297844.08 0 a 297844.08 297844.08 0 1 1 595688.15 0a 297844.08 297844.08 0 1 1 -595688.15 0M 50611811.44 54499998.65 m -180637.35 0 a 180637.35 180637.35 0 1 1 361274.69 0a 180637.35 180637.35 0 1 1 -361274.69 0"/>
<path id="N" d="M 52611801.01 54499980.86 m -297844.08 0 a 297844.08 297844.08 0 1 1 595688.15 0a 297844.08 297844.08 0 1 1 -595688.15 0M 52611811.44 54499998.65 m -180637.35 0 a 180637.35 180637.35 0 1 1 361274.69 0a 180637.35 180637.35 0 1 1 -361274.69 0"/>
<path id="N" d="M 47611801.01 54499980.86 m -297844.08 0 a 297844.08 297844.08 0 1 1 595688.15 0a 297844.08 297844.08 0 1 1 -595688.15 0M 47611811.44 54499998.65 m -180637.35 0 a 180637.35 180637.35 0 1 1 361274.69 0a 180637.35 180637.35 0 1 1 -361274.69 0"/>
<path id="N" d="M 46611801.01 54499980.86 m -297844.08 0 a 297844.08 297844.08 0 1 1 595688.15 0a 297844.08 297844.08 0 1 1 -595688.15 0M 46611811.44 54499998.65 m -180637.35 0 a 180637.35 180637.35 0 1 1 361274.69 0a 180637.35 180637.35 0 1 1 -361274.69 0"/>
<path id="N" d="M 64495275.00 54204725.00 L 63904725.00 54204725.00 L 63904725.00 54795275.00 L 64495275.00 54795275.00 L 64495275.00 54204725.00  zM 64200000.44 54499998.65 m -180637.35 0 a 180637.35 180637.35 0 1 1 361274.69 0a 180637.35 180637.35 0 1 1 -361274.69 0"/>
<path id="N" d="M 57495275.00 35204725.00 L 56904725.00 35204725.00 L 56904725.00 35795275.00 L 57495275.00 35795275.00 L 57495275.00 35204725.00  zM 57200000.44 35499998.65 m -180637.35 0 a 180637.35 180637.35 0 1 1 361274.69 0a 180637.35 180637.35 0 1 1 -361274.69 0"/>
<path id="N" d="M 55907086.00 54204725.00 L 55316536.00 54204725.00 L 55316536.00 54795275.00 L 55907086.00 54795275.00 L 55907086.00 54204725.00  zM 55611811.44 54499998.65 m -180637.35 0 a 180637.35 180637.35 0 1 1 361274.69 0a 180637.35 180637.35 0 1 1 -361274.69 0"/>
<path id="N" d="M 63199997.35 35499993.57 m -297829.90 0 a 297829.90 297829.90 0 1 1 595659.80 0a 297829.90 297829.90 0 1 1 -595659.80 0M 63200000.44 35499998.65 m -180637.35 0 a 180637.35 180637.35 0 1 1 361274.69 0a 180637.35 180637.35 0 1 1 -361274.69 0"/>
<path id="N" d="M 50899992.67 47599987.81 m -302603.18 0 a 302603.18 302603.18 0 1 1 605206.36 0a 302603.18 302603.18 0 1 1 -605206.36 0M 50900001.39 47599994.95 m -178433.05 0 a 178433.05 178433.05 0 1 1 356866.10 0a 178433.05 178433.05 0 1 1 -356866.10 0"/>
<path id="N" d="M 49899992.67 47599987.81 m -302603.18 0 a 302603.18 302603.18 0 1 1 605206.36 0a 302603.18 302603.18 0 1 1 -605206.36 0M 49900001.39 47599994.95 m -178433.05 0 a 178433.05 178433.05 0 1 1 356866.10 0a 178433.05 178433.05 0 1 1 -356866.10 0"/>
<path id="N" d="M 64495275.00 35204725.00 L 63904725.00 35204725.00 L 63904725.00 35795275.00 L 64495275.00 35795275.00 L 64495275.00 35204725.00  zM 64200000.44 35499998.65 m -180637.35 0 a 180637.35 180637.35 0 1 1 361274.69 0a 180637.35 180637.35 0 1 1 -361274.69 0"/>
<path id="N" d="M 60199997.35 54499993.57 m -297829.90 0 a 297829.90 297829.90 0 1 1 595659.80 0a 297829.90 297829.90 0 1 1 -595659.80 0M 60200000.44 54499998.65 m -180637.35 0 a 180637.35 180637.35 0 1 1 361274.69 0a 180637.35 180637.35 0 1 1 -361274.69 0"/>
<path id="N" d="M 57199997.35 54499993.57 m -297829.90 0 a 297829.90 297829.90 0 1 1 595659.80 0a 297829.90 297829.90 0 1 1 -595659.80 0M 57200000.44 54499998.65 m -180637.35 0 a 180637.35 180637.35 0 1 1 361274.69 0a 180637.35 180637.35 0 1 1 -361274.69 0"/>
<path id="N" d="M 46899992.67 47599987.81 m -302603.18 0 a 302603.18 302603.18 0 1 1 605206.36 0a 302603.18 302603.18 0 1 1 -605206.36 0M 46900001.39 47599994.95 m -178433.05 0 a 178433.05 178433.05 0 1 1 356866.10 0a 178433.05 178433.05 0 1 1 -356866.10 0"/>
<path id="N" d="M 59199997.35 35499993.57 m -297829.90 0 a 297829.90 297829.90 0 1 1 595659.80 0a 297829.90 297829.90 0 1 1 -595659.80 0M 59200000.44 35499998.65 m -180637.35 0 a 180637.35 180637.35 0 1 1 361274.69 0a 180637.35 180637.35 0 1 1 -361274.69 0"/>
<path id="N" d="M 55601574.00 42321260.00 L 55011024.00 42321260.00 L 55011024.00 42911810.00 L 55601574.00 42911810.00 L 55601574.00 42321260.00  zM 55306299.36 42616535.47 m -200706.53 0 a 200706.53 200706.53 0 1 1 401413.05 0a 200706.53 200706.53 0 1 1 -401413.05 0"/>
<path id="N" d="M 58199997.35 54499993.57 m -297829.90 0 a 297829.90 297829.90 0 1 1 595659.80 0a 297829.90 297829.90 0 1 1 -595659.80 0M 58200000.44 54499998.65 m -180637.35 0 a 180637.35 180637.35 0 1 1 361274.69 0a 180637.35 180637.35 0 1 1 -361274.69 0"/>
</g>
</svg>
