<svg width="68.55000006mm" height="53.37847338mm" viewBox="0 0 26988189 21015147"  version="1.1" xmlns="http://www.w3.org/2000/svg" xmlns:xlink="http://www.w3.org/1999/xlink">
<desc>
Origin 39200000 34500000 Bound 39200000 34500000 26988189 21015147
</desc>
<g fill-rule="evenodd" fill="rgb(128, 128, 0)" stroke="black" stroke-width="1" transform="translate(0, 21015147) scale(1, -1) translate(-39200000, -34500000)">
<path id="N" d="M 57041840.00 53793440.00 L 57068048.00 53785120.00 L 57093008.00 53770976.00 L 57113392.00 53747264.00 L 57125456.00 53723136.00 L 57133360.00 53696512.00 L 57086352.00 53688192.00 L 57080528.00 53710656.00 L 57072624.00 53726880.00 L 57063056.00 53739776.00 L 57048080.00 53749760.00 A 70166.56 70166.56 0 0 1 56968208.00 53736864.00 L 56957808.00 53718976.00 L 56954064.00 53701504.00 A 55243.86 55243.86 0 0 1 56996912.00 53639520.00 L 57021456.00 53633696.00 L 57040176.00 53633696.00 L 57045168.00 53592512.00 L 57021040.00 53597088.00 L 57000240.00 53596672.00 L 56980688.00 53590848.00 L 56964048.00 53581280.00 L 56951152.00 53567968.00 L 56942000.00 53550496.00 L 56937424.00 53531360.00 L 56937424.00 53510976.00 L 56943664.00 53490176.00 L 56954064.00 53472288.00 A 77713.53 77713.53 0 0 1 57007728.00 53444000.00 L 57026032.00 53444000.00 L 57043504.00 53448576.00 L 57060560.00 53457728.00 L 57070544.00 53468128.00 L 57080944.00 53486432.00 L 57090928.00 53518464.00 L 57137936.00 53512224.00 L 57136688.00 53503488.00 A 129248.81 129248.81 0 0 0 57093840.00 53428608.00 L 57073040.00 53416544.00 L 57052240.00 53409472.00 L 57018128.00 53404064.00 L 56986928.00 53407392.00 L 56962384.00 53414880.00 L 56933680.00 53430688.00 L 56917040.00 53445248.00 L 56902480.00 53466880.00 L 56891248.00 53494336.00 L 56886672.00 53521792.00 L 56889584.00 53549248.00 L 56899568.00 53575872.00 L 56913296.00 53594176.00 L 56922032.00 53601248.00 L 56939088.00 53611232.00 L 56958640.00 53618304.00 L 56941584.00 53628288.00 L 56921616.00 53647424.00 L 56911216.00 53666560.00 L 56905392.00 53691936.00 L 56907472.00 53714816.00 L 56918288.00 53743104.00 L 56932016.00 53760992.00 L 56955728.00 53779712.00 L 56980272.00 53790112.00 L 57009808.00 53795520.00 L 57041840.00 53793440.00  z"/>
<path id="N" d="M 59053696.00 36689072.00 L 59083232.00 36676176.00 L 59102368.00 36661616.00 L 59116096.00 36642064.00 L 59127328.00 36615440.00 L 59133984.00 36584656.00 L 59085728.00 36579664.00 L 59085312.00 36586320.00 L 59079072.00 36613360.00 L 59069920.00 36630000.00 L 59057024.00 36642896.00 L 59038720.00 36651632.00 L 59019168.00 36656208.00 L 58998784.00 36655792.00 L 58979648.00 36650384.00 A 65384.18 65384.18 0 0 1 58944288.00 36560528.00 L 58959680.00 36533488.00 L 58996288.00 36494384.00 L 59086560.00 36414928.00 L 59114016.00 36384976.00 L 59133152.00 36352528.00 L 59140640.00 36331312.00 L 59142720.00 36310512.00 L 58888544.00 36310512.00 L 58888544.00 36355856.00 L 59077824.00 36355856.00 L 59057440.00 36380816.00 L 58985056.00 36444880.00 L 58930976.00 36495632.00 L 58906016.00 36529328.00 L 58895200.00 36551792.00 L 58890208.00 36574672.00 A 97940.74 97940.74 0 0 0 58905184.00 36643728.00 L 58920160.00 36663696.00 L 58941376.00 36679088.00 A 152638.76 152638.76 0 0 0 59053696.00 36689072.00  z"/>
<path id="N" d="M 57252752.00 53530112.00 L 57255248.00 53493920.00 L 57260656.00 53476864.00 L 57269808.00 53464800.00 L 57283120.00 53455648.00 L 57303920.00 53450240.00 L 57319728.00 53450656.00 L 57334704.00 53454816.00 L 57348432.00 53463136.00 L 57356336.00 53472704.00 L 57362992.00 53491840.00 L 57367568.00 53525952.00 L 57413328.00 53519296.00 L 57410000.00 53481856.00 L 57401264.00 53454816.00 L 57389200.00 53434432.00 L 57370896.00 53419872.00 L 57351344.00 53411552.00 L 57315152.00 53404480.00 L 57286448.00 53406560.00 L 57257744.00 53414880.00 A 87613.42 87613.42 0 0 0 57209904.00 53468960.00 L 57202832.00 53510976.00 L 57202000.00 53794688.00 L 57252752.00 53794688.00 L 57252752.00 53530112.00  z"/>
<path id="N" d="M 46602128.00 53430528.00 L 46604624.00 53394336.00 L 46610032.00 53377280.00 L 46619184.00 53365216.00 L 46632496.00 53356064.00 L 46653296.00 53350656.00 L 46669104.00 53351072.00 L 46684080.00 53355232.00 L 46697808.00 53363552.00 L 46705712.00 53373120.00 L 46712368.00 53392256.00 L 46716944.00 53426368.00 L 46762704.00 53419712.00 L 46759376.00 53382272.00 L 46750640.00 53355232.00 L 46738576.00 53334848.00 L 46720272.00 53320288.00 L 46700720.00 53311968.00 L 46664528.00 53304896.00 L 46635824.00 53306976.00 L 46607120.00 53315296.00 A 87613.42 87613.42 0 0 0 46559280.00 53369376.00 L 46552208.00 53411392.00 L 46551376.00 53695104.00 L 46602128.00 53695104.00 L 46602128.00 53430528.00  z"/>
<path id="N" d="M 50215728.00 36379904.00 L 50218224.00 36343712.00 L 50223632.00 36326656.00 L 50232784.00 36314592.00 L 50246096.00 36305440.00 L 50266896.00 36300032.00 L 50282704.00 36300448.00 L 50297680.00 36304608.00 L 50311408.00 36312928.00 L 50319312.00 36322496.00 L 50325968.00 36341632.00 L 50330544.00 36375744.00 L 50376304.00 36369088.00 L 50372976.00 36331648.00 L 50364240.00 36304608.00 L 50352176.00 36284224.00 L 50333872.00 36269664.00 L 50314320.00 36261344.00 L 50278128.00 36254272.00 L 50249424.00 36256352.00 L 50220720.00 36264672.00 A 87613.42 87613.42 0 0 0 50172880.00 36318752.00 L 50165808.00 36360768.00 L 50164976.00 36644480.00 L 50215728.00 36644480.00 L 50215728.00 36379904.00  z"/>
<path id="N" d="M 59250880.00 36429904.00 L 59253376.00 36393712.00 L 59258784.00 36376656.00 L 59267936.00 36364592.00 L 59281248.00 36355440.00 L 59302048.00 36350032.00 L 59317856.00 36350448.00 L 59332832.00 36354608.00 L 59346560.00 36362928.00 L 59354464.00 36372496.00 L 59361120.00 36391632.00 L 59365696.00 36425744.00 L 59411456.00 36419088.00 L 59408128.00 36381648.00 L 59399392.00 36354608.00 L 59387328.00 36334224.00 L 59369024.00 36319664.00 L 59349472.00 36311344.00 L 59313280.00 36304272.00 L 59284576.00 36306352.00 L 59255872.00 36314672.00 A 87613.42 87613.42 0 0 0 59208032.00 36368752.00 L 59200960.00 36410768.00 L 59200128.00 36694480.00 L 59250880.00 36694480.00 L 59250880.00 36429904.00  z"/>
<path id="N" d="M 64730133.00 36030133.00 L 64742614.00 36000000.00 L 64742614.00 35000000.00 L 64730133.00 34969867.00 L 64700000.00 34957386.00 L 58700000.00 34957386.00 L 58669867.00 34969867.00 L 58657386.00 35000000.00 L 58657386.00 36000000.00 L 58669867.00 36030133.00 L 58700000.00 36042614.00 L 64700000.00 36042614.00 L 64730133.00 36030133.00  zM 64657386.00 35957386.00 L 58742614.00 35957386.00 L 58742614.00 35042614.00 L 64657386.00 35042614.00 L 64657386.00 35957386.00  z"/>
<path id="N" d="M 64730133.00 55030133.00 L 64742614.00 55000000.00 L 64742614.00 54000000.00 L 64730133.00 53969867.00 L 64700000.00 53957386.00 L 56700000.00 53957386.00 L 56669867.00 53969867.00 L 56657386.00 54000000.00 L 56657386.00 55000000.00 L 56669867.00 55030133.00 L 56700000.00 55042614.00 L 64700000.00 55042614.00 L 64730133.00 55030133.00  zM 64657386.00 54957386.00 L 56742614.00 54957386.00 L 56742614.00 54042614.00 L 64657386.00 54042614.00 L 64657386.00 54957386.00  z"/>
<path id="N" d="M 56141944.00 55030133.00 L 56154425.00 55000000.00 L 56154425.00 54000000.00 L 56141944.00 53969867.00 L 56111811.00 53957386.00 L 46111811.00 53957386.00 L 46081678.00 53969867.00 L 46069197.00 54000000.00 L 46069197.00 55000000.00 L 46081678.00 55030133.00 L 46111811.00 55042614.00 L 56111811.00 55042614.00 L 56141944.00 55030133.00  zM 56069197.00 54957386.00 L 46154425.00 54957386.00 L 46154425.00 54042614.00 L 56069197.00 54042614.00 L 56069197.00 54957386.00  z"/>
<path id="N" d="M 57730133.00 36030133.00 L 57742614.00 36000000.00 L 57742614.00 35000000.00 L 57730133.00 34969867.00 L 57700000.00 34957386.00 L 49700000.00 34957386.00 L 49669867.00 34969867.00 L 49657386.00 35000000.00 L 49657386.00 36000000.00 L 49669867.00 36030133.00 L 49700000.00 36042614.00 L 57700000.00 36042614.00 L 57730133.00 36030133.00  zM 57657386.00 35957386.00 L 49742614.00 35957386.00 L 49742614.00 35042614.00 L 57657386.00 35042614.00 L 57657386.00 35957386.00  z"/>
<path id="N" d="M 46503536.00 53446336.00 L 46503536.00 53403072.00 L 46336304.00 53403072.00 L 46336304.00 53311136.00 L 46289296.00 53311136.00 L 46289296.00 53403072.00 L 46237296.00 53403072.00 L 46237296.00 53446336.00 L 46289296.00 53446336.00 L 46289296.00 53695104.00 L 46327984.00 53695104.00 L 46503536.00 53446336.00  zM 46336304.00 53619392.00 L 46336304.00 53446336.00 L 46457360.00 53446336.00 L 46336304.00 53619392.00  z"/>
<path id="N" d="M 49965712.00 36627008.00 L 49986096.00 36603712.00 L 50007312.00 36584576.00 L 50031024.00 36568352.00 L 50065136.00 36549216.00 L 50065136.00 36503872.00 L 50048080.00 36510944.00 L 50005648.00 36534240.00 L 49970704.00 36560448.00 L 49970704.00 36260512.00 L 49923696.00 36260512.00 L 49923696.00 36645728.00 L 49954064.00 36645728.00 L 49965712.00 36627008.00  z"/>
</g>
</svg>
