<svg width="68.55000006mm" height="53.37847338mm" viewBox="0 0 26988189 21015147"  version="1.1" xmlns="http://www.w3.org/2000/svg" xmlns:xlink="http://www.w3.org/1999/xlink">
<desc>
Origin 39200000 34500000 Bound 39200000 34500000 26988189 21015147
</desc>
<g fill-rule="evenodd" fill="rgb(255, 0, 0)" stroke="black" stroke-width="1" transform="translate(0, 21015147) scale(1, -1) translate(-39200000, -34500000)">
<path id="N" d="M 58523228.00 60412992.00 L 58188582.00 60412992.00 L 58188582.00 60787008.00 L 58523228.00 60787008.00 L 58523228.00 60412992.00  z"/>
<path id="N" d="M 59711417.00 60412992.00 L 59376771.00 60412992.00 L 59376771.00 60787008.00 L 59711417.00 60787008.00 L 59711417.00 60412992.00  z"/>
<path id="N" d="M 53199997.35 35499993.57 m -297829.90 0 a 297829.90 297829.90 0 1 1 595659.80 0a 297829.90 297829.90 0 1 1 -595659.80 0M 53200000.44 35499998.65 m -180637.35 0 a 180637.35 180637.35 0 1 1 361274.69 0a 180637.35 180637.35 0 1 1 -361274.69 0"/>
<path id="N" d="M 64965354.00 59685037.00 L 64256694.00 59685037.00 L 64256694.00 60393697.00 L 64965354.00 60393697.00 L 64965354.00 59685037.00  zM 64611020.50 60039376.68 m -240838.32 0 a 240838.32 240838.32 0 1 1 481676.63 0a 240838.32 240838.32 0 1 1 -481676.63 0"/>
<path id="N" d="M 50523228.00 60412992.00 L 50188582.00 60412992.00 L 50188582.00 60787008.00 L 50523228.00 60787008.00 L 50523228.00 60412992.00  z"/>
<path id="N" d="M 47123228.00 60412992.00 L 46788582.00 60412992.00 L 46788582.00 60787008.00 L 47123228.00 60787008.00 L 47123228.00 60412992.00  z"/>
<path id="N" d="M 48823228.00 60412992.00 L 48488582.00 60412992.00 L 48488582.00 60787008.00 L 48823228.00 60787008.00 L 48823228.00 60412992.00  z"/>
<path id="N" d="M 63036220.00 60326772.00 L 62563780.00 60326772.00 L 62563780.00 60799212.00 L 63036220.00 60799212.00 L 63036220.00 60326772.00  z"/>
<path id="N" d="M 61199997.35 54499993.57 m -297829.90 0 a 297829.90 297829.90 0 1 1 595659.80 0a 297829.90 297829.90 0 1 1 -595659.80 0M 61200000.44 54499998.65 m -180637.35 0 a 180637.35 180637.35 0 1 1 361274.69 0a 180637.35 180637.35 0 1 1 -361274.69 0"/>
<path id="N" d="M 40602362.00 48288977.00 L 40090552.00 48288977.00 L 40090552.00 48682677.00 L 40602362.00 48682677.00 L 40602362.00 48288977.00  z"/>
<path id="N" d="M 43909448.00 48288977.00 L 43397638.00 48288977.00 L 43397638.00 48682677.00 L 43909448.00 48682677.00 L 43909448.00 48288977.00  z"/>
<path id="N" d="M 44696850.00 47688583.00 L 44303150.00 47688583.00 L 44303150.00 48042913.00 L 44696850.00 48042913.00 L 44696850.00 47688583.00  z"/>
<path id="N" d="M 50011417.00 60412992.00 L 49676771.00 60412992.00 L 49676771.00 60787008.00 L 50011417.00 60787008.00 L 50011417.00 60412992.00  z"/>
<path id="N" d="M 65988976.91 60039366.51 m -357387.03 0 a 357387.03 357387.03 0 1 1 714774.05 0a 357387.03 357387.03 0 1 1 -714774.05 0M 65988972.50 60039376.68 m -240838.32 0 a 240838.32 240838.32 0 1 1 481676.63 0a 240838.32 240838.32 0 1 1 -481676.63 0"/>
<path id="N" d="M 58850000.00 45529576.00 L 58475984.00 45529576.00 A 120431.73 120431.73 0 0 0 58475984.00 45770424.00 L 58850000.00 45770424.00 A 120412.98 120412.98 0 0 0 58850000.00 45529576.00  z"/>
<path id="N" d="M 58850000.00 45029576.00 L 58475984.00 45029576.00 A 120431.73 120431.73 0 0 0 58475984.00 45270424.00 L 58850000.00 45270424.00 A 120412.98 120412.98 0 0 0 58850000.00 45029576.00  z"/>
<path id="N" d="M 63036220.00 59200788.00 L 62563780.00 59200788.00 L 62563780.00 59673228.00 L 63036220.00 59673228.00 L 63036220.00 59200788.00  z"/>
<path id="N" d="M 73400000.91 47199999.51 m -357387.03 0 a 357387.03 357387.03 0 1 1 714774.05 0a 357387.03 357387.03 0 1 1 -714774.05 0M 73399996.50 47200009.68 m -240838.32 0 a 240838.32 240838.32 0 1 1 481676.63 0a 240838.32 240838.32 0 1 1 -481676.63 0"/>
<path id="N" d="M 68260633.91 37288975.51 m -357387.03 0 a 357387.03 357387.03 0 1 1 714774.05 0a 357387.03 357387.03 0 1 1 -714774.05 0M 68260629.50 37288985.68 m -240838.32 0 a 240838.32 240838.32 0 1 1 481676.63 0a 240838.32 240838.32 0 1 1 -481676.63 0"/>
<path id="N" d="M 56488976.91 60039366.51 m -357387.03 0 a 357387.03 357387.03 0 1 1 714774.05 0a 357387.03 357387.03 0 1 1 -714774.05 0M 56488972.50 60039376.68 m -240838.32 0 a 240838.32 240838.32 0 1 1 481676.63 0a 240838.32 240838.32 0 1 1 -481676.63 0"/>
<path id="N" d="M 48899992.67 47599987.81 m -302603.18 0 a 302603.18 302603.18 0 1 1 605206.36 0a 302603.18 302603.18 0 1 1 -605206.36 0M 48900001.39 47599994.95 m -178433.05 0 a 178433.05 178433.05 0 1 1 356866.10 0a 178433.05 178433.05 0 1 1 -356866.10 0"/>
<path id="N" d="M 51199997.35 35499993.57 m -297829.90 0 a 297829.90 297829.90 0 1 1 595659.80 0a 297829.90 297829.90 0 1 1 -595659.80 0M 51200000.44 35499998.65 m -180637.35 0 a 180637.35 180637.35 0 1 1 361274.69 0a 180637.35 180637.35 0 1 1 -361274.69 0"/>
<path id="N" d="M 52199997.35 35499993.57 m -297829.90 0 a 297829.90 297829.90 0 1 1 595659.80 0a 297829.90 297829.90 0 1 1 -595659.80 0M 52200000.44 35499998.65 m -180637.35 0 a 180637.35 180637.35 0 1 1 361274.69 0a 180637.35 180637.35 0 1 1 -361274.69 0"/>
<path id="N" d="M 49611801.01 54499980.86 m -297844.08 0 a 297844.08 297844.08 0 1 1 595688.15 0a 297844.08 297844.08 0 1 1 -595688.15 0M 49611811.44 54499998.65 m -180637.35 0 a 180637.35 180637.35 0 1 1 361274.69 0a 180637.35 180637.35 0 1 1 -361274.69 0"/>
<path id="N" d="M 56724016.00 46529576.00 L 56350000.00 46529576.00 A 120431.73 120431.73 0 0 0 56350000.00 46770424.00 L 56724016.00 46770424.00 A 120412.98 120412.98 0 1 0 56724016.00 46529576.00  z"/>
<path id="N" d="M 56724016.00 45529576.00 L 56350000.00 45529576.00 A 120431.73 120431.73 0 0 0 56350000.00 45770424.00 L 56724016.00 45770424.00 A 120412.98 120412.98 0 1 0 56724016.00 45529576.00  z"/>
<path id="N" d="M 40602362.00 46517323.00 L 40090552.00 46517323.00 L 40090552.00 46911023.00 L 40602362.00 46911023.00 L 40602362.00 46517323.00  z"/>
<path id="N" d="M 53411417.00 60412992.00 L 53076771.00 60412992.00 L 53076771.00 60787008.00 L 53411417.00 60787008.00 L 53411417.00 60412992.00  z"/>
<path id="N" d="M 40602362.00 42617323.00 L 40090552.00 42617323.00 L 40090552.00 43011023.00 L 40602362.00 43011023.00 L 40602362.00 42617323.00  z"/>
<path id="N" d="M 51711417.00 60412992.00 L 51376771.00 60412992.00 L 51376771.00 60787008.00 L 51711417.00 60787008.00 L 51711417.00 60412992.00  z"/>
<path id="N" d="M 43909448.00 42617323.00 L 43397638.00 42617323.00 L 43397638.00 43011023.00 L 43909448.00 43011023.00 L 43909448.00 42617323.00  z"/>
<path id="N" d="M 44696850.00 39357087.00 L 44303150.00 39357087.00 L 44303150.00 39711417.00 L 44696850.00 39711417.00 L 44696850.00 39357087.00  z"/>
<path id="N" d="M 43909448.00 38717323.00 L 43397638.00 38717323.00 L 43397638.00 39111023.00 L 43909448.00 39111023.00 L 43909448.00 38717323.00  z"/>
<path id="N" d="M 44696850.00 47157087.00 L 44303150.00 47157087.00 L 44303150.00 47511417.00 L 44696850.00 47511417.00 L 44696850.00 47157087.00  z"/>
<path id="N" d="M 40602362.00 38717323.00 L 40090552.00 38717323.00 L 40090552.00 39111023.00 L 40602362.00 39111023.00 L 40602362.00 38717323.00  z"/>
<path id="N" d="M 44696850.00 43257087.00 L 44303150.00 43257087.00 L 44303150.00 43611417.00 L 44696850.00 43611417.00 L 44696850.00 43257087.00  z"/>
<path id="N" d="M 43909448.00 46517323.00 L 43397638.00 46517323.00 L 43397638.00 46911023.00 L 43909448.00 46911023.00 L 43909448.00 46517323.00  z"/>
<path id="N" d="M 59199997.35 54499993.57 m -297829.90 0 a 297829.90 297829.90 0 1 1 595659.80 0a 297829.90 297829.90 0 1 1 -595659.80 0M 59200000.44 54499998.65 m -180637.35 0 a 180637.35 180637.35 0 1 1 361274.69 0a 180637.35 180637.35 0 1 1 -361274.69 0"/>
<path id="N" d="M 56724016.00 46029576.00 L 56350000.00 46029576.00 A 120431.73 120431.73 0 0 0 56350000.00 46270424.00 L 56724016.00 46270424.00 A 120412.98 120412.98 0 1 0 56724016.00 46029576.00  z"/>
<path id="N" d="M 52223228.00 60412992.00 L 51888582.00 60412992.00 L 51888582.00 60787008.00 L 52223228.00 60787008.00 L 52223228.00 60412992.00  z"/>
<path id="N" d="M 71860633.91 37288975.51 m -357387.03 0 a 357387.03 357387.03 0 1 1 714774.05 0a 357387.03 357387.03 0 1 1 -714774.05 0M 71860629.50 37288985.68 m -240838.32 0 a 240838.32 240838.32 0 1 1 481676.63 0a 240838.32 240838.32 0 1 1 -481676.63 0"/>
<path id="N" d="M 58850000.00 46029576.00 L 58475984.00 46029576.00 A 120431.73 120431.73 0 0 0 58475984.00 46270424.00 L 58850000.00 46270424.00 A 120412.98 120412.98 0 0 0 58850000.00 46029576.00  z"/>
<path id="N" d="M 58850000.00 46529576.00 L 58475984.00 46529576.00 A 120431.73 120431.73 0 0 0 58475984.00 46770424.00 L 58850000.00 46770424.00 A 120412.98 120412.98 0 0 0 58850000.00 46529576.00  z"/>
<path id="N" d="M 61536220.00 59200788.00 L 61063780.00 59200788.00 L 61063780.00 59673228.00 L 61536220.00 59673228.00 L 61536220.00 59200788.00  z"/>
<path id="N" d="M 53611801.01 54499980.86 m -297844.08 0 a 297844.08 297844.08 0 1 1 595688.15 0a 297844.08 297844.08 0 1 1 -595688.15 0M 53611811.44 54499998.65 m -180637.35 0 a 180637.35 180637.35 0 1 1 361274.69 0a 180637.35 180637.35 0 1 1 -361274.69 0"/>
<path id="N" d="M 54611801.01 54499980.86 m -297844.08 0 a 297844.08 297844.08 0 1 1 595688.15 0a 297844.08 297844.08 0 1 1 -595688.15 0M 54611811.44 54499998.65 m -180637.35 0 a 180637.35 180637.35 0 1 1 361274.69 0a 180637.35 180637.35 0 1 1 -361274.69 0"/>
<path id="N" d="M 46611801.01 54499980.86 m -297844.08 0 a 297844.08 297844.08 0 1 1 595688.15 0a 297844.08 297844.08 0 1 1 -595688.15 0M 46611811.44 54499998.65 m -180637.35 0 a 180637.35 180637.35 0 1 1 361274.69 0a 180637.35 180637.35 0 1 1 -361274.69 0"/>
<path id="N" d="M 47611801.01 54499980.86 m -297844.08 0 a 297844.08 297844.08 0 1 1 595688.15 0a 297844.08 297844.08 0 1 1 -595688.15 0M 47611811.44 54499998.65 m -180637.35 0 a 180637.35 180637.35 0 1 1 361274.69 0a 180637.35 180637.35 0 1 1 -361274.69 0"/>
<path id="N" d="M 50199997.35 35499993.57 m -297829.90 0 a 297829.90 297829.90 0 1 1 595659.80 0a 297829.90 297829.90 0 1 1 -595659.80 0M 50200000.44 35499998.65 m -180637.35 0 a 180637.35 180637.35 0 1 1 361274.69 0a 180637.35 180637.35 0 1 1 -361274.69 0"/>
<path id="N" d="M 54199997.35 35499993.57 m -297829.90 0 a 297829.90 297829.90 0 1 1 595659.80 0a 297829.90 297829.90 0 1 1 -595659.80 0M 54200000.44 35499998.65 m -180637.35 0 a 180637.35 180637.35 0 1 1 361274.69 0a 180637.35 180637.35 0 1 1 -361274.69 0"/>
<path id="N" d="M 51611801.01 54499980.86 m -297844.08 0 a 297844.08 297844.08 0 1 1 595688.15 0a 297844.08 297844.08 0 1 1 -595688.15 0M 51611811.44 54499998.65 m -180637.35 0 a 180637.35 180637.35 0 1 1 361274.69 0a 180637.35 180637.35 0 1 1 -361274.69 0"/>
<path id="N" d="M 52611801.01 54499980.86 m -297844.08 0 a 297844.08 297844.08 0 1 1 595688.15 0a 297844.08 297844.08 0 1 1 -595688.15 0M 52611811.44 54499998.65 m -180637.35 0 a 180637.35 180637.35 0 1 1 361274.69 0a 180637.35 180637.35 0 1 1 -361274.69 0"/>
<path id="N" d="M 48611801.01 54499980.86 m -297844.08 0 a 297844.08 297844.08 0 1 1 595688.15 0a 297844.08 297844.08 0 1 1 -595688.15 0M 48611811.44 54499998.65 m -180637.35 0 a 180637.35 180637.35 0 1 1 361274.69 0a 180637.35 180637.35 0 1 1 -361274.69 0"/>
<path id="N" d="M 50611801.01 54499980.86 m -297844.08 0 a 297844.08 297844.08 0 1 1 595688.15 0a 297844.08 297844.08 0 1 1 -595688.15 0M 50611811.44 54499998.65 m -180637.35 0 a 180637.35 180637.35 0 1 1 361274.69 0a 180637.35 180637.35 0 1 1 -361274.69 0"/>
<path id="N" d="M 62199997.35 35499993.57 m -297829.90 0 a 297829.90 297829.90 0 1 1 595659.80 0a 297829.90 297829.90 0 1 1 -595659.80 0M 62200000.44 35499998.65 m -180637.35 0 a 180637.35 180637.35 0 1 1 361274.69 0a 180637.35 180637.35 0 1 1 -361274.69 0"/>
<path id="N" d="M 55199997.35 35499993.57 m -297829.90 0 a 297829.90 297829.90 0 1 1 595659.80 0a 297829.90 297829.90 0 1 1 -595659.80 0M 55200000.44 35499998.65 m -180637.35 0 a 180637.35 180637.35 0 1 1 361274.69 0a 180637.35 180637.35 0 1 1 -361274.69 0"/>
<path id="N" d="M 63199997.35 54499993.57 m -297829.90 0 a 297829.90 297829.90 0 1 1 595659.80 0a 297829.90 297829.90 0 1 1 -595659.80 0M 63200000.44 54499998.65 m -180637.35 0 a 180637.35 180637.35 0 1 1 361274.69 0a 180637.35 180637.35 0 1 1 -361274.69 0"/>
<path id="N" d="M 61199997.35 35499993.57 m -297829.90 0 a 297829.90 297829.90 0 1 1 595659.80 0a 297829.90 297829.90 0 1 1 -595659.80 0M 61200000.44 35499998.65 m -180637.35 0 a 180637.35 180637.35 0 1 1 361274.69 0a 180637.35 180637.35 0 1 1 -361274.69 0"/>
<path id="N" d="M 56199997.35 35499993.57 m -297829.90 0 a 297829.90 297829.90 0 1 1 595659.80 0a 297829.90 297829.90 0 1 1 -595659.80 0M 56200000.44 35499998.65 m -180637.35 0 a 180637.35 180637.35 0 1 1 361274.69 0a 180637.35 180637.35 0 1 1 -361274.69 0"/>
<path id="N" d="M 52899992.67 47599987.81 m -302603.18 0 a 302603.18 302603.18 0 1 1 605206.36 0a 302603.18 302603.18 0 1 1 -605206.36 0M 52900001.39 47599994.95 m -178433.05 0 a 178433.05 178433.05 0 1 1 356866.10 0a 178433.05 178433.05 0 1 1 -356866.10 0"/>
<path id="N" d="M 47899992.67 47599987.81 m -302603.18 0 a 302603.18 302603.18 0 1 1 605206.36 0a 302603.18 302603.18 0 1 1 -605206.36 0M 47900001.39 47599994.95 m -178433.05 0 a 178433.05 178433.05 0 1 1 356866.10 0a 178433.05 178433.05 0 1 1 -356866.10 0"/>
<path id="N" d="M 60199997.35 35499993.57 m -297829.90 0 a 297829.90 297829.90 0 1 1 595659.80 0a 297829.90 297829.90 0 1 1 -595659.80 0M 60200000.44 35499998.65 m -180637.35 0 a 180637.35 180637.35 0 1 1 361274.69 0a 180637.35 180637.35 0 1 1 -361274.69 0"/>
<path id="N" d="M 51899992.67 47599987.81 m -302603.18 0 a 302603.18 302603.18 0 1 1 605206.36 0a 302603.18 302603.18 0 1 1 -605206.36 0M 51900001.39 47599994.95 m -178433.05 0 a 178433.05 178433.05 0 1 1 356866.10 0a 178433.05 178433.05 0 1 1 -356866.10 0"/>
<path id="N" d="M 57495275.00 35204725.00 L 56904725.00 35204725.00 L 56904725.00 35795275.00 L 57495275.00 35795275.00 L 57495275.00 35204725.00  zM 57200000.44 35499998.65 m -180637.35 0 a 180637.35 180637.35 0 1 1 361274.69 0a 180637.35 180637.35 0 1 1 -361274.69 0"/>
<path id="N" d="M 64495275.00 54204725.00 L 63904725.00 54204725.00 L 63904725.00 54795275.00 L 64495275.00 54795275.00 L 64495275.00 54204725.00  zM 64200000.44 54499998.65 m -180637.35 0 a 180637.35 180637.35 0 1 1 361274.69 0a 180637.35 180637.35 0 1 1 -361274.69 0"/>
<path id="N" d="M 55907086.00 54204725.00 L 55316536.00 54204725.00 L 55316536.00 54795275.00 L 55907086.00 54795275.00 L 55907086.00 54204725.00  zM 55611811.44 54499998.65 m -180637.35 0 a 180637.35 180637.35 0 1 1 361274.69 0a 180637.35 180637.35 0 1 1 -361274.69 0"/>
<path id="N" d="M 46199997.94 35499997.94 m -200709.51 0 a 200709.51 200709.51 0 1 1 401419.02 0a 200709.51 200709.51 0 1 1 -401419.02 0"/>
<path id="N" d="M 65199997.94 38999997.94 m -200709.51 0 a 200709.51 200709.51 0 1 1 401419.02 0a 200709.51 200709.51 0 1 1 -401419.02 0"/>
<path id="N" d="M 65199997.94 46999997.94 m -200709.51 0 a 200709.51 200709.51 0 1 1 401419.02 0a 200709.51 200709.51 0 1 1 -401419.02 0"/>
<path id="N" d="M 62199997.35 54499993.57 m -297829.90 0 a 297829.90 297829.90 0 1 1 595659.80 0a 297829.90 297829.90 0 1 1 -595659.80 0M 62200000.44 54499998.65 m -180637.35 0 a 180637.35 180637.35 0 1 1 361274.69 0a 180637.35 180637.35 0 1 1 -361274.69 0"/>
<path id="N" d="M 44696850.00 39888583.00 L 44303150.00 39888583.00 L 44303150.00 40242913.00 L 44696850.00 40242913.00 L 44696850.00 39888583.00  z"/>
<path id="N" d="M 40602362.00 40488977.00 L 40090552.00 40488977.00 L 40090552.00 40882677.00 L 40602362.00 40882677.00 L 40602362.00 40488977.00  z"/>
<path id="N" d="M 46611417.00 60412992.00 L 46276771.00 60412992.00 L 46276771.00 60787008.00 L 46611417.00 60787008.00 L 46611417.00 60412992.00  z"/>
<path id="N" d="M 43909448.00 40488977.00 L 43397638.00 40488977.00 L 43397638.00 40882677.00 L 43909448.00 40882677.00 L 43909448.00 40488977.00  z"/>
<path id="N" d="M 50899992.67 47599987.81 m -302603.18 0 a 302603.18 302603.18 0 1 1 605206.36 0a 302603.18 302603.18 0 1 1 -605206.36 0M 50900001.39 47599994.95 m -178433.05 0 a 178433.05 178433.05 0 1 1 356866.10 0a 178433.05 178433.05 0 1 1 -356866.10 0"/>
<path id="N" d="M 63199997.35 35499993.57 m -297829.90 0 a 297829.90 297829.90 0 1 1 595659.80 0a 297829.90 297829.90 0 1 1 -595659.80 0M 63200000.44 35499998.65 m -180637.35 0 a 180637.35 180637.35 0 1 1 361274.69 0a 180637.35 180637.35 0 1 1 -361274.69 0"/>
<path id="N" d="M 49899992.67 47599987.81 m -302603.18 0 a 302603.18 302603.18 0 1 1 605206.36 0a 302603.18 302603.18 0 1 1 -605206.36 0M 49900001.39 47599994.95 m -178433.05 0 a 178433.05 178433.05 0 1 1 356866.10 0a 178433.05 178433.05 0 1 1 -356866.10 0"/>
<path id="N" d="M 64495275.00 35204725.00 L 63904725.00 35204725.00 L 63904725.00 35795275.00 L 64495275.00 35795275.00 L 64495275.00 35204725.00  zM 64200000.44 35499998.65 m -180637.35 0 a 180637.35 180637.35 0 1 1 361274.69 0a 180637.35 180637.35 0 1 1 -361274.69 0"/>
<path id="N" d="M 60199997.35 54499993.57 m -297829.90 0 a 297829.90 297829.90 0 1 1 595659.80 0a 297829.90 297829.90 0 1 1 -595659.80 0M 60200000.44 54499998.65 m -180637.35 0 a 180637.35 180637.35 0 1 1 361274.69 0a 180637.35 180637.35 0 1 1 -361274.69 0"/>
<path id="N" d="M 44696850.00 43788583.00 L 44303150.00 43788583.00 L 44303150.00 44142913.00 L 44696850.00 44142913.00 L 44696850.00 43788583.00  z"/>
<path id="N" d="M 48311417.00 60412992.00 L 47976771.00 60412992.00 L 47976771.00 60787008.00 L 48311417.00 60787008.00 L 48311417.00 60412992.00  z"/>
<path id="N" d="M 43909448.00 44388977.00 L 43397638.00 44388977.00 L 43397638.00 44782677.00 L 43909448.00 44782677.00 L 43909448.00 44388977.00  z"/>
<path id="N" d="M 40602362.00 44388977.00 L 40090552.00 44388977.00 L 40090552.00 44782677.00 L 40602362.00 44782677.00 L 40602362.00 44388977.00  z"/>
<path id="N" d="M 57199997.35 54499993.57 m -297829.90 0 a 297829.90 297829.90 0 1 1 595659.80 0a 297829.90 297829.90 0 1 1 -595659.80 0M 57200000.44 54499998.65 m -180637.35 0 a 180637.35 180637.35 0 1 1 361274.69 0a 180637.35 180637.35 0 1 1 -361274.69 0"/>
<path id="N" d="M 68614963.00 35556694.00 L 67906303.00 35556694.00 L 67906303.00 36265354.00 L 68614963.00 36265354.00 L 68614963.00 35556694.00  zM 68260629.50 35911033.68 m -240838.32 0 a 240838.32 240838.32 0 1 1 481676.63 0a 240838.32 240838.32 0 1 1 -481676.63 0"/>
<path id="N" d="M 39811417.00 60412992.00 L 39476771.00 60412992.00 L 39476771.00 60787008.00 L 39811417.00 60787008.00 L 39811417.00 60412992.00  z"/>
<path id="N" d="M 72376378.00 46845670.00 L 71667718.00 46845670.00 L 71667718.00 47554330.00 L 72376378.00 47554330.00 L 72376378.00 46845670.00  zM 72022044.50 47200009.68 m -240838.32 0 a 240838.32 240838.32 0 1 1 481676.63 0a 240838.32 240838.32 0 1 1 -481676.63 0"/>
<path id="N" d="M 72214963.00 35556694.00 L 71506303.00 35556694.00 L 71506303.00 36265354.00 L 72214963.00 36265354.00 L 72214963.00 35556694.00  zM 71860629.50 35911033.68 m -240838.32 0 a 240838.32 240838.32 0 1 1 481676.63 0a 240838.32 240838.32 0 1 1 -481676.63 0"/>
<path id="N" d="M 61536220.00 60326772.00 L 61063780.00 60326772.00 L 61063780.00 60799212.00 L 61536220.00 60799212.00 L 61536220.00 60326772.00  z"/>
<path id="N" d="M 59199997.35 35499993.57 m -297829.90 0 a 297829.90 297829.90 0 1 1 595659.80 0a 297829.90 297829.90 0 1 1 -595659.80 0M 59200000.44 35499998.65 m -180637.35 0 a 180637.35 180637.35 0 1 1 361274.69 0a 180637.35 180637.35 0 1 1 -361274.69 0"/>
<path id="N" d="M 55465354.00 59685037.00 L 54756694.00 59685037.00 L 54756694.00 60393697.00 L 55465354.00 60393697.00 L 55465354.00 59685037.00  zM 55111020.50 60039376.68 m -240838.32 0 a 240838.32 240838.32 0 1 1 481676.63 0a 240838.32 240838.32 0 1 1 -481676.63 0"/>
<path id="N" d="M 58011417.00 60412992.00 L 57676771.00 60412992.00 L 57676771.00 60787008.00 L 58011417.00 60787008.00 L 58011417.00 60412992.00  z"/>
<path id="N" d="M 46899992.67 47599987.81 m -302603.18 0 a 302603.18 302603.18 0 1 1 605206.36 0a 302603.18 302603.18 0 1 1 -605206.36 0M 46900001.39 47599994.95 m -178433.05 0 a 178433.05 178433.05 0 1 1 356866.10 0a 178433.05 178433.05 0 1 1 -356866.10 0"/>
<path id="N" d="M 40323228.00 60412992.00 L 39988582.00 60412992.00 L 39988582.00 60787008.00 L 40323228.00 60787008.00 L 40323228.00 60412992.00  z"/>
<path id="N" d="M 60223228.00 60412992.00 L 59888582.00 60412992.00 L 59888582.00 60787008.00 L 60223228.00 60787008.00 L 60223228.00 60412992.00  z"/>
<path id="N" d="M 58199997.35 54499993.57 m -297829.90 0 a 297829.90 297829.90 0 1 1 595659.80 0a 297829.90 297829.90 0 1 1 -595659.80 0M 58200000.44 54499998.65 m -180637.35 0 a 180637.35 180637.35 0 1 1 361274.69 0a 180637.35 180637.35 0 1 1 -361274.69 0"/>
<path id="N" d="M 56724016.00 45029576.00 L 56350000.00 45029576.00 A 120431.73 120431.73 0 0 0 56350000.00 45270424.00 L 56724016.00 45270424.00 A 120412.98 120412.98 0 1 0 56724016.00 45029576.00  z"/>
<path id="N" d="M 53923228.00 60412992.00 L 53588582.00 60412992.00 L 53588582.00 60787008.00 L 53923228.00 60787008.00 L 53923228.00 60412992.00  z"/>
</g>
</svg>
