<svg width="68.55000006mm" height="53.37847338mm" viewBox="0 0 26988189 21015147"  version="1.1" xmlns="http://www.w3.org/2000/svg" xmlns:xlink="http://www.w3.org/1999/xlink">
<desc>
Origin 39200000 34500000 Bound 39200000 34500000 26988189 21015147
</desc>
<g fill-rule="evenodd" fill="rgb(255, 0, 0)" stroke="black" stroke-width="1" transform="translate(0, 21015147) scale(1, -1) translate(-39200000, -34500000)">
<path id="N" d="M 65058872.00 54835738.00 L 65058872.00 50400000.00 L 65069825.00 50343166.00 L 65102382.00 50293156.00 L 66035250.00 49337718.66 L 66035250.00 36562281.34 L 65102382.00 35606844.00 L 65070514.00 35558527.00 L 65058872.00 35500000.00 L 65058872.00 34652939.00 L 39352939.00 34652939.00 L 39352939.00 55362208.00 L 64532402.00 55362208.00 L 65058872.00 54835738.00  zM 46200002.18 35499991.94 m -497968.06 0 a 497968.06 497968.06 0 1 1 995936.12 0a 497968.06 497968.06 0 1 1 -995936.12 0M 50200000.00 35499992.41 m -398693.35 0 a 398693.35 398693.35 0 1 1 797386.70 0a 398693.35 398693.35 0 1 1 -797386.70 0M 51200000.00 35499992.41 m -398693.35 0 a 398693.35 398693.35 0 1 1 797386.70 0a 398693.35 398693.35 0 1 1 -797386.70 0M 52200000.00 35499992.41 m -398693.35 0 a 398693.35 398693.35 0 1 1 797386.70 0a 398693.35 398693.35 0 1 1 -797386.70 0M 52908759.60 35449999.97 L 52804725.00 35449999.97 A 394989.98 394989.98 0 0 1 53150000.03 35104725.00 L 53150000.03 35208759.60 L 53122918.00 35212325.00 A 297829.90 297829.90 0 0 0 52912325.00 35422918.00 L 52908759.60 35449999.97  zM 53200000.44 35499998.65 m -180637.35 0 a 180637.35 180637.35 0 1 1 361274.69 0a 180637.35 180637.35 0 1 1 -361274.69 0M 53595275.00 35450000.03 L 53491240.40 35450000.03 L 53487675.00 35422918.00 A 297829.90 297829.90 0 0 0 53277082.00 35212325.00 L 53250000.03 35208759.60 L 53250000.03 35104725.00 A 394989.98 394989.98 0 0 1 53595275.00 35447961.00 L 53595275.00 35450000.03  zM 55200000.00 35499992.41 m -398693.35 0 a 398693.35 398693.35 0 1 1 797386.70 0a 398693.35 398693.35 0 1 1 -797386.70 0M 44761557.00 36226959.00 L 44638442.00 36226959.00 L 44618550.00 36225000.00 L 44497802.00 36200981.00 L 44478676.00 36195179.00 L 44364933.00 36148065.00 L 44347306.00 36138643.00 L 44244940.00 36070245.00 L 44229489.00 36057565.00 L 44142434.00 35970510.00 L 44129754.00 35955059.00 L 44061356.00 35852693.00 L 44051934.00 35835066.00 L 44004820.00 35721323.00 L 43999018.00 35702196.00 L 43975000.00 35581448.00 L 43973041.00 35561557.00 L 43973041.00 35438442.00 L 43975000.00 35418551.00 L 43999018.00 35297803.00 L 44004820.00 35278676.00 L 44051934.00 35164933.00 L 44061356.00 35147306.00 L 44129754.00 35044940.00 L 44142434.00 35029489.00 L 44229489.00 34942434.00 L 44244940.00 34929754.00 L 44347306.00 34861356.00 L 44364933.00 34851934.00 L 44478676.00 34804820.00 L 44497803.00 34799018.00 L 44618551.00 34775000.00 L 44638442.00 34773041.00 L 44761557.00 34773041.00 L 44781448.00 34775000.00 L 44902196.00 34799018.00 L 44921323.00 34804820.00 L 45035066.00 34851934.00 L 45052693.00 34861356.00 L 45155059.00 34929754.00 L 45170510.00 34942434.00 L 45257565.00 35029489.00 L 45270245.00 35044940.00 L 45338643.00 35147306.00 L 45348065.00 35164933.00 L 45395179.00 35278676.00 L 45400981.00 35297802.00 L 45425000.00 35418550.00 L 45426959.00 35438442.00 L 45426959.00 35561557.00 L 45425000.00 35581449.00 L 45400981.00 35702197.00 L 45395179.00 35721323.00 L 45348065.00 35835066.00 L 45338643.00 35852693.00 L 45270245.00 35955059.00 L 45257565.00 35970510.00 L 45170510.00 36057565.00 L 45155059.00 36070245.00 L 45052693.00 36138643.00 L 45035066.00 36148065.00 L 44921323.00 36195179.00 L 44902197.00 36200981.00 L 44781449.00 36225000.00 L 44771405.76 36225000.00 L 44761557.00 36226959.00  zM 53149999.97 35895275.00 A 394989.98 394989.98 0 0 1 52804725.00 35549999.97 L 52908759.60 35549999.97 L 52912325.00 35577082.00 A 297829.90 297829.90 0 0 0 53122918.00 35787675.00 L 53149999.97 35791240.40 L 53149999.97 35895275.00  zM 53249999.97 35895275.00 L 53249999.97 35791240.40 L 53277082.00 35787675.00 A 297829.90 297829.90 0 0 0 53487675.00 35577082.00 L 53491240.40 35550000.03 L 53595275.00 35550000.03 A 394989.98 394989.98 0 0 1 53249999.97 35895275.00  zM 54200000.00 35499992.41 m -398693.35 0 a 398693.35 398693.35 0 1 1 797386.70 0a 398693.35 398693.35 0 1 1 -797386.70 0M 44449999.98 41567323.00 L 44212992.00 41567323.00 L 44212992.00 41349999.97 L 44312992.00 41349999.98 L 44312992.00 41467323.00 L 44449999.99 41467323.00 L 44449999.98 41567323.00  zM 44449999.98 45467323.00 L 44212992.00 45467323.00 L 44212992.00 45249999.97 L 44312992.00 45249999.98 L 44312992.00 45367323.00 L 44449999.99 45367323.00 L 44449999.98 45467323.00  zM 47300000.00 47550000.00 L 47196006.69 47550000.00 L 47192279.00 47521684.00 A 302603.18 302603.18 0 0 0 46978316.00 47307721.00 L 46950000.00 47303993.31 L 46950000.00 47200000.00 A 398715.18 398715.18 0 0 1 47272741.00 47445606.00 L 47300000.00 47547339.00 L 47300000.00 47550000.00  zM 58831551.90 54347839.90 L 52824840.00 48341128.00 L 51952459.75 48341128.00 L 51933325.40 48387322.40 L 57818073.00 54272070.00 L 57875170.63 54272070.00 L 57883701.00 54257295.00 A 398686.64 398686.64 0 1 1 57831662.00 54652571.00 L 57811667.17 54577948.00 L 57754724.00 54577948.00 L 57696197.00 54566306.00 L 57646580.00 54533153.00 L 57641469.40 54528042.40 L 57595275.00 54547176.75 L 57595275.00 54552039.00 A 398678.48 398678.48 0 1 1 56831551.90 54347839.90 L 51224840.00 48741128.00 L 44787008.00 48741128.00 L 44787008.00 49050000.03 L 44687008.00 49050000.02 L 44687008.00 48932677.00 L 44312992.00 48932677.00 L 44312992.00 49049999.98 L 44212992.00 49049999.97 L 44212992.00 48638766.00 L 44009448.00 48638766.00 L 44009448.00 48782677.00 L 43297638.00 48782677.00 L 43297638.00 48638766.00 L 40702362.00 48638766.00 L 40702362.00 48782677.00 L 39990552.00 48782677.00 L 39990552.00 48188977.00 L 40702362.00 48188977.00 L 40702362.00 48332888.00 L 43297638.00 48332888.00 L 43297638.00 48188977.00 L 44009448.00 48188977.00 L 44009448.00 48332888.00 L 44212992.00 48332888.00 L 44212992.00 48320866.00 L 44347061.00 48320866.00 L 44347061.00 48142913.00 L 44203150.00 48142913.00 L 44203150.00 47057087.00 L 44332888.00 47057087.00 L 44332888.00 46867112.00 L 44009448.00 46867112.00 L 44009448.00 47011023.00 L 43297638.00 47011023.00 L 43297638.00 46867112.00 L 40702362.00 46867112.00 L 40702362.00 47011023.00 L 39990552.00 47011023.00 L 39990552.00 46417323.00 L 40702362.00 46417323.00 L 40702362.00 46561234.00 L 43297638.00 46561234.00 L 43297638.00 46417323.00 L 44009448.00 46417323.00 L 44009448.00 46561234.00 L 44370066.00 46561234.00 L 44378201.00 46553099.00 A 193720.19 193720.19 0 0 1 44646901.00 46821799.00 L 44638766.00 46829934.00 L 44638766.00 47057087.00 L 44796850.00 47057087.00 L 44796850.00 48142913.00 L 44652939.00 48142913.00 L 44652939.00 48320866.00 L 44787008.00 48320866.00 L 44787008.00 48435250.00 L 46403633.25 48435250.00 L 46422767.60 48389055.60 L 45791856.00 47758144.00 L 45758703.00 47708527.00 L 45747061.00 47650000.00 L 45747061.00 46096886.00 L 44833202.40 45183027.40 L 44787008.00 45202161.75 L 44787008.00 45467323.00 L 44549999.98 45467323.00 L 44549999.99 45367323.00 L 44687008.00 45367323.00 L 44687008.00 45032677.00 L 44312992.00 45032677.00 L 44312992.00 45149999.98 L 44212992.00 45149999.97 L 44212992.00 44738766.00 L 44009448.00 44738766.00 L 44009448.00 44882677.00 L 43297638.00 44882677.00 L 43297638.00 44738766.00 L 40702362.00 44738766.00 L 40702362.00 44882677.00 L 39990552.00 44882677.00 L 39990552.00 44288977.00 L 40702362.00 44288977.00 L 40702362.00 44432888.00 L 43297638.00 44432888.00 L 43297638.00 44288977.00 L 44009448.00 44288977.00 L 44009448.00 44432888.00 L 44212992.00 44432888.00 L 44212992.00 44420866.00 L 44347061.00 44420866.00 L 44347061.00 44242913.00 L 44203150.00 44242913.00 L 44203150.00 43157087.00 L 44347061.00 43157087.00 L 44347061.00 42967112.00 L 44009448.00 42967112.00 L 44009448.00 43111023.00 L 43297638.00 43111023.00 L 43297638.00 42967112.00 L 40702362.00 42967112.00 L 40702362.00 43111023.00 L 39990552.00 43111023.00 L 39990552.00 42517323.00 L 40702362.00 42517323.00 L 40702362.00 42661234.00 L 43297638.00 42661234.00 L 43297638.00 42517323.00 L 44009448.00 42517323.00 L 44009448.00 42661234.00 L 44442525.00 42661234.00 L 44453809.03 42663478.58 L 44462207.00 42660000.00 A 193720.19 193720.19 0 0 1 44661074.00 42957626.00 L 44652939.00 42965761.00 L 44652939.00 43157087.00 L 44796850.00 43157087.00 L 44796850.00 44242913.00 L 44652939.00 44242913.00 L 44652939.00 44420866.00 L 44787008.00 44420866.00 L 44787008.00 44737270.58 L 44807667.00 44741380.00 L 44857284.00 44774533.00 L 45950866.60 45868115.60 L 45997061.00 45848981.25 L 45997061.00 42446886.00 L 44833202.40 41283027.40 L 44787008.00 41302161.75 L 44787008.00 41567323.00 L 44549999.98 41567323.00 L 44549999.99 41467323.00 L 44687008.00 41467323.00 L 44687008.00 41132677.00 L 44312992.00 41132677.00 L 44312992.00 41249999.98 L 44212992.00 41249999.97 L 44212992.00 40838766.00 L 44009448.00 40838766.00 L 44009448.00 40982677.00 L 43297638.00 40982677.00 L 43297638.00 40838766.00 L 40702362.00 40838766.00 L 40702362.00 40982677.00 L 39990552.00 40982677.00 L 39990552.00 40388977.00 L 40702362.00 40388977.00 L 40702362.00 40532888.00 L 43297638.00 40532888.00 L 43297638.00 40388977.00 L 44009448.00 40388977.00 L 44009448.00 40532888.00 L 44212992.00 40532888.00 L 44212992.00 40520866.00 L 44347061.00 40520866.00 L 44347061.00 40342913.00 L 44203150.00 40342913.00 L 44203150.00 39257087.00 L 44332888.00 39257087.00 L 44332888.00 39067112.00 L 44009448.00 39067112.00 L 44009448.00 39211023.00 L 43297638.00 39211023.00 L 43297638.00 39067112.00 L 40702362.00 39067112.00 L 40702362.00 39211023.00 L 39990552.00 39211023.00 L 39990552.00 38617323.00 L 40702362.00 38617323.00 L 40702362.00 38761234.00 L 43297638.00 38761234.00 L 43297638.00 38617323.00 L 44009448.00 38617323.00 L 44009448.00 38761234.00 L 44370066.00 38761234.00 L 44378201.00 38753099.00 A 193720.19 193720.19 0 0 1 44646901.00 39021799.00 L 44638766.00 39029934.00 L 44638766.00 39257087.00 L 44796850.00 39257087.00 L 44796850.00 40342913.00 L 44652939.00 40342913.00 L 44652939.00 40520866.00 L 44787008.00 40520866.00 L 44787008.00 40837270.58 L 44807667.00 40841380.00 L 44857284.00 40874533.00 L 46258144.00 42275393.00 L 46291297.00 42325010.00 L 46302939.00 42383537.00 L 46302939.00 47423047.00 L 46453805.60 47573913.60 L 46500000.00 47554779.25 L 46500000.00 47547339.00 A 403451.33 403451.33 0 0 1 46850000.00 47200000.00 L 46850000.00 47303993.31 L 46821684.00 47307721.00 A 302603.18 302603.18 0 1 0 47192279.00 47678316.00 L 47196006.69 47650000.00 L 47300000.00 47650000.00 A 398715.18 398715.18 0 0 1 47054394.00 47972741.00 L 47007709.95 47985249.83 L 47014292.53 48035250.00 L 47785707.47 48035250.00 L 47792290.05 47985249.83 L 47745606.00 47972741.00 A 403449.21 403449.21 0 1 1 48054394.00 47972741.00 L 48007709.95 47985249.83 L 48014292.53 48035250.00 L 48785707.47 48035250.00 L 48792290.05 47985249.83 L 48745606.00 47972741.00 A 403449.21 403449.21 0 1 1 49054394.00 47972741.00 L 49007709.95 47985249.83 L 49014292.53 48035250.00 L 49785707.47 48035250.00 L 49792290.05 47985249.83 L 49745606.00 47972741.00 A 403449.21 403449.21 0 1 1 50054394.00 47972741.00 L 50007709.95 47985249.83 L 50014292.53 48035250.00 L 50785707.47 48035250.00 L 50792290.05 47985249.83 L 50745606.00 47972741.00 A 403449.21 403449.21 0 1 1 51054394.00 47972741.00 L 51007709.95 47985249.83 L 51014292.53 48035250.00 L 51785707.47 48035250.00 L 51792290.05 47985249.83 L 51745606.00 47972741.00 A 403449.21 403449.21 0 1 1 52054394.00 47972741.00 L 52007709.95 47985249.83 L 52014292.53 48035250.00 L 52785707.47 48035250.00 L 52792290.05 47985249.83 L 52745606.00 47972741.00 A 403449.21 403449.21 0 1 1 53054394.00 47972741.00 L 52957674.52 47998656.65 L 52951536.09 48008878.21 L 52949537.01 48024646.21 L 52951367.92 48050000.31 L 52996333.00 48080045.00 L 59047839.90 54131551.90 A 397878.58 397878.58 0 1 1 58831551.90 54347839.90  zM 44449999.98 49367323.00 L 44212992.00 49367323.00 L 44212992.00 49149999.97 L 44312992.00 49149999.98 L 44312992.00 49267323.00 L 44449999.99 49267323.00 L 44449999.98 49367323.00  zM 46900001.39 47599994.95 m -178433.05 0 a 178433.05 178433.05 0 1 1 356866.10 0a 178433.05 178433.05 0 1 1 -356866.10 0M 44787008.00 49367323.00 L 44549999.98 49367323.00 L 44549999.99 49267323.00 L 44687008.00 49267323.00 L 44687008.00 49150000.02 L 44787008.00 49150000.03 L 44787008.00 49367323.00  zM 47400000.00 52099980.14 m -773745.42 0 a 773745.42 773745.42 0 1 1 1547490.85 0a 773745.42 773745.42 0 1 1 -1547490.85 0M 45273368.00 55226959.00 L 45150253.00 55226959.00 L 45130361.00 55225000.00 L 45009613.00 55200981.00 L 44990487.00 55195179.00 L 44876744.00 55148065.00 L 44859117.00 55138643.00 L 44756751.00 55070245.00 L 44741300.00 55057565.00 L 44654245.00 54970510.00 L 44641565.00 54955059.00 L 44573167.00 54852693.00 L 44563745.00 54835066.00 L 44516631.00 54721323.00 L 44510829.00 54702196.00 L 44486811.00 54581448.00 L 44484852.00 54561557.00 L 44484852.00 54438442.00 L 44486811.00 54418551.00 L 44510829.00 54297803.00 L 44516631.00 54278676.00 L 44563745.00 54164933.00 L 44573167.00 54147306.00 L 44641565.00 54044940.00 L 44654245.00 54029489.00 L 44741300.00 53942434.00 L 44756751.00 53929754.00 L 44859117.00 53861356.00 L 44876744.00 53851934.00 L 44990487.00 53804820.00 L 45009614.00 53799018.00 L 45130362.00 53775000.00 L 45150253.00 53773041.00 L 45273368.00 53773041.00 L 45293259.00 53775000.00 L 45414007.00 53799018.00 L 45433134.00 53804820.00 L 45546877.00 53851934.00 L 45564504.00 53861356.00 L 45666870.00 53929754.00 L 45682321.00 53942434.00 L 45769376.00 54029489.00 L 45782056.00 54044940.00 L 45850454.00 54147306.00 L 45859876.00 54164933.00 L 45906990.00 54278676.00 L 45912792.00 54297802.00 L 45936811.00 54418550.00 L 45938770.00 54438442.00 L 45938770.00 54561557.00 L 45936811.00 54581449.00 L 45912792.00 54702197.00 L 45906990.00 54721323.00 L 45859876.00 54835066.00 L 45850454.00 54852693.00 L 45782056.00 54955059.00 L 45769376.00 54970510.00 L 45682321.00 55057565.00 L 45666870.00 55070245.00 L 45564504.00 55138643.00 L 45546877.00 55148065.00 L 45433134.00 55195179.00 L 45414008.00 55200981.00 L 45293260.00 55225000.00 L 45283216.76 55225000.00 L 45273368.00 55226959.00  zM 46611811.00 54499992.41 m -398693.35 0 a 398693.35 398693.35 0 1 1 797386.70 0a 398693.35 398693.35 0 1 1 -797386.70 0M 47611811.00 54499992.41 m -398693.35 0 a 398693.35 398693.35 0 1 1 797386.70 0a 398693.35 398693.35 0 1 1 -797386.70 0M 48611811.00 54499992.41 m -398693.35 0 a 398693.35 398693.35 0 1 1 797386.70 0a 398693.35 398693.35 0 1 1 -797386.70 0M 49611811.00 54499992.41 m -398693.35 0 a 398693.35 398693.35 0 1 1 797386.70 0a 398693.35 398693.35 0 1 1 -797386.70 0M 50611811.00 54499992.41 m -398693.35 0 a 398693.35 398693.35 0 1 1 797386.70 0a 398693.35 398693.35 0 1 1 -797386.70 0M 52400000.00 52099980.14 m -773745.42 0 a 773745.42 773745.42 0 1 1 1547490.85 0a 773745.42 773745.42 0 1 1 -1547490.85 0M 51611811.00 54499992.41 m -398693.35 0 a 398693.35 398693.35 0 1 1 797386.70 0a 398693.35 398693.35 0 1 1 -797386.70 0M 52611811.00 54499992.41 m -398693.35 0 a 398693.35 398693.35 0 1 1 797386.70 0a 398693.35 398693.35 0 1 1 -797386.70 0M 53611811.00 54499992.41 m -398693.35 0 a 398693.35 398693.35 0 1 1 797386.70 0a 398693.35 398693.35 0 1 1 -797386.70 0M 54611811.00 54499992.41 m -398693.35 0 a 398693.35 398693.35 0 1 1 797386.70 0a 398693.35 398693.35 0 1 1 -797386.70 0M 56007086.00 54895275.00 L 55216536.00 54895275.00 L 55216536.00 54104725.00 L 56007086.00 54104725.00 L 56007086.00 54895275.00  zM 56200000.00 35499992.41 m -398693.35 0 a 398693.35 398693.35 0 1 1 797386.70 0a 398693.35 398693.35 0 1 1 -797386.70 0M 57595275.00 35895275.00 L 56804725.00 35895275.00 L 56804725.00 35104725.00 L 57595275.00 35104725.00 L 57595275.00 35895275.00  zM 60200000.00 35499992.41 m -398693.35 0 a 398693.35 398693.35 0 1 1 797386.70 0a 398693.35 398693.35 0 1 1 -797386.70 0M 63237010.00 37865354.00 L 62328350.00 37865354.00 L 62328350.00 37547033.00 L 60987008.00 37547033.00 L 60987008.00 37855903.03 L 60887008.00 37855903.02 L 60887008.00 37738582.00 L 60512992.00 37738582.00 L 60512992.00 37855902.98 L 60412992.00 37855902.97 L 60412992.00 37547033.00 L 59544094.00 37547033.00 L 59485566.00 37535391.00 L 59435950.00 37502238.00 L 59091856.00 37158144.00 L 59058703.00 37108527.00 L 59047061.00 37050000.00 L 59047061.00 35868125.53 A 397872.77 397872.77 0 1 1 59352939.00 35868125.53 L 59352939.00 36986651.00 L 59607443.00 37241155.00 L 60412992.00 37241155.00 L 60412992.00 37126771.00 L 60987008.00 37126771.00 L 60987008.00 37241155.00 L 62328350.00 37241155.00 L 62328350.00 36956694.00 L 63237010.00 36956694.00 L 63237010.00 37865354.00  zM 61200000.00 35499992.41 m -398693.35 0 a 398693.35 398693.35 0 1 1 797386.70 0a 398693.35 398693.35 0 1 1 -797386.70 0M 62200000.00 35499992.41 m -398693.35 0 a 398693.35 398693.35 0 1 1 797386.70 0a 398693.35 398693.35 0 1 1 -797386.70 0M 63200000.00 35499992.41 m -398693.35 0 a 398693.35 398693.35 0 1 1 797386.70 0a 398693.35 398693.35 0 1 1 -797386.70 0M 64595275.00 35895275.00 L 63804725.00 35895275.00 L 63804725.00 35104725.00 L 64595275.00 35104725.00 L 64595275.00 35895275.00  zM 60649999.98 38173228.00 L 60412992.00 38173228.00 L 60412992.00 37955902.97 L 60512992.00 37955902.98 L 60512992.00 38073228.00 L 60649999.99 38073228.00 L 60649999.98 38173228.00  zM 60987008.00 38173228.00 L 60749999.98 38173228.00 L 60749999.99 38073228.00 L 60887008.00 38073228.00 L 60887008.00 37955903.02 L 60987008.00 37955903.03 L 60987008.00 38173228.00  zM 62782680.00 38788977.89 m -458248.57 0 a 458248.57 458248.57 0 1 1 916497.13 0a 458248.57 458248.57 0 1 1 -916497.13 0M 65273368.00 38226959.00 L 65150253.00 38226959.00 L 65130361.00 38225000.00 L 65009613.00 38200981.00 L 64990487.00 38195179.00 L 64876744.00 38148065.00 L 64859117.00 38138643.00 L 64756751.00 38070245.00 L 64741300.00 38057565.00 L 64654245.00 37970510.00 L 64641565.00 37955059.00 L 64573167.00 37852693.00 L 64563745.00 37835066.00 L 64516631.00 37721323.00 L 64510829.00 37702196.00 L 64486811.00 37581448.00 L 64484852.00 37561557.00 L 64484852.00 37438442.00 L 64486811.00 37418551.00 L 64510829.00 37297803.00 L 64516631.00 37278676.00 L 64563745.00 37164933.00 L 64573167.00 37147306.00 L 64641565.00 37044940.00 L 64654245.00 37029489.00 L 64741300.00 36942434.00 L 64756751.00 36929754.00 L 64859117.00 36861356.00 L 64876744.00 36851934.00 L 64990487.00 36804820.00 L 65009614.00 36799018.00 L 65130362.00 36775000.00 L 65150253.00 36773041.00 L 65273368.00 36773041.00 L 65293259.00 36775000.00 L 65414007.00 36799018.00 L 65433134.00 36804820.00 L 65546877.00 36851934.00 L 65564504.00 36861356.00 L 65666870.00 36929754.00 L 65682321.00 36942434.00 L 65769376.00 37029489.00 L 65782056.00 37044940.00 L 65850454.00 37147306.00 L 65859876.00 37164933.00 L 65906990.00 37278676.00 L 65912792.00 37297802.00 L 65936811.00 37418550.00 L 65938770.00 37438442.00 L 65938770.00 37561557.00 L 65936811.00 37581449.00 L 65912792.00 37702197.00 L 65906990.00 37721323.00 L 65859876.00 37835066.00 L 65850454.00 37852693.00 L 65782056.00 37955059.00 L 65769376.00 37970510.00 L 65682321.00 38057565.00 L 65666870.00 38070245.00 L 65564504.00 38138643.00 L 65546877.00 38148065.00 L 65433134.00 38195179.00 L 65414008.00 38200981.00 L 65293260.00 38225000.00 L 65283216.76 38225000.00 L 65273368.00 38226959.00  zM 65200002.18 38999991.94 m -497968.06 0 a 497968.06 497968.06 0 1 1 995936.12 0a 497968.06 497968.06 0 1 1 -995936.12 0M 62782680.00 42313977.89 m -458248.57 0 a 458248.57 458248.57 0 1 1 916497.13 0a 458248.57 458248.57 0 1 1 -916497.13 0M 60836220.00 44973228.00 L 60163780.00 44973228.00 L 60163780.00 44300788.00 L 60836220.00 44300788.00 L 60836220.00 44382110.00 L 62328350.00 44382110.00 L 62328350.00 44006694.00 L 63237010.00 44006694.00 L 63237010.00 44206126.00 L 63418682.00 44206126.00 L 63445102.00 44179706.00 L 63445102.00 41255582.00 L 63380442.00 41190922.00 L 63237010.00 41190922.00 L 63237010.00 41390354.00 L 62328350.00 41390354.00 L 62328350.00 40481694.00 L 63237010.00 40481694.00 L 63237010.00 40681126.00 L 63486024.00 40681126.00 L 63583569.00 40700529.00 L 63666264.00 40755784.00 L 63880240.00 40969760.00 L 63935495.00 41052455.00 L 63954898.00 41150000.00 L 63954898.00 44285288.00 L 63935495.00 44382834.00 L 63880240.00 44465528.00 L 63704504.00 44641264.00 L 63621809.00 44696519.00 L 63524264.00 44715922.00 L 63237010.00 44715922.00 L 63237010.00 44915354.00 L 62328350.00 44915354.00 L 62328350.00 44891906.00 L 60836220.00 44891906.00 L 60836220.00 44973228.00  zM 65200002.18 46999991.94 m -497968.06 0 a 497968.06 497968.06 0 1 1 995936.12 0a 497968.06 497968.06 0 1 1 -995936.12 0M 60263780.00 47987008.00 L 60163780.00 47987008.00 L 60163780.00 47700788.00 L 60450000.00 47700788.00 L 60450000.00 47800788.00 L 60263780.00 47800788.00 L 60263780.00 47987008.00  zM 60450000.00 48373228.00 L 60163780.00 48373228.00 L 60163780.00 48087008.00 L 60263780.00 48087008.00 L 60263780.00 48273228.00 L 60450000.00 48273228.00 L 60450000.00 48373228.00  zM 60836220.00 47987008.00 L 60736220.00 47987008.00 L 60736220.00 47800788.00 L 60550000.00 47800788.00 L 60550000.00 47700788.00 L 60836220.00 47700788.00 L 60836220.00 47987008.00  zM 60836220.00 48373228.00 L 60550000.00 48373228.00 L 60550000.00 48273228.00 L 60736220.00 48273228.00 L 60736220.00 48087008.00 L 60836220.00 48087008.00 L 60836220.00 48373228.00  zM 60831551.70 54347840.64 L 57127242.40 50643530.43 L 57081048.00 50662664.77 L 57081048.00 51164760.00 L 60047839.90 54131551.90 A 397878.58 397878.58 0 1 1 59831551.90 54347839.90 L 56819965.00 51336253.00 L 56786812.00 51286636.00 L 56775170.00 51228109.00 L 56775170.00 47024300.98 L 53991667.92 44240797.95 L 53943704.53 44263545.89 L 53929471.00 44335102.00 A 222372.19 222372.19 0 0 1 53724016.00 44472383.00 L 53350000.00 44472383.00 L 53264898.00 44455455.00 L 53192751.00 44407249.00 L 53189871.21 44402939.00 L 52787008.00 44402939.00 L 52787008.00 44523229.00 L 52212992.00 44523229.00 L 52212992.00 44408845.00 L 52059855.00 44408845.00 L 52057626.00 44411074.00 A 193720.19 193720.19 0 1 1 52057626.00 44088926.00 L 52071667.00 44102967.00 L 52212992.00 44102967.00 L 52212992.00 43476772.00 L 52787008.00 43476772.00 L 52787008.00 43597061.00 L 53189871.21 43597061.00 L 53192751.00 43592751.00 L 53264898.00 43544545.00 L 53350000.00 43527617.00 L 53724016.00 43527617.00 A 222389.88 222389.88 0 0 1 53946399.00 43750000.00 L 53945387.77 43755083.77 L 54000866.60 43810562.60 L 54047061.00 43791428.25 L 54047061.00 43021223.00 L 53930834.82 42904996.82 L 53881264.27 42907249.48 L 53809118.00 42955455.00 L 53724016.00 42972383.00 L 53350000.00 42972383.00 L 53264898.00 42955455.00 L 53192751.00 42907249.00 L 53189871.21 42902939.00 L 53000000.00 42902939.00 L 52941473.00 42891297.00 L 52891856.00 42858144.00 L 52837008.40 42803296.40 L 52787008.00 42812152.46 L 52787008.00 43002967.00 L 52855906.00 43002967.00 L 52914433.00 43014609.00 L 52964050.00 43047762.00 L 53013349.00 43097061.00 L 53189871.21 43097061.00 L 53192751.00 43092751.00 L 53264898.00 43044545.00 L 53350000.00 43027617.00 L 53724016.00 43027617.00 A 222389.88 222389.88 0 0 1 53724016.00 43472383.00 L 53350000.00 43472383.00 L 53264898.00 43455455.00 L 53192751.00 43407249.00 L 53189871.21 43402939.00 L 52950000.00 43402939.00 L 52891473.00 43391297.00 L 52841856.00 43358144.00 L 52837008.43 43353296.43 L 52787008.00 43374007.28 L 52787008.00 43423229.00 L 52212992.00 43423229.00 L 52212992.00 43308845.00 L 52059855.00 43308845.00 L 52051720.00 43316980.00 A 193720.19 193720.19 0 1 1 52051720.00 42994832.00 L 52059855.00 43002967.00 L 52212992.00 43002967.00 L 52212992.00 42376772.00 L 52787008.00 42376772.00 L 52787008.00 42491156.00 L 52894095.00 42491156.00 L 52952622.00 42502798.00 L 53002239.00 42535951.00 L 53063349.00 42597061.00 L 53189871.21 42597061.00 L 53192751.00 42592751.00 L 53264898.00 42544545.00 L 53350000.00 42527617.00 L 53724016.00 42527617.00 L 53809118.00 42544545.00 L 53881265.00 42592751.00 L 53884144.79 42597061.00 L 53992126.00 42597061.00 L 54050653.00 42608703.00 L 54100270.00 42641856.00 L 54308144.00 42849730.00 L 54341297.00 42899347.00 L 54352939.00 42957874.00 L 54352939.00 43886650.98 L 55054273.20 44587984.94 L 55093110.84 44556111.72 L 55066577.00 44516401.00 L 55054935.00 44457874.00 L 55054935.00 43518110.00 L 55066577.00 43459583.00 L 55099730.00 43409966.00 L 55254612.23 43255083.77 L 55253601.00 43250000.00 A 222389.88 222389.88 0 0 1 55475984.00 43027617.00 L 55510053.00 43027617.00 L 55510053.00 42972383.00 L 55475984.00 42972383.00 A 222389.88 222389.88 0 0 1 55475984.00 42527617.00 L 55850000.00 42527617.00 A 222389.88 222389.88 0 0 1 55850000.00 42972383.00 L 55815931.00 42972383.00 L 55815931.00 43027617.00 L 55850000.00 43027617.00 A 222389.88 222389.88 0 0 1 55850000.00 43472383.00 L 55508163.89 43472383.00 L 55505402.99 43477616.49 L 55535557.12 43527617.00 L 55850000.00 43527617.00 A 222389.88 222389.88 0 0 1 55850000.00 43972383.00 L 55815931.00 43972383.00 L 55815931.00 44027617.00 L 55850000.00 44027617.00 L 55935102.00 44044545.00 L 56007249.00 44092751.00 L 56010128.79 44097061.00 L 57400000.00 44097061.00 L 57458527.00 44108703.00 L 57508144.00 44141856.00 L 58976341.00 45610053.00 L 60163780.00 45610053.00 L 60163780.00 45426772.00 L 60836220.00 45426772.00 L 60836220.00 45610053.00 L 62390233.99 45610053.00 L 62419126.00 45560011.00 A 458255.75 458255.75 0 1 1 62359312.00 46014341.00 L 62332942.95 45915931.00 L 60836220.00 45915931.00 L 60836220.00 46099212.00 L 60163780.00 46099212.00 L 60163780.00 45915931.00 L 58912992.00 45915931.00 L 58854465.00 45904289.00 L 58804848.00 45871136.00 L 57336651.00 44402939.00 L 56010128.79 44402939.00 L 56007249.00 44407249.00 L 55935102.00 44455455.00 L 55850000.00 44472383.00 L 55509382.28 44472383.00 L 55488671.43 44522383.43 L 59976341.00 49010053.00 L 60163780.00 49010053.00 L 60163780.00 48826772.00 L 60836220.00 48826772.00 L 60836220.00 49010053.00 L 61512992.00 49010053.00 L 61571519.00 49021695.00 L 61621136.00 49054848.00 L 61777325.00 49211037.00 L 62353302.93 49211037.00 L 62359312.00 49188611.00 A 458255.75 458255.75 0 1 1 62359312.00 49539341.00 L 62353302.93 49516915.00 L 61713976.00 49516915.00 L 61655449.00 49505273.00 L 61605832.00 49472120.00 L 61449643.00 49315931.00 L 60836220.00 49315931.00 L 60836220.00 49499212.00 L 60163780.00 49499212.00 L 60163780.00 49315931.00 L 59912992.00 49315931.00 L 59854465.00 49304289.00 L 59804848.00 49271136.00 L 57281711.30 46747999.30 L 57242873.66 46779872.53 L 57269406.00 46819581.00 L 57281048.00 46878109.00 L 57281048.00 50364759.99 L 61047840.64 54131551.70 A 397877.12 397877.12 0 1 1 60831551.70 54347840.64  zM 59926772.00 51450001.00 L 59826772.00 51450001.00 L 59826772.00 51212992.00 L 60044096.00 51212992.00 L 60044096.00 51312992.00 L 59926772.00 51312992.00 L 59926772.00 51450001.00  zM 60044096.00 51787008.00 L 59826772.00 51787008.00 L 59826772.00 51550001.00 L 59926772.00 51550001.00 L 59926772.00 51687008.00 L 60044096.00 51687008.00 L 60044096.00 51787008.00  zM 62047061.00 54131874.47 L 62047061.00 52550000.00 L 62058703.00 52491473.00 L 62091856.00 52441856.00 L 62522163.60 52011548.40 L 62503029.25 51965354.00 L 62328350.00 51965354.00 L 62328350.00 51652939.00 L 60873229.00 51652939.00 L 60873229.00 51787008.00 L 60144096.00 51787008.00 L 60144096.00 51687008.00 L 60261418.00 51687008.00 L 60261418.00 51312992.00 L 60144096.00 51312992.00 L 60144096.00 51212992.00 L 60873229.00 51212992.00 L 60873229.00 51347061.00 L 62328350.00 51347061.00 L 62328350.00 51056694.00 L 63237010.00 51056694.00 L 63237010.00 51965354.00 L 62935619.00 51965354.00 L 62923977.00 52025847.00 L 62890824.00 52075464.00 L 62491615.83 52474672.17 L 62522316.72 52514682.20 L 62607315.00 52465608.00 A 458248.57 458248.57 0 1 1 62419126.00 53167941.00 L 62402939.32 53139905.08 L 62352939.00 53153302.72 L 62352939.00 54131874.47 A 397872.77 397872.77 0 1 1 62047061.00 54131874.47  zM 62428350.00 47936023.98 L 62328350.00 47936023.98 L 62328350.00 47531694.00 L 62732680.02 47531694.00 L 62732680.02 47631694.00 L 62428350.00 47631694.00 L 62428350.00 47936023.98  zM 62732679.98 48440354.00 L 62328350.00 48440354.00 L 62328350.00 48036023.98 L 62428350.00 48036023.98 L 62428350.00 48340354.00 L 62732679.98 48340354.00 L 62732679.98 48440354.00  zM 62782676.50 47986033.68 m -240838.32 0 a 240838.32 240838.32 0 1 1 481676.63 0a 240838.32 240838.32 0 1 1 -481676.63 0M 63237010.00 47936024.02 L 63137010.00 47936024.02 L 63137010.00 47631694.00 L 62832680.02 47631694.00 L 62832680.02 47531694.00 L 63237010.00 47531694.00 L 63237010.00 47936024.02  zM 63237010.00 48440354.00 L 62832679.98 48440354.00 L 62832679.98 48340354.00 L 63137010.00 48340354.00 L 63137010.00 48036024.02 L 63237010.00 48036024.02 L 63237010.00 48440354.00  zM 65273368.00 49226959.00 L 65150253.00 49226959.00 L 65130361.00 49225000.00 L 65009613.00 49200981.00 L 64990487.00 49195179.00 L 64876744.00 49148065.00 L 64859117.00 49138643.00 L 64756751.00 49070245.00 L 64741300.00 49057565.00 L 64654245.00 48970510.00 L 64641565.00 48955059.00 L 64573167.00 48852693.00 L 64563745.00 48835066.00 L 64516631.00 48721323.00 L 64510829.00 48702196.00 L 64486811.00 48581448.00 L 64484852.00 48561557.00 L 64484852.00 48438442.00 L 64486811.00 48418551.00 L 64510829.00 48297803.00 L 64516631.00 48278676.00 L 64563745.00 48164933.00 L 64573167.00 48147306.00 L 64641565.00 48044940.00 L 64654245.00 48029489.00 L 64741300.00 47942434.00 L 64756751.00 47929754.00 L 64859117.00 47861356.00 L 64876744.00 47851934.00 L 64990487.00 47804820.00 L 65009614.00 47799018.00 L 65130362.00 47775000.00 L 65150253.00 47773041.00 L 65273368.00 47773041.00 L 65293259.00 47775000.00 L 65414007.00 47799018.00 L 65433134.00 47804820.00 L 65546877.00 47851934.00 L 65564504.00 47861356.00 L 65666870.00 47929754.00 L 65682321.00 47942434.00 L 65769376.00 48029489.00 L 65782056.00 48044940.00 L 65850454.00 48147306.00 L 65859876.00 48164933.00 L 65906990.00 48278676.00 L 65912792.00 48297802.00 L 65936811.00 48418550.00 L 65938770.00 48438442.00 L 65938770.00 48561557.00 L 65936811.00 48581449.00 L 65912792.00 48702197.00 L 65906990.00 48721323.00 L 65859876.00 48835066.00 L 65850454.00 48852693.00 L 65782056.00 48955059.00 L 65769376.00 48970510.00 L 65682321.00 49057565.00 L 65666870.00 49070245.00 L 65564504.00 49138643.00 L 65546877.00 49148065.00 L 65433134.00 49195179.00 L 65414008.00 49200981.00 L 65293260.00 49225000.00 L 65283216.76 49225000.00 L 65273368.00 49226959.00  zM 63200000.00 54499992.41 m -398693.35 0 a 398693.35 398693.35 0 1 1 797386.70 0a 398693.35 398693.35 0 1 1 -797386.70 0M 64595275.00 54895275.00 L 63804725.00 54895275.00 L 63804725.00 54104725.00 L 64595275.00 54104725.00 L 64595275.00 54895275.00  z"/>
<path id="N" d="M 57147961.00 54104725.00 L 57152823.25 54104725.00 L 57171957.60 54058530.60 L 51654555.00 48541128.00 L 51522744.75 48541128.00 L 51503610.40 48587322.40 L 57047839.90 54131551.90 L 57147961.00 54104725.00  z"/>
<path id="N" d="M 57051088.00 54242078.00 L 57032713.86 54256176.83 L 51326458.00 48549920.00 L 51288186.59 48534069.00 L 44687008.00 48534069.00 L 44687008.00 48420866.00 L 44554120.00 48420866.00 L 44554120.00 48042913.00 L 44696850.00 48042913.00 L 44696850.00 47688583.00 L 44303150.00 47688583.00 L 44303150.00 48042913.00 L 44445880.00 48042913.00 L 44445880.00 48420866.00 L 44312992.00 48420866.00 L 44312992.00 48431707.00 L 43909448.00 48431707.00 L 43909448.00 48288977.00 L 43397638.00 48288977.00 L 43397638.00 48431707.00 L 40602362.00 48431707.00 L 40602362.00 48288977.00 L 40090552.00 48288977.00 L 40090552.00 48682677.00 L 40602362.00 48682677.00 L 40602362.00 48539947.00 L 43397638.00 48539947.00 L 43397638.00 48682677.00 L 43909448.00 48682677.00 L 43909448.00 48539947.00 L 44312992.00 48539947.00 L 44312992.00 48755512.00 L 44687008.00 48755512.00 L 44687008.00 48642309.00 L 51265771.00 48642309.00 L 56956176.83 54332713.86 L 56942078.00 54351088.00 A 297823.01 297823.01 0 1 0 57051088.00 54242078.00  zM 57200000.44 54499998.65 m -180637.35 0 a 180637.35 180637.35 0 1 1 361274.69 0a 180637.35 180637.35 0 1 1 -361274.69 0"/>
<path id="N" d="M 62437471.00 49271477.00 L 62432418.19 49309856.00 L 61736393.08 49309856.00 L 61551261.00 49124723.00 L 61512989.59 49108872.00 L 60736220.00 49108872.00 L 60736220.00 48926772.00 L 60263780.00 48926772.00 L 60263780.00 49108872.00 L 59935409.00 49108872.00 L 55261994.00 44435456.00 L 55261994.00 43540527.94 L 55439378.77 43363142.51 L 55475984.00 43370424.00 L 55850000.00 43370424.00 A 120431.73 120431.73 0 0 0 55850000.00 43129576.00 L 55717112.00 43129576.00 L 55717112.00 42870424.00 L 55850000.00 42870424.00 A 120431.73 120431.73 0 0 0 55850000.00 42629576.00 L 55475984.00 42629576.00 A 120431.73 120431.73 0 0 0 55475984.00 42870424.00 L 55608872.00 42870424.00 L 55608872.00 43129576.00 L 55475984.00 43129576.00 A 120431.73 120431.73 0 0 0 55355560.00 43250000.00 L 55362841.49 43286605.23 L 55169605.00 43479841.00 L 55153754.00 43518112.41 L 55153753.00 44457874.00 L 55169605.00 44496143.00 L 59874723.00 49201261.00 L 59912994.41 49217112.00 L 60263780.00 49217112.00 L 60263780.00 49399212.00 L 60736220.00 49399212.00 L 60736220.00 49217112.00 L 61490574.08 49217112.00 L 61675707.00 49402245.00 L 61713976.00 49418096.00 L 62432418.19 49418096.00 L 62437471.00 49456475.00 A 357387.03 357387.03 0 1 0 62437471.00 49271477.00  zM 62782676.50 49363985.68 m -240838.32 0 a 240838.32 240838.32 0 1 1 481676.63 0a 240838.32 240838.32 0 1 1 -481676.63 0"/>
<path id="N" d="M 53724016.00 43129576.00 L 53350000.00 43129576.00 L 53303916.00 43138743.00 L 53264847.00 43164847.00 L 53244112.26 43195880.00 L 52972418.00 43195880.00 L 52894175.00 43117637.00 L 52855903.59 43101786.00 L 52687008.00 43101786.00 L 52687008.00 42988583.00 L 52312992.00 42988583.00 L 52312992.00 43101786.00 L 52016173.73 43101786.00 L 52008980.00 43091020.00 A 91761.13 91761.13 0 1 0 52008980.00 43220792.00 L 52016173.73 43210026.00 L 52312992.00 43210026.00 L 52312992.00 43323229.00 L 52687008.00 43323229.00 L 52687008.00 43210026.00 L 52833488.00 43210026.00 L 52911731.00 43288269.00 L 52950002.41 43304120.00 L 53244112.26 43304120.00 L 53264847.00 43335153.00 L 53303916.00 43361257.00 L 53350000.00 43370424.00 L 53724016.00 43370424.00 A 120412.98 120412.98 0 1 0 53724016.00 43129576.00  z"/>
<path id="N" d="M 62782680.91 52888975.51 m -357387.03 0 a 357387.03 357387.03 0 1 1 714774.05 0a 357387.03 357387.03 0 1 1 -714774.05 0M 62782676.50 52888985.68 m -240838.32 0 a 240838.32 240838.32 0 1 1 481676.63 0a 240838.32 240838.32 0 1 1 -481676.63 0"/>
<path id="N" d="M 52687008.00 44304120.00 L 53244112.26 44304120.00 L 53264847.00 44335153.00 L 53303916.00 44361257.00 L 53350000.00 44370424.00 L 53724016.00 44370424.00 A 120431.73 120431.73 0 1 0 53724016.00 44129576.00 L 53350000.00 44129576.00 L 53303916.00 44138743.00 L 53264847.00 44164847.00 L 53244112.26 44195880.00 L 52687008.00 44195880.00 L 52687008.00 44088583.00 L 52312992.00 44088583.00 L 52312992.00 44201786.00 L 52026026.05 44201786.00 L 52014886.00 44185114.00 A 91761.13 91761.13 0 1 0 52014886.00 44314886.00 L 52018133.40 44310026.00 L 52312992.00 44310026.00 L 52312992.00 44423229.00 L 52687008.00 44423229.00 L 52687008.00 44304120.00  z"/>
<path id="N" d="M 62782680.91 42313975.51 m -357387.03 0 a 357387.03 357387.03 0 1 1 714774.05 0a 357387.03 357387.03 0 1 1 -714774.05 0M 62782676.50 42313985.68 m -240838.32 0 a 240838.32 240838.32 0 1 1 481676.63 0a 240838.32 240838.32 0 1 1 -481676.63 0"/>
<path id="N" d="M 62782680.91 38788975.51 m -357387.03 0 a 357387.03 357387.03 0 1 1 714774.05 0a 357387.03 357387.03 0 1 1 -714774.05 0M 62782676.50 38788985.68 m -240838.32 0 a 240838.32 240838.32 0 1 1 481676.63 0a 240838.32 240838.32 0 1 1 -481676.63 0"/>
<path id="N" d="M 52199997.35 35499993.57 m -297829.90 0 a 297829.90 297829.90 0 1 1 595659.80 0a 297829.90 297829.90 0 1 1 -595659.80 0M 52200000.44 35499998.65 m -180637.35 0 a 180637.35 180637.35 0 1 1 361274.69 0a 180637.35 180637.35 0 1 1 -361274.69 0"/>
<path id="N" d="M 49611801.01 54499980.86 m -297844.08 0 a 297844.08 297844.08 0 1 1 595688.15 0a 297844.08 297844.08 0 1 1 -595688.15 0M 49611811.44 54499998.65 m -180637.35 0 a 180637.35 180637.35 0 1 1 361274.69 0a 180637.35 180637.35 0 1 1 -361274.69 0"/>
<path id="N" d="M 48899992.67 47599987.81 m -302603.18 0 a 302603.18 302603.18 0 1 1 605206.36 0a 302603.18 302603.18 0 1 1 -605206.36 0M 48900001.39 47599994.95 m -178433.05 0 a 178433.05 178433.05 0 1 1 356866.10 0a 178433.05 178433.05 0 1 1 -356866.10 0"/>
<path id="N" d="M 51199997.35 35499993.57 m -297829.90 0 a 297829.90 297829.90 0 1 1 595659.80 0a 297829.90 297829.90 0 1 1 -595659.80 0M 51200000.44 35499998.65 m -180637.35 0 a 180637.35 180637.35 0 1 1 361274.69 0a 180637.35 180637.35 0 1 1 -361274.69 0"/>
<path id="N" d="M 44696850.00 43257087.00 L 44554120.00 43257087.00 L 44554120.00 42922079.73 L 44564886.00 42914886.00 A 91761.13 91761.13 0 0 0 44464884.00 42765222.00 L 44461103.87 42767747.84 L 44442522.59 42760053.00 L 43909448.00 42760053.00 L 43909448.00 42617323.00 L 43397638.00 42617323.00 L 43397638.00 42760053.00 L 40602362.00 42760053.00 L 40602362.00 42617323.00 L 40090552.00 42617323.00 L 40090552.00 43011023.00 L 40602362.00 43011023.00 L 40602362.00 42868293.00 L 43397638.00 42868293.00 L 43397638.00 43011023.00 L 43909448.00 43011023.00 L 43909448.00 42868293.00 L 44411875.70 42868293.00 L 44415222.00 42885116.00 L 44435114.00 42914886.00 L 44445880.00 42922079.73 L 44445880.00 43257087.00 L 44303150.00 43257087.00 L 44303150.00 43611417.00 L 44696850.00 43611417.00 L 44696850.00 43257087.00  z"/>
<path id="N" d="M 44696850.00 39357087.00 L 44539947.00 39357087.00 L 44539947.00 38986252.73 L 44550713.00 38979059.00 A 91761.13 91761.13 0 1 0 44420941.00 38849287.00 L 44413747.27 38860053.00 L 43909448.00 38860053.00 L 43909448.00 38717323.00 L 43397638.00 38717323.00 L 43397638.00 38860053.00 L 40602362.00 38860053.00 L 40602362.00 38717323.00 L 40090552.00 38717323.00 L 40090552.00 39111023.00 L 40602362.00 39111023.00 L 40602362.00 38968293.00 L 43397638.00 38968293.00 L 43397638.00 39111023.00 L 43909448.00 39111023.00 L 43909448.00 38968293.00 L 44413747.27 38968293.00 L 44420941.00 38979059.00 L 44431707.00 38986252.73 L 44431707.00 39357087.00 L 44303150.00 39357087.00 L 44303150.00 39711417.00 L 44696850.00 39711417.00 L 44696850.00 39357087.00  z"/>
<path id="N" d="M 44696850.00 47157087.00 L 44539947.00 47157087.00 L 44539947.00 46786252.73 L 44550713.00 46779059.00 A 91761.13 91761.13 0 1 0 44420941.00 46649287.00 L 44413747.27 46660053.00 L 43909448.00 46660053.00 L 43909448.00 46517323.00 L 43397638.00 46517323.00 L 43397638.00 46660053.00 L 40602362.00 46660053.00 L 40602362.00 46517323.00 L 40090552.00 46517323.00 L 40090552.00 46911023.00 L 40602362.00 46911023.00 L 40602362.00 46768293.00 L 43397638.00 46768293.00 L 43397638.00 46911023.00 L 43909448.00 46911023.00 L 43909448.00 46768293.00 L 44413747.27 46768293.00 L 44420941.00 46779059.00 L 44431707.00 46786252.73 L 44431707.00 47157087.00 L 44303150.00 47157087.00 L 44303150.00 47511417.00 L 44696850.00 47511417.00 L 44696850.00 47157087.00  z"/>
<path id="N" d="M 62473174.00 45660282.00 L 62453047.44 45708872.00 L 60736220.00 45708872.00 L 60736220.00 45526772.00 L 60263780.00 45526772.00 L 60263780.00 45708872.00 L 58935409.01 45708872.00 L 57438269.00 44211731.00 L 57399997.59 44195880.00 L 55955887.74 44195880.00 L 55935153.00 44164847.00 L 55896084.00 44138743.00 L 55850000.00 44129576.00 L 55717112.00 44129576.00 L 55717112.00 43870424.00 L 55850000.00 43870424.00 A 120431.73 120431.73 0 0 0 55850000.00 43629576.00 L 55475984.00 43629576.00 A 120431.73 120431.73 0 0 0 55475984.00 43870424.00 L 55608872.00 43870424.00 L 55608872.00 44129576.00 L 55475984.00 44129576.00 A 120431.73 120431.73 0 0 0 55475984.00 44370424.00 L 55850000.00 44370424.00 L 55896084.00 44361257.00 L 55935153.00 44335153.00 L 55955887.74 44304120.00 L 57377582.01 44304120.00 L 58874723.00 45801261.00 L 58912994.41 45817112.00 L 60263780.00 45817112.00 L 60263780.00 45999212.00 L 60736220.00 45999212.00 L 60736220.00 45817112.00 L 62428171.52 45817112.00 L 62425293.00 45838976.00 A 357393.77 357393.77 0 1 0 62473174.00 45660282.00  zM 62782676.50 45838985.68 m -240838.32 0 a 240838.32 240838.32 0 1 1 481676.63 0a 240838.32 240838.32 0 1 1 -481676.63 0"/>
<path id="N" d="M 59051088.00 54242078.00 L 59032713.86 54256176.83 L 52926458.00 48149920.00 L 52888186.59 48134069.00 L 46874210.02 48134069.00 L 46204120.00 47463978.02 L 46204120.00 42383537.00 L 46188267.29 42345267.29 L 44787409.00 40944408.00 L 44749137.59 40928557.00 L 44736590.08 40928557.00 L 44687008.00 40878974.66 L 44687008.00 40620866.00 L 44554120.00 40620866.00 L 44554120.00 40242913.00 L 44696850.00 40242913.00 L 44696850.00 39888583.00 L 44303150.00 39888583.00 L 44303150.00 40242913.00 L 44445880.00 40242913.00 L 44445880.00 40620866.00 L 44312992.00 40620866.00 L 44312992.00 40631707.00 L 43909448.00 40631707.00 L 43909448.00 40488977.00 L 43397638.00 40488977.00 L 43397638.00 40631707.00 L 40602362.00 40631707.00 L 40602362.00 40488977.00 L 40090552.00 40488977.00 L 40090552.00 40882677.00 L 40602362.00 40882677.00 L 40602362.00 40739947.00 L 43397638.00 40739947.00 L 43397638.00 40882677.00 L 43909448.00 40882677.00 L 43909448.00 40739947.00 L 44312992.00 40739947.00 L 44312992.00 40955512.00 L 44610470.66 40955512.00 L 44675904.00 41020946.00 L 44714175.41 41036797.00 L 44726722.01 41036797.00 L 46095880.00 42405954.01 L 46095879.00 47486396.00 L 46111731.00 47524665.00 L 46813524.00 48226458.00 L 46851793.00 48242309.00 L 52865771.00 48242309.00 L 58956176.83 54332713.86 L 58942078.00 54351088.00 A 297823.01 297823.01 0 1 0 59051088.00 54242078.00  zM 59200000.44 54499998.65 m -180637.35 0 a 180637.35 180637.35 0 1 1 361274.69 0a 180637.35 180637.35 0 1 1 -361274.69 0"/>
<path id="N" d="M 60051088.00 54242078.00 L 60032713.88 54256176.81 L 56982229.00 51205691.00 L 56982229.00 46960951.00 L 56966376.29 46922681.29 L 54043118.06 43999422.06 L 54038267.29 43987714.29 L 53837158.59 43786604.86 L 53844440.00 43750000.00 A 120431.73 120431.73 0 0 0 53724016.00 43629576.00 L 53350000.00 43629576.00 L 53303916.00 43638743.00 L 53264847.00 43664847.00 L 53244112.26 43695880.00 L 52687008.00 43695880.00 L 52687008.00 43576772.00 L 52312992.00 43576772.00 L 52312992.00 43911418.00 L 52687008.00 43911418.00 L 52687008.00 43804120.00 L 53244112.26 43804120.00 L 53264847.00 43835153.00 L 53303916.00 43861257.00 L 53350000.00 43870424.00 L 53724016.00 43870424.00 L 53760620.86 43863142.59 L 53956880.73 44059401.74 L 53961731.00 44071111.00 L 56873989.00 46983368.01 L 56873988.00 51228109.00 L 56889840.00 51266378.00 L 59956176.81 54332713.88 L 59942078.00 54351088.00 A 297823.01 297823.01 0 1 0 60051088.00 54242078.00  zM 60200000.44 54499998.65 m -180637.35 0 a 180637.35 180637.35 0 1 1 361274.69 0a 180637.35 180637.35 0 1 1 -361274.69 0"/>
<path id="N" d="M 52611801.01 54499980.86 m -297844.08 0 a 297844.08 297844.08 0 1 1 595688.15 0a 297844.08 297844.08 0 1 1 -595688.15 0M 52611811.44 54499998.65 m -180637.35 0 a 180637.35 180637.35 0 1 1 361274.69 0a 180637.35 180637.35 0 1 1 -361274.69 0"/>
<path id="N" d="M 55199997.35 35499993.57 m -297829.90 0 a 297829.90 297829.90 0 1 1 595659.80 0a 297829.90 297829.90 0 1 1 -595659.80 0M 55200000.44 35499998.65 m -180637.35 0 a 180637.35 180637.35 0 1 1 361274.69 0a 180637.35 180637.35 0 1 1 -361274.69 0"/>
<path id="N" d="M 51611801.01 54499980.86 m -297844.08 0 a 297844.08 297844.08 0 1 1 595688.15 0a 297844.08 297844.08 0 1 1 -595688.15 0M 51611811.44 54499998.65 m -180637.35 0 a 180637.35 180637.35 0 1 1 361274.69 0a 180637.35 180637.35 0 1 1 -361274.69 0"/>
<path id="N" d="M 56199997.35 35499993.57 m -297829.90 0 a 297829.90 297829.90 0 1 1 595659.80 0a 297829.90 297829.90 0 1 1 -595659.80 0M 56200000.44 35499998.65 m -180637.35 0 a 180637.35 180637.35 0 1 1 361274.69 0a 180637.35 180637.35 0 1 1 -361274.69 0"/>
<path id="N" d="M 54199997.35 35499993.57 m -297829.90 0 a 297829.90 297829.90 0 1 1 595659.80 0a 297829.90 297829.90 0 1 1 -595659.80 0M 54200000.44 35499998.65 m -180637.35 0 a 180637.35 180637.35 0 1 1 361274.69 0a 180637.35 180637.35 0 1 1 -361274.69 0"/>
<path id="N" d="M 50199997.35 35499993.57 m -297829.90 0 a 297829.90 297829.90 0 1 1 595659.80 0a 297829.90 297829.90 0 1 1 -595659.80 0M 50200000.44 35499998.65 m -180637.35 0 a 180637.35 180637.35 0 1 1 361274.69 0a 180637.35 180637.35 0 1 1 -361274.69 0"/>
<path id="N" d="M 61199997.35 35499993.57 m -297829.90 0 a 297829.90 297829.90 0 1 1 595659.80 0a 297829.90 297829.90 0 1 1 -595659.80 0M 61200000.44 35499998.65 m -180637.35 0 a 180637.35 180637.35 0 1 1 361274.69 0a 180637.35 180637.35 0 1 1 -361274.69 0"/>
<path id="N" d="M 62199997.35 35499993.57 m -297829.90 0 a 297829.90 297829.90 0 1 1 595659.80 0a 297829.90 297829.90 0 1 1 -595659.80 0M 62200000.44 35499998.65 m -180637.35 0 a 180637.35 180637.35 0 1 1 361274.69 0a 180637.35 180637.35 0 1 1 -361274.69 0"/>
<path id="N" d="M 47899992.67 47599987.81 m -302603.18 0 a 302603.18 302603.18 0 1 1 605206.36 0a 302603.18 302603.18 0 1 1 -605206.36 0M 47900001.39 47599994.95 m -178433.05 0 a 178433.05 178433.05 0 1 1 356866.10 0a 178433.05 178433.05 0 1 1 -356866.10 0"/>
<path id="N" d="M 60199997.35 35499993.57 m -297829.90 0 a 297829.90 297829.90 0 1 1 595659.80 0a 297829.90 297829.90 0 1 1 -595659.80 0M 60200000.44 35499998.65 m -180637.35 0 a 180637.35 180637.35 0 1 1 361274.69 0a 180637.35 180637.35 0 1 1 -361274.69 0"/>
<path id="N" d="M 63199997.35 54499993.57 m -297829.90 0 a 297829.90 297829.90 0 1 1 595659.80 0a 297829.90 297829.90 0 1 1 -595659.80 0M 63200000.44 54499998.65 m -180637.35 0 a 180637.35 180637.35 0 1 1 361274.69 0a 180637.35 180637.35 0 1 1 -361274.69 0"/>
<path id="N" d="M 52899992.67 47599987.81 m -302603.18 0 a 302603.18 302603.18 0 1 1 605206.36 0a 302603.18 302603.18 0 1 1 -605206.36 0M 52900001.39 47599994.95 m -178433.05 0 a 178433.05 178433.05 0 1 1 356866.10 0a 178433.05 178433.05 0 1 1 -356866.10 0"/>
<path id="N" d="M 51899992.67 47599987.81 m -302603.18 0 a 302603.18 302603.18 0 1 1 605206.36 0a 302603.18 302603.18 0 1 1 -605206.36 0M 51900001.39 47599994.95 m -178433.05 0 a 178433.05 178433.05 0 1 1 356866.10 0a 178433.05 178433.05 0 1 1 -356866.10 0"/>
<path id="N" d="M 50611801.01 54499980.86 m -297844.08 0 a 297844.08 297844.08 0 1 1 595688.15 0a 297844.08 297844.08 0 1 1 -595688.15 0M 50611811.44 54499998.65 m -180637.35 0 a 180637.35 180637.35 0 1 1 361274.69 0a 180637.35 180637.35 0 1 1 -361274.69 0"/>
<path id="N" d="M 46611801.01 54499980.86 m -297844.08 0 a 297844.08 297844.08 0 1 1 595688.15 0a 297844.08 297844.08 0 1 1 -595688.15 0M 46611811.44 54499998.65 m -180637.35 0 a 180637.35 180637.35 0 1 1 361274.69 0a 180637.35 180637.35 0 1 1 -361274.69 0"/>
<path id="N" d="M 47611801.01 54499980.86 m -297844.08 0 a 297844.08 297844.08 0 1 1 595688.15 0a 297844.08 297844.08 0 1 1 -595688.15 0M 47611811.44 54499998.65 m -180637.35 0 a 180637.35 180637.35 0 1 1 361274.69 0a 180637.35 180637.35 0 1 1 -361274.69 0"/>
<path id="N" d="M 48611801.01 54499980.86 m -297844.08 0 a 297844.08 297844.08 0 1 1 595688.15 0a 297844.08 297844.08 0 1 1 -595688.15 0M 48611811.44 54499998.65 m -180637.35 0 a 180637.35 180637.35 0 1 1 361274.69 0a 180637.35 180637.35 0 1 1 -361274.69 0"/>
<path id="N" d="M 53611801.01 54499980.86 m -297844.08 0 a 297844.08 297844.08 0 1 1 595688.15 0a 297844.08 297844.08 0 1 1 -595688.15 0M 53611811.44 54499998.65 m -180637.35 0 a 180637.35 180637.35 0 1 1 361274.69 0a 180637.35 180637.35 0 1 1 -361274.69 0"/>
<path id="N" d="M 54611801.01 54499980.86 m -297844.08 0 a 297844.08 297844.08 0 1 1 595688.15 0a 297844.08 297844.08 0 1 1 -595688.15 0M 54611811.44 54499998.65 m -180637.35 0 a 180637.35 180637.35 0 1 1 361274.69 0a 180637.35 180637.35 0 1 1 -361274.69 0"/>
<path id="N" d="M 64495275.00 54204725.00 L 63904725.00 54204725.00 L 63904725.00 54795275.00 L 64495275.00 54795275.00 L 64495275.00 54204725.00  zM 64200000.44 54499998.65 m -180637.35 0 a 180637.35 180637.35 0 1 1 361274.69 0a 180637.35 180637.35 0 1 1 -361274.69 0"/>
<path id="N" d="M 55907086.00 54204725.00 L 55316536.00 54204725.00 L 55316536.00 54795275.00 L 55907086.00 54795275.00 L 55907086.00 54204725.00  zM 55611811.44 54499998.65 m -180637.35 0 a 180637.35 180637.35 0 1 1 361274.69 0a 180637.35 180637.35 0 1 1 -361274.69 0"/>
<path id="N" d="M 57495275.00 35204725.00 L 56904725.00 35204725.00 L 56904725.00 35795275.00 L 57495275.00 35795275.00 L 57495275.00 35204725.00  zM 57200000.44 35499998.65 m -180637.35 0 a 180637.35 180637.35 0 1 1 361274.69 0a 180637.35 180637.35 0 1 1 -361274.69 0"/>
<path id="N" d="M 65199997.94 46999997.94 m -200709.51 0 a 200709.51 200709.51 0 1 1 401419.02 0a 200709.51 200709.51 0 1 1 -401419.02 0"/>
<path id="N" d="M 65199997.94 38999997.94 m -200709.51 0 a 200709.51 200709.51 0 1 1 401419.02 0a 200709.51 200709.51 0 1 1 -401419.02 0"/>
<path id="N" d="M 46199997.94 35499997.94 m -200709.51 0 a 200709.51 200709.51 0 1 1 401419.02 0a 200709.51 200709.51 0 1 1 -401419.02 0"/>
<path id="N" d="M 49899992.67 47599987.81 m -302603.18 0 a 302603.18 302603.18 0 1 1 605206.36 0a 302603.18 302603.18 0 1 1 -605206.36 0M 49900001.39 47599994.95 m -178433.05 0 a 178433.05 178433.05 0 1 1 356866.10 0a 178433.05 178433.05 0 1 1 -356866.10 0"/>
<path id="N" d="M 64495275.00 35204725.00 L 63904725.00 35204725.00 L 63904725.00 35795275.00 L 64495275.00 35795275.00 L 64495275.00 35204725.00  zM 64200000.44 35499998.65 m -180637.35 0 a 180637.35 180637.35 0 1 1 361274.69 0a 180637.35 180637.35 0 1 1 -361274.69 0"/>
<path id="N" d="M 50899992.67 47599987.81 m -302603.18 0 a 302603.18 302603.18 0 1 1 605206.36 0a 302603.18 302603.18 0 1 1 -605206.36 0M 50900001.39 47599994.95 m -178433.05 0 a 178433.05 178433.05 0 1 1 356866.10 0a 178433.05 178433.05 0 1 1 -356866.10 0"/>
<path id="N" d="M 63199997.35 35499993.57 m -297829.90 0 a 297829.90 297829.90 0 1 1 595659.80 0a 297829.90 297829.90 0 1 1 -595659.80 0M 63200000.44 35499998.65 m -180637.35 0 a 180637.35 180637.35 0 1 1 361274.69 0a 180637.35 180637.35 0 1 1 -361274.69 0"/>
<path id="N" d="M 57942078.00 54351088.00 L 57933876.15 54370889.00 L 57777141.00 54370889.00 L 51756173.00 48349920.00 L 51717901.59 48334069.00 L 46660607.00 48334069.00 L 45954120.00 47627582.00 L 45954121.00 46033537.00 L 45938267.29 45995267.29 L 44787409.00 44844408.00 L 44749137.59 44828557.00 L 44736590.08 44828557.00 L 44687008.00 44778974.66 L 44687008.00 44520866.00 L 44554120.00 44520866.00 L 44554120.00 44142913.00 L 44696850.00 44142913.00 L 44696850.00 43788583.00 L 44303150.00 43788583.00 L 44303150.00 44142913.00 L 44445880.00 44142913.00 L 44445880.00 44520866.00 L 44312992.00 44520866.00 L 44312992.00 44531707.00 L 43909448.00 44531707.00 L 43909448.00 44388977.00 L 43397638.00 44388977.00 L 43397638.00 44531707.00 L 40602362.00 44531707.00 L 40602362.00 44388977.00 L 40090552.00 44388977.00 L 40090552.00 44782677.00 L 40602362.00 44782677.00 L 40602362.00 44639947.00 L 43397638.00 44639947.00 L 43397638.00 44782677.00 L 43909448.00 44782677.00 L 43909448.00 44639947.00 L 44312992.00 44639947.00 L 44312992.00 44855512.00 L 44610470.66 44855512.00 L 44675904.00 44920946.00 L 44714175.41 44936797.00 L 44726722.01 44936797.00 L 45845880.00 46055954.01 L 45845879.00 47650000.00 L 45861731.00 47688269.00 L 46599920.00 48426458.00 L 46638191.41 48442309.00 L 51695486.00 48442309.00 L 57716455.00 54463278.00 L 57754726.41 54479129.00 L 57904924.71 54479129.00 L 57902177.00 54500000.00 A 297823.01 297823.01 0 1 0 57942078.00 54351088.00  zM 58200000.44 54499998.65 m -180637.35 0 a 180637.35 180637.35 0 1 1 361274.69 0a 180637.35 180637.35 0 1 1 -361274.69 0"/>
<path id="N" d="M 62277082.00 54212325.00 L 62254120.00 54209302.01 L 62254120.00 52572418.00 L 62820949.00 52005589.00 L 62836800.00 51967317.59 L 62836800.00 51865354.00 L 63137010.00 51865354.00 L 63137010.00 51156694.00 L 62428350.00 51156694.00 L 62428350.00 51445880.00 L 60773229.00 51445880.00 L 60773229.00 51312992.00 L 60438583.00 51312992.00 L 60438583.00 51687008.00 L 60773229.00 51687008.00 L 60773229.00 51554120.00 L 62428350.00 51554120.00 L 62428350.00 51865354.00 L 62728560.00 51865354.00 L 62728560.00 51944902.00 L 62161731.00 52511731.00 L 62145880.00 52550002.41 L 62145880.00 54209302.01 L 62122918.00 54212325.00 A 297829.90 297829.90 0 1 0 62277082.00 54212325.00  zM 62782676.50 51511033.68 m -240838.32 0 a 240838.32 240838.32 0 1 1 481676.63 0a 240838.32 240838.32 0 1 1 -481676.63 0M 62200000.44 54499998.65 m -180637.35 0 a 180637.35 180637.35 0 1 1 361274.69 0a 180637.35 180637.35 0 1 1 -361274.69 0"/>
<path id="N" d="M 60736220.00 44789947.00 L 62428350.00 44789947.00 L 62428350.00 44815354.00 L 63137010.00 44815354.00 L 63137010.00 44613963.00 L 63524264.00 44613963.00 L 63582791.00 44602321.00 L 63632408.00 44569168.00 L 63808144.00 44393432.00 L 63841297.00 44343815.00 L 63852939.00 44285288.00 L 63852939.00 41150000.00 L 63841297.00 41091473.00 L 63808144.00 41041856.00 L 63594168.00 40827880.00 L 63544551.00 40794727.00 L 63486024.00 40783085.00 L 63137010.00 40783085.00 L 63137010.00 40581694.00 L 62428350.00 40581694.00 L 62428350.00 41290354.00 L 63137010.00 41290354.00 L 63137010.00 41088963.00 L 63422675.00 41088963.00 L 63547061.00 41213349.00 L 63547061.00 44221939.00 L 63460915.00 44308085.00 L 63137010.00 44308085.00 L 63137010.00 44106694.00 L 62428350.00 44106694.00 L 62428350.00 44484069.00 L 60736220.00 44484069.00 L 60736220.00 44400788.00 L 60263780.00 44400788.00 L 60263780.00 44873228.00 L 60736220.00 44873228.00 L 60736220.00 44789947.00  zM 62782676.50 40936033.68 m -240838.32 0 a 240838.32 240838.32 0 1 1 481676.63 0a 240838.32 240838.32 0 1 1 -481676.63 0M 62782676.50 44461033.68 m -240838.32 0 a 240838.32 240838.32 0 1 1 481676.63 0a 240838.32 240838.32 0 1 1 -481676.63 0"/>
<path id="N" d="M 63137010.00 37056694.00 L 62428350.00 37056694.00 L 62428350.00 37339974.00 L 60887008.00 37339974.00 L 60887008.00 37226771.00 L 60512992.00 37226771.00 L 60512992.00 37339974.00 L 59566511.05 37339974.00 L 59254120.00 37027582.05 L 59254120.00 35790697.99 L 59277082.00 35787675.00 A 297829.90 297829.90 0 1 0 59122918.00 35787675.00 L 59145880.00 35790697.99 L 59145879.00 37050000.00 L 59161731.00 37088269.00 L 59505825.00 37432363.00 L 59544094.00 37448214.00 L 60512992.00 37448214.00 L 60512992.00 37561417.00 L 60887008.00 37561417.00 L 60887008.00 37448214.00 L 62428350.00 37448214.00 L 62428350.00 37765354.00 L 63137010.00 37765354.00 L 63137010.00 37056694.00  zM 59200000.44 35499998.65 m -180637.35 0 a 180637.35 180637.35 0 1 1 361274.69 0a 180637.35 180637.35 0 1 1 -361274.69 0M 62782676.50 37411033.68 m -240838.32 0 a 240838.32 240838.32 0 1 1 481676.63 0a 240838.32 240838.32 0 1 1 -481676.63 0"/>
<path id="N" d="M 61051088.00 54242078.00 L 61032713.87 54256176.82 L 57182229.00 50405691.00 L 57182229.00 46878109.00 L 57166376.29 46839839.29 L 54254120.00 43927582.01 L 54254120.00 42957874.00 L 54238267.29 42919604.29 L 54030395.00 42711731.00 L 53992123.59 42695880.00 L 53829903.74 42695880.00 L 53809169.00 42664847.00 L 53770100.00 42638743.00 L 53724016.00 42629576.00 L 53350000.00 42629576.00 L 53303916.00 42638743.00 L 53264847.00 42664847.00 L 53244112.26 42695880.00 L 53022417.15 42695880.00 L 52932364.00 42605826.00 L 52894092.59 42589975.00 L 52687008.00 42589975.00 L 52687008.00 42476772.00 L 52312992.00 42476772.00 L 52312992.00 42811418.00 L 52687008.00 42811418.00 L 52687008.00 42698215.00 L 52871677.15 42698215.00 L 52961731.00 42788269.00 L 53000000.00 42804120.00 L 53244112.26 42804120.00 L 53264847.00 42835153.00 L 53303916.00 42861257.00 L 53350000.00 42870424.00 L 53724016.00 42870424.00 L 53770100.00 42861257.00 L 53809169.00 42835153.00 L 53829903.74 42804120.00 L 53969708.08 42804120.00 L 54145880.00 42980291.08 L 54145879.00 43950000.00 L 54161731.00 43988269.00 L 57073989.00 46900526.01 L 57073988.00 50428109.00 L 57089840.00 50466378.00 L 60956176.82 54332713.87 L 60942078.00 54351088.00 A 297823.01 297823.01 0 1 0 61051088.00 54242078.00  zM 61200000.44 54499998.65 m -180637.35 0 a 180637.35 180637.35 0 1 1 361274.69 0a 180637.35 180637.35 0 1 1 -361274.69 0"/>
</g>
</svg>
