<svg width="68.55000006mm" height="53.37847338mm" viewBox="0 0 26988189 21015147"  version="1.1" xmlns="http://www.w3.org/2000/svg" xmlns:xlink="http://www.w3.org/1999/xlink">
<desc>
Origin 39200000 34500000 Bound 39200000 34500000 26988189 21015147
</desc>
<g fill-rule="evenodd" fill="rgb(255, 0, 0)" stroke="black" stroke-width="1" transform="translate(0, 21015147) scale(1, -1) translate(-39200000, -34500000)">
<path id="N" d="M 58423228.00 42812992.00 L 58088582.00 42812992.00 L 58088582.00 43187008.00 L 58423228.00 43187008.00 L 58423228.00 42812992.00  z"/>
<path id="N" d="M 59611417.00 42812992.00 L 59276771.00 42812992.00 L 59276771.00 43187008.00 L 59611417.00 43187008.00 L 59611417.00 42812992.00  z"/>
<path id="N" d="M 53199997.35 35499993.57 m -297829.90 0 a 297829.90 297829.90 0 1 1 595659.80 0a 297829.90 297829.90 0 1 1 -595659.80 0M 53200000.44 35499998.65 m -180637.35 0 a 180637.35 180637.35 0 1 1 361274.69 0a 180637.35 180637.35 0 1 1 -361274.69 0"/>
<path id="N" d="M 65101574.00 42321260.00 L 64511024.00 42321260.00 L 64511024.00 42911810.00 L 65101574.00 42911810.00 L 65101574.00 42321260.00  zM 64806299.36 42616535.47 m -200706.53 0 a 200706.53 200706.53 0 1 1 401413.05 0a 200706.53 200706.53 0 1 1 -401413.05 0"/>
<path id="N" d="M 47023228.00 42812992.00 L 46688582.00 42812992.00 L 46688582.00 43187008.00 L 47023228.00 43187008.00 L 47023228.00 42812992.00  z"/>
<path id="N" d="M 48723228.00 42812992.00 L 48388582.00 42812992.00 L 48388582.00 43187008.00 L 48723228.00 43187008.00 L 48723228.00 42812992.00  z"/>
<path id="N" d="M 62936220.00 42726772.00 L 62463780.00 42726772.00 L 62463780.00 43199212.00 L 62936220.00 43199212.00 L 62936220.00 42726772.00  z"/>
<path id="N" d="M 50423228.00 42812992.00 L 50088582.00 42812992.00 L 50088582.00 43187008.00 L 50423228.00 43187008.00 L 50423228.00 42812992.00  z"/>
<path id="N" d="M 61199997.35 54499993.57 m -297829.90 0 a 297829.90 297829.90 0 1 1 595659.80 0a 297829.90 297829.90 0 1 1 -595659.80 0M 61200000.44 54499998.65 m -180637.35 0 a 180637.35 180637.35 0 1 1 361274.69 0a 180637.35 180637.35 0 1 1 -361274.69 0"/>
<path id="N" d="M 49911417.00 42812992.00 L 49576771.00 42812992.00 L 49576771.00 43187008.00 L 49911417.00 43187008.00 L 49911417.00 42812992.00  z"/>
<path id="N" d="M 44696850.00 47688583.00 L 44303150.00 47688583.00 L 44303150.00 48042913.00 L 44696850.00 48042913.00 L 44696850.00 47688583.00  z"/>
<path id="N" d="M 40602362.00 48288977.00 L 40090552.00 48288977.00 L 40090552.00 48682677.00 L 40602362.00 48682677.00 L 40602362.00 48288977.00  z"/>
<path id="N" d="M 43909448.00 48288977.00 L 43397638.00 48288977.00 L 43397638.00 48682677.00 L 43909448.00 48682677.00 L 43909448.00 48288977.00  z"/>
<path id="N" d="M 65593691.01 42616515.86 m -297844.08 0 a 297844.08 297844.08 0 1 1 595688.15 0a 297844.08 297844.08 0 1 1 -595688.15 0M 65593701.36 42616535.47 m -200706.53 0 a 200706.53 200706.53 0 1 1 401413.05 0a 200706.53 200706.53 0 1 1 -401413.05 0"/>
<path id="N" d="M 58850000.00 45029576.00 L 58475984.00 45029576.00 A 120431.73 120431.73 0 0 0 58475984.00 45270424.00 L 58850000.00 45270424.00 A 120412.98 120412.98 0 0 0 58850000.00 45029576.00  z"/>
<path id="N" d="M 58850000.00 45529576.00 L 58475984.00 45529576.00 A 120431.73 120431.73 0 0 0 58475984.00 45770424.00 L 58850000.00 45770424.00 A 120412.98 120412.98 0 0 0 58850000.00 45529576.00  z"/>
<path id="N" d="M 62936220.00 41600788.00 L 62463780.00 41600788.00 L 62463780.00 42073228.00 L 62936220.00 42073228.00 L 62936220.00 41600788.00  z"/>
<path id="N" d="M 56093691.01 42616515.86 m -297844.08 0 a 297844.08 297844.08 0 1 1 595688.15 0a 297844.08 297844.08 0 1 1 -595688.15 0M 56093701.36 42616535.47 m -200706.53 0 a 200706.53 200706.53 0 1 1 401413.05 0a 200706.53 200706.53 0 1 1 -401413.05 0"/>
<path id="N" d="M 49611801.01 54499980.86 m -297844.08 0 a 297844.08 297844.08 0 1 1 595688.15 0a 297844.08 297844.08 0 1 1 -595688.15 0M 49611811.44 54499998.65 m -180637.35 0 a 180637.35 180637.35 0 1 1 361274.69 0a 180637.35 180637.35 0 1 1 -361274.69 0"/>
<path id="N" d="M 52199997.35 35499993.57 m -297829.90 0 a 297829.90 297829.90 0 1 1 595659.80 0a 297829.90 297829.90 0 1 1 -595659.80 0M 52200000.44 35499998.65 m -180637.35 0 a 180637.35 180637.35 0 1 1 361274.69 0a 180637.35 180637.35 0 1 1 -361274.69 0"/>
<path id="N" d="M 51199997.35 35499993.57 m -297829.90 0 a 297829.90 297829.90 0 1 1 595659.80 0a 297829.90 297829.90 0 1 1 -595659.80 0M 51200000.44 35499998.65 m -180637.35 0 a 180637.35 180637.35 0 1 1 361274.69 0a 180637.35 180637.35 0 1 1 -361274.69 0"/>
<path id="N" d="M 48899992.67 47599987.81 m -302603.18 0 a 302603.18 302603.18 0 1 1 605206.36 0a 302603.18 302603.18 0 1 1 -605206.36 0M 48900001.39 47599994.95 m -178433.05 0 a 178433.05 178433.05 0 1 1 356866.10 0a 178433.05 178433.05 0 1 1 -356866.10 0"/>
<path id="N" d="M 56724016.00 45529576.00 L 56350000.00 45529576.00 A 120431.73 120431.73 0 0 0 56350000.00 45770424.00 L 56724016.00 45770424.00 A 120412.98 120412.98 0 1 0 56724016.00 45529576.00  z"/>
<path id="N" d="M 40602362.00 46517323.00 L 40090552.00 46517323.00 L 40090552.00 46911023.00 L 40602362.00 46911023.00 L 40602362.00 46517323.00  z"/>
<path id="N" d="M 43909448.00 46517323.00 L 43397638.00 46517323.00 L 43397638.00 46911023.00 L 43909448.00 46911023.00 L 43909448.00 46517323.00  z"/>
<path id="N" d="M 43909448.00 38717323.00 L 43397638.00 38717323.00 L 43397638.00 39111023.00 L 43909448.00 39111023.00 L 43909448.00 38717323.00  z"/>
<path id="N" d="M 43909448.00 42617323.00 L 43397638.00 42617323.00 L 43397638.00 43011023.00 L 43909448.00 43011023.00 L 43909448.00 42617323.00  z"/>
<path id="N" d="M 40602362.00 38717323.00 L 40090552.00 38717323.00 L 40090552.00 39111023.00 L 40602362.00 39111023.00 L 40602362.00 38717323.00  z"/>
<path id="N" d="M 53311417.00 42812992.00 L 52976771.00 42812992.00 L 52976771.00 43187008.00 L 53311417.00 43187008.00 L 53311417.00 42812992.00  z"/>
<path id="N" d="M 51611417.00 42812992.00 L 51276771.00 42812992.00 L 51276771.00 43187008.00 L 51611417.00 43187008.00 L 51611417.00 42812992.00  z"/>
<path id="N" d="M 44696850.00 47157087.00 L 44303150.00 47157087.00 L 44303150.00 47511417.00 L 44696850.00 47511417.00 L 44696850.00 47157087.00  z"/>
<path id="N" d="M 40602362.00 42617323.00 L 40090552.00 42617323.00 L 40090552.00 43011023.00 L 40602362.00 43011023.00 L 40602362.00 42617323.00  z"/>
<path id="N" d="M 44696850.00 43257087.00 L 44303150.00 43257087.00 L 44303150.00 43611417.00 L 44696850.00 43611417.00 L 44696850.00 43257087.00  z"/>
<path id="N" d="M 44696850.00 39357087.00 L 44303150.00 39357087.00 L 44303150.00 39711417.00 L 44696850.00 39711417.00 L 44696850.00 39357087.00  z"/>
<path id="N" d="M 62199997.35 54499993.57 m -297829.90 0 a 297829.90 297829.90 0 1 1 595659.80 0a 297829.90 297829.90 0 1 1 -595659.80 0M 62200000.44 54499998.65 m -180637.35 0 a 180637.35 180637.35 0 1 1 361274.69 0a 180637.35 180637.35 0 1 1 -361274.69 0"/>
<path id="N" d="M 46511417.00 42812992.00 L 46176771.00 42812992.00 L 46176771.00 43187008.00 L 46511417.00 43187008.00 L 46511417.00 42812992.00  z"/>
<path id="N" d="M 43909448.00 40488977.00 L 43397638.00 40488977.00 L 43397638.00 40882677.00 L 43909448.00 40882677.00 L 43909448.00 40488977.00  z"/>
<path id="N" d="M 44696850.00 39888583.00 L 44303150.00 39888583.00 L 44303150.00 40242913.00 L 44696850.00 40242913.00 L 44696850.00 39888583.00  z"/>
<path id="N" d="M 40602362.00 40488977.00 L 40090552.00 40488977.00 L 40090552.00 40882677.00 L 40602362.00 40882677.00 L 40602362.00 40488977.00  z"/>
<path id="N" d="M 50899992.67 47599987.81 m -302603.18 0 a 302603.18 302603.18 0 1 1 605206.36 0a 302603.18 302603.18 0 1 1 -605206.36 0M 50900001.39 47599994.95 m -178433.05 0 a 178433.05 178433.05 0 1 1 356866.10 0a 178433.05 178433.05 0 1 1 -356866.10 0"/>
<path id="N" d="M 63199997.35 35499993.57 m -297829.90 0 a 297829.90 297829.90 0 1 1 595659.80 0a 297829.90 297829.90 0 1 1 -595659.80 0M 63200000.44 35499998.65 m -180637.35 0 a 180637.35 180637.35 0 1 1 361274.69 0a 180637.35 180637.35 0 1 1 -361274.69 0"/>
<path id="N" d="M 55199997.35 35499993.57 m -297829.90 0 a 297829.90 297829.90 0 1 1 595659.80 0a 297829.90 297829.90 0 1 1 -595659.80 0M 55200000.44 35499998.65 m -180637.35 0 a 180637.35 180637.35 0 1 1 361274.69 0a 180637.35 180637.35 0 1 1 -361274.69 0"/>
<path id="N" d="M 61199997.35 35499993.57 m -297829.90 0 a 297829.90 297829.90 0 1 1 595659.80 0a 297829.90 297829.90 0 1 1 -595659.80 0M 61200000.44 35499998.65 m -180637.35 0 a 180637.35 180637.35 0 1 1 361274.69 0a 180637.35 180637.35 0 1 1 -361274.69 0"/>
<path id="N" d="M 63199997.35 54499993.57 m -297829.90 0 a 297829.90 297829.90 0 1 1 595659.80 0a 297829.90 297829.90 0 1 1 -595659.80 0M 63200000.44 54499998.65 m -180637.35 0 a 180637.35 180637.35 0 1 1 361274.69 0a 180637.35 180637.35 0 1 1 -361274.69 0"/>
<path id="N" d="M 50199997.35 35499993.57 m -297829.90 0 a 297829.90 297829.90 0 1 1 595659.80 0a 297829.90 297829.90 0 1 1 -595659.80 0M 50200000.44 35499998.65 m -180637.35 0 a 180637.35 180637.35 0 1 1 361274.69 0a 180637.35 180637.35 0 1 1 -361274.69 0"/>
<path id="N" d="M 54199997.35 35499993.57 m -297829.90 0 a 297829.90 297829.90 0 1 1 595659.80 0a 297829.90 297829.90 0 1 1 -595659.80 0M 54200000.44 35499998.65 m -180637.35 0 a 180637.35 180637.35 0 1 1 361274.69 0a 180637.35 180637.35 0 1 1 -361274.69 0"/>
<path id="N" d="M 56199997.35 35499993.57 m -297829.90 0 a 297829.90 297829.90 0 1 1 595659.80 0a 297829.90 297829.90 0 1 1 -595659.80 0M 56200000.44 35499998.65 m -180637.35 0 a 180637.35 180637.35 0 1 1 361274.69 0a 180637.35 180637.35 0 1 1 -361274.69 0"/>
<path id="N" d="M 60199997.35 35499993.57 m -297829.90 0 a 297829.90 297829.90 0 1 1 595659.80 0a 297829.90 297829.90 0 1 1 -595659.80 0M 60200000.44 35499998.65 m -180637.35 0 a 180637.35 180637.35 0 1 1 361274.69 0a 180637.35 180637.35 0 1 1 -361274.69 0"/>
<path id="N" d="M 53611801.01 54499980.86 m -297844.08 0 a 297844.08 297844.08 0 1 1 595688.15 0a 297844.08 297844.08 0 1 1 -595688.15 0M 53611811.44 54499998.65 m -180637.35 0 a 180637.35 180637.35 0 1 1 361274.69 0a 180637.35 180637.35 0 1 1 -361274.69 0"/>
<path id="N" d="M 47611801.01 54499980.86 m -297844.08 0 a 297844.08 297844.08 0 1 1 595688.15 0a 297844.08 297844.08 0 1 1 -595688.15 0M 47611811.44 54499998.65 m -180637.35 0 a 180637.35 180637.35 0 1 1 361274.69 0a 180637.35 180637.35 0 1 1 -361274.69 0"/>
<path id="N" d="M 54611801.01 54499980.86 m -297844.08 0 a 297844.08 297844.08 0 1 1 595688.15 0a 297844.08 297844.08 0 1 1 -595688.15 0M 54611811.44 54499998.65 m -180637.35 0 a 180637.35 180637.35 0 1 1 361274.69 0a 180637.35 180637.35 0 1 1 -361274.69 0"/>
<path id="N" d="M 52611801.01 54499980.86 m -297844.08 0 a 297844.08 297844.08 0 1 1 595688.15 0a 297844.08 297844.08 0 1 1 -595688.15 0M 52611811.44 54499998.65 m -180637.35 0 a 180637.35 180637.35 0 1 1 361274.69 0a 180637.35 180637.35 0 1 1 -361274.69 0"/>
<path id="N" d="M 51611801.01 54499980.86 m -297844.08 0 a 297844.08 297844.08 0 1 1 595688.15 0a 297844.08 297844.08 0 1 1 -595688.15 0M 51611811.44 54499998.65 m -180637.35 0 a 180637.35 180637.35 0 1 1 361274.69 0a 180637.35 180637.35 0 1 1 -361274.69 0"/>
<path id="N" d="M 62199997.35 35499993.57 m -297829.90 0 a 297829.90 297829.90 0 1 1 595659.80 0a 297829.90 297829.90 0 1 1 -595659.80 0M 62200000.44 35499998.65 m -180637.35 0 a 180637.35 180637.35 0 1 1 361274.69 0a 180637.35 180637.35 0 1 1 -361274.69 0"/>
<path id="N" d="M 48611801.01 54499980.86 m -297844.08 0 a 297844.08 297844.08 0 1 1 595688.15 0a 297844.08 297844.08 0 1 1 -595688.15 0M 48611811.44 54499998.65 m -180637.35 0 a 180637.35 180637.35 0 1 1 361274.69 0a 180637.35 180637.35 0 1 1 -361274.69 0"/>
<path id="N" d="M 46611801.01 54499980.86 m -297844.08 0 a 297844.08 297844.08 0 1 1 595688.15 0a 297844.08 297844.08 0 1 1 -595688.15 0M 46611811.44 54499998.65 m -180637.35 0 a 180637.35 180637.35 0 1 1 361274.69 0a 180637.35 180637.35 0 1 1 -361274.69 0"/>
<path id="N" d="M 50611801.01 54499980.86 m -297844.08 0 a 297844.08 297844.08 0 1 1 595688.15 0a 297844.08 297844.08 0 1 1 -595688.15 0M 50611811.44 54499998.65 m -180637.35 0 a 180637.35 180637.35 0 1 1 361274.69 0a 180637.35 180637.35 0 1 1 -361274.69 0"/>
<path id="N" d="M 51899992.67 47599987.81 m -302603.18 0 a 302603.18 302603.18 0 1 1 605206.36 0a 302603.18 302603.18 0 1 1 -605206.36 0M 51900001.39 47599994.95 m -178433.05 0 a 178433.05 178433.05 0 1 1 356866.10 0a 178433.05 178433.05 0 1 1 -356866.10 0"/>
<path id="N" d="M 52899992.67 47599987.81 m -302603.18 0 a 302603.18 302603.18 0 1 1 605206.36 0a 302603.18 302603.18 0 1 1 -605206.36 0M 52900001.39 47599994.95 m -178433.05 0 a 178433.05 178433.05 0 1 1 356866.10 0a 178433.05 178433.05 0 1 1 -356866.10 0"/>
<path id="N" d="M 47899992.67 47599987.81 m -302603.18 0 a 302603.18 302603.18 0 1 1 605206.36 0a 302603.18 302603.18 0 1 1 -605206.36 0M 47900001.39 47599994.95 m -178433.05 0 a 178433.05 178433.05 0 1 1 356866.10 0a 178433.05 178433.05 0 1 1 -356866.10 0"/>
<path id="N" d="M 55907086.00 54204725.00 L 55316536.00 54204725.00 L 55316536.00 54795275.00 L 55907086.00 54795275.00 L 55907086.00 54204725.00  zM 55611811.44 54499998.65 m -180637.35 0 a 180637.35 180637.35 0 1 1 361274.69 0a 180637.35 180637.35 0 1 1 -361274.69 0"/>
<path id="N" d="M 57495275.00 35204725.00 L 56904725.00 35204725.00 L 56904725.00 35795275.00 L 57495275.00 35795275.00 L 57495275.00 35204725.00  zM 57200000.44 35499998.65 m -180637.35 0 a 180637.35 180637.35 0 1 1 361274.69 0a 180637.35 180637.35 0 1 1 -361274.69 0"/>
<path id="N" d="M 64495275.00 54204725.00 L 63904725.00 54204725.00 L 63904725.00 54795275.00 L 64495275.00 54795275.00 L 64495275.00 54204725.00  zM 64200000.44 54499998.65 m -180637.35 0 a 180637.35 180637.35 0 1 1 361274.69 0a 180637.35 180637.35 0 1 1 -361274.69 0"/>
<path id="N" d="M 58850000.00 46029576.00 L 58475984.00 46029576.00 A 120431.73 120431.73 0 0 0 58475984.00 46270424.00 L 58850000.00 46270424.00 A 120412.98 120412.98 0 0 0 58850000.00 46029576.00  z"/>
<path id="N" d="M 56724016.00 46029576.00 L 56350000.00 46029576.00 A 120431.73 120431.73 0 0 0 56350000.00 46270424.00 L 56724016.00 46270424.00 A 120412.98 120412.98 0 1 0 56724016.00 46029576.00  z"/>
<path id="N" d="M 56724016.00 46529576.00 L 56350000.00 46529576.00 A 120431.73 120431.73 0 0 0 56350000.00 46770424.00 L 56724016.00 46770424.00 A 120412.98 120412.98 0 1 0 56724016.00 46529576.00  z"/>
<path id="N" d="M 58850000.00 46529576.00 L 58475984.00 46529576.00 A 120431.73 120431.73 0 0 0 58475984.00 46770424.00 L 58850000.00 46770424.00 A 120412.98 120412.98 0 0 0 58850000.00 46529576.00  z"/>
<path id="N" d="M 46199997.94 35499997.94 m -200709.51 0 a 200709.51 200709.51 0 1 1 401419.02 0a 200709.51 200709.51 0 1 1 -401419.02 0"/>
<path id="N" d="M 65199997.94 46999997.94 m -200709.51 0 a 200709.51 200709.51 0 1 1 401419.02 0a 200709.51 200709.51 0 1 1 -401419.02 0"/>
<path id="N" d="M 65199997.94 38999997.94 m -200709.51 0 a 200709.51 200709.51 0 1 1 401419.02 0a 200709.51 200709.51 0 1 1 -401419.02 0"/>
<path id="N" d="M 49899992.67 47599987.81 m -302603.18 0 a 302603.18 302603.18 0 1 1 605206.36 0a 302603.18 302603.18 0 1 1 -605206.36 0M 49900001.39 47599994.95 m -178433.05 0 a 178433.05 178433.05 0 1 1 356866.10 0a 178433.05 178433.05 0 1 1 -356866.10 0"/>
<path id="N" d="M 64495275.00 35204725.00 L 63904725.00 35204725.00 L 63904725.00 35795275.00 L 64495275.00 35795275.00 L 64495275.00 35204725.00  zM 64200000.44 35499998.65 m -180637.35 0 a 180637.35 180637.35 0 1 1 361274.69 0a 180637.35 180637.35 0 1 1 -361274.69 0"/>
<path id="N" d="M 59199997.35 54499993.57 m -297829.90 0 a 297829.90 297829.90 0 1 1 595659.80 0a 297829.90 297829.90 0 1 1 -595659.80 0M 59200000.44 54499998.65 m -180637.35 0 a 180637.35 180637.35 0 1 1 361274.69 0a 180637.35 180637.35 0 1 1 -361274.69 0"/>
<path id="N" d="M 52123228.00 42812992.00 L 51788582.00 42812992.00 L 51788582.00 43187008.00 L 52123228.00 43187008.00 L 52123228.00 42812992.00  z"/>
<path id="N" d="M 61436220.00 41600788.00 L 60963780.00 41600788.00 L 60963780.00 42073228.00 L 61436220.00 42073228.00 L 61436220.00 41600788.00  z"/>
<path id="N" d="M 60199997.35 54499993.57 m -297829.90 0 a 297829.90 297829.90 0 1 1 595659.80 0a 297829.90 297829.90 0 1 1 -595659.80 0M 60200000.44 54499998.65 m -180637.35 0 a 180637.35 180637.35 0 1 1 361274.69 0a 180637.35 180637.35 0 1 1 -361274.69 0"/>
<path id="N" d="M 43909448.00 44388977.00 L 43397638.00 44388977.00 L 43397638.00 44782677.00 L 43909448.00 44782677.00 L 43909448.00 44388977.00  z"/>
<path id="N" d="M 40602362.00 44388977.00 L 40090552.00 44388977.00 L 40090552.00 44782677.00 L 40602362.00 44782677.00 L 40602362.00 44388977.00  z"/>
<path id="N" d="M 44696850.00 43788583.00 L 44303150.00 43788583.00 L 44303150.00 44142913.00 L 44696850.00 44142913.00 L 44696850.00 43788583.00  z"/>
<path id="N" d="M 48211417.00 42812992.00 L 47876771.00 42812992.00 L 47876771.00 43187008.00 L 48211417.00 43187008.00 L 48211417.00 42812992.00  z"/>
<path id="N" d="M 57199997.35 54499993.57 m -297829.90 0 a 297829.90 297829.90 0 1 1 595659.80 0a 297829.90 297829.90 0 1 1 -595659.80 0M 57200000.44 54499998.65 m -180637.35 0 a 180637.35 180637.35 0 1 1 361274.69 0a 180637.35 180637.35 0 1 1 -361274.69 0"/>
<path id="N" d="M 39711417.00 42812992.00 L 39376771.00 42812992.00 L 39376771.00 43187008.00 L 39711417.00 43187008.00 L 39711417.00 42812992.00  z"/>
<path id="N" d="M 61436220.00 42726772.00 L 60963780.00 42726772.00 L 60963780.00 43199212.00 L 61436220.00 43199212.00 L 61436220.00 42726772.00  z"/>
<path id="N" d="M 59199997.35 35499993.57 m -297829.90 0 a 297829.90 297829.90 0 1 1 595659.80 0a 297829.90 297829.90 0 1 1 -595659.80 0M 59200000.44 35499998.65 m -180637.35 0 a 180637.35 180637.35 0 1 1 361274.69 0a 180637.35 180637.35 0 1 1 -361274.69 0"/>
<path id="N" d="M 55601574.00 42321260.00 L 55011024.00 42321260.00 L 55011024.00 42911810.00 L 55601574.00 42911810.00 L 55601574.00 42321260.00  zM 55306299.36 42616535.47 m -200706.53 0 a 200706.53 200706.53 0 1 1 401413.05 0a 200706.53 200706.53 0 1 1 -401413.05 0"/>
<path id="N" d="M 57911417.00 42812992.00 L 57576771.00 42812992.00 L 57576771.00 43187008.00 L 57911417.00 43187008.00 L 57911417.00 42812992.00  z"/>
<path id="N" d="M 46899992.67 47599987.81 m -302603.18 0 a 302603.18 302603.18 0 1 1 605206.36 0a 302603.18 302603.18 0 1 1 -605206.36 0M 46900001.39 47599994.95 m -178433.05 0 a 178433.05 178433.05 0 1 1 356866.10 0a 178433.05 178433.05 0 1 1 -356866.10 0"/>
<path id="N" d="M 40223228.00 42812992.00 L 39888582.00 42812992.00 L 39888582.00 43187008.00 L 40223228.00 43187008.00 L 40223228.00 42812992.00  z"/>
<path id="N" d="M 60123228.00 42812992.00 L 59788582.00 42812992.00 L 59788582.00 43187008.00 L 60123228.00 43187008.00 L 60123228.00 42812992.00  z"/>
<path id="N" d="M 58199997.35 54499993.57 m -297829.90 0 a 297829.90 297829.90 0 1 1 595659.80 0a 297829.90 297829.90 0 1 1 -595659.80 0M 58200000.44 54499998.65 m -180637.35 0 a 180637.35 180637.35 0 1 1 361274.69 0a 180637.35 180637.35 0 1 1 -361274.69 0"/>
<path id="N" d="M 56724016.00 45029576.00 L 56350000.00 45029576.00 A 120431.73 120431.73 0 0 0 56350000.00 45270424.00 L 56724016.00 45270424.00 A 120412.98 120412.98 0 1 0 56724016.00 45029576.00  z"/>
<path id="N" d="M 53823228.00 42812992.00 L 53488582.00 42812992.00 L 53488582.00 43187008.00 L 53823228.00 43187008.00 L 53823228.00 42812992.00  z"/>
</g>
</svg>
