<svg width="68.55000006mm" height="53.37847338mm" viewBox="0 0 26988189 21015147"  version="1.1" xmlns="http://www.w3.org/2000/svg" xmlns:xlink="http://www.w3.org/1999/xlink">
<desc>
Origin 39200000 34500000 Bound 39200000 34500000 26988189 21015147
</desc>
<g fill-rule="evenodd" fill="rgb(128, 128, 0)" stroke="black" stroke-width="1" transform="translate(0, 21015147) scale(1, -1) translate(-39200000, -34500000)">
<path id="N" d="M 57042246.93 53793345.94 L 57068007.93 53785312.94 L 57092937.94 53770908.94 L 57109280.94 53753457.95 L 57122853.94 53729081.95 L 57133379.95 53696395.95 L 57086289.95 53688085.94 L 57082411.95 53705536.94 L 57072716.94 53726865.94 L 57059420.94 53742654.94 A 70390.51 70390.51 0 0 1 56977151.94 53743762.92 L 56963855.94 53729635.92 L 56955268.95 53706367.92 A 62199.61 62199.61 0 0 1 56974658.96 53651798.92 L 56992386.96 53641549.93 L 57018424.96 53634624.93 L 57040030.96 53633793.93 L 57045293.97 53592520.94 L 57026180.97 53596398.93 A 78400.79 78400.79 0 0 1 56958315.97 53576454.92 L 56945850.97 53559280.92 L 56938648.98 53537951.92 L 56937263.98 53516899.92 L 56942249.99 53494739.92 L 56954714.99 53472579.92 L 56968841.99 53458729.92 L 56987677.99 53448757.93 A 75001.45 75001.45 0 0 1 57067176.99 53464269.94 L 57080749.99 53486706.94 L 57090998.98 53518561.94 L 57138088.98 53512190.95 L 57135318.99 53495016.95 L 57124238.99 53466485.95 L 57105680.00 53439616.95 L 57087121.00 53424104.94 L 57059144.00 53411362.94 L 57024796.00 53404714.93 L 56996542.00 53405545.93 L 56962748.00 53415240.92 L 56934217.00 53431029.92 L 56917596.99 53445710.91 L 56902638.99 53467039.91 L 56891835.99 53494739.91 L 56887126.98 53521885.91 L 56890173.98 53549308.91 L 56899868.97 53576177.91 L 56913718.97 53594459.91 L 56930892.97 53606924.92 L 56957484.96 53618281.92 L 56941695.96 53628530.92 L 56923413.96 53645704.91 L 56913164.96 53662601.91 L 56906239.95 53689747.91 L 56908178.95 53714954.91 A 94206.11 94206.11 0 0 0 56951390.94 53776725.92 L 56975489.93 53788636.92 L 57006790.93 53795007.93 L 57042246.93 53793345.94  z"/>
<path id="N" d="M 59019255.93 36695284.93 L 59045847.93 36691129.94 L 59073270.94 36681434.94 L 59094876.94 36668138.94 L 59111773.94 36649025.95 L 59124792.95 36621879.95 L 59133379.95 36584761.95 L 59084904.95 36579775.94 L 59081857.95 36603874.94 L 59072993.95 36624649.94 L 59060805.94 36639607.94 L 59042800.94 36649856.94 L 59018701.94 36655950.93 L 58993494.94 36654842.93 L 58972165.94 36646809.92 L 58954714.94 36633513.92 L 58944742.95 36617724.92 L 58938371.95 36594733.92 L 58940033.95 36575066.92 L 58949174.96 36551798.92 L 58964686.96 36527699.92 L 58996541.97 36494736.93 L 59064960.98 36434627.94 L 59104848.99 36395293.95 L 59127562.99 36363161.95 L 59138920.00 36337400.95 L 59142244.00 36310808.95 L 58889066.00 36310808.91 L 58889065.99 36355959.91 L 59076871.99 36355959.94 L 59057204.99 36381166.94 L 58963578.97 36464266.92 L 58926460.97 36501661.92 L 58904577.96 36532685.91 L 58893497.96 36560108.91 L 58889619.95 36586700.91 L 58892666.95 36612738.91 L 58902915.94 36638776.91 A 98945.01 98945.01 0 0 0 58963855.93 36688082.92 L 58995433.93 36694730.93 L 59019255.93 36695284.93  z"/>
<path id="N" d="M 57252766.98 53530195.97 L 57254982.98 53496955.97 L 57260245.99 53477011.97 A 53671.15 53671.15 0 0 1 57305119.99 53450142.98 L 57327556.99 53452358.98 L 57346669.99 53462330.99 L 57355810.99 53473133.99 L 57362458.99 53491969.99 L 57367167.98 53526040.99 L 57412872.98 53519670.00 L 57412872.98 53509421.00 L 57409271.99 53482275.00 L 57400407.99 53455129.00 L 57388497.00 53434908.00 L 57370215.00 53420226.99 L 57344731.00 53409977.99 L 57312045.00 53404714.98 L 57281298.00 53408038.98 L 57253321.00 53417179.97 L 57234485.00 53430752.97 L 57217310.99 53452081.97 L 57208446.99 53475349.96 L 57202629.98 53516622.96 L 57202075.93 53794453.96 L 57252766.93 53794453.97 L 57252766.98 53530195.97  z"/>
<path id="N" d="M 46602073.98 53430611.97 L 46604289.98 53397371.97 L 46609552.99 53377427.97 A 53671.15 53671.15 0 0 1 46654426.99 53350558.98 L 46676863.99 53352774.98 L 46695976.99 53362746.99 L 46705117.99 53373549.99 L 46711765.99 53392385.99 L 46716474.98 53426456.99 L 46762179.98 53420086.00 L 46762179.98 53409837.00 L 46758578.99 53382691.00 L 46749714.99 53355545.00 L 46737804.00 53335324.00 L 46719522.00 53320642.99 L 46694038.00 53310393.99 L 46661352.00 53305130.98 L 46630605.00 53308454.98 L 46602628.00 53317595.97 L 46583792.00 53331168.97 L 46566617.99 53352497.97 L 46557753.99 53375765.96 L 46551936.98 53417038.96 L 46551382.93 53694869.96 L 46602073.93 53694869.97 L 46602073.98 53430611.97  z"/>
<path id="N" d="M 50215786.98 36379918.97 L 50218002.98 36346678.97 L 50223265.99 36326734.97 A 53671.15 53671.15 0 0 1 50268139.99 36299865.98 L 50290576.99 36302081.98 L 50309689.99 36312053.99 L 50318830.99 36322856.99 L 50325478.99 36341692.99 L 50330187.98 36375763.99 L 50375892.98 36369393.00 L 50375892.98 36359144.00 L 50372291.99 36331998.00 L 50363427.99 36304852.00 L 50351517.00 36284631.00 L 50333235.00 36269949.99 L 50307751.00 36259700.99 L 50275065.00 36254437.98 L 50244318.00 36257761.98 L 50216341.00 36266902.97 L 50197505.00 36280475.97 L 50180330.99 36301804.97 L 50171466.99 36325072.96 L 50165649.98 36366345.96 L 50165095.93 36644176.96 L 50215786.93 36644176.97 L 50215786.98 36379918.97  z"/>
<path id="N" d="M 59250827.98 36429918.97 L 59253043.98 36396678.97 L 59258306.99 36376734.97 A 53671.15 53671.15 0 0 1 59303180.99 36349865.98 L 59325617.99 36352081.98 L 59344730.99 36362053.99 L 59353871.99 36372856.99 L 59360519.99 36391692.99 L 59365228.98 36425763.99 L 59410933.98 36419393.00 L 59410933.98 36409144.00 L 59407332.99 36381998.00 L 59398468.99 36354852.00 L 59386558.00 36334631.00 L 59368276.00 36319949.99 L 59342792.00 36309700.99 L 59310106.00 36304437.98 L 59279359.00 36307761.98 L 59251382.00 36316902.97 L 59232546.00 36330475.97 L 59215371.99 36351804.97 L 59206507.99 36375072.96 L 59200690.98 36416345.96 L 59200136.93 36694176.96 L 59250827.93 36694176.97 L 59250827.98 36429918.97  z"/>
<path id="N" d="M 64730133.00 36030133.00 L 64742614.00 36000000.00 L 64742614.00 35000000.00 L 64730133.00 34969867.00 L 64700000.00 34957386.00 L 58700000.00 34957386.00 L 58669867.00 34969867.00 L 58657386.00 35000000.00 L 58657386.00 36000000.00 L 58669867.00 36030133.00 L 58700000.00 36042614.00 L 64700000.00 36042614.00 L 64730133.00 36030133.00  zM 64657386.00 35957386.00 L 58742614.00 35957386.00 L 58742614.00 35042614.00 L 64657386.00 35042614.00 L 64657386.00 35957386.00  z"/>
<path id="N" d="M 64730133.00 55030133.00 L 64742614.00 55000000.00 L 64742614.00 54000000.00 L 64730133.00 53969867.00 L 64700000.00 53957386.00 L 56700000.00 53957386.00 L 56669867.00 53969867.00 L 56657386.00 54000000.00 L 56657386.00 55000000.00 L 56669867.00 55030133.00 L 56700000.00 55042614.00 L 64700000.00 55042614.00 L 64730133.00 55030133.00  zM 64657386.00 54957386.00 L 56742614.00 54957386.00 L 56742614.00 54042614.00 L 64657386.00 54042614.00 L 64657386.00 54957386.00  z"/>
<path id="N" d="M 56141944.00 55030133.00 L 56154425.00 55000000.00 L 56154425.00 54000000.00 L 56141944.00 53969867.00 L 56111811.00 53957386.00 L 46111811.00 53957386.00 L 46081678.00 53969867.00 L 46069197.00 54000000.00 L 46069197.00 55000000.00 L 46081678.00 55030133.00 L 46111811.00 55042614.00 L 56111811.00 55042614.00 L 56141944.00 55030133.00  zM 56069197.00 54957386.00 L 46154425.00 54957386.00 L 46154425.00 54042614.00 L 56069197.00 54042614.00 L 56069197.00 54957386.00  z"/>
<path id="N" d="M 57730133.00 36030133.00 L 57742614.00 36000000.00 L 57742614.00 35000000.00 L 57730133.00 34969867.00 L 57700000.00 34957386.00 L 49700000.00 34957386.00 L 49669867.00 34969867.00 L 49657386.00 35000000.00 L 49657386.00 36000000.00 L 49669867.00 36030133.00 L 49700000.00 36042614.00 L 57700000.00 36042614.00 L 57730133.00 36030133.00  zM 57657386.00 35957386.00 L 49742614.00 35957386.00 L 49742614.00 35042614.00 L 57657386.00 35042614.00 L 57657386.00 35957386.00  z"/>
<path id="N" d="M 46502907.98 53446400.95 L 46502907.98 53403188.95 L 46336707.98 53403188.93 L 46336708.00 53311501.93 L 46289618.00 53311501.92 L 46289617.98 53403188.92 L 46237818.98 53403188.91 L 46237818.98 53446400.91 L 46289617.98 53446400.92 L 46289617.93 53694869.92 L 46328120.93 53694869.92 L 46502907.98 53446400.95  zM 46336707.95 53619248.93 L 46336707.98 53446400.93 L 46456925.98 53446400.95 L 46336707.95 53619248.93  z"/>
<path id="N" d="M 49966209.94 36627002.93 L 49995017.94 36595147.93 L 50031304.95 36568278.94 L 50065375.95 36549165.95 L 50065375.96 36503737.95 L 50048478.96 36510939.94 L 50006097.95 36533930.94 L 49971195.95 36560522.93 L 49971196.00 36260808.93 L 49924106.00 36260808.92 L 49924105.93 36645561.92 L 49954575.93 36645561.93 L 49966209.94 36627002.93  z"/>
</g>
</svg>
