<svg width="68.55000006mm" height="53.37847338mm" viewBox="0 0 26988189 21015147"  version="1.1" xmlns="http://www.w3.org/2000/svg" xmlns:xlink="http://www.w3.org/1999/xlink">
<desc>
Origin 39200000 34500000 Bound 39200000 34500000 26988189 21015147
</desc>
<g fill-rule="evenodd" fill="rgb(128, 0, 128)" stroke="black" stroke-width="1" transform="translate(0, 21015147) scale(1, -1) translate(-39200000, -34500000)">
<path id="N" d="M 65211811.00 54899087.00 L 65211811.00 50400000.00 L 66188189.00 49400000.00 L 66188189.00 36500000.00 L 65211811.00 35500000.00 L 65211811.00 34500000.00 L 39200000.00 34500000.00 L 39200000.00 55515147.00 L 64595751.00 55515147.00 L 65211811.00 54899087.00  zM 40642362.00 39151023.00 L 40050552.00 39151023.00 L 40050552.00 38677323.00 L 40642362.00 38677323.00 L 40642362.00 39151023.00  zM 40642362.00 40922677.00 L 40050552.00 40922677.00 L 40050552.00 40448977.00 L 40642362.00 40448977.00 L 40642362.00 40922677.00  zM 43949448.00 39151023.00 L 43357638.00 39151023.00 L 43357638.00 38677323.00 L 43949448.00 38677323.00 L 43949448.00 39151023.00  zM 43949448.00 40922677.00 L 43357638.00 40922677.00 L 43357638.00 40448977.00 L 43949448.00 40448977.00 L 43949448.00 40922677.00  zM 44485828.47 38914168.88 m -132551.12 0 a 132551.12 132551.12 0 1 1 265102.24 0a 132551.12 132551.12 0 1 1 -265102.24 0M 44727008.00 40995512.00 L 44272992.00 40995512.00 L 44272992.00 40580866.00 L 44727008.00 40580866.00 L 44727008.00 40995512.00  zM 44727008.00 41507323.00 L 44272992.00 41507323.00 L 44272992.00 41092677.00 L 44727008.00 41092677.00 L 44727008.00 41507323.00  zM 40642362.00 43051023.00 L 40050552.00 43051023.00 L 40050552.00 42577323.00 L 40642362.00 42577323.00 L 40642362.00 43051023.00  zM 40642362.00 44822677.00 L 40050552.00 44822677.00 L 40050552.00 44348977.00 L 40642362.00 44348977.00 L 40642362.00 44822677.00  zM 43949448.00 43051023.00 L 43357638.00 43051023.00 L 43357638.00 42577323.00 L 43949448.00 42577323.00 L 43949448.00 43051023.00  zM 43949448.00 44822677.00 L 43357638.00 44822677.00 L 43357638.00 44348977.00 L 43949448.00 44348977.00 L 43949448.00 44822677.00  zM 44500001.47 42849995.88 m -132551.12 0 a 132551.12 132551.12 0 1 1 265102.24 0a 132551.12 132551.12 0 1 1 -265102.24 0M 44736850.00 43651417.00 L 44263150.00 43651417.00 L 44263150.00 43217087.00 L 44736850.00 43217087.00 L 44736850.00 43651417.00  zM 44736850.00 44182913.00 L 44263150.00 44182913.00 L 44263150.00 43748583.00 L 44736850.00 43748583.00 L 44736850.00 44182913.00  zM 44699999.50 35500018.07 m -628006.16 0 a 628006.16 628006.16 0 1 1 1256012.32 0a 628006.16 628006.16 0 1 1 -1256012.32 0M 46200001.71 35499996.07 m -397100.93 0 a 397100.93 397100.93 0 1 1 794201.86 0a 397100.93 397100.93 0 1 1 -794201.86 0M 44736850.00 39751417.00 L 44263150.00 39751417.00 L 44263150.00 39317087.00 L 44736850.00 39317087.00 L 44736850.00 39751417.00  zM 44736850.00 40282913.00 L 44263150.00 40282913.00 L 44263150.00 39848583.00 L 44736850.00 39848583.00 L 44736850.00 40282913.00  zM 50200002.00 35499993.05 m -338174.95 0 a 338174.95 338174.95 0 1 1 676349.89 0a 338174.95 338174.95 0 1 1 -676349.89 0M 51200002.00 35499993.05 m -338174.95 0 a 338174.95 338174.95 0 1 1 676349.89 0a 338174.95 338174.95 0 1 1 -676349.89 0M 52200002.00 35499993.05 m -338174.95 0 a 338174.95 338174.95 0 1 1 676349.89 0a 338174.95 338174.95 0 1 1 -676349.89 0M 52727008.00 42851418.00 L 52272992.00 42851418.00 L 52272992.00 42436772.00 L 52727008.00 42436772.00 L 52727008.00 42851418.00  zM 52727008.00 43363229.00 L 52272992.00 43363229.00 L 52272992.00 42948583.00 L 52727008.00 42948583.00 L 52727008.00 43363229.00  zM 51944095.47 43155901.88 m -132551.12 0 a 132551.12 132551.12 0 1 1 265102.24 0a 132551.12 132551.12 0 1 1 -265102.24 0M 51950001.47 44249995.88 m -132551.12 0 a 132551.12 132551.12 0 1 1 265102.24 0a 132551.12 132551.12 0 1 1 -265102.24 0M 52727008.00 43951418.00 L 52272992.00 43951418.00 L 52272992.00 43536772.00 L 52727008.00 43536772.00 L 52727008.00 43951418.00  zM 52727008.00 44463229.00 L 52272992.00 44463229.00 L 52272992.00 44048583.00 L 52727008.00 44048583.00 L 52727008.00 44463229.00  zM 40642362.00 46951023.00 L 40050552.00 46951023.00 L 40050552.00 46477323.00 L 40642362.00 46477323.00 L 40642362.00 46951023.00  zM 43949448.00 48722677.00 L 43357638.00 48722677.00 L 43357638.00 48248977.00 L 43949448.00 48248977.00 L 43949448.00 48722677.00  zM 43949448.00 46951023.00 L 43357638.00 46951023.00 L 43357638.00 46477323.00 L 43949448.00 46477323.00 L 43949448.00 46951023.00  zM 44485828.47 46714168.88 m -132551.12 0 a 132551.12 132551.12 0 1 1 265102.24 0a 132551.12 132551.12 0 1 1 -265102.24 0M 44727008.00 44895512.00 L 44272992.00 44895512.00 L 44272992.00 44480866.00 L 44727008.00 44480866.00 L 44727008.00 44895512.00  zM 44736850.00 47551417.00 L 44263150.00 47551417.00 L 44263150.00 47117087.00 L 44736850.00 47117087.00 L 44736850.00 47551417.00  zM 44736850.00 48082913.00 L 44263150.00 48082913.00 L 44263150.00 47648583.00 L 44736850.00 47648583.00 L 44736850.00 48082913.00  zM 44727008.00 45407323.00 L 44272992.00 45407323.00 L 44272992.00 44992677.00 L 44727008.00 44992677.00 L 44727008.00 45407323.00  zM 46899999.04 47600000.73 m -342933.27 0 a 342933.27 342933.27 0 1 1 685866.54 0a 342933.27 342933.27 0 1 1 -685866.54 0M 47899999.04 47600000.73 m -342933.27 0 a 342933.27 342933.27 0 1 1 685866.54 0a 342933.27 342933.27 0 1 1 -685866.54 0M 48899999.04 47600000.73 m -342933.27 0 a 342933.27 342933.27 0 1 1 685866.54 0a 342933.27 342933.27 0 1 1 -685866.54 0M 49899999.04 47600000.73 m -342933.27 0 a 342933.27 342933.27 0 1 1 685866.54 0a 342933.27 342933.27 0 1 1 -685866.54 0M 50899999.04 47600000.73 m -342933.27 0 a 342933.27 342933.27 0 1 1 685866.54 0a 342933.27 342933.27 0 1 1 -685866.54 0M 51899999.04 47600000.73 m -342933.27 0 a 342933.27 342933.27 0 1 1 685866.54 0a 342933.27 342933.27 0 1 1 -685866.54 0M 40642362.00 48722677.00 L 40050552.00 48722677.00 L 40050552.00 48248977.00 L 40642362.00 48248977.00 L 40642362.00 48722677.00  zM 44727008.00 48795512.00 L 44272992.00 48795512.00 L 44272992.00 48380866.00 L 44727008.00 48380866.00 L 44727008.00 48795512.00  zM 44727008.00 49307323.00 L 44272992.00 49307323.00 L 44272992.00 48892677.00 L 44727008.00 48892677.00 L 44727008.00 49307323.00  zM 45211810.50 54500018.07 m -628006.16 0 a 628006.16 628006.16 0 1 1 1256012.32 0a 628006.16 628006.16 0 1 1 -1256012.32 0M 47399996.23 52100023.28 m -833992.72 0 a 833992.72 833992.72 0 1 1 1667985.45 0a 833992.72 833992.72 0 1 1 -1667985.45 0M 46611813.00 54499993.05 m -338174.95 0 a 338174.95 338174.95 0 1 1 676349.89 0a 338174.95 338174.95 0 1 1 -676349.89 0M 47611813.00 54499993.05 m -338174.95 0 a 338174.95 338174.95 0 1 1 676349.89 0a 338174.95 338174.95 0 1 1 -676349.89 0M 48611813.00 54499993.05 m -338174.95 0 a 338174.95 338174.95 0 1 1 676349.89 0a 338174.95 338174.95 0 1 1 -676349.89 0M 49611813.00 54499993.05 m -338174.95 0 a 338174.95 338174.95 0 1 1 676349.89 0a 338174.95 338174.95 0 1 1 -676349.89 0M 50611813.00 54499993.05 m -338174.95 0 a 338174.95 338174.95 0 1 1 676349.89 0a 338174.95 338174.95 0 1 1 -676349.89 0M 52399996.23 52100023.28 m -833992.72 0 a 833992.72 833992.72 0 1 1 1667985.45 0a 833992.72 833992.72 0 1 1 -1667985.45 0M 51611813.00 54499993.05 m -338174.95 0 a 338174.95 338174.95 0 1 1 676349.89 0a 338174.95 338174.95 0 1 1 -676349.89 0M 52611813.00 54499993.05 m -338174.95 0 a 338174.95 338174.95 0 1 1 676349.89 0a 338174.95 338174.95 0 1 1 -676349.89 0M 53200002.00 35499993.05 m -338174.95 0 a 338174.95 338174.95 0 1 1 676349.89 0a 338174.95 338174.95 0 1 1 -676349.89 0M 54200002.00 35499993.05 m -338174.95 0 a 338174.95 338174.95 0 1 1 676349.89 0a 338174.95 338174.95 0 1 1 -676349.89 0M 55200002.00 35499993.05 m -338174.95 0 a 338174.95 338174.95 0 1 1 676349.89 0a 338174.95 338174.95 0 1 1 -676349.89 0M 57535275.00 35835275.00 L 56864725.00 35835275.00 L 56864725.00 35164725.00 L 57535275.00 35164725.00 L 57535275.00 35835275.00  zM 56200002.00 35499993.05 m -338174.95 0 a 338174.95 338174.95 0 1 1 676349.89 0a 338174.95 338174.95 0 1 1 -676349.89 0M 58901418.00 37627008.00 L 58486772.00 37627008.00 L 58486772.00 37172992.00 L 58901418.00 37172992.00 L 58901418.00 37627008.00  zM 55850000.00 42911208.00 L 55475984.00 42911208.00 A 161201.22 161201.22 0 0 1 55475984.00 42588792.00 L 55850000.00 42588792.00 A 161201.22 161201.22 0 0 1 55850000.00 42911208.00  zM 53724016.00 42911208.00 L 53350000.00 42911208.00 A 161201.22 161201.22 0 1 1 53350000.00 42588792.00 L 53724016.00 42588792.00 A 161201.22 161201.22 0 1 1 53724016.00 42911208.00  zM 53724016.00 43411208.00 L 53350000.00 43411208.00 A 161201.22 161201.22 0 1 1 53350000.00 43088792.00 L 53724016.00 43088792.00 A 161201.22 161201.22 0 1 1 53724016.00 43411208.00  zM 53724016.00 43911208.00 L 53350000.00 43911208.00 A 161201.22 161201.22 0 1 1 53350000.00 43588792.00 L 53724016.00 43588792.00 A 161201.22 161201.22 0 1 1 53724016.00 43911208.00  zM 53724016.00 44411208.00 L 53350000.00 44411208.00 A 161201.22 161201.22 0 1 1 53350000.00 44088792.00 L 53724016.00 44088792.00 A 161201.22 161201.22 0 1 1 53724016.00 44411208.00  zM 55850000.00 43411208.00 L 55475984.00 43411208.00 A 161201.22 161201.22 0 0 1 55475984.00 43088792.00 L 55850000.00 43088792.00 A 161201.22 161201.22 0 0 1 55850000.00 43411208.00  zM 55850000.00 43911208.00 L 55475984.00 43911208.00 A 161201.22 161201.22 0 0 1 55475984.00 43588792.00 L 55850000.00 43588792.00 A 161201.22 161201.22 0 0 1 55850000.00 43911208.00  zM 55850000.00 44411208.00 L 55475984.00 44411208.00 A 161201.22 161201.22 0 0 1 55475984.00 44088792.00 L 55850000.00 44088792.00 A 161201.22 161201.22 0 0 1 55850000.00 44411208.00  zM 59200002.00 35499993.05 m -338174.95 0 a 338174.95 338174.95 0 1 1 676349.89 0a 338174.95 338174.95 0 1 1 -676349.89 0M 59413229.00 37627008.00 L 58998583.00 37627008.00 L 58998583.00 37172992.00 L 59413229.00 37172992.00 L 59413229.00 37627008.00  zM 60200002.00 35499993.05 m -338174.95 0 a 338174.95 338174.95 0 1 1 676349.89 0a 338174.95 338174.95 0 1 1 -676349.89 0M 61200002.00 35499993.05 m -338174.95 0 a 338174.95 338174.95 0 1 1 676349.89 0a 338174.95 338174.95 0 1 1 -676349.89 0M 62200002.00 35499993.05 m -338174.95 0 a 338174.95 338174.95 0 1 1 676349.89 0a 338174.95 338174.95 0 1 1 -676349.89 0M 63200002.00 35499993.05 m -338174.95 0 a 338174.95 338174.95 0 1 1 676349.89 0a 338174.95 338174.95 0 1 1 -676349.89 0M 64535275.00 35835275.00 L 63864725.00 35835275.00 L 63864725.00 35164725.00 L 64535275.00 35164725.00 L 64535275.00 35835275.00  zM 61704963.00 37805354.00 L 60916303.00 37805354.00 L 60916303.00 37016694.00 L 61704963.00 37016694.00 L 61704963.00 37805354.00  zM 61310629.36 38788990.67 m -397718.33 0 a 397718.33 397718.33 0 1 1 795436.65 0a 397718.33 397718.33 0 1 1 -795436.65 0M 65211810.50 37500018.07 m -628006.16 0 a 628006.16 628006.16 0 1 1 1256012.32 0a 628006.16 628006.16 0 1 1 -1256012.32 0M 61704963.00 41330354.00 L 60916303.00 41330354.00 L 60916303.00 40541694.00 L 61704963.00 40541694.00 L 61704963.00 41330354.00  zM 61310629.36 42313990.67 m -397718.33 0 a 397718.33 397718.33 0 1 1 795436.65 0a 397718.33 397718.33 0 1 1 -795436.65 0M 65200001.71 38999996.07 m -397100.93 0 a 397100.93 397100.93 0 1 1 794201.86 0a 397100.93 397100.93 0 1 1 -794201.86 0M 52899999.04 47600000.73 m -342933.27 0 a 342933.27 342933.27 0 1 1 685866.54 0a 342933.27 342933.27 0 1 1 -685866.54 0M 59326220.00 44950236.00 L 58773780.00 44950236.00 L 58773780.00 44397796.00 L 59326220.00 44397796.00 L 59326220.00 44950236.00  zM 59326220.00 46076220.00 L 58773780.00 46076220.00 L 58773780.00 45523780.00 L 59326220.00 45523780.00 L 59326220.00 46076220.00  zM 59326220.00 48450236.00 L 58773780.00 48450236.00 L 58773780.00 47897796.00 L 59326220.00 47897796.00 L 59326220.00 48450236.00  zM 59326220.00 49576220.00 L 58773780.00 49576220.00 L 58773780.00 49023780.00 L 59326220.00 49023780.00 L 59326220.00 49576220.00  zM 59245512.00 51727008.00 L 58830866.00 51727008.00 L 58830866.00 51272992.00 L 59245512.00 51272992.00 L 59245512.00 51727008.00  zM 59757323.00 51727008.00 L 59342677.00 51727008.00 L 59342677.00 51272992.00 L 59757323.00 51272992.00 L 59757323.00 51727008.00  zM 53611813.00 54499993.05 m -338174.95 0 a 338174.95 338174.95 0 1 1 676349.89 0a 338174.95 338174.95 0 1 1 -676349.89 0M 54611813.00 54499993.05 m -338174.95 0 a 338174.95 338174.95 0 1 1 676349.89 0a 338174.95 338174.95 0 1 1 -676349.89 0M 55947086.00 54835275.00 L 55276536.00 54835275.00 L 55276536.00 54164725.00 L 55947086.00 54164725.00 L 55947086.00 54835275.00  zM 57200002.00 54499993.05 m -338174.95 0 a 338174.95 338174.95 0 1 1 676349.89 0a 338174.95 338174.95 0 1 1 -676349.89 0M 58200002.00 54499993.05 m -338174.95 0 a 338174.95 338174.95 0 1 1 676349.89 0a 338174.95 338174.95 0 1 1 -676349.89 0M 59200002.00 54499993.05 m -338174.95 0 a 338174.95 338174.95 0 1 1 676349.89 0a 338174.95 338174.95 0 1 1 -676349.89 0M 61310629.36 45838990.67 m -397718.33 0 a 397718.33 397718.33 0 1 1 795436.65 0a 397718.33 397718.33 0 1 1 -795436.65 0M 61704963.00 48380354.00 L 60916303.00 48380354.00 L 60916303.00 47591694.00 L 61704963.00 47591694.00 L 61704963.00 48380354.00  zM 61704963.00 44855354.00 L 60916303.00 44855354.00 L 60916303.00 44066694.00 L 61704963.00 44066694.00 L 61704963.00 44855354.00  zM 65200001.71 46999996.07 m -397100.93 0 a 397100.93 397100.93 0 1 1 794201.86 0a 397100.93 397100.93 0 1 1 -794201.86 0M 61310629.36 49363990.67 m -397718.33 0 a 397718.33 397718.33 0 1 1 795436.65 0a 397718.33 397718.33 0 1 1 -795436.65 0M 61704963.00 51905354.00 L 60916303.00 51905354.00 L 60916303.00 51116694.00 L 61704963.00 51116694.00 L 61704963.00 51905354.00  zM 65211810.50 48500018.07 m -628006.16 0 a 628006.16 628006.16 0 1 1 1256012.32 0a 628006.16 628006.16 0 1 1 -1256012.32 0M 61310629.36 52888990.67 m -397718.33 0 a 397718.33 397718.33 0 1 1 795436.65 0a 397718.33 397718.33 0 1 1 -795436.65 0M 61200002.00 54499993.05 m -338174.95 0 a 338174.95 338174.95 0 1 1 676349.89 0a 338174.95 338174.95 0 1 1 -676349.89 0M 60200002.00 54499993.05 m -338174.95 0 a 338174.95 338174.95 0 1 1 676349.89 0a 338174.95 338174.95 0 1 1 -676349.89 0M 62200002.00 54499993.05 m -338174.95 0 a 338174.95 338174.95 0 1 1 676349.89 0a 338174.95 338174.95 0 1 1 -676349.89 0M 63200002.00 54499993.05 m -338174.95 0 a 338174.95 338174.95 0 1 1 676349.89 0a 338174.95 338174.95 0 1 1 -676349.89 0M 64535275.00 54835275.00 L 63864725.00 54835275.00 L 63864725.00 54164725.00 L 64535275.00 54164725.00 L 64535275.00 54835275.00  z"/>
</g>
</svg>
