<svg width="68.55000006mm" height="53.37847338mm" viewBox="0 0 26988189 21015147"  version="1.1" xmlns="http://www.w3.org/2000/svg" xmlns:xlink="http://www.w3.org/1999/xlink">
<desc>
Origin 39200000 34500000 Bound 39200000 34500000 26988189 21015147
</desc>
<g fill-rule="evenodd" fill="rgb(0, 0, 255)" stroke="black" stroke-width="1" transform="translate(0, 21015147) scale(1, -1) translate(-39200000, -34500000)">
<path id="N" d="M 53199997.35 35499993.57 m -297829.90 0 a 297829.90 297829.90 0 1 1 595659.80 0a 297829.90 297829.90 0 1 1 -595659.80 0M 53200000.44 35499998.65 m -180637.35 0 a 180637.35 180637.35 0 1 1 361274.69 0a 180637.35 180637.35 0 1 1 -361274.69 0"/>
<path id="N" d="M 46899992.67 47599987.81 m -302603.18 0 a 302603.18 302603.18 0 1 1 605206.36 0a 302603.18 302603.18 0 1 1 -605206.36 0M 46900001.39 47599994.95 m -178433.05 0 a 178433.05 178433.05 0 1 1 356866.10 0a 178433.05 178433.05 0 1 1 -356866.10 0"/>
<path id="N" d="M 63137010.00 47631694.00 L 62428350.00 47631694.00 L 62428350.00 48340354.00 L 63137010.00 48340354.00 L 63137010.00 47631694.00  zM 62782676.50 47986033.68 m -240838.32 0 a 240838.32 240838.32 0 1 1 481676.63 0a 240838.32 240838.32 0 1 1 -481676.63 0"/>
<path id="N" d="M 57199997.35 54499993.57 m -297829.90 0 a 297829.90 297829.90 0 1 1 595659.80 0a 297829.90 297829.90 0 1 1 -595659.80 0M 57200000.44 54499998.65 m -180637.35 0 a 180637.35 180637.35 0 1 1 361274.69 0a 180637.35 180637.35 0 1 1 -361274.69 0"/>
<path id="N" d="M 62782680.91 49363975.51 m -357387.03 0 a 357387.03 357387.03 0 1 1 714774.05 0a 357387.03 357387.03 0 1 1 -714774.05 0M 62782676.50 49363985.68 m -240838.32 0 a 240838.32 240838.32 0 1 1 481676.63 0a 240838.32 240838.32 0 1 1 -481676.63 0"/>
<path id="N" d="M 65058872.00 54835738.00 L 65058872.00 50400000.00 L 65069825.00 50343166.00 L 65102382.00 50293156.00 L 66035250.00 49337718.66 L 66035250.00 36562281.34 L 65102382.00 35606844.00 L 65070514.00 35558527.00 L 65058872.00 35500000.00 L 65058872.00 34652939.00 L 39352939.00 34652939.00 L 39352939.00 55362208.00 L 64532402.00 55362208.00 L 65058872.00 54835738.00  zM 44761557.00 36226959.00 L 44638442.00 36226959.00 L 44618550.00 36225000.00 L 44497802.00 36200981.00 L 44478676.00 36195179.00 L 44364933.00 36148065.00 L 44347306.00 36138643.00 L 44244940.00 36070245.00 L 44229489.00 36057565.00 L 44142434.00 35970510.00 L 44129754.00 35955059.00 L 44061356.00 35852693.00 L 44051934.00 35835066.00 L 44004820.00 35721323.00 L 43999018.00 35702196.00 L 43975000.00 35581448.00 L 43973041.00 35561557.00 L 43973041.00 35438442.00 L 43975000.00 35418551.00 L 43999018.00 35297803.00 L 44004820.00 35278676.00 L 44051934.00 35164933.00 L 44061356.00 35147306.00 L 44129754.00 35044940.00 L 44142434.00 35029489.00 L 44229489.00 34942434.00 L 44244940.00 34929754.00 L 44347306.00 34861356.00 L 44364933.00 34851934.00 L 44478676.00 34804820.00 L 44497803.00 34799018.00 L 44618551.00 34775000.00 L 44638442.00 34773041.00 L 44761557.00 34773041.00 L 44781448.00 34775000.00 L 44902196.00 34799018.00 L 44921323.00 34804820.00 L 45035066.00 34851934.00 L 45052693.00 34861356.00 L 45155059.00 34929754.00 L 45170510.00 34942434.00 L 45257565.00 35029489.00 L 45270245.00 35044940.00 L 45338643.00 35147306.00 L 45348065.00 35164933.00 L 45395179.00 35278676.00 L 45400981.00 35297802.00 L 45425000.00 35418550.00 L 45426959.00 35438442.00 L 45426959.00 35561557.00 L 45425000.00 35581449.00 L 45400981.00 35702197.00 L 45395179.00 35721323.00 L 45348065.00 35835066.00 L 45338643.00 35852693.00 L 45270245.00 35955059.00 L 45257565.00 35970510.00 L 45170510.00 36057565.00 L 45155059.00 36070245.00 L 45052693.00 36138643.00 L 45035066.00 36148065.00 L 44921323.00 36195179.00 L 44902197.00 36200981.00 L 44781449.00 36225000.00 L 44771405.76 36225000.00 L 44761557.00 36226959.00  zM 44410994.33 38864173.00 L 44300883.34 38864173.00 L 44324753.00 38806547.00 L 44378201.00 38753099.00 L 44435827.00 38729229.34 L 44435827.00 38839340.33 L 44420941.00 38849287.00 L 44410994.33 38864173.00  zM 44435827.00 39099116.66 L 44378201.00 39075247.00 L 44324753.00 39021799.00 L 44300883.34 38964173.00 L 44410994.33 38964173.00 L 44420941.00 38979059.00 L 44435827.00 38989005.67 L 44435827.00 39099116.66  zM 44670770.66 38864173.00 L 44560659.67 38864173.00 L 44550713.00 38849287.00 L 44535827.00 38839340.33 L 44535827.00 38729229.34 L 44593453.00 38753099.00 L 44646901.00 38806547.00 L 44670770.66 38864173.00  zM 50200000.00 35499992.41 m -398693.35 0 a 398693.35 398693.35 0 1 1 797386.70 0a 398693.35 398693.35 0 1 1 -797386.70 0M 51149999.97 35895275.00 A 394989.98 394989.98 0 0 1 50804725.00 35549999.97 L 50908759.60 35549999.97 L 50912325.00 35577082.00 A 297829.90 297829.90 0 0 0 51122918.00 35787675.00 L 51149999.97 35791240.40 L 51149999.97 35895275.00  zM 50908759.60 35449999.97 L 50804725.00 35449999.97 A 394989.98 394989.98 0 0 1 51150000.03 35104725.00 L 51150000.03 35208759.60 L 51122918.00 35212325.00 A 297829.90 297829.90 0 0 0 50912325.00 35422918.00 L 50908759.60 35449999.97  zM 51200000.44 35499998.65 m -180637.35 0 a 180637.35 180637.35 0 1 1 361274.69 0a 180637.35 180637.35 0 1 1 -361274.69 0M 51595275.00 35450000.03 L 51491240.40 35450000.03 L 51487675.00 35422918.00 A 297829.90 297829.90 0 0 0 51277082.00 35212325.00 L 51250000.03 35208759.60 L 51250000.03 35104725.00 A 394989.98 394989.98 0 0 1 51595275.00 35447961.00 L 51595275.00 35450000.03  zM 51249999.97 35895275.00 L 51249999.97 35791240.40 L 51277082.00 35787675.00 A 297829.90 297829.90 0 0 0 51487675.00 35577082.00 L 51491240.40 35550000.03 L 51595275.00 35550000.03 A 394989.98 394989.98 0 0 1 51249999.97 35895275.00  zM 51908759.60 35449999.97 L 51804725.00 35449999.97 A 394989.98 394989.98 0 0 1 52150000.03 35104725.00 L 52150000.03 35208759.60 L 52122918.00 35212325.00 A 297829.90 297829.90 0 0 0 51912325.00 35422918.00 L 51908759.60 35449999.97  zM 52200000.44 35499998.65 m -180637.35 0 a 180637.35 180637.35 0 1 1 361274.69 0a 180637.35 180637.35 0 1 1 -361274.69 0M 52149999.97 35895275.00 A 394989.98 394989.98 0 0 1 51804725.00 35549999.97 L 51908759.60 35549999.97 L 51912325.00 35577082.00 A 297829.90 297829.90 0 0 0 52122918.00 35787675.00 L 52149999.97 35791240.40 L 52149999.97 35895275.00  zM 44535827.00 39099116.66 L 44535827.00 38989005.67 L 44550713.00 38979059.00 L 44560659.67 38964173.00 L 44670770.66 38964173.00 L 44646901.00 39021799.00 L 44593453.00 39075247.00 L 44535827.00 39099116.66  zM 44425167.33 42800000.00 L 44315056.34 42800000.00 L 44338926.00 42742374.00 L 44392374.00 42688926.00 L 44450000.00 42665056.34 L 44450000.00 42775167.33 L 44435114.00 42785114.00 L 44425167.33 42800000.00  zM 44450000.00 43034943.66 L 44392374.00 43011074.00 L 44338926.00 42957626.00 L 44315056.34 42900000.00 L 44425167.33 42900000.00 L 44435114.00 42914886.00 L 44450000.00 42924832.67 L 44450000.00 43034943.66  zM 44684943.66 42800000.00 L 44574832.67 42800000.00 L 44564886.00 42785114.00 L 44550000.00 42775167.33 L 44550000.00 42665056.34 L 44607626.00 42688926.00 L 44661074.00 42742374.00 L 44684943.66 42800000.00  zM 44550000.00 43034943.66 L 44550000.00 42924832.67 L 44564886.00 42914886.00 L 44574832.67 42900000.00 L 44684943.66 42900000.00 L 44661074.00 42957626.00 L 44607626.00 43011074.00 L 44550000.00 43034943.66  zM 51869261.33 43105906.00 L 51759150.34 43105906.00 L 51783020.00 43048280.00 L 51836468.00 42994832.00 L 51894094.00 42970962.34 L 51894094.00 43081073.33 L 51879208.00 43091020.00 L 51869261.33 43105906.00  zM 51894094.00 43340849.66 L 51836468.00 43316980.00 L 51783020.00 43263532.00 L 51759150.34 43205906.00 L 51869261.33 43205906.00 L 51879208.00 43220792.00 L 51894094.00 43230738.67 L 51894094.00 43340849.66  zM 52129037.66 43105906.00 L 52018926.67 43105906.00 L 52008980.00 43091020.00 L 51994094.00 43081073.33 L 51994094.00 42970962.34 L 52051720.00 42994832.00 L 52105168.00 43048280.00 L 52129037.66 43105906.00  zM 51994094.00 43340849.66 L 51994094.00 43230738.67 L 52008980.00 43220792.00 L 52018926.67 43205906.00 L 52129037.66 43205906.00 L 52105168.00 43263532.00 L 52051720.00 43316980.00 L 51994094.00 43340849.66  zM 51875167.33 44200000.00 L 51765056.34 44200000.00 L 51788926.00 44142374.00 L 51842374.00 44088926.00 L 51900000.00 44065056.34 L 51900000.00 44175167.33 L 51885114.00 44185114.00 L 51875167.33 44200000.00  zM 52134943.66 44200000.00 L 52024832.67 44200000.00 L 52014886.00 44185114.00 L 52000000.00 44175167.33 L 52000000.00 44065056.34 L 52057626.00 44088926.00 L 52111074.00 44142374.00 L 52134943.66 44200000.00  zM 52000000.00 44434943.66 L 52000000.00 44324832.67 L 52014886.00 44314886.00 L 52024832.67 44300000.00 L 52134943.66 44300000.00 L 52111074.00 44357626.00 L 52057626.00 44411074.00 L 52000000.00 44434943.66  zM 44410994.33 46664173.00 L 44300883.34 46664173.00 L 44324753.00 46606547.00 L 44378201.00 46553099.00 L 44435827.00 46529229.34 L 44435827.00 46639340.33 L 44420941.00 46649287.00 L 44410994.33 46664173.00  zM 44435827.00 46899116.66 L 44378201.00 46875247.00 L 44324753.00 46821799.00 L 44300883.34 46764173.00 L 44410994.33 46764173.00 L 44420941.00 46779059.00 L 44435827.00 46789005.67 L 44435827.00 46899116.66  zM 44535827.00 46899116.66 L 44535827.00 46789005.67 L 44550713.00 46779059.00 L 44560659.67 46764173.00 L 44670770.66 46764173.00 L 44646901.00 46821799.00 L 44593453.00 46875247.00 L 44535827.00 46899116.66  zM 44670770.66 46664173.00 L 44560659.67 46664173.00 L 44550713.00 46649287.00 L 44535827.00 46639340.33 L 44535827.00 46529229.34 L 44593453.00 46553099.00 L 44646901.00 46606547.00 L 44670770.66 46664173.00  zM 46900000.00 47599996.71 m -403454.85 0 a 403454.85 403454.85 0 1 1 806909.69 0a 403454.85 403454.85 0 1 1 -806909.69 0M 47900000.00 47599996.71 m -403454.85 0 a 403454.85 403454.85 0 1 1 806909.69 0a 403454.85 403454.85 0 1 1 -806909.69 0M 48603993.31 47550000.00 L 48500000.00 47550000.00 A 398715.18 398715.18 0 0 1 48850000.00 47200000.00 L 48850000.00 47303993.31 L 48821684.00 47307721.00 A 302603.18 302603.18 0 0 0 48607721.00 47521684.00 L 48603993.31 47550000.00  zM 51900000.00 44434943.66 L 51842374.00 44411074.00 L 51788926.00 44357626.00 L 51765056.34 44300000.00 L 51875167.33 44300000.00 L 51885114.00 44314886.00 L 51900000.00 44324832.67 L 51900000.00 44434943.66  zM 48900001.39 47599994.95 m -178433.05 0 a 178433.05 178433.05 0 1 1 356866.10 0a 178433.05 178433.05 0 1 1 -356866.10 0M 48850000.00 48000000.00 A 398715.18 398715.18 0 0 1 48500000.00 47650000.00 L 48603993.31 47650000.00 L 48607721.00 47678316.00 A 302603.18 302603.18 0 0 0 48821684.00 47892279.00 L 48850000.00 47896006.69 L 48850000.00 48000000.00  zM 51900000.00 47599996.71 m -403454.85 0 a 403454.85 403454.85 0 1 1 806909.69 0a 403454.85 403454.85 0 1 1 -806909.69 0M 52400000.00 52099980.14 m -773745.42 0 a 773745.42 773745.42 0 1 1 1547490.85 0a 773745.42 773745.42 0 1 1 -1547490.85 0M 47400000.00 52099980.14 m -773745.42 0 a 773745.42 773745.42 0 1 1 1547490.85 0a 773745.42 773745.42 0 1 1 -1547490.85 0M 46611811.00 54499992.41 m -398693.35 0 a 398693.35 398693.35 0 1 1 797386.70 0a 398693.35 398693.35 0 1 1 -797386.70 0M 45273368.00 55226959.00 L 45150253.00 55226959.00 L 45130361.00 55225000.00 L 45009613.00 55200981.00 L 44990487.00 55195179.00 L 44876744.00 55148065.00 L 44859117.00 55138643.00 L 44756751.00 55070245.00 L 44741300.00 55057565.00 L 44654245.00 54970510.00 L 44641565.00 54955059.00 L 44573167.00 54852693.00 L 44563745.00 54835066.00 L 44516631.00 54721323.00 L 44510829.00 54702196.00 L 44486811.00 54581448.00 L 44484852.00 54561557.00 L 44484852.00 54438442.00 L 44486811.00 54418551.00 L 44510829.00 54297803.00 L 44516631.00 54278676.00 L 44563745.00 54164933.00 L 44573167.00 54147306.00 L 44641565.00 54044940.00 L 44654245.00 54029489.00 L 44741300.00 53942434.00 L 44756751.00 53929754.00 L 44859117.00 53861356.00 L 44876744.00 53851934.00 L 44990487.00 53804820.00 L 45009614.00 53799018.00 L 45130362.00 53775000.00 L 45150253.00 53773041.00 L 45273368.00 53773041.00 L 45293259.00 53775000.00 L 45414007.00 53799018.00 L 45433134.00 53804820.00 L 45546877.00 53851934.00 L 45564504.00 53861356.00 L 45666870.00 53929754.00 L 45682321.00 53942434.00 L 45769376.00 54029489.00 L 45782056.00 54044940.00 L 45850454.00 54147306.00 L 45859876.00 54164933.00 L 45906990.00 54278676.00 L 45912792.00 54297802.00 L 45936811.00 54418550.00 L 45938770.00 54438442.00 L 45938770.00 54561557.00 L 45936811.00 54581449.00 L 45912792.00 54702197.00 L 45906990.00 54721323.00 L 45859876.00 54835066.00 L 45850454.00 54852693.00 L 45782056.00 54955059.00 L 45769376.00 54970510.00 L 45682321.00 55057565.00 L 45666870.00 55070245.00 L 45564504.00 55138643.00 L 45546877.00 55148065.00 L 45433134.00 55195179.00 L 45414008.00 55200981.00 L 45293260.00 55225000.00 L 45283216.76 55225000.00 L 45273368.00 55226959.00  zM 47611811.00 54499992.41 m -398693.35 0 a 398693.35 398693.35 0 1 1 797386.70 0a 398693.35 398693.35 0 1 1 -797386.70 0M 48611811.00 54499992.41 m -398693.35 0 a 398693.35 398693.35 0 1 1 797386.70 0a 398693.35 398693.35 0 1 1 -797386.70 0M 49561812.97 54895275.00 A 394986.57 394986.57 0 0 1 49216536.00 54549999.97 L 49320570.60 54549999.97 L 49324136.00 54577082.00 A 297829.90 297829.90 0 0 0 49534729.00 54787675.00 L 49561812.97 54791240.66 L 49561812.97 54895275.00  zM 49320570.60 54449999.97 L 49216536.00 54449999.97 A 394989.98 394989.98 0 0 1 49561813.03 54104725.00 L 49561813.03 54208759.33 L 49534729.00 54212325.00 A 297844.08 297844.08 0 0 0 49324136.00 54422918.00 L 49320570.60 54449999.97  zM 49611811.44 54499998.65 m -180637.35 0 a 180637.35 180637.35 0 1 1 361274.69 0a 180637.35 180637.35 0 1 1 -361274.69 0M 49661812.97 54895275.00 L 49661812.97 54791240.14 L 49688893.00 54787675.00 A 297844.08 297844.08 0 0 0 49899486.00 54577082.00 L 49903051.40 54550000.03 L 50007086.00 54550000.03 A 394989.98 394989.98 0 0 1 49661812.97 54895275.00  zM 50007086.00 54450000.03 L 49903051.40 54450000.03 L 49899486.00 54422918.00 A 297829.90 297829.90 0 0 0 49688893.00 54212325.00 L 49661813.03 54208759.87 L 49661813.03 54104725.00 A 394993.40 394993.40 0 0 1 50007086.00 54447961.00 L 50007086.00 54450000.03  zM 50611811.00 54499992.41 m -398693.35 0 a 398693.35 398693.35 0 1 1 797386.70 0a 398693.35 398693.35 0 1 1 -797386.70 0M 51611811.00 54499992.41 m -398693.35 0 a 398693.35 398693.35 0 1 1 797386.70 0a 398693.35 398693.35 0 1 1 -797386.70 0M 52595275.00 35450000.03 L 52491240.40 35450000.03 L 52487675.00 35422918.00 A 297829.90 297829.90 0 0 0 52277082.00 35212325.00 L 52250000.03 35208759.60 L 52250000.03 35104725.00 A 394989.98 394989.98 0 0 1 52595275.00 35447961.00 L 52595275.00 35450000.03  zM 52249999.97 35895275.00 L 52249999.97 35791240.40 L 52277082.00 35787675.00 A 297829.90 297829.90 0 0 0 52487675.00 35577082.00 L 52491240.40 35550000.03 L 52595275.00 35550000.03 A 394989.98 394989.98 0 0 1 52249999.97 35895275.00  zM 53200000.00 35499992.41 m -398693.35 0 a 398693.35 398693.35 0 1 1 797386.70 0a 398693.35 398693.35 0 1 1 -797386.70 0M 54200000.00 35499992.41 m -398693.35 0 a 398693.35 398693.35 0 1 1 797386.70 0a 398693.35 398693.35 0 1 1 -797386.70 0M 55200000.00 35499992.41 m -398693.35 0 a 398693.35 398693.35 0 1 1 797386.70 0a 398693.35 398693.35 0 1 1 -797386.70 0M 56200000.00 35499992.41 m -398693.35 0 a 398693.35 398693.35 0 1 1 797386.70 0a 398693.35 398693.35 0 1 1 -797386.70 0M 50450000.00 48202939.00 L 49713604.00 48202939.00 L 49655077.00 48191297.00 L 49605460.00 48158144.00 L 49341856.00 47894540.00 L 49308703.00 47844923.00 L 49300889.14 47805640.93 L 49248178.06 47796938.47 L 49220080.00 47845606.00 A 403449.21 403449.21 0 0 1 48950000.00 48000000.00 L 48950000.00 47896006.69 L 48978316.00 47892279.00 A 302603.18 302603.18 0 0 0 48978316.00 47307721.00 L 48950000.00 47303993.31 L 48950000.00 47200000.00 A 398715.18 398715.18 0 0 1 49220080.00 47354394.00 L 49248178.06 47403061.53 L 49300889.14 47394359.07 L 49308703.00 47355077.00 L 49341856.00 47305460.00 L 60048767.00 36598549.00 L 60098384.00 36565396.00 L 60156911.00 36553754.00 L 62929959.00 36553754.00 L 63047061.00 36436652.00 L 63047061.00 35868125.53 A 397872.77 397872.77 0 1 1 63352939.00 35868125.53 L 63352939.00 36500001.00 L 63350440.55 36512561.28 L 63396521.05 36537191.95 L 63992243.60 35941469.40 L 63973109.25 35895275.00 L 63804725.00 35895275.00 L 63804725.00 35104725.00 L 64595275.00 35104725.00 L 64595275.00 35895275.00 L 64352938.12 35895275.00 L 64352938.00 35950002.00 L 64341296.00 36008530.00 L 64308143.00 36058146.00 L 63351452.00 37014837.00 L 63301835.00 37047990.00 L 63243308.00 37059632.00 L 63237010.00 37059632.00 L 63237010.00 37865354.00 L 62328350.00 37865354.00 L 62328350.00 37059632.00 L 60656656.00 37059632.00 L 50271987.36 47444300.64 A 400685.84 400685.84 0 0 1 50220080.00 47845606.00 L 50214819.40 47850866.60 L 50233953.75 47897061.00 L 50386651.00 47897061.00 L 50528012.64 47755699.36 A 400685.84 400685.84 0 1 1 50744300.64 47971987.36 L 50558144.00 48158144.00 L 50508527.00 48191297.00 L 50450000.00 48202939.00  zM 57595275.00 35895275.00 L 56804725.00 35895275.00 L 56804725.00 35104725.00 L 57595275.00 35104725.00 L 57595275.00 35895275.00  zM 59200000.00 35499992.41 m -398693.35 0 a 398693.35 398693.35 0 1 1 797386.70 0a 398693.35 398693.35 0 1 1 -797386.70 0M 60200000.00 35499992.41 m -398693.35 0 a 398693.35 398693.35 0 1 1 797386.70 0a 398693.35 398693.35 0 1 1 -797386.70 0M 61200000.00 35499992.41 m -398693.35 0 a 398693.35 398693.35 0 1 1 797386.70 0a 398693.35 398693.35 0 1 1 -797386.70 0M 62200000.00 35499992.41 m -398693.35 0 a 398693.35 398693.35 0 1 1 797386.70 0a 398693.35 398693.35 0 1 1 -797386.70 0M 62431875.78 38738975.98 L 62328350.00 38738975.98 L 62328350.00 38729162.00 A 458246.34 458246.34 0 0 1 62722866.00 38334646.00 L 62732680.02 38334646.00 L 62732680.02 38438171.77 L 62690181.00 38443767.00 A 357387.03 357387.03 0 0 0 62437471.00 38696477.00 L 62431875.78 38738975.98  zM 62782676.50 38788985.68 m -240838.32 0 a 240838.32 240838.32 0 1 1 481676.63 0a 240838.32 240838.32 0 1 1 -481676.63 0M 62732679.98 39243306.00 L 62722866.00 39243306.00 A 458246.34 458246.34 0 0 1 62328350.00 38848790.00 L 62328350.00 38838975.98 L 62431875.77 38838975.98 L 62437471.00 38881475.00 A 357387.03 357387.03 0 0 0 62690181.00 39134185.00 L 62732679.98 39139780.22 L 62732679.98 39243306.00  zM 63237010.00 38738976.02 L 63133484.23 38738976.02 L 63127889.00 38696477.00 A 357387.03 357387.03 0 0 0 62875179.00 38443767.00 L 62832680.02 38438171.78 L 62832680.02 38334646.00 L 62842494.00 38334646.00 A 458246.34 458246.34 0 0 1 63237010.00 38729162.00 L 63237010.00 38738976.02  zM 62842494.00 39243306.00 L 62832679.98 39243306.00 L 62832679.98 39139780.23 L 62875179.00 39134185.00 A 357387.03 357387.03 0 0 0 63127889.00 38881475.00 L 63133484.22 38838976.02 L 63237010.00 38838976.02 L 63237010.00 38848790.00 A 458246.34 458246.34 0 0 1 62842494.00 39243306.00  zM 65273368.00 38226959.00 L 65150253.00 38226959.00 L 65130361.00 38225000.00 L 65009613.00 38200981.00 L 64990487.00 38195179.00 L 64876744.00 38148065.00 L 64859117.00 38138643.00 L 64756751.00 38070245.00 L 64741300.00 38057565.00 L 64654245.00 37970510.00 L 64641565.00 37955059.00 L 64573167.00 37852693.00 L 64563745.00 37835066.00 L 64516631.00 37721323.00 L 64510829.00 37702196.00 L 64486811.00 37581448.00 L 64484852.00 37561557.00 L 64484852.00 37438442.00 L 64486811.00 37418551.00 L 64510829.00 37297803.00 L 64516631.00 37278676.00 L 64563745.00 37164933.00 L 64573167.00 37147306.00 L 64641565.00 37044940.00 L 64654245.00 37029489.00 L 64741300.00 36942434.00 L 64756751.00 36929754.00 L 64859117.00 36861356.00 L 64876744.00 36851934.00 L 64990487.00 36804820.00 L 65009614.00 36799018.00 L 65130362.00 36775000.00 L 65150253.00 36773041.00 L 65273368.00 36773041.00 L 65293259.00 36775000.00 L 65414007.00 36799018.00 L 65433134.00 36804820.00 L 65546877.00 36851934.00 L 65564504.00 36861356.00 L 65666870.00 36929754.00 L 65682321.00 36942434.00 L 65769376.00 37029489.00 L 65782056.00 37044940.00 L 65850454.00 37147306.00 L 65859876.00 37164933.00 L 65906990.00 37278676.00 L 65912792.00 37297802.00 L 65936811.00 37418550.00 L 65938770.00 37438442.00 L 65938770.00 37561557.00 L 65936811.00 37581449.00 L 65912792.00 37702197.00 L 65906990.00 37721323.00 L 65859876.00 37835066.00 L 65850454.00 37852693.00 L 65782056.00 37955059.00 L 65769376.00 37970510.00 L 65682321.00 38057565.00 L 65666870.00 38070245.00 L 65564504.00 38138643.00 L 65546877.00 38148065.00 L 65433134.00 38195179.00 L 65414008.00 38200981.00 L 65293260.00 38225000.00 L 65283216.76 38225000.00 L 65273368.00 38226959.00  zM 63237010.00 41390354.00 L 62328350.00 41390354.00 L 62328350.00 40481694.00 L 63237010.00 40481694.00 L 63237010.00 41390354.00  zM 62431875.78 42263975.98 L 62328350.00 42263975.98 L 62328350.00 42254162.00 A 458246.34 458246.34 0 0 1 62722866.00 41859646.00 L 62732680.02 41859646.00 L 62732680.02 41963171.77 L 62690181.00 41968767.00 A 357387.03 357387.03 0 0 0 62437471.00 42221477.00 L 62431875.78 42263975.98  zM 63237010.00 42263976.02 L 63133484.23 42263976.02 L 63127889.00 42221477.00 A 357387.03 357387.03 0 0 0 62875179.00 41968767.00 L 62832680.02 41963171.78 L 62832680.02 41859646.00 L 62842494.00 41859646.00 A 458246.34 458246.34 0 0 1 63237010.00 42254162.00 L 63237010.00 42263976.02  zM 62732679.98 42768306.00 L 62722866.00 42768306.00 A 458246.34 458246.34 0 0 1 62328350.00 42373790.00 L 62328350.00 42363975.98 L 62431875.77 42363975.98 L 62437471.00 42406475.00 A 357387.03 357387.03 0 0 0 62690181.00 42659185.00 L 62732679.98 42664780.22 L 62732679.98 42768306.00  zM 62782676.50 42313985.68 m -240838.32 0 a 240838.32 240838.32 0 1 1 481676.63 0a 240838.32 240838.32 0 1 1 -481676.63 0M 62842494.00 42768306.00 L 62832679.98 42768306.00 L 62832679.98 42664780.23 L 62875179.00 42659185.00 A 357387.03 357387.03 0 0 0 63127889.00 42406475.00 L 63133484.22 42363976.02 L 63237010.00 42363976.02 L 63237010.00 42373790.00 A 458246.34 458246.34 0 0 1 62842494.00 42768306.00  zM 52900000.00 47599996.71 m -403454.85 0 a 403454.85 403454.85 0 1 1 806909.69 0a 403454.85 403454.85 0 1 1 -806909.69 0M 52611811.00 54499992.41 m -398693.35 0 a 398693.35 398693.35 0 1 1 797386.70 0a 398693.35 398693.35 0 1 1 -797386.70 0M 54611811.00 54499992.41 m -398693.35 0 a 398693.35 398693.35 0 1 1 797386.70 0a 398693.35 398693.35 0 1 1 -797386.70 0M 53611811.00 54499992.41 m -398693.35 0 a 398693.35 398693.35 0 1 1 797386.70 0a 398693.35 398693.35 0 1 1 -797386.70 0M 56007086.00 54895275.00 L 55216536.00 54895275.00 L 55216536.00 54104725.00 L 56007086.00 54104725.00 L 56007086.00 54895275.00  zM 57200000.00 54499992.41 m -398693.35 0 a 398693.35 398693.35 0 1 1 797386.70 0a 398693.35 398693.35 0 1 1 -797386.70 0M 58200000.00 54499992.41 m -398693.35 0 a 398693.35 398693.35 0 1 1 797386.70 0a 398693.35 398693.35 0 1 1 -797386.70 0M 59200000.00 54499992.41 m -398693.35 0 a 398693.35 398693.35 0 1 1 797386.70 0a 398693.35 398693.35 0 1 1 -797386.70 0M 60200000.00 54499992.41 m -398693.35 0 a 398693.35 398693.35 0 1 1 797386.70 0a 398693.35 398693.35 0 1 1 -797386.70 0M 62732679.98 53343306.00 L 62722866.00 53343306.00 A 458246.34 458246.34 0 0 1 62328350.00 52948790.00 L 62328350.00 52938975.98 L 62431875.77 52938975.98 L 62437471.00 52981475.00 A 357387.03 357387.03 0 0 0 62690181.00 53234185.00 L 62732679.98 53239780.22 L 62732679.98 53343306.00  zM 62200000.00 54499992.41 m -398693.35 0 a 398693.35 398693.35 0 1 1 797386.70 0a 398693.35 398693.35 0 1 1 -797386.70 0M 61200000.00 54499992.41 m -398693.35 0 a 398693.35 398693.35 0 1 1 797386.70 0a 398693.35 398693.35 0 1 1 -797386.70 0M 63237010.00 44915354.00 L 62328350.00 44915354.00 L 62328350.00 44006694.00 L 63237010.00 44006694.00 L 63237010.00 44915354.00  zM 62782680.00 45838977.89 m -458248.57 0 a 458248.57 458248.57 0 1 1 916497.13 0a 458248.57 458248.57 0 1 1 -916497.13 0M 63237010.00 48440354.00 L 62328350.00 48440354.00 L 62328350.00 47531694.00 L 63237010.00 47531694.00 L 63237010.00 48440354.00  zM 62782680.00 49363977.89 m -458248.57 0 a 458248.57 458248.57 0 1 1 916497.13 0a 458248.57 458248.57 0 1 1 -916497.13 0M 65273368.00 49226959.00 L 65150253.00 49226959.00 L 65130361.00 49225000.00 L 65009613.00 49200981.00 L 64990487.00 49195179.00 L 64876744.00 49148065.00 L 64859117.00 49138643.00 L 64756751.00 49070245.00 L 64741300.00 49057565.00 L 64654245.00 48970510.00 L 64641565.00 48955059.00 L 64573167.00 48852693.00 L 64563745.00 48835066.00 L 64516631.00 48721323.00 L 64510829.00 48702196.00 L 64486811.00 48581448.00 L 64484852.00 48561557.00 L 64484852.00 48438442.00 L 64486811.00 48418551.00 L 64510829.00 48297803.00 L 64516631.00 48278676.00 L 64563745.00 48164933.00 L 64573167.00 48147306.00 L 64641565.00 48044940.00 L 64654245.00 48029489.00 L 64741300.00 47942434.00 L 64756751.00 47929754.00 L 64859117.00 47861356.00 L 64876744.00 47851934.00 L 64990487.00 47804820.00 L 65009614.00 47799018.00 L 65130362.00 47775000.00 L 65150253.00 47773041.00 L 65273368.00 47773041.00 L 65293259.00 47775000.00 L 65414007.00 47799018.00 L 65433134.00 47804820.00 L 65546877.00 47851934.00 L 65564504.00 47861356.00 L 65666870.00 47929754.00 L 65682321.00 47942434.00 L 65769376.00 48029489.00 L 65782056.00 48044940.00 L 65850454.00 48147306.00 L 65859876.00 48164933.00 L 65906990.00 48278676.00 L 65912792.00 48297802.00 L 65936811.00 48418550.00 L 65938770.00 48438442.00 L 65938770.00 48561557.00 L 65936811.00 48581449.00 L 65912792.00 48702197.00 L 65906990.00 48721323.00 L 65859876.00 48835066.00 L 65850454.00 48852693.00 L 65782056.00 48955059.00 L 65769376.00 48970510.00 L 65682321.00 49057565.00 L 65666870.00 49070245.00 L 65564504.00 49138643.00 L 65546877.00 49148065.00 L 65433134.00 49195179.00 L 65414008.00 49200981.00 L 65293260.00 49225000.00 L 65283216.76 49225000.00 L 65273368.00 49226959.00  zM 63237010.00 51965354.00 L 62328350.00 51965354.00 L 62328350.00 51056694.00 L 63237010.00 51056694.00 L 63237010.00 51965354.00  zM 62431875.78 52838975.98 L 62328350.00 52838975.98 L 62328350.00 52829162.00 A 458246.34 458246.34 0 0 1 62722866.00 52434646.00 L 62732680.02 52434646.00 L 62732680.02 52538171.77 L 62690181.00 52543767.00 A 357387.03 357387.03 0 0 0 62437471.00 52796477.00 L 62431875.78 52838975.98  zM 62782676.50 52888985.68 m -240838.32 0 a 240838.32 240838.32 0 1 1 481676.63 0a 240838.32 240838.32 0 1 1 -481676.63 0M 63237010.00 52838976.02 L 63133484.23 52838976.02 L 63127889.00 52796477.00 A 357387.03 357387.03 0 0 0 62875179.00 52543767.00 L 62832680.02 52538171.78 L 62832680.02 52434646.00 L 62842494.00 52434646.00 A 458246.34 458246.34 0 0 1 63237010.00 52829162.00 L 63237010.00 52838976.02  zM 62842494.00 53343306.00 L 62832679.98 53343306.00 L 62832679.98 53239780.23 L 62875179.00 53234185.00 A 357387.03 357387.03 0 0 0 63127889.00 52981475.00 L 63133484.22 52938976.02 L 63237010.00 52938976.02 L 63237010.00 52948790.00 A 458246.34 458246.34 0 0 1 62842494.00 53343306.00  zM 63200000.00 54499992.41 m -398693.35 0 a 398693.35 398693.35 0 1 1 797386.70 0a 398693.35 398693.35 0 1 1 -797386.70 0M 64595275.00 54895275.00 L 63804725.00 54895275.00 L 63804725.00 54104725.00 L 64595275.00 54104725.00 L 64595275.00 54895275.00  z"/>
<path id="N" d="M 60377885.60 36905826.40 L 60358751.25 36859632.00 L 60220260.00 36859632.00 L 49926086.40 47153805.60 L 49945220.75 47200000.00 L 49952661.00 47200000.00 L 50055699.36 47228012.64 L 60377885.60 36905826.40  z"/>
<path id="N" d="M 50488269.00 48088269.00 L 50729344.45 47847193.55 L 50748706.00 47862050.00 A 302574.00 302574.00 0 1 0 50637950.00 47751294.00 L 50652806.45 47770655.55 L 50427582.00 47995880.00 L 49736021.06 47995880.00 L 49504120.00 47763978.06 L 49504120.00 47436022.00 L 60179328.00 36760813.00 L 62993308.00 36760814.00 L 63031577.00 36744962.00 L 63238269.00 36538270.00 L 63254120.00 36499998.59 L 63254120.00 35790697.99 L 63277082.00 35787675.00 A 297829.90 297829.90 0 1 0 63122918.00 35787675.00 L 63145880.00 35790697.99 L 63145880.00 36477583.92 L 62970890.08 36652573.00 L 60156911.00 36652572.00 L 60118641.29 36668425.71 L 49411731.00 47375335.00 L 49395880.00 47413606.41 L 49395879.00 47786396.00 L 49411731.00 47824665.00 L 49675335.00 48088269.00 L 49713604.00 48104120.00 L 50450000.00 48104121.00 L 50488269.00 48088269.00  zM 50900001.39 47599994.95 m -178433.05 0 a 178433.05 178433.05 0 1 1 356866.10 0a 178433.05 178433.05 0 1 1 -356866.10 0M 63200000.44 35499998.65 m -180637.35 0 a 180637.35 180637.35 0 1 1 361274.69 0a 180637.35 180637.35 0 1 1 -361274.69 0"/>
<path id="N" d="M 50162050.00 47448706.00 L 50147193.54 47429344.44 L 60615724.00 36960813.00 L 63243308.00 36960814.00 L 63281577.00 36944962.00 L 64238268.00 35988271.00 L 64254119.00 35950002.00 L 64254119.34 35795275.00 L 64495275.00 35795275.00 L 64495275.00 35204725.00 L 63904725.00 35204725.00 L 63904725.00 35795275.00 L 64145879.34 35795275.00 L 64145879.05 35927584.93 L 63220890.02 36852573.00 L 60593307.00 36852572.00 L 60555037.29 36868425.71 L 50070655.56 47352806.46 L 50051294.00 47337950.00 A 302574.00 302574.00 0 1 0 50162050.00 47448706.00  zM 49900001.39 47599994.95 m -178433.05 0 a 178433.05 178433.05 0 1 1 356866.10 0a 178433.05 178433.05 0 1 1 -356866.10 0M 64200000.44 35499998.65 m -180637.35 0 a 180637.35 180637.35 0 1 1 361274.69 0a 180637.35 180637.35 0 1 1 -361274.69 0"/>
<path id="N" d="M 55199997.35 35499993.57 m -297829.90 0 a 297829.90 297829.90 0 1 1 595659.80 0a 297829.90 297829.90 0 1 1 -595659.80 0M 55200000.44 35499998.65 m -180637.35 0 a 180637.35 180637.35 0 1 1 361274.69 0a 180637.35 180637.35 0 1 1 -361274.69 0"/>
<path id="N" d="M 54199997.35 35499993.57 m -297829.90 0 a 297829.90 297829.90 0 1 1 595659.80 0a 297829.90 297829.90 0 1 1 -595659.80 0M 54200000.44 35499998.65 m -180637.35 0 a 180637.35 180637.35 0 1 1 361274.69 0a 180637.35 180637.35 0 1 1 -361274.69 0"/>
<path id="N" d="M 51899992.67 47599987.81 m -302603.18 0 a 302603.18 302603.18 0 1 1 605206.36 0a 302603.18 302603.18 0 1 1 -605206.36 0M 51900001.39 47599994.95 m -178433.05 0 a 178433.05 178433.05 0 1 1 356866.10 0a 178433.05 178433.05 0 1 1 -356866.10 0"/>
<path id="N" d="M 63199997.35 54499993.57 m -297829.90 0 a 297829.90 297829.90 0 1 1 595659.80 0a 297829.90 297829.90 0 1 1 -595659.80 0M 63200000.44 54499998.65 m -180637.35 0 a 180637.35 180637.35 0 1 1 361274.69 0a 180637.35 180637.35 0 1 1 -361274.69 0"/>
<path id="N" d="M 62199997.35 35499993.57 m -297829.90 0 a 297829.90 297829.90 0 1 1 595659.80 0a 297829.90 297829.90 0 1 1 -595659.80 0M 62200000.44 35499998.65 m -180637.35 0 a 180637.35 180637.35 0 1 1 361274.69 0a 180637.35 180637.35 0 1 1 -361274.69 0"/>
<path id="N" d="M 61199997.35 35499993.57 m -297829.90 0 a 297829.90 297829.90 0 1 1 595659.80 0a 297829.90 297829.90 0 1 1 -595659.80 0M 61200000.44 35499998.65 m -180637.35 0 a 180637.35 180637.35 0 1 1 361274.69 0a 180637.35 180637.35 0 1 1 -361274.69 0"/>
<path id="N" d="M 50199997.35 35499993.57 m -297829.90 0 a 297829.90 297829.90 0 1 1 595659.80 0a 297829.90 297829.90 0 1 1 -595659.80 0M 50200000.44 35499998.65 m -180637.35 0 a 180637.35 180637.35 0 1 1 361274.69 0a 180637.35 180637.35 0 1 1 -361274.69 0"/>
<path id="N" d="M 52899992.67 47599987.81 m -302603.18 0 a 302603.18 302603.18 0 1 1 605206.36 0a 302603.18 302603.18 0 1 1 -605206.36 0M 52900001.39 47599994.95 m -178433.05 0 a 178433.05 178433.05 0 1 1 356866.10 0a 178433.05 178433.05 0 1 1 -356866.10 0"/>
<path id="N" d="M 47899992.67 47599987.81 m -302603.18 0 a 302603.18 302603.18 0 1 1 605206.36 0a 302603.18 302603.18 0 1 1 -605206.36 0M 47900001.39 47599994.95 m -178433.05 0 a 178433.05 178433.05 0 1 1 356866.10 0a 178433.05 178433.05 0 1 1 -356866.10 0"/>
<path id="N" d="M 56199997.35 35499993.57 m -297829.90 0 a 297829.90 297829.90 0 1 1 595659.80 0a 297829.90 297829.90 0 1 1 -595659.80 0M 56200000.44 35499998.65 m -180637.35 0 a 180637.35 180637.35 0 1 1 361274.69 0a 180637.35 180637.35 0 1 1 -361274.69 0"/>
<path id="N" d="M 50611801.01 54499980.86 m -297844.08 0 a 297844.08 297844.08 0 1 1 595688.15 0a 297844.08 297844.08 0 1 1 -595688.15 0M 50611811.44 54499998.65 m -180637.35 0 a 180637.35 180637.35 0 1 1 361274.69 0a 180637.35 180637.35 0 1 1 -361274.69 0"/>
<path id="N" d="M 51611801.01 54499980.86 m -297844.08 0 a 297844.08 297844.08 0 1 1 595688.15 0a 297844.08 297844.08 0 1 1 -595688.15 0M 51611811.44 54499998.65 m -180637.35 0 a 180637.35 180637.35 0 1 1 361274.69 0a 180637.35 180637.35 0 1 1 -361274.69 0"/>
<path id="N" d="M 54611801.01 54499980.86 m -297844.08 0 a 297844.08 297844.08 0 1 1 595688.15 0a 297844.08 297844.08 0 1 1 -595688.15 0M 54611811.44 54499998.65 m -180637.35 0 a 180637.35 180637.35 0 1 1 361274.69 0a 180637.35 180637.35 0 1 1 -361274.69 0"/>
<path id="N" d="M 52611801.01 54499980.86 m -297844.08 0 a 297844.08 297844.08 0 1 1 595688.15 0a 297844.08 297844.08 0 1 1 -595688.15 0M 52611811.44 54499998.65 m -180637.35 0 a 180637.35 180637.35 0 1 1 361274.69 0a 180637.35 180637.35 0 1 1 -361274.69 0"/>
<path id="N" d="M 60199997.35 35499993.57 m -297829.90 0 a 297829.90 297829.90 0 1 1 595659.80 0a 297829.90 297829.90 0 1 1 -595659.80 0M 60200000.44 35499998.65 m -180637.35 0 a 180637.35 180637.35 0 1 1 361274.69 0a 180637.35 180637.35 0 1 1 -361274.69 0"/>
<path id="N" d="M 53611801.01 54499980.86 m -297844.08 0 a 297844.08 297844.08 0 1 1 595688.15 0a 297844.08 297844.08 0 1 1 -595688.15 0M 53611811.44 54499998.65 m -180637.35 0 a 180637.35 180637.35 0 1 1 361274.69 0a 180637.35 180637.35 0 1 1 -361274.69 0"/>
<path id="N" d="M 48611801.01 54499980.86 m -297844.08 0 a 297844.08 297844.08 0 1 1 595688.15 0a 297844.08 297844.08 0 1 1 -595688.15 0M 48611811.44 54499998.65 m -180637.35 0 a 180637.35 180637.35 0 1 1 361274.69 0a 180637.35 180637.35 0 1 1 -361274.69 0"/>
<path id="N" d="M 46611801.01 54499980.86 m -297844.08 0 a 297844.08 297844.08 0 1 1 595688.15 0a 297844.08 297844.08 0 1 1 -595688.15 0M 46611811.44 54499998.65 m -180637.35 0 a 180637.35 180637.35 0 1 1 361274.69 0a 180637.35 180637.35 0 1 1 -361274.69 0"/>
<path id="N" d="M 47611801.01 54499980.86 m -297844.08 0 a 297844.08 297844.08 0 1 1 595688.15 0a 297844.08 297844.08 0 1 1 -595688.15 0M 47611811.44 54499998.65 m -180637.35 0 a 180637.35 180637.35 0 1 1 361274.69 0a 180637.35 180637.35 0 1 1 -361274.69 0"/>
<path id="N" d="M 64495275.00 54204725.00 L 63904725.00 54204725.00 L 63904725.00 54795275.00 L 64495275.00 54795275.00 L 64495275.00 54204725.00  zM 64200000.44 54499998.65 m -180637.35 0 a 180637.35 180637.35 0 1 1 361274.69 0a 180637.35 180637.35 0 1 1 -361274.69 0"/>
<path id="N" d="M 55907086.00 54204725.00 L 55316536.00 54204725.00 L 55316536.00 54795275.00 L 55907086.00 54795275.00 L 55907086.00 54204725.00  zM 55611811.44 54499998.65 m -180637.35 0 a 180637.35 180637.35 0 1 1 361274.69 0a 180637.35 180637.35 0 1 1 -361274.69 0"/>
<path id="N" d="M 57495275.00 35204725.00 L 56904725.00 35204725.00 L 56904725.00 35795275.00 L 57495275.00 35795275.00 L 57495275.00 35204725.00  zM 57200000.44 35499998.65 m -180637.35 0 a 180637.35 180637.35 0 1 1 361274.69 0a 180637.35 180637.35 0 1 1 -361274.69 0"/>
<path id="N" d="M 59199997.35 54499993.57 m -297829.90 0 a 297829.90 297829.90 0 1 1 595659.80 0a 297829.90 297829.90 0 1 1 -595659.80 0M 59200000.44 54499998.65 m -180637.35 0 a 180637.35 180637.35 0 1 1 361274.69 0a 180637.35 180637.35 0 1 1 -361274.69 0"/>
<path id="N" d="M 60199997.35 54499993.57 m -297829.90 0 a 297829.90 297829.90 0 1 1 595659.80 0a 297829.90 297829.90 0 1 1 -595659.80 0M 60200000.44 54499998.65 m -180637.35 0 a 180637.35 180637.35 0 1 1 361274.69 0a 180637.35 180637.35 0 1 1 -361274.69 0"/>
<path id="N" d="M 62782680.91 45838975.51 m -357387.03 0 a 357387.03 357387.03 0 1 1 714774.05 0a 357387.03 357387.03 0 1 1 -714774.05 0M 62782676.50 45838985.68 m -240838.32 0 a 240838.32 240838.32 0 1 1 481676.63 0a 240838.32 240838.32 0 1 1 -481676.63 0"/>
<path id="N" d="M 62199997.35 54499993.57 m -297829.90 0 a 297829.90 297829.90 0 1 1 595659.80 0a 297829.90 297829.90 0 1 1 -595659.80 0M 62200000.44 54499998.65 m -180637.35 0 a 180637.35 180637.35 0 1 1 361274.69 0a 180637.35 180637.35 0 1 1 -361274.69 0"/>
<path id="N" d="M 63137010.00 51156694.00 L 62428350.00 51156694.00 L 62428350.00 51865354.00 L 63137010.00 51865354.00 L 63137010.00 51156694.00  zM 62782676.50 51511033.68 m -240838.32 0 a 240838.32 240838.32 0 1 1 481676.63 0a 240838.32 240838.32 0 1 1 -481676.63 0"/>
<path id="N" d="M 58199997.35 54499993.57 m -297829.90 0 a 297829.90 297829.90 0 1 1 595659.80 0a 297829.90 297829.90 0 1 1 -595659.80 0M 58200000.44 54499998.65 m -180637.35 0 a 180637.35 180637.35 0 1 1 361274.69 0a 180637.35 180637.35 0 1 1 -361274.69 0"/>
<path id="N" d="M 63137010.00 44106694.00 L 62428350.00 44106694.00 L 62428350.00 44815354.00 L 63137010.00 44815354.00 L 63137010.00 44106694.00  zM 62782676.50 44461033.68 m -240838.32 0 a 240838.32 240838.32 0 1 1 481676.63 0a 240838.32 240838.32 0 1 1 -481676.63 0"/>
<path id="N" d="M 63137010.00 40581694.00 L 62428350.00 40581694.00 L 62428350.00 41290354.00 L 63137010.00 41290354.00 L 63137010.00 40581694.00  zM 62782676.50 40936033.68 m -240838.32 0 a 240838.32 240838.32 0 1 1 481676.63 0a 240838.32 240838.32 0 1 1 -481676.63 0"/>
<path id="N" d="M 59199997.35 35499993.57 m -297829.90 0 a 297829.90 297829.90 0 1 1 595659.80 0a 297829.90 297829.90 0 1 1 -595659.80 0M 59200000.44 35499998.65 m -180637.35 0 a 180637.35 180637.35 0 1 1 361274.69 0a 180637.35 180637.35 0 1 1 -361274.69 0"/>
<path id="N" d="M 63137010.00 37056694.00 L 62428350.00 37056694.00 L 62428350.00 37765354.00 L 63137010.00 37765354.00 L 63137010.00 37056694.00  zM 62782676.50 37411033.68 m -240838.32 0 a 240838.32 240838.32 0 1 1 481676.63 0a 240838.32 240838.32 0 1 1 -481676.63 0"/>
<path id="N" d="M 61199997.35 54499993.57 m -297829.90 0 a 297829.90 297829.90 0 1 1 595659.80 0a 297829.90 297829.90 0 1 1 -595659.80 0M 61200000.44 54499998.65 m -180637.35 0 a 180637.35 180637.35 0 1 1 361274.69 0a 180637.35 180637.35 0 1 1 -361274.69 0"/>
</g>
</svg>
