<svg width="68.55000006mm" height="53.37847338mm" viewBox="0 0 26988189 21015147"  version="1.1" xmlns="http://www.w3.org/2000/svg" xmlns:xlink="http://www.w3.org/1999/xlink">
<desc>
Origin 39200000 34500000 Bound 39200000 34500000 26988189 21015147
</desc>
<g fill-rule="evenodd" fill="rgb(255, 255, 0)" stroke="black" stroke-width="1" transform="translate(0, 21015147) scale(1, -1) translate(-39200000, -34500000)">
<path id="N" d="M 55363338.00 61723903.00 L 55389963.00 61711528.00 L 55407213.00 61696528.00 L 55423338.00 61671403.00 L 55431963.00 61645528.00 L 55433088.00 61627903.00 L 55427088.00 61599403.00 L 55418088.00 61582903.00 L 55402338.00 61567528.00 L 55376838.00 61553278.00 L 55396338.00 61544278.00 L 55422588.00 61525153.00 L 55436088.00 61506403.00 L 55445838.00 61479778.00 L 55448838.00 61452778.00 L 55442696.24 61420571.00 L 57177953.00 61420571.00 L 57208086.00 61408090.00 L 57220567.00 61377957.00 L 57220567.00 61169048.62 L 57374803.00 61184351.00 L 57401888.00 61174288.00 L 57404936.00 61171870.00 L 57417250.00 61145517.00 L 57417250.00 60921419.00 L 57404936.00 60895068.00 L 57401888.00 60892648.00 L 57374803.00 60882587.00 L 57220567.00 60897887.38 L 57220567.00 58622047.00 L 57208086.00 58591914.00 L 57177953.00 58579433.00 L 54422046.00 58579433.00 L 54391913.00 58591914.00 L 54379432.00 58622047.00 L 54379432.00 59084059.11 L 54231789.00 59060938.00 L 54228408.79 59061755.73 L 54225196.00 59060425.00 L 54212960.39 59065492.96 L 54200088.00 59068607.00 L 54198276.28 59071575.07 L 54195063.00 59072906.00 L 54189994.66 59085142.55 L 54183095.00 59096446.00 L 54183912.73 59099826.21 L 54182582.00 59103039.00 L 54182986.00 59423180.00 L 54195063.00 59447456.00 L 54199491.00 59451312.00 L 54225196.00 59459937.00 L 54231053.00 59459533.00 L 54379432.00 59438942.83 L 54379432.00 61377957.00 L 54391913.00 61408090.00 L 54422046.00 61420571.00 L 54923455.18 61420571.00 L 54920838.00 61453903.00 L 54966588.00 61459903.00 L 54966963.00 61453153.00 L 54972853.04 61420571.00 L 55077213.00 61420903.00 L 55080588.00 61443403.00 L 55081338.00 61729528.00 L 55132338.00 61729528.00 L 55132338.00 61467028.00 L 55128208.15 61420571.00 L 55201472.95 61420571.00 L 55199088.00 61429903.00 L 55195713.00 61456528.00 L 55200213.00 61488028.00 L 55211088.00 61513903.00 L 55222338.00 61527403.00 L 55245588.00 61544278.00 L 55268838.00 61553278.00 L 55263963.00 61555153.00 L 55237713.00 61570903.00 L 55224213.00 61584778.00 L 55215588.00 61604278.00 L 55211088.00 61632028.00 L 55212588.00 61646278.00 L 55220838.00 61673278.00 L 55235838.00 61696528.00 L 55249713.00 61708903.00 L 55273713.00 61722028.00 L 55303338.00 61729903.00 L 55363338.00 61723903.00  zM 57135339.00 61335343.00 L 54464660.00 61335343.00 L 54464764.00 59384079.00 L 54452179.00 59359639.00 L 54448260.00 59355947.00 L 54422046.00 59347158.00 L 54267810.00 59368386.80 L 54267810.00 59152845.89 L 54415453.00 59175967.00 L 54418833.21 59175149.27 L 54422046.00 59176480.00 L 54434281.61 59171412.04 L 54447154.00 59168298.00 L 54448965.72 59165329.93 L 54452179.00 59163999.00 L 54457247.34 59151762.45 L 54464147.00 59140459.00 L 54463329.27 59137078.79 L 54464660.00 59133866.00 L 54464660.00 58664661.00 L 57135339.00 58664661.00 L 57135542.00 60949044.00 L 57147820.00 60975018.00 L 57150905.00 60977815.00 L 57177953.00 60987499.00 L 57332189.00 60972579.18 L 57332189.00 61094356.82 L 57177953.00 61079437.00 L 57150905.00 61089121.00 L 57147820.00 61091918.00 L 57135542.00 61117892.00 L 57135339.00 61122051.00 L 57135339.00 61335343.00  zM 55269963.00 61514653.00 A 81320.70 81320.70 0 0 1 55251865.95 61420571.00 L 55392730.92 61420571.00 L 55393338.00 61422028.00 A 77583.18 77583.18 0 0 1 55392963.00 61487653.00 L 55381713.00 61506403.00 L 55365588.00 61519528.00 L 55344213.00 61529653.00 A 80270.90 80270.90 0 0 1 55269963.00 61514653.00  zM 55299213.00 61688278.00 L 55284213.00 61680778.00 L 55274463.00 61671778.00 L 55262088.00 61650028.00 L 55259463.00 61633528.00 L 55263588.00 61610653.00 L 55271088.00 61595653.00 L 55283838.00 61583278.00 A 69140.00 69140.00 0 0 1 55360338.00 61582903.00 A 61043.87 61043.87 0 0 1 55299213.00 61688278.00  z"/>
<path id="N" d="M 48688750.00 50599374.76 L 48740625.00 50593749.77 L 48789375.00 50583124.77 L 48813125.00 50574374.77 L 48839375.00 50560624.78 L 48876250.01 50531874.78 L 48891250.01 50516249.78 L 48905625.01 50498124.78 L 48918750.01 50472499.78 L 48930625.01 50438749.78 L 48937500.02 50406249.78 L 48939375.02 50383124.78 L 48859375.02 50376874.78 L 48850625.02 50416874.78 L 48840000.01 50443124.78 L 48829375.01 50460624.78 L 48808750.01 50481249.77 L 48784375.01 50498124.77 L 48768750.01 50505624.77 L 48740625.01 50514999.77 L 48690625.01 50523749.76 L 48653125.01 50523749.76 L 48600000.01 50514999.76 L 48579375.01 50507499.75 L 48546250.01 50487499.75 L 48530000.01 50470624.75 L 48517500.01 50446249.75 A 83144.42 83144.42 0 0 1 48519375.02 50380624.75 L 48529375.02 50363124.75 L 48543125.02 50349999.75 L 48573125.02 50331249.75 L 48605000.02 50319374.76 L 48709375.03 50292499.76 L 48790625.03 50268749.77 L 48817500.03 50258124.77 L 48836250.03 50247499.78 L 48873125.03 50218749.78 L 48894375.03 50192499.78 L 48908750.04 50159374.78 L 48914375.04 50130624.78 L 48915000.04 50101874.78 L 48908750.05 50071249.78 L 48896875.05 50039999.78 L 48883125.05 50016874.78 L 48856250.05 49989374.78 L 48826875.05 49968124.78 L 48807500.06 49959374.77 L 48781250.06 49950624.77 L 48736250.06 49940624.77 L 48690625.06 49937499.76 L 48656875.06 49939374.76 L 48607500.06 49947499.76 L 48564375.05 49960624.75 L 48551250.05 49967499.75 L 48520625.05 49987499.75 L 48493125.05 50012499.75 L 48480625.05 50028749.74 L 48463125.05 50064374.74 L 48451250.04 50108124.74 L 48449375.04 50128749.74 L 48530625.04 50134374.75 L 48532500.04 50124999.75 L 48544375.04 50086249.75 L 48562500.05 50056874.75 L 48579375.05 50040624.75 L 48603750.05 50028124.76 L 48628125.05 50019999.76 L 48660625.05 50013749.76 L 48705625.05 50013124.76 L 48748125.05 50019374.77 L 48775625.05 50028124.77 L 48799375.05 50041249.77 L 48810000.05 50052499.77 L 48822500.05 50069999.77 L 48832500.04 50094374.78 L 48833125.04 50101249.78 L 48832500.04 50121249.78 L 48823750.04 50147499.77 L 48817500.04 50156874.77 L 48808750.04 50165624.77 L 48784375.04 50179999.77 L 48731875.03 50198749.77 L 48665000.03 50215624.76 L 48578125.03 50238749.75 L 48533750.03 50254999.75 L 48495000.03 50279374.75 L 48468125.03 50303124.74 L 48456250.02 50318124.74 L 48445625.02 50338124.74 L 48434375.02 50372499.74 L 48430000.02 50399374.74 L 48430625.01 50421874.74 L 48436875.01 50454999.74 L 48449375.01 50488124.74 L 48454375.01 50496249.74 L 48471250.01 50520624.74 L 48493125.00 50541874.75 L 48524375.00 50564999.75 L 48544375.00 50574999.75 L 48564375.00 50583124.75 L 48608125.00 50594374.76 L 48641875.00 50598749.76 L 48688750.00 50599374.76  z"/>
<path id="N" d="M 64632713.00 61467778.00 L 64628469.52 61420571.00 L 64763213.00 61421278.00 L 64771838.00 61458028.00 L 64794338.00 61524028.00 L 64820213.00 61579903.00 L 64861838.00 61647028.00 L 64887713.00 61680028.00 L 64699838.00 61680028.00 L 64699838.00 61725403.00 L 64948463.00 61725403.00 L 64948088.00 61688278.00 L 64944713.00 61684528.00 L 64908338.00 61637278.00 L 64874963.00 61583653.00 L 64846088.00 61523653.00 L 64823588.00 61464028.00 L 64812430.89 61420571.00 L 66677953.00 61420571.00 L 66708086.00 61408090.00 L 66720567.00 61377957.00 L 66720567.00 61169048.62 L 66874803.00 61184351.00 L 66901888.00 61174288.00 L 66904936.00 61171870.00 L 66917250.00 61145517.00 L 66917250.00 60921419.00 L 66904936.00 60895068.00 L 66901888.00 60892648.00 L 66874803.00 60882587.00 L 66720567.00 60897887.38 L 66720567.00 58622047.00 L 66708086.00 58591914.00 L 66677953.00 58579433.00 L 63922046.00 58579433.00 L 63891913.00 58591914.00 L 63879432.00 58622047.00 L 63879432.00 59084059.11 L 63731789.00 59060938.00 L 63728408.79 59061755.73 L 63725196.00 59060425.00 L 63712960.39 59065492.96 L 63700088.00 59068607.00 L 63698276.28 59071575.07 L 63695063.00 59072906.00 L 63689994.66 59085142.55 L 63683095.00 59096446.00 L 63683912.73 59099826.21 L 63682582.00 59103039.00 L 63682986.00 59423180.00 L 63695063.00 59447456.00 L 63699491.00 59451312.00 L 63725196.00 59459937.00 L 63731053.00 59459533.00 L 63879432.00 59438942.83 L 63879432.00 61377957.00 L 63891913.00 61408090.00 L 63922046.00 61420571.00 L 64423966.55 61420571.00 L 64421213.00 61454653.00 L 64466963.00 61460653.00 L 64467338.00 61453903.00 L 64473450.26 61420571.00 L 64577047.00 61420571.00 L 64580963.00 61444153.00 L 64581713.00 61730278.00 L 64632713.00 61730278.00 L 64632713.00 61467778.00  zM 66635339.00 61335343.00 L 63964660.00 61335343.00 L 63964764.00 59384079.00 L 63952179.00 59359639.00 L 63948260.00 59355947.00 L 63922046.00 59347158.00 L 63767810.00 59368386.80 L 63767810.00 59152845.89 L 63915453.00 59175967.00 L 63918833.21 59175149.27 L 63922046.00 59176480.00 L 63934281.61 59171412.04 L 63947154.00 59168298.00 L 63948965.72 59165329.93 L 63952179.00 59163999.00 L 63957247.34 59151762.45 L 63964147.00 59140459.00 L 63963329.27 59137078.79 L 63964660.00 59133866.00 L 63964660.00 58664661.00 L 66635339.00 58664661.00 L 66635542.00 60949044.00 L 66647820.00 60975018.00 L 66650905.00 60977815.00 L 66677953.00 60987499.00 L 66832189.00 60972579.18 L 66832189.00 61094356.82 L 66677953.00 61079437.00 L 66650905.00 61089121.00 L 66647820.00 61091918.00 L 66635542.00 61117892.00 L 66635339.00 61122051.00 L 66635339.00 61335343.00  z"/>
<path id="N" d="M 40179463.00 61693903.00 L 40206088.00 61681528.00 L 40223338.00 61666528.00 L 40239463.00 61641403.00 L 40248088.00 61615528.00 L 40249213.00 61597903.00 L 40243213.00 61569403.00 L 40234213.00 61552903.00 L 40218463.00 61537528.00 L 40192963.00 61523278.00 L 40212463.00 61514278.00 L 40238713.00 61495153.00 L 40248088.00 61483528.00 L 40258963.00 61459903.00 L 40264588.00 61431778.00 L 40263088.00 61407778.00 L 40253713.00 61376278.00 L 40241713.00 61355278.00 L 40226338.00 61339153.00 A 137632.31 137632.31 0 0 0 40105213.00 61312903.00 L 40075588.00 61323028.00 L 40053088.00 61336153.00 L 40041088.00 61348153.00 L 40022713.00 61377403.00 L 40015213.00 61399903.00 L 40011838.00 61426528.00 L 40016338.00 61458028.00 L 40027213.00 61483903.00 L 40038463.00 61497403.00 L 40061713.00 61514278.00 L 40084963.00 61523278.00 L 40080088.00 61525153.00 L 40053838.00 61540903.00 L 40040338.00 61554778.00 L 40031713.00 61574278.00 L 40027213.00 61602028.00 L 40028713.00 61616278.00 L 40036963.00 61643278.00 L 40051963.00 61666528.00 L 40065838.00 61678903.00 L 40089838.00 61692028.00 L 40119463.00 61699903.00 L 40179463.00 61693903.00  zM 40086088.00 61484653.00 L 40072963.00 61469278.00 L 40063588.00 61448278.00 L 40060588.00 61431778.00 L 40061338.00 61413403.00 A 74263.80 74263.80 0 0 1 40123213.00 61348903.00 L 40141963.00 61347403.00 L 40167088.00 61352653.00 A 64588.22 64588.22 0 0 1 40209463.00 61392028.00 A 77583.18 77583.18 0 0 1 40209088.00 61457653.00 L 40197838.00 61476403.00 L 40181713.00 61489528.00 L 40160338.00 61499653.00 A 80270.90 80270.90 0 0 1 40086088.00 61484653.00  zM 40115338.00 61658278.00 L 40100338.00 61650778.00 L 40090588.00 61641778.00 L 40078213.00 61620028.00 L 40075588.00 61603528.00 L 40079713.00 61580653.00 L 40087213.00 61565653.00 L 40099963.00 61553278.00 A 69140.00 69140.00 0 0 1 40176463.00 61552903.00 A 61043.87 61043.87 0 0 1 40115338.00 61658278.00  z"/>
<path id="N" d="M 50140625.00 49598124.89 L 50176250.00 49591249.89 L 50196250.00 49584374.89 L 50223750.00 49569374.90 L 50238125.00 49556249.90 L 50251875.00 49536874.90 L 50263125.01 49515624.90 L 50270625.01 49488124.90 L 50272500.01 49461874.90 L 50266250.01 49426874.90 L 50257500.02 49404999.90 L 50240625.02 49381249.90 L 50216875.02 49359374.90 L 50182500.02 49341249.89 L 50150625.02 49331249.89 L 50067500.02 49318749.88 L 49980000.03 49303124.88 L 49950625.03 49293749.87 L 49950000.03 49279374.87 L 49952500.03 49247499.87 L 49959375.03 49224999.87 A 58691.46 58691.46 0 0 1 49989375.03 49194999.88 L 50015000.04 49185624.88 L 50051250.04 49179374.88 L 50080625.04 49180624.88 L 50119375.04 49187499.89 L 50131875.03 49192499.89 L 50143125.03 49199374.89 L 50157500.03 49214999.89 L 50170625.03 49236249.89 L 50181875.03 49268124.89 L 50258750.03 49256874.90 L 50250625.03 49228749.90 L 50240000.03 49203124.90 L 50225000.04 49177499.90 L 50206875.04 49160624.90 L 50185625.04 49145624.89 L 50155000.04 49131249.89 L 50138125.04 49125624.89 L 50091875.04 49116874.89 L 50050000.04 49114374.88 L 50022500.04 49115624.88 L 49968750.04 49123749.87 L 49947500.04 49131249.87 L 49915000.04 49149374.87 L 49899375.04 49163749.87 L 49885625.04 49186249.87 L 49875000.03 49217499.87 L 49871250.03 49256249.87 L 49869375.01 49477499.87 L 49865625.00 49534374.87 L 49858750.00 49560624.87 L 49845625.00 49589374.86 L 49927500.00 49589374.87 L 49937500.00 49564374.87 L 49944375.00 49532499.87 L 49948125.00 49535624.87 L 49997500.00 49569999.88 L 50035000.00 49587499.88 L 50081250.00 49597499.88 L 50114375.00 49599999.89 L 50140625.00 49598124.89  zM 50084375.00 49537499.88 L 50043125.01 49529999.88 L 50015000.01 49518749.88 L 49995625.01 49504374.88 L 49978125.01 49487499.88 L 49963125.01 49464374.87 L 49959375.01 49453124.87 L 49952500.01 49419999.87 L 49950625.02 49356249.87 L 49951875.02 49356874.87 L 50010625.02 49373749.88 L 50090625.02 49388124.89 L 50143125.02 49399999.89 L 50163750.02 49411874.89 L 50178750.01 49428124.89 L 50185625.01 49443749.89 L 50188750.01 49466249.89 L 50183125.01 49491249.89 L 50173125.01 49509374.89 L 50165625.01 49517499.89 L 50138125.01 49531874.89 L 50111875.00 49537499.89 L 50084375.00 49537499.88  z"/>
<path id="N" d="M 48674963.00 61698028.00 L 48705338.00 61687528.00 L 48722963.00 61675528.00 L 48738338.00 61657153.00 L 48749963.00 61635028.00 L 48757838.00 61605403.00 L 48710963.00 61601653.00 L 48700838.00 61630528.00 L 48692213.00 61642903.00 L 48673088.00 61656028.00 L 48655838.00 61661653.00 L 48641963.00 61662403.00 L 48619463.00 61657153.00 L 48602213.00 61646653.00 L 48581588.00 61622653.00 L 48570338.00 61600528.00 L 48562088.00 61566778.00 L 48557588.00 61513153.00 L 48559463.00 61515778.00 L 48582338.00 61540528.00 L 48601838.00 61552903.00 L 48631463.00 61562653.00 L 48658838.00 61564153.00 L 48691463.00 61555903.00 L 48711713.00 61545778.00 L 48732713.00 61528153.00 A 140686.72 140686.72 0 0 0 48760838.00 61407403.00 L 48748838.00 61372153.00 L 48731213.00 61347403.00 L 48715463.00 61332028.00 L 48695213.00 61320028.00 L 48668213.00 61311403.00 L 48643838.00 61308778.00 L 48609713.00 61314028.00 L 48586463.00 61322653.00 L 48562463.00 61337653.00 L 48547463.00 61352278.00 L 48536213.00 61371028.00 L 48522338.00 61405903.00 L 48514088.00 61444528.00 L 48510713.00 61494778.00 L 48512963.00 61532653.00 L 48520838.00 61583278.00 L 48532463.00 61623028.00 L 48544463.00 61646653.00 L 48558338.00 61663528.00 L 48583838.00 61683028.00 L 48607463.00 61694278.00 L 48637088.00 61700653.00 L 48674963.00 61698028.00  zM 48633338.00 61522153.00 L 48609713.00 61515403.00 L 48591338.00 61503778.00 L 48580088.00 61490653.00 A 93352.67 93352.67 0 0 1 48567713.00 61417528.00 L 48575213.00 61392778.00 L 48586838.00 61374778.00 L 48604838.00 61358653.00 L 48621713.00 61351153.00 L 48643088.00 61347403.00 L 48660713.00 61350403.00 L 48681713.00 61360153.00 L 48697838.00 61375903.00 A 103576.14 103576.14 0 0 1 48715088.00 61450903.00 L 48707213.00 61480153.00 L 48694838.00 61499653.00 L 48680213.00 61511278.00 L 48658463.00 61520653.00 L 48633338.00 61522153.00  z"/>
<path id="N" d="M 39557846.99 42996338.00 L 39586721.99 42986963.00 L 39606221.99 42973838.00 A 131713.71 131713.71 0 0 0 39650471.99 42891713.00 L 39653846.99 42856463.00 L 39651971.99 42826088.00 L 39643722.00 42782963.00 L 39632472.00 42756713.00 L 39612972.00 42730838.00 L 39592722.00 42713213.00 L 39581472.00 42707213.00 L 39550722.00 42696338.00 L 39523722.00 42692962.99 L 39519597.00 42740962.99 L 39543972.00 42746213.00 L 39567972.00 42757463.00 L 39582597.00 42771338.00 L 39597222.00 42794963.00 L 39604721.99 42820838.00 L 39608471.99 42854213.00 L 39606221.99 42879338.00 L 39599846.99 42905213.00 L 39586346.99 42928838.00 A 55490.09 55490.09 0 0 1 39510971.99 42938587.99 L 39500096.99 42925837.99 L 39488846.99 42903337.99 L 39458847.00 42794587.99 L 39446472.00 42761587.99 L 39431097.00 42739462.99 L 39410472.00 42720712.99 L 39389472.00 42711337.99 L 39362472.00 42707212.99 L 39344847.00 42709462.99 L 39317847.00 42718462.99 L 39303972.00 42726712.98 L 39281097.00 42751087.98 L 39268722.00 42773212.98 L 39259346.99 42808837.98 L 39256346.99 42842212.98 L 39259721.99 42879337.98 L 39270221.99 42917962.98 L 39280346.99 42935962.98 L 39301346.99 42960712.98 L 39320846.99 42973462.99 L 39347471.99 42983212.99 L 39371096.99 42986962.99 L 39374471.99 42938212.99 L 39358721.99 42934462.99 L 39336596.99 42925087.99 L 39320096.99 42911212.99 L 39310721.99 42894337.99 L 39303221.99 42866962.98 L 39301721.99 42833212.98 L 39308472.00 42796837.99 A 55470.31 55470.31 0 0 1 39360972.00 42756337.99 L 39382347.00 42762337.99 L 39393972.00 42771712.99 L 39398097.00 42778837.99 L 39410471.99 42809587.99 L 39427346.99 42874837.99 L 39445346.99 42933337.99 L 39461471.99 42959587.99 L 39479846.99 42979087.99 L 39496721.99 42989212.99 L 39527846.99 42997837.99 L 39557846.99 42996338.00  z"/>
<path id="N" d="M 39557846.99 39031433.00 L 39586721.99 39022058.00 L 39606221.99 39008933.00 A 131713.71 131713.71 0 0 0 39650471.99 38926808.00 L 39653846.99 38891558.00 L 39651971.99 38861183.00 L 39643722.00 38818058.00 L 39632472.00 38791808.00 L 39612972.00 38765933.00 L 39592722.00 38748308.00 L 39581472.00 38742308.00 L 39550722.00 38731433.00 L 39523722.00 38728057.99 L 39519597.00 38776057.99 L 39543972.00 38781308.00 L 39567972.00 38792558.00 L 39582597.00 38806433.00 L 39597222.00 38830058.00 L 39604721.99 38855933.00 L 39608471.99 38889308.00 L 39606221.99 38914433.00 L 39599846.99 38940308.00 L 39586346.99 38963933.00 A 55490.09 55490.09 0 0 1 39510971.99 38973682.99 L 39500096.99 38960932.99 L 39488846.99 38938432.99 L 39458847.00 38829682.99 L 39446472.00 38796682.99 L 39431097.00 38774557.99 L 39410472.00 38755807.99 L 39389472.00 38746432.99 L 39362472.00 38742307.99 L 39344847.00 38744557.99 L 39317847.00 38753557.99 L 39303972.00 38761807.98 L 39281097.00 38786182.98 L 39268722.00 38808307.98 L 39259346.99 38843932.98 L 39256346.99 38877307.98 L 39259721.99 38914432.98 L 39270221.99 38953057.98 L 39280346.99 38971057.98 L 39301346.99 38995807.98 L 39320846.99 39008557.99 L 39347471.99 39018307.99 L 39371096.99 39022057.99 L 39374471.99 38973307.99 L 39358721.99 38969557.99 L 39336596.99 38960182.99 L 39320096.99 38946307.99 L 39310721.99 38929432.99 L 39303221.99 38902057.98 L 39301721.99 38868307.98 L 39308472.00 38831932.99 A 55470.31 55470.31 0 0 1 39360972.00 38791432.99 L 39382347.00 38797432.99 L 39393972.00 38806807.99 L 39398097.00 38813932.99 L 39410471.99 38844682.99 L 39427346.99 38909932.99 L 39445346.99 38968432.99 L 39461471.99 38994682.99 L 39479846.99 39014182.99 L 39496721.99 39024307.99 L 39527846.99 39032932.99 L 39557846.99 39031433.00  z"/>
<path id="N" d="M 39557846.99 46894276.00 L 39586721.99 46884901.00 L 39606221.99 46871776.00 A 131713.71 131713.71 0 0 0 39650471.99 46789651.00 L 39653846.99 46754401.00 L 39651971.99 46724026.00 L 39643722.00 46680901.00 L 39632472.00 46654651.00 L 39612972.00 46628776.00 L 39592722.00 46611151.00 L 39581472.00 46605151.00 L 39550722.00 46594276.00 L 39523722.00 46590900.99 L 39519597.00 46638900.99 L 39543972.00 46644151.00 L 39567972.00 46655401.00 L 39582597.00 46669276.00 L 39597222.00 46692901.00 L 39604721.99 46718776.00 L 39608471.99 46752151.00 L 39606221.99 46777276.00 L 39599846.99 46803151.00 L 39586346.99 46826776.00 A 55490.09 55490.09 0 0 1 39510971.99 46836525.99 L 39500096.99 46823775.99 L 39488846.99 46801275.99 L 39458847.00 46692525.99 L 39446472.00 46659525.99 L 39431097.00 46637400.99 L 39410472.00 46618650.99 L 39389472.00 46609275.99 L 39362472.00 46605150.99 L 39344847.00 46607400.99 L 39317847.00 46616400.99 L 39303972.00 46624650.98 L 39281097.00 46649025.98 L 39268722.00 46671150.98 L 39259346.99 46706775.98 L 39256346.99 46740150.98 L 39259721.99 46777275.98 L 39270221.99 46815900.98 L 39280346.99 46833900.98 L 39301346.99 46858650.98 L 39320846.99 46871400.99 L 39347471.99 46881150.99 L 39371096.99 46884900.99 L 39374471.99 46836150.99 L 39358721.99 46832400.99 L 39336596.99 46823025.99 L 39320096.99 46809150.99 L 39310721.99 46792275.99 L 39303221.99 46764900.98 L 39301721.99 46731150.98 L 39308472.00 46694775.99 A 55470.31 55470.31 0 0 1 39360972.00 46654275.99 L 39382347.00 46660275.99 L 39393972.00 46669650.99 L 39398097.00 46676775.99 L 39410471.99 46707525.99 L 39427346.99 46772775.99 L 39445346.99 46831275.99 L 39461471.99 46857525.99 L 39479846.99 46877025.99 L 39496721.99 46887150.99 L 39527846.99 46895775.99 L 39557846.99 46894276.00  z"/>
<path id="N" d="M 67378581.00 38217250.00 L 67404932.00 38204936.00 L 67407352.00 38201888.00 L 67417413.00 38174803.00 L 67402112.62 38020567.00 L 69677953.00 38020567.00 L 69708086.00 38008086.00 L 69720567.00 37977953.00 L 69720567.00 35222046.00 L 69708086.00 35191913.00 L 69677953.00 35179432.00 L 69215940.89 35179432.00 L 69239062.00 35031789.00 L 69238244.27 35028408.79 L 69239575.00 35025196.00 L 69234507.04 35012960.39 L 69231393.00 35000088.00 L 69228424.93 34998276.28 L 69227094.00 34995063.00 L 69214857.45 34989994.66 L 69203554.00 34983095.00 L 69200173.79 34983912.73 L 69196961.00 34982582.00 L 68876820.00 34982986.00 L 68852544.00 34995063.00 L 68848688.00 34999491.00 L 68840063.00 35025196.00 L 68840467.00 35031053.00 L 68861057.17 35179432.00 L 66922043.00 35179432.00 L 66891910.00 35191913.00 L 66879429.00 35222046.00 L 66879429.00 37977953.00 L 66891910.00 38008086.00 L 66922043.00 38020567.00 L 67130951.45 38020567.00 L 67115649.00 38174803.00 L 67125712.00 38201888.00 L 67128130.00 38204936.00 L 67154483.00 38217251.00 L 67378581.00 38217250.00  zM 67327420.82 38132189.00 L 67205643.25 38132189.00 L 67220563.00 37977953.00 L 67210879.00 37950905.00 L 67208082.00 37947820.00 L 67182108.00 37935543.00 L 66964657.00 37935339.00 L 66964657.00 35264660.00 L 68915921.00 35264764.00 L 68940361.00 35252179.00 L 68944053.00 35248260.00 L 68952842.00 35222046.00 L 68931613.20 35067810.00 L 69147154.11 35067810.00 L 69124033.00 35215453.00 L 69124850.73 35218833.21 L 69123520.00 35222046.00 L 69128587.96 35234281.61 L 69131702.00 35247154.00 L 69134670.07 35248965.72 L 69136001.00 35252179.00 L 69148237.55 35257247.34 L 69159541.00 35264147.00 L 69162921.21 35263329.27 L 69166134.00 35264660.00 L 69635339.00 35264660.00 L 69635339.00 37935339.00 L 67350956.00 37935542.00 L 67324982.00 37947820.00 L 67322185.00 37950905.00 L 67312501.00 37977953.00 L 67312704.00 37982112.00 L 67327420.82 38132189.00  z"/>
<path id="N" d="M 70978581.00 38217250.00 L 71004932.00 38204936.00 L 71007352.00 38201888.00 L 71017413.00 38174803.00 L 71002112.62 38020567.00 L 73277953.00 38020567.00 L 73308086.00 38008086.00 L 73320567.00 37977953.00 L 73320567.00 35222046.00 L 73308086.00 35191913.00 L 73277953.00 35179432.00 L 72815940.89 35179432.00 L 72839062.00 35031789.00 L 72838244.27 35028408.79 L 72839575.00 35025196.00 L 72834507.04 35012960.39 L 72831393.00 35000088.00 L 72828424.93 34998276.28 L 72827094.00 34995063.00 L 72814857.45 34989994.66 L 72803554.00 34983095.00 L 72800173.79 34983912.73 L 72796961.00 34982582.00 L 72476820.00 34982986.00 L 72452544.00 34995063.00 L 72448688.00 34999491.00 L 72440063.00 35025196.00 L 72440467.00 35031053.00 L 72461057.17 35179432.00 L 70522043.00 35179432.00 L 70491910.00 35191913.00 L 70479429.00 35222046.00 L 70479429.00 37977953.00 L 70491910.00 38008086.00 L 70522043.00 38020567.00 L 70730951.45 38020567.00 L 70715649.00 38174803.00 L 70725712.00 38201888.00 L 70728130.00 38204936.00 L 70754483.00 38217251.00 L 70978581.00 38217250.00  zM 70927420.82 38132189.00 L 70805643.25 38132189.00 L 70820563.00 37977953.00 L 70810879.00 37950905.00 L 70808082.00 37947820.00 L 70782108.00 37935543.00 L 70564657.00 37935339.00 L 70564657.00 35264660.00 L 72515921.00 35264764.00 L 72540361.00 35252179.00 L 72544053.00 35248260.00 L 72552842.00 35222046.00 L 72531613.20 35067810.00 L 72747154.11 35067810.00 L 72724033.00 35215453.00 L 72724850.73 35218833.21 L 72723520.00 35222046.00 L 72728587.96 35234281.61 L 72731702.00 35247154.00 L 72734670.07 35248965.72 L 72736001.00 35252179.00 L 72748237.55 35257247.34 L 72759541.00 35264147.00 L 72762921.21 35263329.27 L 72766134.00 35264660.00 L 73235339.00 35264660.00 L 73235339.00 37935339.00 L 70950956.00 37935542.00 L 70924982.00 37947820.00 L 70922185.00 37950905.00 L 70912501.00 37977953.00 L 70912704.00 37982112.00 L 70927420.82 38132189.00  z"/>
<path id="N" d="M 74119110.00 48568723.00 L 74131591.00 48538590.00 L 74131591.00 48329681.62 L 74285827.00 48344984.00 L 74312912.00 48334921.00 L 74315960.00 48332503.00 L 74328274.00 48306150.00 L 74328274.00 48082052.00 L 74315960.00 48055701.00 L 74312912.00 48053281.00 L 74285827.00 48043220.00 L 74131591.00 48058520.38 L 74131591.00 45782680.00 L 74119110.00 45752547.00 L 74088977.00 45740066.00 L 71333070.00 45740066.00 L 71302937.00 45752547.00 L 71290456.00 45782680.00 L 71290456.00 46244692.11 L 71142813.00 46221571.00 L 71139432.79 46222388.73 L 71136220.00 46221058.00 L 71123984.39 46226125.96 L 71111112.00 46229240.00 L 71109300.28 46232208.07 L 71106087.00 46233539.00 L 71101018.66 46245775.55 L 71094119.00 46257079.00 L 71094936.73 46260459.21 L 71093606.00 46263672.00 L 71094010.00 46583813.00 L 71106087.00 46608089.00 L 71110515.00 46611945.00 L 71136220.00 46620570.00 L 71142077.00 46620166.00 L 71290456.00 46599575.83 L 71290456.00 48538590.00 L 71302937.00 48568723.00 L 71333070.00 48581204.00 L 74088977.00 48581204.00 L 74119110.00 48568723.00  zM 74046363.00 48495976.00 L 71375684.00 48495976.00 L 71375788.00 46544712.00 L 71363203.00 46520272.00 L 71359284.00 46516580.00 L 71333070.00 46507791.00 L 71178834.00 46529019.80 L 71178834.00 46313478.89 L 71326477.00 46336600.00 L 71329857.21 46335782.27 L 71333070.00 46337113.00 L 71345305.61 46332045.04 L 71358178.00 46328931.00 L 71359989.72 46325962.93 L 71363203.00 46324632.00 L 71368271.34 46312395.45 L 71375171.00 46301092.00 L 71374353.27 46297711.79 L 71375684.00 46294499.00 L 71375684.00 45825294.00 L 74046363.00 45825294.00 L 74046566.00 48109677.00 L 74058844.00 48135651.00 L 74061929.00 48138448.00 L 74088977.00 48148132.00 L 74243213.00 48133212.18 L 74243213.00 48254989.82 L 74088977.00 48240070.00 L 74061929.00 48249754.00 L 74058844.00 48252551.00 L 74046566.00 48278525.00 L 74046363.00 48282684.00 L 74046363.00 48495976.00  z"/>
<path id="N" d="M 56546558.00 47893028.00 L 56584433.00 47884403.00 L 56617808.00 47869403.00 L 56636558.00 47855903.00 L 56663183.00 47829278.00 L 56683058.00 47798528.00 L 56691683.00 47775653.00 L 56701808.00 47736653.00 L 56705183.00 47692028.00 L 56699183.00 47640278.00 L 56690558.00 47610653.00 L 56673683.00 47578403.00 L 56647433.00 47545028.00 L 56663933.00 47534528.00 L 56712683.00 47509778.00 L 56696933.00 47474903.00 L 56659058.00 47492528.00 L 56614433.00 47521028.00 L 56598683.00 47513903.00 L 56557058.00 47501528.00 L 56520308.00 47497778.00 L 56488808.00 47500778.00 L 56450183.00 47511278.00 L 56425433.00 47523278.00 L 56396558.00 47545778.00 L 56375183.00 47570153.00 L 56360183.00 47593778.00 L 56351183.00 47616653.00 L 56341433.00 47656028.00 L 56337683.00 47696903.00 L 56341808.00 47738153.00 L 56353058.00 47782028.00 L 56364683.00 47807528.00 L 56386808.00 47837528.00 L 56411183.00 47860778.00 L 56433683.00 47874653.00 L 56468183.00 47887403.00 L 56502308.00 47894153.00 L 56546558.00 47893028.00  zM 56512433.00 47850653.00 L 56481308.00 47844653.00 L 56458058.00 47834903.00 L 56434433.00 47819153.00 L 56418683.00 47801153.00 L 56401808.00 47767028.00 L 56393558.00 47735528.00 L 56390183.00 47695403.00 L 56394683.00 47653778.00 L 56405558.00 47615903.00 L 56420558.00 47588903.00 L 56433683.00 47574653.00 L 56459183.00 47557403.00 L 56491433.00 47545028.00 L 56521808.00 47541278.00 L 56546558.00 47543903.00 L 56573183.00 47551403.00 L 56550308.00 47563403.00 L 56522933.00 47573153.00 L 56535683.00 47610278.00 L 56572433.00 47596028.00 L 56608058.00 47573903.00 L 56626058.00 47597153.00 L 56642183.00 47631653.00 L 56650808.00 47667653.00 L 56652683.00 47696903.00 L 56648933.00 47737028.00 L 56639558.00 47771153.00 L 56629808.00 47789903.00 L 56610308.00 47815403.00 L 56589683.00 47832278.00 L 56574683.00 47839778.00 L 56548433.00 47848403.00 L 56512433.00 47850653.00  z"/>
<path id="N" d="M 44694624.93 40893125.09 L 44723874.93 40887875.09 L 44746749.94 40878500.10 L 44772624.94 40858625.10 L 44786124.94 40840625.11 L 44796624.95 40812125.11 A 82966.40 82966.40 0 0 0 44769624.96 40731125.10 L 44745999.96 40715750.10 L 44773374.97 40704500.10 L 44790999.97 40691750.11 L 44804499.97 40673375.11 L 44814624.98 40646750.11 L 44817624.98 40620875.11 L 44813124.99 40591625.11 L 44802249.99 40564250.11 A 109718.16 109718.16 0 0 0 44749000.00 40515500.10 L 44717500.00 40504625.09 L 44685625.00 40501250.09 L 44651875.00 40506500.08 L 44624125.00 40517375.08 L 44602375.00 40532750.07 A 127200.82 127200.82 0 0 0 44565999.98 40609625.07 L 44613249.98 40615625.08 L 44615499.98 40606250.08 L 44628249.99 40574375.08 L 44641374.99 40557125.08 L 44660874.99 40545875.08 L 44678124.99 40541000.09 L 44696874.99 40541000.09 L 44721249.99 40547750.09 L 44739999.99 40559000.10 A 82604.06 82604.06 0 0 1 44745999.97 40673750.10 L 44727624.97 40686125.10 L 44703624.97 40694000.09 L 44691999.97 40694750.09 L 44658999.97 40689875.08 L 44664999.96 40731125.08 L 44679624.96 40730750.09 L 44707374.96 40737125.09 A 59234.54 59234.54 0 0 1 44684874.94 40854875.09 L 44663874.94 40850750.08 L 44648499.94 40843250.08 L 44636874.94 40832375.08 L 44623749.95 40808000.08 L 44618124.95 40785500.08 L 44570874.95 40794125.07 L 44581374.94 40826375.07 L 44594874.94 40850750.07 L 44610249.94 40867625.07 L 44630874.93 40880375.08 L 44662374.93 40891250.08 L 44694624.93 40893125.09  z"/>
<path id="N" d="M 66054804.00 48190653.00 L 66084054.00 48185403.00 L 66106929.00 48176028.00 L 66132804.00 48156153.00 L 66146304.00 48138153.00 L 66156804.00 48109653.00 A 82966.40 82966.40 0 0 0 66129804.00 48028653.00 L 66106179.00 48013278.00 L 66133554.00 48002028.00 L 66151179.00 47989278.00 L 66164679.00 47970903.00 L 66174804.00 47944278.00 L 66177804.00 47918403.00 L 66173304.00 47889153.00 L 66162429.00 47861778.00 A 109718.16 109718.16 0 0 0 66109179.00 47813028.00 L 66077679.00 47802153.00 L 66045804.00 47798778.00 L 66012054.00 47804028.00 L 65984304.00 47814903.00 L 65962554.00 47830278.00 A 127200.82 127200.82 0 0 0 65926179.00 47907153.00 L 65973429.00 47913153.00 L 65975679.00 47903778.00 L 65988429.00 47871903.00 L 66001554.00 47854653.00 L 66021054.00 47843403.00 L 66038304.00 47838528.00 L 66057054.00 47838528.00 L 66081429.00 47845278.00 L 66100179.00 47856528.00 A 82604.06 82604.06 0 0 1 66106179.00 47971278.00 L 66087804.00 47983653.00 L 66063804.00 47991528.00 L 66052179.00 47992278.00 L 66019179.00 47987403.00 L 66025179.00 48028653.00 L 66039804.00 48028278.00 L 66067554.00 48034653.00 A 59234.54 59234.54 0 0 1 66045054.00 48152403.00 L 66024054.00 48148278.00 L 66008679.00 48140778.00 L 65997054.00 48129903.00 L 65983929.00 48105528.00 L 65978304.00 48083028.00 L 65931054.00 48091653.00 L 65941554.00 48123903.00 L 65955054.00 48148278.00 L 65970429.00 48165153.00 L 65991054.00 48177903.00 L 66022554.00 48188778.00 L 66054804.00 48190653.00  z"/>
<path id="N" d="M 52041588.00 61700653.00 L 52070838.00 61695403.00 L 52093713.00 61686028.00 L 52119588.00 61666153.00 L 52133088.00 61648153.00 L 52143588.00 61619653.00 A 82966.40 82966.40 0 0 0 52116588.00 61538653.00 L 52092963.00 61523278.00 L 52120338.00 61512028.00 L 52137963.00 61499278.00 L 52151463.00 61480903.00 L 52161588.00 61454278.00 L 52164588.00 61428403.00 L 52160088.00 61399153.00 L 52149213.00 61371778.00 A 109718.16 109718.16 0 0 0 52095963.00 61323028.00 L 52064463.00 61312153.00 L 52032588.00 61308778.00 L 51998838.00 61314028.00 L 51971088.00 61324903.00 L 51949338.00 61340278.00 A 127200.82 127200.82 0 0 0 51912963.00 61417153.00 L 51960213.00 61423153.00 L 51962463.00 61413778.00 L 51975213.00 61381903.00 L 51988338.00 61364653.00 L 52007838.00 61353403.00 L 52025088.00 61348528.00 L 52043838.00 61348528.00 L 52068213.00 61355278.00 L 52086963.00 61366528.00 A 82604.06 82604.06 0 0 1 52092963.00 61481278.00 L 52074588.00 61493653.00 L 52050588.00 61501528.00 L 52038963.00 61502278.00 L 52005963.00 61497403.00 L 52011963.00 61538653.00 L 52026588.00 61538278.00 L 52054338.00 61544653.00 A 59234.54 59234.54 0 0 1 52031838.00 61662403.00 L 52010838.00 61658278.00 L 51995463.00 61650778.00 L 51983838.00 61639903.00 L 51970713.00 61615528.00 L 51965088.00 61593028.00 L 51917838.00 61601653.00 L 51928338.00 61633903.00 L 51941838.00 61658278.00 L 51957213.00 61675153.00 L 51977838.00 61687903.00 L 52009338.00 61698778.00 L 52041588.00 61700653.00  z"/>
<path id="N" d="M 39563471.97 47194276.00 L 39590846.97 47183401.00 L 39612221.97 47168401.00 L 39627221.98 47151901.00 L 39639596.98 47130151.00 L 39650471.98 47098651.00 L 39653846.98 47066776.00 L 39648596.98 47033026.00 L 39637721.98 47005276.00 L 39622346.98 46983526.00 A 127200.82 127200.82 0 0 0 39545471.98 46947151.00 L 39539471.98 46994401.00 L 39548846.98 46996651.00 L 39580721.98 47009401.00 L 39597971.98 47022526.00 L 39609221.98 47042026.00 L 39614096.98 47059276.00 L 39614096.98 47078026.00 L 39607346.98 47102401.00 L 39596096.98 47121151.00 A 82604.06 82604.06 0 0 1 39481346.98 47127150.99 L 39468971.98 47108775.99 L 39461096.98 47084775.99 L 39460346.98 47073150.99 L 39465221.98 47040150.99 L 39423971.98 47046150.99 L 39424346.98 47060775.99 L 39417971.98 47088525.99 A 59234.54 59234.54 0 0 1 39300221.98 47066025.98 L 39304346.98 47045025.99 L 39311846.98 47029650.99 L 39322721.98 47018025.99 L 39347096.98 47004900.99 L 39369596.98 46999275.99 L 39360971.98 46952025.99 L 39328721.98 46962525.99 L 39304346.98 46976025.99 L 39287471.98 46991400.98 L 39274721.98 47012025.98 L 39263846.98 47043525.98 L 39261971.98 47075775.98 L 39267221.98 47105025.98 L 39276596.98 47127900.98 L 39296471.98 47153775.98 L 39314471.97 47167275.99 L 39342971.97 47177775.99 A 82966.40 82966.40 0 0 0 39423971.98 47150775.99 L 39439346.98 47127150.99 L 39450596.98 47154525.99 L 39467471.97 47175900.99 L 39488846.97 47189400.99 L 39520346.97 47198025.99 L 39563471.97 47194276.00  z"/>
<path id="N" d="M 50606875.00 49596249.93 L 50640000.00 49586874.93 L 50666875.00 49574999.94 L 50691875.00 49556874.94 L 50713750.00 49534999.94 L 50736875.01 49503749.94 L 50747500.01 49483749.94 L 50757500.01 49456249.94 A 322046.50 322046.50 0 0 0 50770625.02 49324999.94 L 50762500.03 49274999.94 L 50749375.03 49231249.94 L 50731875.03 49199374.94 L 50710625.04 49171249.94 L 50688125.04 49150624.94 L 50662500.04 49134999.94 L 50634375.04 49123749.93 L 50597500.04 49115624.93 L 50570000.04 49114374.93 L 50540000.04 49118749.92 L 50515000.04 49126249.92 L 50496875.04 49135624.92 L 50465625.04 49159374.92 L 50448750.04 49178124.92 L 50448750.06 48948749.92 L 50370000.06 48948749.91 L 50370000.00 49589374.91 L 50443125.00 49589374.92 L 50443750.00 49532499.92 L 50456250.00 49547499.92 L 50484375.00 49572499.92 L 50494375.00 49578124.92 L 50516875.00 49589374.92 L 50543125.00 49596874.93 L 50573125.00 49599999.93 L 50606875.00 49596249.93  zM 50565625.00 49535624.93 L 50547500.00 49533124.93 A 118154.09 118154.09 0 0 1 50477500.01 49493124.92 L 50466875.01 49475624.92 L 50453125.01 49443749.92 L 50445000.02 49408749.92 L 50441875.02 49364374.92 L 50445000.02 49321874.92 L 50453750.03 49276874.92 L 50466250.03 49243124.92 L 50482500.03 49219999.92 L 50503750.03 49201874.92 L 50532500.04 49186249.92 L 50550000.04 49181249.93 L 50574375.04 49179374.93 L 50600000.04 49184999.93 L 50621250.03 49193124.93 L 50643125.03 49208124.93 L 50657500.03 49223124.94 L 50668125.03 49241249.94 L 50680625.03 49274374.94 L 50690625.02 49325624.94 L 50691875.02 49366874.94 L 50686875.02 49408124.94 L 50676250.01 49452499.94 L 50666875.01 49473124.94 L 50653750.01 49492499.93 L 50629375.01 49513749.93 L 50601250.01 49528749.93 L 50584375.00 49533749.93 L 50565625.00 49535624.93  z"/>
<path id="N" d="M 44412624.93 40891625.04 L 44445249.94 40878875.05 L 44464374.94 40866125.05 L 44486874.94 40842125.05 L 44504874.95 40814000.06 L 44515749.95 40786625.06 L 44465499.95 40775375.05 L 44459874.95 40789250.05 L 44443374.95 40818125.05 L 44426499.94 40835750.04 L 44404749.94 40847375.04 L 44376624.94 40854500.03 L 44355249.94 40854875.03 L 44318874.94 40848500.02 L 44294124.94 40837625.02 L 44275374.94 40822250.02 L 44258499.95 40800500.01 L 44246874.95 40776125.01 L 44238624.96 40742750.01 L 44234874.97 40702625.01 L 44236749.97 40673750.01 L 44244249.98 40631375.01 L 44253249.98 40608125.01 L 44273874.99 40578875.02 L 44293749.99 40562375.02 L 44312874.99 40553750.02 L 44345874.99 40545500.03 L 44373624.99 40545875.03 L 44407374.99 40554875.04 L 44430999.99 40569125.04 L 44444124.99 40583375.05 L 44460624.98 40610375.05 L 44471124.98 40642250.05 L 44522124.98 40628750.06 L 44520249.98 40623500.06 L 44505249.99 40586375.06 L 44484999.99 40554875.05 L 44464000.00 40533500.05 L 44429125.00 40514375.04 L 44394250.00 40504250.04 L 44356750.00 40501250.03 L 44310625.00 40507250.02 L 44276875.00 40518125.02 L 44251750.00 40533500.01 A 175278.73 175278.73 0 0 0 44196249.98 40617500.00 L 44185374.97 40663250.00 L 44182374.97 40703375.00 L 44185374.96 40738250.00 L 44194749.95 40781000.00 L 44207499.95 40811750.00 L 44231124.94 40843625.01 L 44255499.94 40865750.01 L 44274624.94 40877750.02 L 44311749.93 40891250.02 L 44345124.93 40897625.03 L 44412624.93 40891625.04  z"/>
<path id="N" d="M 44413374.93 44791625.04 L 44445999.94 44778875.05 L 44465124.94 44766125.05 L 44487624.94 44742125.05 L 44505624.95 44714000.06 L 44516499.95 44686625.06 L 44466249.95 44675375.05 L 44460624.95 44689250.05 L 44444124.95 44718125.05 L 44427249.94 44735750.04 L 44405499.94 44747375.04 L 44377374.94 44754500.03 L 44355999.94 44754875.03 L 44319624.94 44748500.02 L 44294874.94 44737625.02 L 44276124.94 44722250.02 L 44259249.95 44700500.01 L 44247624.95 44676125.01 L 44239374.96 44642750.01 L 44235624.97 44602625.01 L 44237499.97 44573750.01 L 44244999.98 44531375.01 L 44253999.98 44508125.01 L 44274624.99 44478875.02 L 44294499.99 44462375.02 L 44313624.99 44453750.02 L 44346624.99 44445500.03 L 44374374.99 44445875.03 L 44408124.99 44454875.04 L 44431749.99 44469125.04 L 44444874.99 44483375.05 L 44461374.98 44510375.05 L 44471874.98 44542250.05 L 44522874.98 44528750.06 L 44520999.98 44523500.06 L 44505999.99 44486375.06 L 44485749.99 44454875.05 L 44464750.00 44433500.05 L 44429875.00 44414375.04 L 44395000.00 44404250.04 L 44357500.00 44401250.03 L 44311375.00 44407250.02 L 44277625.00 44418125.02 L 44252500.00 44433500.01 A 175278.73 175278.73 0 0 0 44196999.98 44517500.00 L 44186124.97 44563250.00 L 44183124.97 44603375.00 L 44186124.96 44638250.00 L 44195499.95 44681000.00 L 44208249.95 44711750.00 L 44231874.94 44743625.01 L 44256249.94 44765750.01 L 44275374.94 44777750.02 L 44312499.93 44791250.02 L 44345874.93 44797625.03 L 44413374.93 44791625.04  z"/>
<path id="N" d="M 44411124.93 48691625.04 L 44443749.94 48678875.05 L 44462874.94 48666125.05 L 44485374.94 48642125.05 L 44503374.95 48614000.06 L 44514249.95 48586625.06 L 44463999.95 48575375.05 L 44458374.95 48589250.05 L 44441874.95 48618125.05 L 44424999.94 48635750.04 L 44403249.94 48647375.04 L 44375124.94 48654500.03 L 44353749.94 48654875.03 L 44317374.94 48648500.02 L 44292624.94 48637625.02 L 44273874.94 48622250.02 L 44256999.95 48600500.01 L 44245374.95 48576125.01 L 44237124.96 48542750.01 L 44233374.97 48502625.01 L 44235249.97 48473750.01 L 44242749.98 48431375.01 L 44251749.98 48408125.01 L 44272374.99 48378875.02 L 44292249.99 48362375.02 L 44311374.99 48353750.02 L 44344374.99 48345500.03 L 44372124.99 48345875.03 L 44405874.99 48354875.04 L 44429499.99 48369125.04 L 44442624.99 48383375.05 L 44459124.98 48410375.05 L 44469624.98 48442250.05 L 44520624.98 48428750.06 L 44518749.98 48423500.06 L 44503749.99 48386375.06 L 44483499.99 48354875.05 L 44462500.00 48333500.05 L 44427625.00 48314375.04 L 44392750.00 48304250.04 L 44355250.00 48301250.03 L 44309125.00 48307250.02 L 44275375.00 48318125.02 L 44250250.00 48333500.01 A 175278.73 175278.73 0 0 0 44194749.98 48417500.00 L 44183874.97 48463250.00 L 44180874.97 48503375.00 L 44183874.96 48538250.00 L 44193249.95 48581000.00 L 44205999.95 48611750.00 L 44229624.94 48643625.01 L 44253999.94 48665750.01 L 44273124.94 48677750.02 L 44310249.93 48691250.02 L 44343624.93 48697625.03 L 44411124.93 48691625.04  z"/>
<path id="N" d="M 44801124.94 48642125.11 L 44646999.94 48642125.08 L 44626749.96 48538625.08 L 44648499.96 48550625.08 L 44678124.96 48560375.09 L 44707749.96 48562250.09 L 44742249.96 48554000.10 L 44763624.96 48543875.10 L 44784624.96 48527375.11 L 44798499.96 48509000.11 L 44810874.97 48483125.11 L 44817624.97 48457625.11 L 44818749.98 48429125.11 L 44811624.99 48392750.11 L 44798499.99 48362375.11 L 44784624.99 48343625.11 L 44762125.00 48324500.10 L 44739250.00 48312125.10 L 44710375.00 48303125.09 L 44678875.00 48301625.09 L 44643625.00 48308375.08 L 44614750.00 48320750.08 L 44600125.00 48332000.07 A 127259.48 127259.48 0 0 0 44564124.98 48408500.07 L 44613624.98 48412250.08 L 44615499.98 48403625.08 L 44626374.99 48374375.08 L 44635374.99 48361625.08 L 44646624.99 48352250.08 L 44667999.99 48342875.09 L 44687499.99 48339875.09 L 44703249.99 48342125.09 L 44726124.99 48350750.10 L 44745249.99 48365375.10 L 44757249.99 48383750.10 L 44766624.98 48411500.10 L 44768874.98 48437375.10 L 44763249.97 48467000.10 L 44753499.97 48488000.10 L 44741874.97 48501125.10 A 87490.95 87490.95 0 0 1 44616624.97 48483875.08 L 44572374.97 48489500.07 L 44609499.93 48687125.07 L 44801124.93 48687125.11 L 44801124.94 48642125.11  z"/>
<path id="N" d="M 61330133.00 60266354.00 L 61342614.00 60236221.00 L 61342614.00 60200094.00 L 61496850.00 60200094.00 L 61526983.00 60187613.00 L 61539464.00 60157480.00 L 61526983.00 60127347.00 L 61496850.00 60114866.00 L 61382806.96 60114866.00 L 61531527.00 59906659.00 L 61534471.47 59893943.51 L 61539464.00 59881890.00 L 61538052.04 59878481.09 L 61538885.00 59874884.00 L 61531975.73 59863811.01 L 61526983.00 59851757.00 L 61523573.04 59850344.61 L 61521619.00 59847213.00 L 61508903.51 59844268.53 L 61496850.00 59839276.00 L 61342614.00 59839276.00 L 61342614.00 59763780.00 L 61330133.00 59733647.00 L 61300000.00 59721166.00 L 61269867.00 59733647.00 L 61257386.00 59763780.00 L 61257386.00 59839276.00 L 61142520.00 59839276.00 L 61132323.85 59843499.21 L 61121378.00 59844891.00 L 61117795.28 59849516.91 L 61112387.00 59851757.00 L 61108164.07 59861952.46 L 61101407.00 59870677.00 L 61102145.32 59876483.59 L 61099906.00 59881890.00 L 61104129.21 59892086.15 L 61105521.00 59903032.00 L 61226569.00 60114866.00 L 61103150.00 60114866.00 L 61073017.00 60127347.00 L 61060536.00 60157480.00 L 61073017.00 60187613.00 L 61103150.00 60200094.00 L 61257386.00 60200094.00 L 61257386.00 60236221.00 L 61269867.00 60266354.00 L 61300000.00 60278835.00 L 61330133.00 60266354.00  zM 61303992.27 60078575.43 L 61215951.13 59924504.00 L 61414043.29 59924504.00 L 61303992.27 60078575.43  z"/>
<path id="N" d="M 62830133.00 60266354.00 L 62842614.00 60236221.00 L 62842614.00 60200094.00 L 62996850.00 60200094.00 L 63026983.00 60187613.00 L 63039464.00 60157480.00 L 63026983.00 60127347.00 L 62996850.00 60114866.00 L 62882806.96 60114866.00 L 63031527.00 59906659.00 L 63034471.47 59893943.51 L 63039464.00 59881890.00 L 63038052.04 59878481.09 L 63038885.00 59874884.00 L 63031975.73 59863811.01 L 63026983.00 59851757.00 L 63023573.04 59850344.61 L 63021619.00 59847213.00 L 63008903.51 59844268.53 L 62996850.00 59839276.00 L 62842614.00 59839276.00 L 62842614.00 59763780.00 L 62830133.00 59733647.00 L 62800000.00 59721166.00 L 62769867.00 59733647.00 L 62757386.00 59763780.00 L 62757386.00 59839276.00 L 62642520.00 59839276.00 L 62632323.85 59843499.21 L 62621378.00 59844891.00 L 62617795.28 59849516.91 L 62612387.00 59851757.00 L 62608164.07 59861952.46 L 62601407.00 59870677.00 L 62602145.32 59876483.59 L 62599906.00 59881890.00 L 62604129.21 59892086.15 L 62605521.00 59903032.00 L 62726569.00 60114866.00 L 62603150.00 60114866.00 L 62573017.00 60127347.00 L 62560536.00 60157480.00 L 62573017.00 60187613.00 L 62603150.00 60200094.00 L 62757386.00 60200094.00 L 62757386.00 60236221.00 L 62769867.00 60266354.00 L 62800000.00 60278835.00 L 62830133.00 60266354.00  zM 62803992.27 60078575.43 L 62715951.13 59924504.00 L 62914043.29 59924504.00 L 62803992.27 60078575.43  z"/>
<path id="N" d="M 47048088.00 61650403.00 L 46893963.00 61650403.00 L 46873713.00 61546903.00 L 46895463.00 61558903.00 L 46925088.00 61568653.00 L 46954713.00 61570528.00 L 46989213.00 61562278.00 L 47010588.00 61552153.00 L 47031588.00 61535653.00 L 47045463.00 61517278.00 L 47057838.00 61491403.00 L 47064588.00 61465903.00 L 47065713.00 61437403.00 L 47058588.00 61401028.00 L 47045463.00 61370653.00 L 47031588.00 61351903.00 L 47009088.00 61332778.00 L 46986213.00 61320403.00 L 46957338.00 61311403.00 L 46925838.00 61309903.00 L 46890588.00 61316653.00 L 46861713.00 61329028.00 L 46847088.00 61340278.00 A 127259.48 127259.48 0 0 0 46811088.00 61416778.00 L 46860588.00 61420528.00 L 46862463.00 61411903.00 L 46873338.00 61382653.00 L 46882338.00 61369903.00 L 46893588.00 61360528.00 L 46914963.00 61351153.00 L 46934463.00 61348153.00 L 46950213.00 61350403.00 L 46973088.00 61359028.00 L 46992213.00 61373653.00 L 47004213.00 61392028.00 L 47013588.00 61419778.00 L 47015838.00 61445653.00 L 47010213.00 61475278.00 L 47000463.00 61496278.00 L 46988838.00 61509403.00 A 87490.95 87490.95 0 0 1 46863588.00 61492153.00 L 46819338.00 61497778.00 L 46856463.00 61695403.00 L 47048088.00 61695403.00 L 47048088.00 61650403.00  z"/>
<path id="N" d="M 50053125.06 49948749.88 L 49740000.06 49949374.85 L 49678125.06 49956249.85 L 49637500.05 49966874.85 L 49602500.05 49988749.84 L 49578750.05 50012499.84 L 49567500.05 50028124.84 L 49556875.05 50049374.84 L 49545625.04 50086249.84 L 49541250.04 50113749.84 L 49541875.04 50134999.84 L 49549375.04 50172499.84 L 49560000.03 50201249.84 L 49577500.03 50229999.84 L 49590000.03 50243124.84 L 49619375.03 50263749.84 L 49649375.03 50278749.85 L 49689375.03 50291874.85 L 49721875.03 50298124.85 L 49694375.02 50313124.85 L 49670000.02 50330624.85 L 49653125.02 50348124.85 L 49613125.02 50397499.84 L 49490000.00 50589374.83 L 49595625.00 50589374.84 L 49693750.01 50436249.85 L 49745625.02 50363124.86 L 49777500.02 50330624.86 L 49802500.02 50315624.86 L 49823750.02 50308124.86 L 49848750.02 50305624.86 L 49968125.02 50304999.87 L 49968125.00 50589374.87 L 50053125.00 50589374.88 L 50053125.06 49948749.88  zM 49968125.03 50231874.87 L 49766250.03 50231249.86 L 49723750.03 50226874.85 A 116676.34 116676.34 0 0 1 49653125.03 50191249.85 L 49640625.04 50171874.85 L 49631250.04 50146249.85 L 49628750.04 50119374.85 L 49636875.04 50085624.85 A 81113.68 81113.68 0 0 1 49687500.05 50033749.85 L 49719375.05 50023749.85 L 49752500.05 50019374.86 L 49968125.05 50019374.87 L 49968125.03 50231874.87  z"/>
<path id="N" d="M 72145701.00 49471319.00 L 71799950.00 49471319.00 L 71799950.00 49313103.89 L 71921561.00 49373910.00 L 71934126.07 49374803.16 L 71945765.00 49379624.00 L 72045733.00 49379625.00 L 72084002.00 49363773.00 L 72183970.00 49263805.00 L 72199821.00 49225536.00 L 72199822.00 49025601.00 L 72183970.00 48987332.00 L 72084002.00 48887364.00 L 72045733.00 48871513.00 L 71845798.00 48871512.00 L 71807529.00 48887364.00 L 71707561.00 48987332.00 A 54121.84 54121.84 0 0 0 71784099.00 49063870.00 L 71868216.00 48979753.00 L 72023315.00 48979753.00 L 72091581.00 49048019.00 L 72091581.00 49203118.00 L 72023315.00 49271384.00 L 71958541.94 49271384.00 L 71770033.00 49177130.00 L 71757469.08 49176236.90 L 71745830.00 49171416.00 L 71737600.71 49174824.57 L 71728716.00 49174193.00 L 71719200.51 49182445.92 L 71707561.00 49187267.00 L 71704151.76 49195497.92 L 71697424.00 49201333.00 L 71696530.90 49213896.92 L 71691710.00 49225536.00 L 71691710.00 49525439.00 L 71707561.00 49563708.00 L 71745830.00 49579559.00 L 72145701.00 49579559.00 A 54121.84 54121.84 0 0 0 72145701.00 49471319.00  z"/>
<path id="N" d="M 63172088.00 61767466.00 L 63201338.00 61762216.00 L 63230588.00 61751341.00 L 63251963.00 61735591.00 L 63269588.00 61710841.00 A 104789.67 104789.67 0 0 0 63278588.00 61632091.00 L 63269963.00 61609591.00 L 63249338.00 61577716.00 L 63224213.00 61551091.00 L 63113963.00 61452466.00 L 63094463.00 61427341.00 L 63283088.00 61427341.00 L 63283088.00 61381966.00 L 63029213.00 61382716.00 L 63031088.00 61402966.00 L 63038588.00 61423966.00 L 63058088.00 61456216.00 L 63085463.00 61486216.00 L 63161213.00 61553341.00 L 63201713.00 61593466.00 L 63217088.00 61613341.00 L 63230963.00 61641841.00 L 63234338.00 61662091.00 L 63229463.00 61686091.00 L 63217838.00 61705591.00 A 77175.18 77175.18 0 0 1 63145838.00 61726966.00 L 63124088.00 61720216.00 L 63110963.00 61711966.00 L 63100463.00 61699966.00 L 63089588.00 61675966.00 L 63086588.00 61651966.00 L 63038213.00 61657591.00 L 63043088.00 61681216.00 L 63052463.00 61707466.00 L 63064463.00 61727716.00 L 63081338.00 61743841.00 A 145177.82 145177.82 0 0 0 63172088.00 61767466.00  z"/>
<path id="N" d="M 66064741.00 40187466.00 L 66093991.00 40182216.00 L 66123241.00 40171341.00 L 66144616.00 40155591.00 L 66162241.00 40130841.00 A 104789.67 104789.67 0 0 0 66171241.00 40052091.00 L 66162616.00 40029591.00 L 66141991.00 39997716.00 L 66116866.00 39971091.00 L 66006616.00 39872466.00 L 65987116.00 39847341.00 L 66175741.00 39847341.00 L 66175741.00 39801966.00 L 65921866.00 39802716.00 L 65923741.00 39822966.00 L 65931241.00 39843966.00 L 65950741.00 39876216.00 L 65978116.00 39906216.00 L 66053866.00 39973341.00 L 66094366.00 40013466.00 L 66109741.00 40033341.00 L 66123616.00 40061841.00 L 66126991.00 40082091.00 L 66122116.00 40106091.00 L 66110491.00 40125591.00 A 77175.18 77175.18 0 0 1 66038491.00 40146966.00 L 66016741.00 40140216.00 L 66003616.00 40131966.00 L 65993116.00 40119966.00 L 65982241.00 40095966.00 L 65979241.00 40071966.00 L 65930866.00 40077591.00 L 65935741.00 40101216.00 L 65945116.00 40127466.00 L 65957116.00 40147716.00 L 65973991.00 40163841.00 A 145177.82 145177.82 0 0 0 66064741.00 40187466.00  z"/>
<path id="N" d="M 58351526.00 61697466.00 L 58380776.00 61692216.00 L 58410026.00 61681341.00 L 58431401.00 61665591.00 L 58449026.00 61640841.00 A 104789.67 104789.67 0 0 0 58458026.00 61562091.00 L 58449401.00 61539591.00 L 58428776.00 61507716.00 L 58403651.00 61481091.00 L 58293401.00 61382466.00 L 58273901.00 61357341.00 L 58462526.00 61357341.00 L 58462526.00 61311966.00 L 58208651.00 61312716.00 L 58210526.00 61332966.00 L 58218026.00 61353966.00 L 58237526.00 61386216.00 L 58264901.00 61416216.00 L 58340651.00 61483341.00 L 58381151.00 61523466.00 L 58396526.00 61543341.00 L 58410401.00 61571841.00 L 58413776.00 61592091.00 L 58408901.00 61616091.00 L 58397276.00 61635591.00 A 77175.18 77175.18 0 0 1 58325276.00 61656966.00 L 58303526.00 61650216.00 L 58290401.00 61641966.00 L 58279901.00 61629966.00 L 58269026.00 61605966.00 L 58266026.00 61581966.00 L 58217651.00 61587591.00 L 58222526.00 61611216.00 L 58231901.00 61637466.00 L 58243901.00 61657716.00 L 58260776.00 61673841.00 A 145177.82 145177.82 0 0 0 58351526.00 61697466.00  z"/>
<path id="N" d="M 39646721.98 43042838.00 L 39626471.98 43044713.00 L 39605471.98 43052213.00 L 39573221.98 43071713.00 L 39543221.98 43099088.00 L 39476096.98 43174837.99 L 39435971.98 43215337.99 L 39416096.98 43230712.99 L 39387596.98 43244587.99 L 39367346.98 43247962.99 L 39343346.98 43243087.99 L 39323846.98 43231462.99 A 77175.18 77175.18 0 0 1 39302471.98 43159462.98 L 39309221.98 43137712.99 L 39317471.98 43124587.99 L 39329471.98 43114087.99 L 39353471.98 43103212.99 L 39377471.98 43100212.99 L 39371846.98 43051837.99 L 39348221.98 43056712.99 L 39321971.98 43066087.99 L 39301721.98 43078087.98 L 39285596.98 43094962.98 A 145177.82 145177.82 0 0 0 39267221.98 43214962.98 L 39278096.98 43244212.98 L 39293846.97 43265587.98 L 39318596.97 43283212.99 A 104789.67 104789.67 0 0 0 39397346.97 43292212.99 L 39419846.97 43283587.99 L 39451721.98 43262962.99 L 39478346.98 43237837.99 L 39576971.98 43127588.00 L 39602096.98 43108088.00 L 39602096.97 43296713.00 L 39647471.97 43296713.00 L 39646721.98 43042838.00  z"/>
<path id="N" d="M 47141526.00 53940653.00 L 47170776.00 53935403.00 L 47200026.00 53924528.00 L 47221401.00 53908778.00 L 47239026.00 53884028.00 A 104789.67 104789.67 0 0 0 47248026.00 53805278.00 L 47239401.00 53782778.00 L 47218776.00 53750903.00 L 47193651.00 53724278.00 L 47083401.00 53625653.00 L 47063901.00 53600528.00 L 47252526.00 53600528.00 L 47252526.00 53555153.00 L 46998651.00 53555903.00 L 47000526.00 53576153.00 L 47008026.00 53597153.00 L 47027526.00 53629403.00 L 47054901.00 53659403.00 L 47130651.00 53726528.00 L 47171151.00 53766653.00 L 47186526.00 53786528.00 L 47200401.00 53815028.00 L 47203776.00 53835278.00 L 47198901.00 53859278.00 L 47187276.00 53878778.00 A 77175.18 77175.18 0 0 1 47115276.00 53900153.00 L 47093526.00 53893403.00 L 47080401.00 53885153.00 L 47069901.00 53873153.00 L 47059026.00 53849153.00 L 47056026.00 53825153.00 L 47007651.00 53830778.00 L 47012526.00 53854403.00 L 47021901.00 53880653.00 L 47033901.00 53900903.00 L 47050776.00 53917028.00 A 145177.82 145177.82 0 0 0 47141526.00 53940653.00  z"/>
<path id="N" d="M 50651875.06 49948749.93 L 50388750.06 49948749.91 L 50319375.06 49953749.91 L 50273125.05 49965624.90 L 50246250.05 49977499.90 L 50228750.05 49988749.90 L 50207500.05 50009999.90 L 50190000.05 50032499.89 L 50182500.05 50047499.89 L 50172500.05 50072499.89 L 50163125.04 50116874.89 L 50162500.04 50134999.89 L 50164375.04 50154999.89 L 50171875.03 50192499.89 L 50184375.03 50226874.89 L 50197500.03 50249999.89 L 50215625.03 50273124.90 L 50231250.03 50285624.90 L 50258125.03 50300624.90 L 50298750.02 50315624.90 L 50335000.02 50323749.91 L 50378125.02 50328124.91 L 50566875.02 50328749.93 L 50566875.00 50589374.93 L 50651875.00 50589374.93 L 50651875.06 49948749.93  zM 50566875.03 50253124.93 L 50393750.03 50253124.91 L 50365000.03 50250624.91 L 50317500.03 50240624.91 L 50300000.03 50233124.90 L 50285000.03 50223124.90 L 50273750.03 50210624.90 L 50261250.04 50188749.90 L 50251250.04 50156249.90 L 50250000.04 50136249.90 L 50252500.04 50113124.90 L 50258750.04 50091249.90 L 50270625.05 50068124.90 L 50285000.05 50052499.90 L 50301875.05 50039999.90 L 50328750.05 50029374.91 L 50374375.05 50024999.91 L 50566875.05 50024374.93 L 50566875.03 50253124.93  z"/>
<path id="N" d="M 46655463.00 61697653.00 L 46691838.00 61689778.00 L 46713963.00 61676278.00 L 46728213.00 61662028.00 L 46739838.00 61642903.00 L 46748088.00 61617778.00 L 46750713.00 61594903.00 L 46745838.00 61566028.00 L 46736463.00 61543153.00 L 46724088.00 61526278.00 L 46708713.00 61514278.00 L 46678338.00 61499278.00 L 46643088.00 61490278.00 L 46645713.00 61489153.00 L 46674213.00 61470778.00 L 46707588.00 61431028.00 L 46781463.00 61315903.00 L 46718088.00 61315903.00 L 46666713.00 61396153.00 L 46635963.00 61441153.00 L 46613463.00 61467028.00 L 46593963.00 61480153.00 L 46577838.00 61485403.00 L 46494588.00 61486528.00 L 46494588.00 61315903.00 L 46443588.00 61315903.00 L 46443588.00 61700278.00 L 46655463.00 61697653.00  zM 46494588.00 61657903.00 L 46494588.00 61530403.00 L 46609338.00 61530403.00 L 46632213.00 61532278.00 L 46658838.00 61537903.00 L 46678713.00 61550278.00 L 46688088.00 61561153.00 L 46694838.00 61576153.00 L 46698213.00 61595278.00 L 46695588.00 61611028.00 L 46687713.00 61629778.00 L 46674588.00 61642903.00 L 46654338.00 61652278.00 L 46631088.00 61657153.00 L 46494588.00 61657903.00  z"/>
<path id="N" d="M 53457713.00 61694466.00 L 53494088.00 61686591.00 L 53516213.00 61673091.00 L 53530463.00 61658841.00 L 53542088.00 61639716.00 L 53550338.00 61614591.00 L 53552963.00 61591716.00 L 53548088.00 61562841.00 L 53538713.00 61539966.00 L 53526338.00 61523091.00 L 53510963.00 61511091.00 L 53480588.00 61496091.00 L 53445338.00 61487091.00 L 53447963.00 61485966.00 L 53476463.00 61467591.00 L 53509838.00 61427841.00 L 53583713.00 61312716.00 L 53520338.00 61312716.00 L 53468963.00 61392966.00 L 53438213.00 61437966.00 L 53415713.00 61463841.00 L 53396213.00 61476966.00 L 53380088.00 61482216.00 L 53296838.00 61483341.00 L 53296838.00 61312716.00 L 53245838.00 61312716.00 L 53245838.00 61697091.00 L 53457713.00 61694466.00  zM 53296838.00 61654716.00 L 53296838.00 61527216.00 L 53411588.00 61527216.00 L 53434463.00 61529091.00 L 53461088.00 61534716.00 L 53480963.00 61547091.00 L 53490338.00 61557966.00 L 53497088.00 61572966.00 L 53500463.00 61592091.00 L 53497838.00 61607841.00 L 53489963.00 61626591.00 L 53476838.00 61639716.00 L 53456588.00 61649091.00 L 53433338.00 61653966.00 L 53296838.00 61654716.00  z"/>
<path id="N" d="M 58059026.00 61693716.00 L 58095401.00 61685841.00 L 58117526.00 61672341.00 L 58131776.00 61658091.00 L 58143401.00 61638966.00 L 58151651.00 61613841.00 L 58154276.00 61590966.00 L 58149401.00 61562091.00 L 58140026.00 61539216.00 L 58127651.00 61522341.00 L 58112276.00 61510341.00 L 58081901.00 61495341.00 L 58046651.00 61486341.00 L 58049276.00 61485216.00 L 58077776.00 61466841.00 L 58111151.00 61427091.00 L 58185026.00 61311966.00 L 58121651.00 61311966.00 L 58070276.00 61392216.00 L 58039526.00 61437216.00 L 58017026.00 61463091.00 L 57997526.00 61476216.00 L 57981401.00 61481466.00 L 57898151.00 61482591.00 L 57898151.00 61311966.00 L 57847151.00 61311966.00 L 57847151.00 61696341.00 L 58059026.00 61693716.00  zM 57898151.00 61653966.00 L 57898151.00 61526466.00 L 58012901.00 61526466.00 L 58035776.00 61528341.00 L 58062401.00 61533966.00 L 58082276.00 61546341.00 L 58091651.00 61557216.00 L 58098401.00 61572216.00 L 58101776.00 61591341.00 L 58099151.00 61607091.00 L 58091276.00 61625841.00 L 58078151.00 61638966.00 L 58057901.00 61648341.00 L 58034651.00 61653216.00 L 57898151.00 61653966.00  z"/>
<path id="N" d="M 48356963.00 61696903.00 L 48393338.00 61689028.00 L 48415463.00 61675528.00 L 48429713.00 61661278.00 L 48441338.00 61642153.00 L 48449588.00 61617028.00 L 48452213.00 61594153.00 L 48447338.00 61565278.00 L 48437963.00 61542403.00 L 48425588.00 61525528.00 L 48410213.00 61513528.00 L 48379838.00 61498528.00 L 48344588.00 61489528.00 L 48347213.00 61488403.00 L 48375713.00 61470028.00 L 48409088.00 61430278.00 L 48482963.00 61315153.00 L 48419588.00 61315153.00 L 48368213.00 61395403.00 L 48337463.00 61440403.00 L 48314963.00 61466278.00 L 48295463.00 61479403.00 L 48279338.00 61484653.00 L 48196088.00 61485778.00 L 48196088.00 61315153.00 L 48145088.00 61315153.00 L 48145088.00 61699528.00 L 48356963.00 61696903.00  zM 48196088.00 61657153.00 L 48196088.00 61529653.00 L 48310838.00 61529653.00 L 48333713.00 61531528.00 L 48360338.00 61537153.00 L 48380213.00 61549528.00 L 48389588.00 61560403.00 L 48396338.00 61575403.00 L 48399713.00 61594528.00 L 48397088.00 61610278.00 L 48389213.00 61629028.00 L 48376088.00 61642153.00 L 48355838.00 61651528.00 L 48332588.00 61656403.00 L 48196088.00 61657153.00  z"/>
<path id="N" d="M 59694120.00 61693716.00 L 59730495.00 61685841.00 L 59752620.00 61672341.00 L 59766870.00 61658091.00 L 59778495.00 61638966.00 L 59786745.00 61613841.00 L 59789370.00 61590966.00 L 59784495.00 61562091.00 L 59775120.00 61539216.00 L 59762745.00 61522341.00 L 59747370.00 61510341.00 L 59716995.00 61495341.00 L 59681745.00 61486341.00 L 59684370.00 61485216.00 L 59712870.00 61466841.00 L 59746245.00 61427091.00 L 59820120.00 61311966.00 L 59756745.00 61311966.00 L 59705370.00 61392216.00 L 59674620.00 61437216.00 L 59652120.00 61463091.00 L 59632620.00 61476216.00 L 59616495.00 61481466.00 L 59533245.00 61482591.00 L 59533245.00 61311966.00 L 59482245.00 61311966.00 L 59482245.00 61696341.00 L 59694120.00 61693716.00  zM 59533245.00 61653966.00 L 59533245.00 61526466.00 L 59647995.00 61526466.00 L 59670870.00 61528341.00 L 59697495.00 61533966.00 L 59717370.00 61546341.00 L 59726745.00 61557216.00 L 59733495.00 61572216.00 L 59736870.00 61591341.00 L 59734245.00 61607091.00 L 59726370.00 61625841.00 L 59713245.00 61638966.00 L 59692995.00 61648341.00 L 59669745.00 61653216.00 L 59533245.00 61653966.00  z"/>
<path id="N" d="M 39856588.00 61696903.00 L 39892963.00 61689028.00 L 39915088.00 61675528.00 L 39929338.00 61661278.00 L 39940963.00 61642153.00 L 39949213.00 61617028.00 L 39951838.00 61594153.00 L 39946963.00 61565278.00 L 39937588.00 61542403.00 L 39925213.00 61525528.00 L 39909838.00 61513528.00 L 39879463.00 61498528.00 L 39844213.00 61489528.00 L 39846838.00 61488403.00 L 39875338.00 61470028.00 L 39908713.00 61430278.00 L 39982588.00 61315153.00 L 39919213.00 61315153.00 L 39867838.00 61395403.00 L 39837088.00 61440403.00 L 39814588.00 61466278.00 L 39795088.00 61479403.00 L 39778963.00 61484653.00 L 39695713.00 61485778.00 L 39695713.00 61315153.00 L 39644713.00 61315153.00 L 39644713.00 61699528.00 L 39856588.00 61696903.00  zM 39695713.00 61657153.00 L 39695713.00 61529653.00 L 39810463.00 61529653.00 L 39833338.00 61531528.00 L 39859963.00 61537153.00 L 39879838.00 61549528.00 L 39889213.00 61560403.00 L 39895963.00 61575403.00 L 39899338.00 61594528.00 L 39896713.00 61610278.00 L 39888838.00 61629028.00 L 39875713.00 61642153.00 L 39855463.00 61651528.00 L 39832213.00 61656403.00 L 39695713.00 61657153.00  z"/>
<path id="N" d="M 51756963.00 61696903.00 L 51793338.00 61689028.00 L 51815463.00 61675528.00 L 51829713.00 61661278.00 L 51841338.00 61642153.00 L 51849588.00 61617028.00 L 51852213.00 61594153.00 L 51847338.00 61565278.00 L 51837963.00 61542403.00 L 51825588.00 61525528.00 L 51810213.00 61513528.00 L 51779838.00 61498528.00 L 51744588.00 61489528.00 L 51747213.00 61488403.00 L 51775713.00 61470028.00 L 51809088.00 61430278.00 L 51882963.00 61315153.00 L 51819588.00 61315153.00 L 51768213.00 61395403.00 L 51737463.00 61440403.00 L 51714963.00 61466278.00 L 51695463.00 61479403.00 L 51679338.00 61484653.00 L 51596088.00 61485778.00 L 51596088.00 61315153.00 L 51545088.00 61315153.00 L 51545088.00 61699528.00 L 51756963.00 61696903.00  zM 51596088.00 61657153.00 L 51596088.00 61529653.00 L 51710838.00 61529653.00 L 51733713.00 61531528.00 L 51760338.00 61537153.00 L 51780213.00 61549528.00 L 51789588.00 61560403.00 L 51796338.00 61575403.00 L 51799713.00 61594528.00 L 51797088.00 61610278.00 L 51789213.00 61629028.00 L 51776088.00 61642153.00 L 51755838.00 61651528.00 L 51732588.00 61656403.00 L 51596088.00 61657153.00  z"/>
<path id="N" d="M 50056963.00 61694466.00 L 50093338.00 61686591.00 L 50115463.00 61673091.00 L 50129713.00 61658841.00 L 50141338.00 61639716.00 L 50149588.00 61614591.00 L 50152213.00 61591716.00 L 50147338.00 61562841.00 L 50137963.00 61539966.00 L 50125588.00 61523091.00 L 50110213.00 61511091.00 L 50079838.00 61496091.00 L 50044588.00 61487091.00 L 50047213.00 61485966.00 L 50075713.00 61467591.00 L 50109088.00 61427841.00 L 50182963.00 61312716.00 L 50119588.00 61312716.00 L 50068213.00 61392966.00 L 50037463.00 61437966.00 L 50014963.00 61463841.00 L 49995463.00 61476966.00 L 49979338.00 61482216.00 L 49896088.00 61483341.00 L 49896088.00 61312716.00 L 49845088.00 61312716.00 L 49845088.00 61697091.00 L 50056963.00 61694466.00  zM 49896088.00 61654716.00 L 49896088.00 61527216.00 L 50010838.00 61527216.00 L 50033713.00 61529091.00 L 50060338.00 61534716.00 L 50080213.00 61547091.00 L 50089588.00 61557966.00 L 50096338.00 61572966.00 L 50099713.00 61592091.00 L 50097088.00 61607841.00 L 50089213.00 61626591.00 L 50076088.00 61639716.00 L 50055838.00 61649091.00 L 50032588.00 61653966.00 L 49896088.00 61654716.00  z"/>
<path id="N" d="M 48922599.00 60898190.00 L 48931960.00 60875591.00 L 48931960.00 60800000.00 L 48922599.00 60777401.00 L 48900000.00 60768040.00 L 48877401.00 60777401.00 L 48868040.00 60800000.00 L 48868040.00 60843631.00 L 48431960.00 60843631.00 L 48431960.00 60356369.00 L 48868040.00 60356369.00 L 48868040.00 60400000.00 L 48877401.00 60422599.00 L 48900000.00 60431960.00 L 48922599.00 60422599.00 L 48931960.00 60400000.00 L 48931960.00 60324409.00 L 48922599.00 60301810.00 L 48900000.00 60292449.00 L 47900000.00 60292449.00 L 47877401.00 60301810.00 L 47868040.00 60324409.00 L 47868040.00 60400000.00 L 47877401.00 60422599.00 L 47900000.00 60431960.00 L 47922599.00 60422599.00 L 47931960.00 60400000.00 L 47931960.00 60356369.00 L 48368040.00 60356369.00 L 48368040.00 60843631.00 L 47931960.00 60843631.00 L 47931960.00 60800000.00 L 47922599.00 60777401.00 L 47900000.00 60768040.00 L 47877401.00 60777401.00 L 47868040.00 60800000.00 L 47868040.00 60875591.00 L 47877401.00 60898190.00 L 47900000.00 60907551.00 L 48900000.00 60907551.00 L 48922599.00 60898190.00  z"/>
<path id="N" d="M 50622599.00 60898190.00 L 50631960.00 60875591.00 L 50631960.00 60800000.00 L 50622599.00 60777401.00 L 50600000.00 60768040.00 L 50577401.00 60777401.00 L 50568040.00 60800000.00 L 50568040.00 60843631.00 L 50131960.00 60843631.00 L 50131960.00 60356369.00 L 50568040.00 60356369.00 L 50568040.00 60400000.00 L 50577401.00 60422599.00 L 50600000.00 60431960.00 L 50622599.00 60422599.00 L 50631960.00 60400000.00 L 50631960.00 60324409.00 L 50622599.00 60301810.00 L 50600000.00 60292449.00 L 49600000.00 60292449.00 L 49577401.00 60301810.00 L 49568040.00 60324409.00 L 49568040.00 60400000.00 L 49577401.00 60422599.00 L 49600000.00 60431960.00 L 49622599.00 60422599.00 L 49631960.00 60400000.00 L 49631960.00 60356369.00 L 50068040.00 60356369.00 L 50068040.00 60843631.00 L 49631960.00 60843631.00 L 49631960.00 60800000.00 L 49622599.00 60777401.00 L 49600000.00 60768040.00 L 49577401.00 60777401.00 L 49568040.00 60800000.00 L 49568040.00 60875591.00 L 49577401.00 60898190.00 L 49600000.00 60907551.00 L 50600000.00 60907551.00 L 50622599.00 60898190.00  z"/>
<path id="N" d="M 44798190.00 44273780.00 L 44807551.00 44251181.00 L 44807551.00 43148819.00 L 44798190.00 43126220.00 L 44775591.00 43116859.00 L 44657480.00 43116859.00 L 44634881.00 43126220.00 L 44625520.00 43148819.00 L 44634881.00 43171418.00 L 44657480.00 43180779.00 L 44743631.00 43180779.00 L 44743631.00 43668040.00 L 44256369.00 43668040.00 L 44256369.00 43180779.00 L 44342520.00 43180779.00 L 44365119.00 43171418.00 L 44374480.00 43148819.00 L 44365119.00 43126220.00 L 44342520.00 43116859.00 L 44224409.00 43116859.00 L 44201810.00 43126220.00 L 44192449.00 43148819.00 L 44192449.00 44251181.00 L 44201810.00 44273780.00 L 44224409.00 44283141.00 L 44342520.00 44283141.00 L 44365119.00 44273780.00 L 44374480.00 44251181.00 L 44365119.00 44228582.00 L 44342520.00 44219221.00 L 44256369.00 44219221.00 L 44256369.00 43731960.00 L 44743631.00 43731960.00 L 44743631.00 44219221.00 L 44657480.00 44219221.00 L 44634881.00 44228582.00 L 44625520.00 44251181.00 L 44634881.00 44273780.00 L 44657480.00 44283141.00 L 44775591.00 44283141.00 L 44798190.00 44273780.00  z"/>
<path id="N" d="M 44798190.00 48173780.00 L 44807551.00 48151181.00 L 44807551.00 47048819.00 L 44798190.00 47026220.00 L 44775591.00 47016859.00 L 44657480.00 47016859.00 L 44634881.00 47026220.00 L 44625520.00 47048819.00 L 44634881.00 47071418.00 L 44657480.00 47080779.00 L 44743631.00 47080779.00 L 44743631.00 47568040.00 L 44256369.00 47568040.00 L 44256369.00 47080779.00 L 44342520.00 47080779.00 L 44365119.00 47071418.00 L 44374480.00 47048819.00 L 44365119.00 47026220.00 L 44342520.00 47016859.00 L 44224409.00 47016859.00 L 44201810.00 47026220.00 L 44192449.00 47048819.00 L 44192449.00 48151181.00 L 44201810.00 48173780.00 L 44224409.00 48183141.00 L 44342520.00 48183141.00 L 44365119.00 48173780.00 L 44374480.00 48151181.00 L 44365119.00 48128582.00 L 44342520.00 48119221.00 L 44256369.00 48119221.00 L 44256369.00 47631960.00 L 44743631.00 47631960.00 L 44743631.00 48119221.00 L 44657480.00 48119221.00 L 44634881.00 48128582.00 L 44625520.00 48151181.00 L 44634881.00 48173780.00 L 44657480.00 48183141.00 L 44775591.00 48183141.00 L 44798190.00 48173780.00  z"/>
<path id="N" d="M 52322599.00 60898190.00 L 52331960.00 60875591.00 L 52331960.00 60800000.00 L 52322599.00 60777401.00 L 52300000.00 60768040.00 L 52277401.00 60777401.00 L 52268040.00 60800000.00 L 52268040.00 60843631.00 L 51831960.00 60843631.00 L 51831960.00 60356369.00 L 52268040.00 60356369.00 L 52268040.00 60400000.00 L 52277401.00 60422599.00 L 52300000.00 60431960.00 L 52322599.00 60422599.00 L 52331960.00 60400000.00 L 52331960.00 60324409.00 L 52322599.00 60301810.00 L 52300000.00 60292449.00 L 51300000.00 60292449.00 L 51277401.00 60301810.00 L 51268040.00 60324409.00 L 51268040.00 60400000.00 L 51277401.00 60422599.00 L 51300000.00 60431960.00 L 51322599.00 60422599.00 L 51331960.00 60400000.00 L 51331960.00 60356369.00 L 51768040.00 60356369.00 L 51768040.00 60843631.00 L 51331960.00 60843631.00 L 51331960.00 60800000.00 L 51322599.00 60777401.00 L 51300000.00 60768040.00 L 51277401.00 60777401.00 L 51268040.00 60800000.00 L 51268040.00 60875591.00 L 51277401.00 60898190.00 L 51300000.00 60907551.00 L 52300000.00 60907551.00 L 52322599.00 60898190.00  z"/>
<path id="N" d="M 54022599.00 60898190.00 L 54031960.00 60875591.00 L 54031960.00 60800000.00 L 54022599.00 60777401.00 L 54000000.00 60768040.00 L 53977401.00 60777401.00 L 53968040.00 60800000.00 L 53968040.00 60843631.00 L 53531960.00 60843631.00 L 53531960.00 60356369.00 L 53968040.00 60356369.00 L 53968040.00 60400000.00 L 53977401.00 60422599.00 L 54000000.00 60431960.00 L 54022599.00 60422599.00 L 54031960.00 60400000.00 L 54031960.00 60324409.00 L 54022599.00 60301810.00 L 54000000.00 60292449.00 L 53000000.00 60292449.00 L 52977401.00 60301810.00 L 52968040.00 60324409.00 L 52968040.00 60400000.00 L 52977401.00 60422599.00 L 53000000.00 60431960.00 L 53022599.00 60422599.00 L 53031960.00 60400000.00 L 53031960.00 60356369.00 L 53468040.00 60356369.00 L 53468040.00 60843631.00 L 53031960.00 60843631.00 L 53031960.00 60800000.00 L 53022599.00 60777401.00 L 53000000.00 60768040.00 L 52977401.00 60777401.00 L 52968040.00 60800000.00 L 52968040.00 60875591.00 L 52977401.00 60898190.00 L 53000000.00 60907551.00 L 54000000.00 60907551.00 L 54022599.00 60898190.00  z"/>
<path id="N" d="M 44798190.00 40373780.00 L 44807551.00 40351181.00 L 44807551.00 39248819.00 L 44798190.00 39226220.00 L 44775591.00 39216859.00 L 44657480.00 39216859.00 L 44634881.00 39226220.00 L 44625520.00 39248819.00 L 44634881.00 39271418.00 L 44657480.00 39280779.00 L 44743631.00 39280779.00 L 44743631.00 39768040.00 L 44256369.00 39768040.00 L 44256369.00 39280779.00 L 44342520.00 39280779.00 L 44365119.00 39271418.00 L 44374480.00 39248819.00 L 44365119.00 39226220.00 L 44342520.00 39216859.00 L 44224409.00 39216859.00 L 44201810.00 39226220.00 L 44192449.00 39248819.00 L 44192449.00 40351181.00 L 44201810.00 40373780.00 L 44224409.00 40383141.00 L 44342520.00 40383141.00 L 44365119.00 40373780.00 L 44374480.00 40351181.00 L 44365119.00 40328582.00 L 44342520.00 40319221.00 L 44256369.00 40319221.00 L 44256369.00 39831960.00 L 44743631.00 39831960.00 L 44743631.00 40319221.00 L 44657480.00 40319221.00 L 44634881.00 40328582.00 L 44625520.00 40351181.00 L 44634881.00 40373780.00 L 44657480.00 40383141.00 L 44775591.00 40383141.00 L 44798190.00 40373780.00  z"/>
<path id="N" d="M 47222599.00 60898190.00 L 47231960.00 60875591.00 L 47231960.00 60800000.00 L 47222599.00 60777401.00 L 47200000.00 60768040.00 L 47177401.00 60777401.00 L 47168040.00 60800000.00 L 47168040.00 60843631.00 L 46731960.00 60843631.00 L 46731960.00 60356369.00 L 47168040.00 60356369.00 L 47168040.00 60400000.00 L 47177401.00 60422599.00 L 47200000.00 60431960.00 L 47222599.00 60422599.00 L 47231960.00 60400000.00 L 47231960.00 60324409.00 L 47222599.00 60301810.00 L 47200000.00 60292449.00 L 46200000.00 60292449.00 L 46177401.00 60301810.00 L 46168040.00 60324409.00 L 46168040.00 60400000.00 L 46177401.00 60422599.00 L 46200000.00 60431960.00 L 46222599.00 60422599.00 L 46231960.00 60400000.00 L 46231960.00 60356369.00 L 46668040.00 60356369.00 L 46668040.00 60843631.00 L 46231960.00 60843631.00 L 46231960.00 60800000.00 L 46222599.00 60777401.00 L 46200000.00 60768040.00 L 46177401.00 60777401.00 L 46168040.00 60800000.00 L 46168040.00 60875591.00 L 46177401.00 60898190.00 L 46200000.00 60907551.00 L 47200000.00 60907551.00 L 47222599.00 60898190.00  z"/>
<path id="N" d="M 40422599.00 60898190.00 L 40431960.00 60875591.00 L 40431960.00 60800000.00 L 40422599.00 60777401.00 L 40400000.00 60768040.00 L 40377401.00 60777401.00 L 40368040.00 60800000.00 L 40368040.00 60843631.00 L 39931960.00 60843631.00 L 39931960.00 60356369.00 L 40368040.00 60356369.00 L 40368040.00 60400000.00 L 40377401.00 60422599.00 L 40400000.00 60431960.00 L 40422599.00 60422599.00 L 40431960.00 60400000.00 L 40431960.00 60324409.00 L 40422599.00 60301810.00 L 40400000.00 60292449.00 L 39400000.00 60292449.00 L 39377401.00 60301810.00 L 39368040.00 60324409.00 L 39368040.00 60400000.00 L 39377401.00 60422599.00 L 39400000.00 60431960.00 L 39422599.00 60422599.00 L 39431960.00 60400000.00 L 39431960.00 60356369.00 L 39868040.00 60356369.00 L 39868040.00 60843631.00 L 39431960.00 60843631.00 L 39431960.00 60800000.00 L 39422599.00 60777401.00 L 39400000.00 60768040.00 L 39377401.00 60777401.00 L 39368040.00 60800000.00 L 39368040.00 60875591.00 L 39377401.00 60898190.00 L 39400000.00 60907551.00 L 40400000.00 60907551.00 L 40422599.00 60898190.00  z"/>
<path id="N" d="M 60322599.00 60898190.00 L 60331960.00 60875591.00 L 60331960.00 60800000.00 L 60322599.00 60777401.00 L 60300000.00 60768040.00 L 60277401.00 60777401.00 L 60268040.00 60800000.00 L 60268040.00 60843631.00 L 59831960.00 60843631.00 L 59831960.00 60356369.00 L 60268040.00 60356369.00 L 60268040.00 60400000.00 L 60277401.00 60422599.00 L 60300000.00 60431960.00 L 60322599.00 60422599.00 L 60331960.00 60400000.00 L 60331960.00 60324409.00 L 60322599.00 60301810.00 L 60300000.00 60292449.00 L 59300000.00 60292449.00 L 59277401.00 60301810.00 L 59268040.00 60324409.00 L 59268040.00 60400000.00 L 59277401.00 60422599.00 L 59300000.00 60431960.00 L 59322599.00 60422599.00 L 59331960.00 60400000.00 L 59331960.00 60356369.00 L 59768040.00 60356369.00 L 59768040.00 60843631.00 L 59331960.00 60843631.00 L 59331960.00 60800000.00 L 59322599.00 60777401.00 L 59300000.00 60768040.00 L 59277401.00 60777401.00 L 59268040.00 60800000.00 L 59268040.00 60875591.00 L 59277401.00 60898190.00 L 59300000.00 60907551.00 L 60300000.00 60907551.00 L 60322599.00 60898190.00  z"/>
<path id="N" d="M 58622599.00 60898190.00 L 58631960.00 60875591.00 L 58631960.00 60800000.00 L 58622599.00 60777401.00 L 58600000.00 60768040.00 L 58577401.00 60777401.00 L 58568040.00 60800000.00 L 58568040.00 60843631.00 L 58131960.00 60843631.00 L 58131960.00 60356369.00 L 58568040.00 60356369.00 L 58568040.00 60400000.00 L 58577401.00 60422599.00 L 58600000.00 60431960.00 L 58622599.00 60422599.00 L 58631960.00 60400000.00 L 58631960.00 60324409.00 L 58622599.00 60301810.00 L 58600000.00 60292449.00 L 57600000.00 60292449.00 L 57577401.00 60301810.00 L 57568040.00 60324409.00 L 57568040.00 60400000.00 L 57577401.00 60422599.00 L 57600000.00 60431960.00 L 57622599.00 60422599.00 L 57631960.00 60400000.00 L 57631960.00 60356369.00 L 58068040.00 60356369.00 L 58068040.00 60843631.00 L 57631960.00 60843631.00 L 57631960.00 60800000.00 L 57622599.00 60777401.00 L 57600000.00 60768040.00 L 57577401.00 60777401.00 L 57568040.00 60800000.00 L 57568040.00 60875591.00 L 57577401.00 60898190.00 L 57600000.00 60907551.00 L 58600000.00 60907551.00 L 58622599.00 60898190.00  z"/>
<path id="N" d="M 65725929.00 48188028.00 A 143761.85 143761.85 0 0 0 65814804.00 48155778.00 L 65827929.00 48142278.00 L 65850054.00 48111528.00 L 65863554.00 48079653.00 L 65872929.00 48035403.00 L 65874804.00 47983653.00 L 65868054.00 47934528.00 L 65860554.00 47909403.00 L 65844054.00 47874153.00 L 65828304.00 47852778.00 L 65802804.00 47830278.00 L 65784054.00 47820528.00 L 65757429.00 47811528.00 L 65720304.00 47806278.00 L 65557179.00 47805153.00 L 65557179.00 48189528.00 L 65725929.00 48188028.00  zM 65608179.00 48144153.00 L 65608179.00 47850528.00 L 65711679.00 47851278.00 L 65749554.00 47857278.00 L 65773179.00 47868903.00 L 65790429.00 47884653.00 L 65808429.00 47915028.00 L 65815929.00 47937903.00 L 65822304.00 47984403.00 L 65821179.00 48027153.00 L 65812179.00 48071778.00 L 65802429.00 48092778.00 L 65782179.00 48117528.00 L 65764554.00 48131028.00 L 65752179.00 48137028.00 L 65718054.00 48143028.00 L 65608179.00 48144153.00  z"/>
<path id="N" d="M 62835338.00 61764841.00 A 143761.85 143761.85 0 0 0 62924213.00 61732591.00 L 62937338.00 61719091.00 L 62959463.00 61688341.00 L 62972963.00 61656466.00 L 62982338.00 61612216.00 L 62984213.00 61560466.00 L 62977463.00 61511341.00 L 62969963.00 61486216.00 L 62953463.00 61450966.00 L 62937713.00 61429591.00 L 62912213.00 61407091.00 L 62893463.00 61397341.00 L 62866838.00 61388341.00 L 62829713.00 61383091.00 L 62666588.00 61381966.00 L 62666588.00 61766341.00 L 62835338.00 61764841.00  zM 62717588.00 61720966.00 L 62717588.00 61427341.00 L 62821088.00 61428091.00 L 62858963.00 61434091.00 L 62882588.00 61445716.00 L 62899838.00 61461466.00 L 62917838.00 61491841.00 L 62925338.00 61514716.00 L 62931713.00 61561216.00 L 62930588.00 61603966.00 L 62921588.00 61648591.00 L 62911838.00 61669591.00 L 62891588.00 61694341.00 L 62873963.00 61707841.00 L 62861588.00 61713841.00 L 62827463.00 61719841.00 L 62717588.00 61720966.00  z"/>
<path id="N" d="M 46663086.00 36684841.00 A 143761.85 143761.85 0 0 0 46751961.00 36652591.00 L 46765086.00 36639091.00 L 46787211.00 36608341.00 L 46800711.00 36576466.00 L 46810086.00 36532216.00 L 46811961.00 36480466.00 L 46805211.00 36431341.00 L 46797711.00 36406216.00 L 46781211.00 36370966.00 L 46765461.00 36349591.00 L 46739961.00 36327091.00 L 46721211.00 36317341.00 L 46694586.00 36308341.00 L 46657461.00 36303091.00 L 46494336.00 36301966.00 L 46494336.00 36686341.00 L 46663086.00 36684841.00  zM 46545336.00 36640966.00 L 46545336.00 36347341.00 L 46648836.00 36348091.00 L 46686711.00 36354091.00 L 46710336.00 36365716.00 L 46727586.00 36381466.00 L 46745586.00 36411841.00 L 46753086.00 36434716.00 L 46759461.00 36481216.00 L 46758336.00 36523966.00 L 46749336.00 36568591.00 L 46739586.00 36589591.00 L 46719336.00 36614341.00 L 46701711.00 36627841.00 L 46689336.00 36633841.00 L 46655211.00 36639841.00 L 46545336.00 36640966.00  z"/>
<path id="N" d="M 61270433.00 61764841.00 A 143761.85 143761.85 0 0 0 61359308.00 61732591.00 L 61372433.00 61719091.00 L 61394558.00 61688341.00 L 61408058.00 61656466.00 L 61417433.00 61612216.00 L 61419308.00 61560466.00 L 61412558.00 61511341.00 L 61405058.00 61486216.00 L 61388558.00 61450966.00 L 61372808.00 61429591.00 L 61347308.00 61407091.00 L 61328558.00 61397341.00 L 61301933.00 61388341.00 L 61264808.00 61383091.00 L 61101683.00 61381966.00 L 61101683.00 61766341.00 L 61270433.00 61764841.00  zM 61152683.00 61720966.00 L 61152683.00 61427341.00 L 61256183.00 61428091.00 L 61294058.00 61434091.00 L 61317683.00 61445716.00 L 61334933.00 61461466.00 L 61352933.00 61491841.00 L 61360433.00 61514716.00 L 61366808.00 61561216.00 L 61365683.00 61603966.00 L 61356683.00 61648591.00 L 61346933.00 61669591.00 L 61326683.00 61694341.00 L 61309058.00 61707841.00 L 61296683.00 61713841.00 L 61262558.00 61719841.00 L 61152683.00 61720966.00  z"/>
<path id="N" d="M 65727991.00 40184841.00 A 143761.85 143761.85 0 0 0 65816866.00 40152591.00 L 65829991.00 40139091.00 L 65852116.00 40108341.00 L 65865616.00 40076466.00 L 65874991.00 40032216.00 L 65876866.00 39980466.00 L 65870116.00 39931341.00 L 65862616.00 39906216.00 L 65846116.00 39870966.00 L 65830366.00 39849591.00 L 65804866.00 39827091.00 L 65786116.00 39817341.00 L 65759491.00 39808341.00 L 65722366.00 39803091.00 L 65559241.00 39801966.00 L 65559241.00 40186341.00 L 65727991.00 40184841.00  zM 65610241.00 40140966.00 L 65610241.00 39847341.00 L 65713741.00 39848091.00 L 65751616.00 39854091.00 L 65775241.00 39865716.00 L 65792491.00 39881466.00 L 65810491.00 39911841.00 L 65817991.00 39934716.00 L 65824366.00 39981216.00 L 65823241.00 40023966.00 L 65814241.00 40068591.00 L 65804491.00 40089591.00 L 65784241.00 40114341.00 L 65766616.00 40127841.00 L 65754241.00 40133841.00 L 65720116.00 40139841.00 L 65610241.00 40140966.00  z"/>
<path id="N" d="M 67534776.41 39848926.00 L 67734709.00 39848926.00 L 67772978.00 39833075.00 L 67872946.00 39733107.00 L 67888797.00 39694835.59 L 67888797.00 39294968.00 L 67872946.00 39256699.00 L 67772978.00 39156731.00 L 67734706.59 39140880.00 L 67534774.00 39140880.00 L 67496505.00 39156731.00 L 67396537.00 39256699.00 A 54119.43 54119.43 0 0 0 67473075.00 39333237.00 L 67557192.00 39249120.00 L 67712291.00 39249120.00 L 67780557.00 39317386.00 L 67780557.00 39440783.00 L 67534774.00 39440783.00 L 67496505.00 39456634.00 L 67396537.00 39556602.00 L 67380686.00 39594873.41 L 67380686.00 39694838.00 L 67396537.00 39733107.00 L 67496505.00 39833075.00 L 67534776.41 39848926.00  zM 67712291.00 39740686.00 L 67557192.00 39740686.00 L 67488926.00 39672420.00 L 67488926.00 39617289.00 L 67557192.00 39549023.00 L 67780557.00 39549023.00 L 67780557.00 39672420.00 L 67712291.00 39740686.00  z"/>
<path id="N" d="M 49108125.00 49589374.80 L 49133750.00 49578124.80 L 49159375.00 49561249.80 L 49175000.00 49544999.81 L 49188125.01 49520624.81 L 49198750.01 49486874.81 L 49202500.01 49445624.81 L 49203125.04 49124999.81 L 49124375.04 49124999.80 L 49124375.02 49403749.80 L 49120000.01 49466249.80 L 49108750.01 49491874.80 L 49096875.01 49508124.80 L 49079375.01 49520624.80 A 111862.15 111862.15 0 0 1 48986875.01 49524999.79 L 48963750.01 49514374.79 L 48946250.01 49501249.79 L 48925000.01 49476249.78 L 48916250.01 49455624.78 L 48910625.01 49429374.78 L 48906875.02 49394999.78 L 48906250.04 49124999.78 L 48827500.04 49124999.78 L 48827500.00 49589374.78 L 48898125.00 49589374.78 L 48898750.01 49522499.78 L 48913750.00 49539999.78 L 48936875.00 49560624.78 L 48970000.00 49581874.79 L 49011875.00 49596874.79 L 49028125.00 49599374.79 L 49070000.00 49598124.80 L 49108125.00 49589374.80  z"/>
<path id="N" d="M 46939401.00 53716778.00 L 46937151.00 53677028.00 L 46928526.00 53632028.00 L 46920276.00 53613278.00 L 46900776.00 53587403.00 L 46878276.00 53569403.00 L 46848651.00 53557403.00 L 46808901.00 53549528.00 L 46770276.00 53549903.00 L 46729026.00 53556653.00 L 46700151.00 53567528.00 L 46685526.00 53577653.00 A 114095.41 114095.41 0 0 0 46643151.00 53653028.00 L 46637901.00 53695778.00 L 46637151.00 53939528.00 L 46688151.00 53939528.00 L 46688151.00 53717153.00 L 46690401.00 53677403.00 L 46695651.00 53648528.00 L 46704651.00 53630153.00 L 46721151.00 53612528.00 L 46733151.00 53605403.00 L 46762026.00 53596403.00 L 46789776.00 53594528.00 L 46828776.00 53600528.00 L 46848276.00 53608028.00 L 46864401.00 53619653.00 L 46876401.00 53641403.00 L 46884651.00 53671778.00 L 46888026.00 53704403.00 L 46888401.00 53939528.00 L 46939401.00 53939528.00 L 46939401.00 53716778.00  z"/>
<path id="N" d="M 71458880.00 39746400.00 L 71266801.94 39650360.97 L 71165463.46 39549023.00 L 71334709.00 39549023.00 L 71372978.00 39533172.00 L 71472946.00 39433204.00 L 71488797.00 39394932.59 L 71488797.00 39294968.00 L 71472946.00 39256699.00 L 71372978.00 39156731.00 L 71334706.59 39140880.00 L 71134774.00 39140880.00 L 71096505.00 39156731.00 L 70996537.00 39256699.00 L 70980686.00 39294970.41 L 70980685.00 39494903.00 L 70996538.71 39533172.71 L 71196472.00 39733107.00 L 71204701.86 39736516.02 L 71210538.00 39743245.00 L 71410474.00 39843212.00 A 54118.07 54118.07 0 0 0 71458880.00 39746400.00  zM 71312291.00 39440783.00 L 71088926.00 39440783.00 L 71088926.00 39317386.00 L 71157192.00 39249120.00 L 71312291.00 39249120.00 L 71380557.00 39317386.00 L 71380557.00 39372517.00 L 71312291.00 39440783.00  z"/>
<path id="N" d="M 49730000.04 49186249.85 L 49799375.04 49186249.86 L 49799375.04 49124999.86 L 49730000.04 49124999.85 L 49730000.04 49075624.85 L 49728750.05 49049999.85 L 49724375.05 49016249.85 L 49716875.05 48996249.85 L 49700000.05 48973124.85 L 49681875.06 48957499.85 L 49661250.06 48947499.85 L 49620000.06 48938749.84 L 49601875.06 48938124.84 L 49568750.06 48939999.84 L 49528125.06 48946249.84 L 49540000.05 49014374.84 L 49544375.05 49013749.84 L 49586250.05 49009999.84 L 49614375.05 49013749.84 L 49630625.05 49020624.85 L 49637500.05 49026249.85 L 49644375.05 49038124.85 L 49651250.05 49068124.85 L 49651875.04 49124999.85 L 49561250.04 49124999.84 L 49561250.04 49186249.84 L 49651250.04 49186249.85 L 49651250.00 49589374.85 L 49730000.00 49589374.85 L 49730000.04 49186249.85  z"/>
<path id="N" d="M 70834871.00 39740686.00 L 70789023.00 39740686.00 L 70789024.00 39294968.00 L 70773172.00 39256699.00 L 70673204.00 39156731.00 L 70634935.00 39140880.00 L 70534968.00 39140879.00 L 70496699.00 39156731.00 L 70396731.00 39256699.00 A 54121.84 54121.84 0 0 0 70473269.00 39333237.00 L 70557386.00 39249120.00 L 70612517.00 39249120.00 L 70680783.00 39317386.00 L 70680783.00 39740686.00 L 70634935.00 39740686.00 A 54118.70 54118.70 0 1 0 70634935.00 39848926.00 L 70834871.00 39848926.00 A 54121.84 54121.84 0 0 0 70834871.00 39740686.00  z"/>
<path id="N" d="M 71545895.00 49471319.00 L 71500047.00 49471319.00 L 71500048.00 49025601.00 L 71484196.00 48987332.00 L 71384228.00 48887364.00 L 71345959.00 48871513.00 L 71245992.00 48871512.00 L 71207723.00 48887364.00 L 71107755.00 48987332.00 A 54121.84 54121.84 0 0 0 71184293.00 49063870.00 L 71268410.00 48979753.00 L 71323541.00 48979753.00 L 71391807.00 49048019.00 L 71391807.00 49471319.00 L 71345959.00 49471319.00 A 54118.70 54118.70 0 0 0 71345959.00 49579559.00 L 71545895.00 49579559.00 A 54121.84 54121.84 0 0 0 71545895.00 49471319.00  z"/>
<path id="N" d="M 67234871.00 39740686.00 L 67189023.00 39740686.00 L 67189024.00 39294968.00 L 67173172.00 39256699.00 L 67073204.00 39156731.00 L 67034935.00 39140880.00 L 66934968.00 39140879.00 L 66896699.00 39156731.00 L 66796731.00 39256699.00 A 54121.84 54121.84 0 1 0 66873269.00 39333237.00 L 66957386.00 39249120.00 L 67012517.00 39249120.00 L 67080783.00 39317386.00 L 67080783.00 39740686.00 L 67034935.00 39740686.00 A 54118.70 54118.70 0 1 0 67034935.00 39848926.00 L 67234871.00 39848926.00 A 54121.84 54121.84 0 0 0 67234871.00 39740686.00  z"/>
<path id="N" d="M 48428125.00 49589999.74 L 48448750.00 49582499.74 L 48467500.00 49567499.74 L 48481875.00 49546874.74 L 48485000.00 49536249.75 L 48490625.01 49488749.75 L 48491250.04 49186249.75 L 48549375.04 49186249.75 L 48549375.04 49124999.75 L 48491250.04 49124999.75 L 48491250.05 49010624.75 L 48412500.05 48963124.74 L 48412500.04 49124999.74 L 48333750.04 49124999.73 L 48333750.04 49186249.73 L 48412500.04 49186249.74 L 48412500.01 49459999.74 L 48410000.01 49496874.74 L 48405625.01 49507499.74 L 48394375.01 49516874.74 L 48374375.01 49522499.74 L 48333750.01 49519374.73 L 48322500.00 49588749.73 L 48361875.00 49594374.73 L 48428125.00 49589999.74  z"/>
<path id="N" d="M 49500625.04 49124999.83 L 49430000.04 49124999.83 L 49429375.03 49194999.83 L 49406250.04 49158124.83 L 49384375.04 49133749.82 L 49365000.04 49122499.82 L 49339375.04 49114999.82 L 49314375.04 49115624.82 L 49278125.04 49124999.81 L 49248125.04 49139999.81 L 49276250.03 49213124.81 L 49281250.03 49210624.81 L 49312500.03 49198124.82 L 49333750.03 49195624.82 L 49349375.03 49197499.82 L 49371875.03 49206249.82 L 49386875.03 49217499.82 L 49401250.03 49236249.83 L 49409375.03 49254999.83 L 49415625.03 49281249.83 L 49421250.02 49328124.83 L 49421875.00 49589374.83 L 49500625.00 49589374.83 L 49500625.04 49124999.83  z"/>
<path id="N" d="M 58260054.00 46914385.00 L 58272535.00 46884252.00 L 58272535.00 44915748.00 L 58260054.00 44885615.00 L 58229921.00 44873134.00 L 56970079.00 44873134.00 L 56939946.00 44885615.00 L 56927465.00 44915748.00 L 56927465.00 46884252.00 L 56939946.00 46914385.00 L 56970079.00 46926866.00 L 58229921.00 46926866.00 L 58260054.00 46914385.00  zM 58187307.00 46841638.00 L 57202450.80 46841638.00 L 57192594.00 46792083.00 L 57140384.00 46713947.00 L 57062248.00 46661737.00 L 57012693.00 46651880.20 L 57012693.00 44958362.00 L 58187307.00 44958362.00 L 58187307.00 46841638.00  z"/>
<path id="N" d="M 62722599.00 60972599.00 L 62731960.00 60950000.00 L 62731960.00 60900000.00 L 62722599.00 60877401.00 L 62700000.00 60868040.00 L 62431960.00 60868040.00 L 62431960.00 59081960.00 L 62534252.00 59081960.00 L 62556851.00 59072599.00 L 62566212.00 59050000.00 L 62556851.00 59027401.00 L 62534252.00 59018040.00 L 62400000.00 59018040.00 L 62377401.00 59027401.00 L 62368040.00 59050000.00 L 62368040.00 60950000.00 L 62377401.00 60972599.00 L 62400000.00 60981960.00 L 62700000.00 60981960.00 L 62722599.00 60972599.00  z"/>
<path id="N" d="M 63222599.00 60972599.00 L 63231960.00 60950000.00 L 63231960.00 59050000.00 L 63222599.00 59027401.00 L 63200000.00 59018040.00 L 63065748.00 59018040.00 L 63043149.00 59027401.00 L 63033788.00 59050000.00 L 63043149.00 59072599.00 L 63065748.00 59081960.00 L 63168040.00 59081960.00 L 63168040.00 60868040.00 L 62900000.00 60868040.00 L 62877401.00 60877401.00 L 62868040.00 60900000.00 L 62868040.00 60950000.00 L 62877401.00 60972599.00 L 62900000.00 60981960.00 L 63200000.00 60981960.00 L 63222599.00 60972599.00  z"/>
<path id="N" d="M 61222599.00 60972599.00 L 61231960.00 60950000.00 L 61231960.00 60900000.00 L 61222599.00 60877401.00 L 61200000.00 60868040.00 L 60931960.00 60868040.00 L 60931960.00 59081960.00 L 61034252.00 59081960.00 L 61056851.00 59072599.00 L 61066212.00 59050000.00 L 61056851.00 59027401.00 L 61034252.00 59018040.00 L 60900000.00 59018040.00 L 60877401.00 59027401.00 L 60868040.00 59050000.00 L 60868040.00 60950000.00 L 60877401.00 60972599.00 L 60900000.00 60981960.00 L 61200000.00 60981960.00 L 61222599.00 60972599.00  z"/>
<path id="N" d="M 61722599.00 60972599.00 L 61731960.00 60950000.00 L 61731960.00 59050000.00 L 61722599.00 59027401.00 L 61700000.00 59018040.00 L 61565748.00 59018040.00 L 61543149.00 59027401.00 L 61533788.00 59050000.00 L 61543149.00 59072599.00 L 61565748.00 59081960.00 L 61668040.00 59081960.00 L 61668040.00 60868040.00 L 61400000.00 60868040.00 L 61377401.00 60877401.00 L 61368040.00 60900000.00 L 61368040.00 60950000.00 L 61377401.00 60972599.00 L 61400000.00 60981960.00 L 61700000.00 60981960.00 L 61722599.00 60972599.00  z"/>
<path id="N" d="M 50464213.00 61655091.00 L 50458213.00 61648341.00 L 50418088.00 61594716.00 L 50388088.00 61544841.00 L 50352838.00 61467966.00 L 50335963.00 61417716.00 L 50325463.00 61371216.00 L 50317963.00 61312716.00 L 50269588.00 61313091.00 L 50274088.00 61359216.00 L 50287963.00 61424841.00 L 50310463.00 61490841.00 L 50336338.00 61546716.00 L 50377963.00 61613841.00 L 50403838.00 61646841.00 L 50215963.00 61646841.00 L 50215963.00 61692216.00 L 50464588.00 61692216.00 L 50464213.00 61655091.00  z"/>
<path id="N" d="M 56537006.47 46984644.47 m -100354.75 0 a 100354.75 100354.75 0 1 1 200709.51 0a 100354.75 100354.75 0 1 1 -200709.51 0"/>
<path id="N" d="M 53454120.00 53100000.00 L 53454120.00 46600000.00 L 53438269.00 46561731.00 L 53400000.00 46545880.00 L 46400000.00 46545880.00 L 46361731.00 46561731.00 L 46345880.00 46600000.00 L 46345880.00 53100000.00 L 46361731.00 53138269.00 L 46400000.00 53154120.00 L 53400000.00 53154120.00 L 53438269.00 53138269.00 L 53454120.00 53100000.00  zM 53345880.00 53045880.00 L 46454120.00 53045880.00 L 46454120.00 46654120.00 L 53345880.00 46654120.00 L 53345880.00 53045880.00  z"/>
<path id="N" d="M 43270290.00 48889976.00 L 43282771.00 48859843.00 L 43282771.00 46350000.00 L 43270290.00 46319867.00 L 43240157.00 46307386.00 L 40759843.00 46307386.00 L 40729710.00 46319867.00 L 40717229.00 46350000.00 L 40717229.00 48859843.00 L 40729710.00 48889976.00 L 40759843.00 48902457.00 L 43240157.00 48902457.00 L 43270290.00 48889976.00  zM 43197543.00 48817229.00 L 40802457.00 48817229.00 L 40802457.00 46392614.00 L 43197543.00 46392614.00 L 43197543.00 48817229.00  z"/>
<path id="N" d="M 43270290.00 41089976.00 L 43282771.00 41059843.00 L 43282771.00 38550000.00 L 43270290.00 38519867.00 L 43240157.00 38507386.00 L 40759843.00 38507386.00 L 40729710.00 38519867.00 L 40717229.00 38550000.00 L 40717229.00 41059843.00 L 40729710.00 41089976.00 L 40759843.00 41102457.00 L 43240157.00 41102457.00 L 43270290.00 41089976.00  zM 43197543.00 41017229.00 L 40802457.00 41017229.00 L 40802457.00 38592614.00 L 43197543.00 38592614.00 L 43197543.00 41017229.00  z"/>
<path id="N" d="M 43270290.00 44989976.00 L 43282771.00 44959843.00 L 43282771.00 42450000.00 L 43270290.00 42419867.00 L 43240157.00 42407386.00 L 40759843.00 42407386.00 L 40729710.00 42419867.00 L 40717229.00 42450000.00 L 40717229.00 44959843.00 L 40729710.00 44989976.00 L 40759843.00 45002457.00 L 43240157.00 45002457.00 L 43270290.00 44989976.00  zM 43197543.00 44917229.00 L 40802457.00 44917229.00 L 40802457.00 42492614.00 L 43197543.00 42492614.00 L 43197543.00 44917229.00  z"/>
<path id="N" d="M 53812088.00 61447716.00 L 53863838.00 61447716.00 L 53863838.00 61404591.00 L 53812088.00 61404591.00 L 53812088.00 61312716.00 L 53764838.00 61312716.00 L 53764838.00 61404591.00 L 53597963.00 61404591.00 L 53597963.00 61447716.00 L 53773463.00 61697091.00 L 53812088.00 61697091.00 L 53812088.00 61447716.00  zM 53764838.00 61621341.00 L 53644088.00 61447716.00 L 53764838.00 61447716.00 L 53764838.00 61621341.00  z"/>
<path id="N" d="M 51400000.06 49948750.00 L 51272500.06 49948749.99 L 51120625.02 50403124.98 L 51090000.01 50496874.97 L 50901875.06 49948749.96 L 50787500.06 49948749.95 L 50787500.00 50589374.95 L 50869375.00 50589374.95 L 50869375.05 50053124.95 L 51056250.00 50589374.97 L 51132500.00 50589374.98 L 51318125.05 50043749.99 L 51318125.00 50589374.99 L 51400000.00 50589375.00 L 51400000.06 49948750.00  z"/>
<path id="N" d="M 51155000.06 48948749.98 L 51063125.06 48948749.97 L 50801250.00 49589374.95 L 50897500.00 49589374.96 L 50971875.02 49395624.96 L 51240625.02 49395624.99 L 51310625.00 49589374.99 L 51400000.00 49589375.00 L 51155000.06 48948749.98  zM 51216875.02 49326874.98 L 50998125.02 49326874.96 L 51065625.04 49149374.97 L 51111250.05 49016874.97 L 51120000.05 49054374.98 L 51145625.04 49138749.98 L 51216875.02 49326874.98  z"/>
<path id="N" d="M 44765124.98 44542625.10 L 44816874.98 44542625.11 L 44816874.98 44499500.11 L 44765124.98 44499500.10 L 44765125.00 44407625.10 L 44717875.00 44407625.09 L 44717874.98 44499500.09 L 44550999.98 44499500.06 L 44550999.98 44542625.06 L 44726499.93 44792000.10 L 44765124.93 44792000.10 L 44765124.98 44542625.10  zM 44717874.95 44716250.09 L 44597124.98 44542625.07 L 44717874.98 44542625.09 L 44717874.95 44716250.09  z"/>
<path id="N" d="M 39647471.98 39214433.00 L 39347846.98 39213682.99 L 39353096.98 39207682.99 L 39380471.98 39168307.99 L 39403721.98 39120307.99 L 39357971.98 39120682.99 L 39339221.98 39154432.99 L 39313346.98 39189307.99 L 39288971.98 39212557.98 L 39261596.98 39230932.98 L 39261596.98 39261682.98 L 39647471.98 39261683.00 L 39647471.98 39214433.00  z"/>
<path id="N" d="M 47040711.00 36301966.00 L 46993461.00 36301966.00 L 46992711.00 36601591.00 L 46986711.00 36596341.00 L 46947336.00 36568966.00 L 46899336.00 36545716.00 L 46899711.00 36591466.00 L 46933461.00 36610216.00 L 46968336.00 36636091.00 L 46991586.00 36660466.00 L 47009961.00 36687841.00 L 47040711.00 36687841.00 L 47040711.00 36301966.00  z"/>
<path id="N" d="M 60027495.00 61311966.00 L 59980245.00 61311966.00 L 59979495.00 61611591.00 L 59973495.00 61606341.00 L 59934120.00 61578966.00 L 59886120.00 61555716.00 L 59886495.00 61601466.00 L 59920245.00 61620216.00 L 59955120.00 61646091.00 L 59978370.00 61670466.00 L 59996745.00 61697841.00 L 60027495.00 61697841.00 L 60027495.00 61311966.00  z"/>
<path id="N" d="M 61648058.00 61381966.00 L 61600808.00 61381966.00 L 61600058.00 61681591.00 L 61594058.00 61676341.00 L 61554683.00 61648966.00 L 61506683.00 61625716.00 L 61507058.00 61671466.00 L 61540808.00 61690216.00 L 61575683.00 61716091.00 L 61598933.00 61740466.00 L 61617308.00 61767841.00 L 61648058.00 61767841.00 L 61648058.00 61381966.00  z"/>
<path id="N" d="M 56932058.00 47504153.00 L 56884808.00 47504153.00 L 56884058.00 47803778.00 L 56878058.00 47798528.00 L 56838683.00 47771153.00 L 56790683.00 47747903.00 L 56791058.00 47793653.00 L 56824808.00 47812403.00 L 56859683.00 47838278.00 L 56882933.00 47862653.00 L 56901308.00 47890028.00 L 56932058.00 47890028.00 L 56932058.00 47504153.00  z"/>
<path id="N" d="M 65493241.00 40140966.00 L 65284741.00 40140966.00 L 65284741.00 40022091.00 L 65465116.00 40022091.00 L 65465116.00 39976716.00 L 65284741.00 39976716.00 L 65284741.00 39801966.00 L 65233741.00 39801966.00 L 65233741.00 40186341.00 L 65493241.00 40186341.00 L 65493241.00 40140966.00  z"/>
<path id="N" d="M 46428336.00 36640966.00 L 46219836.00 36640966.00 L 46219836.00 36522091.00 L 46400211.00 36522091.00 L 46400211.00 36476716.00 L 46219836.00 36476716.00 L 46219836.00 36301966.00 L 46168836.00 36301966.00 L 46168836.00 36686341.00 L 46428336.00 36686341.00 L 46428336.00 36640966.00  z"/>
<path id="N" d="M 65491179.00 48144153.00 L 65282679.00 48144153.00 L 65282679.00 48025278.00 L 65463054.00 48025278.00 L 65463054.00 47979903.00 L 65282679.00 47979903.00 L 65282679.00 47805153.00 L 65231679.00 47805153.00 L 65231679.00 48189528.00 L 65491179.00 48189528.00 L 65491179.00 48144153.00  z"/>
<path id="N" d="M 49411875.06 49948749.83 L 49326875.06 49948749.82 L 49326875.01 50513749.82 L 49011875.01 50513749.79 L 49011875.00 50589374.79 L 49411875.00 50589374.83 L 49411875.06 49948749.83  z"/>
<path id="N" d="M 48703750.06 48948749.76 L 48625000.06 48948749.76 L 48625000.05 49039374.76 L 48703750.05 49039374.76 L 48703750.06 48948749.76  z"/>
<path id="N" d="M 48703750.04 49124999.76 L 48625000.04 49124999.76 L 48625000.00 49589374.76 L 48703750.00 49589374.76 L 48703750.04 49124999.76  z"/>
</g>
</svg>
