<svg width="68.55000006mm" height="53.37847338mm" viewBox="0 0 26988189 21015147"  version="1.1" xmlns="http://www.w3.org/2000/svg" xmlns:xlink="http://www.w3.org/1999/xlink">
<desc>
Origin 39200000 34500000 Bound 39200000 34500000 26988189 21015147
</desc>
<g fill-rule="evenodd" fill="rgb(255, 0, 0)" stroke="black" stroke-width="1" transform="translate(0, 21015147) scale(1, -1) translate(-39200000, -34500000)">
<path id="N" d="M 65058872.00 54835738.00 L 65058872.00 50400000.00 L 65069825.00 50343166.00 L 65102382.00 50293156.00 L 66035250.00 49337718.66 L 66035250.00 36562281.34 L 65102382.00 35606844.00 L 65070514.00 35558527.00 L 65058872.00 35500000.00 L 65058872.00 34652939.00 L 39352939.00 34652939.00 L 39352939.00 55362208.00 L 64532402.00 55362208.00 L 65058872.00 54835738.00  zM 44761557.00 36226959.00 L 44638442.00 36226959.00 L 44618550.00 36225000.00 L 44497802.00 36200981.00 L 44478676.00 36195179.00 L 44364933.00 36148065.00 L 44347306.00 36138643.00 L 44244940.00 36070245.00 L 44229489.00 36057565.00 L 44142434.00 35970510.00 L 44129754.00 35955059.00 L 44061356.00 35852693.00 L 44051934.00 35835066.00 L 44004820.00 35721323.00 L 43999018.00 35702196.00 L 43975000.00 35581448.00 L 43973041.00 35561557.00 L 43973041.00 35438442.00 L 43975000.00 35418551.00 L 43999018.00 35297803.00 L 44004820.00 35278676.00 L 44051934.00 35164933.00 L 44061356.00 35147306.00 L 44129754.00 35044940.00 L 44142434.00 35029489.00 L 44229489.00 34942434.00 L 44244940.00 34929754.00 L 44347306.00 34861356.00 L 44364933.00 34851934.00 L 44478676.00 34804820.00 L 44497803.00 34799018.00 L 44618551.00 34775000.00 L 44638442.00 34773041.00 L 44761557.00 34773041.00 L 44781448.00 34775000.00 L 44902196.00 34799018.00 L 44921323.00 34804820.00 L 45035066.00 34851934.00 L 45052693.00 34861356.00 L 45155059.00 34929754.00 L 45170510.00 34942434.00 L 45257565.00 35029489.00 L 45270245.00 35044940.00 L 45338643.00 35147306.00 L 45348065.00 35164933.00 L 45395179.00 35278676.00 L 45400981.00 35297802.00 L 45425000.00 35418550.00 L 45426959.00 35438442.00 L 45426959.00 35561557.00 L 45425000.00 35581449.00 L 45400981.00 35702197.00 L 45395179.00 35721323.00 L 45348065.00 35835066.00 L 45338643.00 35852693.00 L 45270245.00 35955059.00 L 45257565.00 35970510.00 L 45170510.00 36057565.00 L 45155059.00 36070245.00 L 45052693.00 36138643.00 L 45035066.00 36148065.00 L 44921323.00 36195179.00 L 44902197.00 36200981.00 L 44781449.00 36225000.00 L 44771405.76 36225000.00 L 44761557.00 36226959.00  zM 46200002.18 35499991.94 m -497968.06 0 a 497968.06 497968.06 0 1 1 995936.12 0a 497968.06 497968.06 0 1 1 -995936.12 0M 50200000.00 35499992.41 m -398693.35 0 a 398693.35 398693.35 0 1 1 797386.70 0a 398693.35 398693.35 0 1 1 -797386.70 0M 52200000.00 35499992.41 m -398693.35 0 a 398693.35 398693.35 0 1 1 797386.70 0a 398693.35 398693.35 0 1 1 -797386.70 0M 52908759.60 35449999.97 L 52804725.00 35449999.97 A 394989.98 394989.98 0 0 1 53150000.03 35104725.00 L 53150000.03 35208759.60 L 53122918.00 35212325.00 A 297829.90 297829.90 0 0 0 52912325.00 35422918.00 L 52908759.60 35449999.97  zM 53200000.44 35499998.65 m -180637.35 0 a 180637.35 180637.35 0 1 1 361274.69 0a 180637.35 180637.35 0 1 1 -361274.69 0M 53595275.00 35450000.03 L 53491240.40 35450000.03 L 53487675.00 35422918.00 A 297829.90 297829.90 0 0 0 53277082.00 35212325.00 L 53250000.03 35208759.60 L 53250000.03 35104725.00 A 394989.98 394989.98 0 0 1 53595275.00 35447961.00 L 53595275.00 35450000.03  zM 54200000.00 35499992.41 m -398693.35 0 a 398693.35 398693.35 0 1 1 797386.70 0a 398693.35 398693.35 0 1 1 -797386.70 0M 55200000.00 35499992.41 m -398693.35 0 a 398693.35 398693.35 0 1 1 797386.70 0a 398693.35 398693.35 0 1 1 -797386.70 0M 44449999.98 41567323.00 L 44212992.00 41567323.00 L 44212992.00 41349999.97 L 44312992.00 41349999.98 L 44312992.00 41467323.00 L 44449999.99 41467323.00 L 44449999.98 41567323.00  zM 51200000.00 35499992.41 m -398693.35 0 a 398693.35 398693.35 0 1 1 797386.70 0a 398693.35 398693.35 0 1 1 -797386.70 0M 53149999.97 35895275.00 A 394989.98 394989.98 0 0 1 52804725.00 35549999.97 L 52908759.60 35549999.97 L 52912325.00 35577082.00 A 297829.90 297829.90 0 0 0 53122918.00 35787675.00 L 53149999.97 35791240.40 L 53149999.97 35895275.00  zM 53249999.97 35895275.00 L 53249999.97 35791240.40 L 53277082.00 35787675.00 A 297829.90 297829.90 0 0 0 53487675.00 35577082.00 L 53491240.40 35550000.03 L 53595275.00 35550000.03 A 394989.98 394989.98 0 0 1 53249999.97 35895275.00  zM 44449999.98 45467323.00 L 44212992.00 45467323.00 L 44212992.00 45249999.97 L 44312992.00 45249999.98 L 44312992.00 45367323.00 L 44449999.99 45367323.00 L 44449999.98 45467323.00  zM 44787008.00 45467323.00 L 44549999.98 45467323.00 L 44549999.99 45367323.00 L 44687008.00 45367323.00 L 44687008.00 45250000.02 L 44787008.00 45250000.03 L 44787008.00 45467323.00  zM 44787008.00 41567323.00 L 44549999.98 41567323.00 L 44549999.99 41467323.00 L 44687008.00 41467323.00 L 44687008.00 41350000.02 L 44787008.00 41350000.03 L 44787008.00 41567323.00  zM 58831551.90 54347839.90 L 52824840.00 48341128.00 L 52322744.75 48341128.00 L 52303610.40 48387322.40 L 58047839.90 54131551.90 A 397878.58 397878.58 0 1 1 57831551.90 54347839.90 L 52024840.00 48541128.00 L 51522744.75 48541128.00 L 51503610.40 48587322.40 L 57047839.90 54131551.90 A 397878.58 397878.58 0 1 1 56831551.90 54347839.90 L 51224840.00 48741128.00 L 44787008.00 48741128.00 L 44787008.00 49050000.03 L 44687008.00 49050000.02 L 44687008.00 48932677.00 L 44312992.00 48932677.00 L 44312992.00 49049999.98 L 44212992.00 49049999.97 L 44212992.00 48638766.00 L 44009448.00 48638766.00 L 44009448.00 48782677.00 L 43297638.00 48782677.00 L 43297638.00 48638766.00 L 40702362.00 48638766.00 L 40702362.00 48782677.00 L 39990552.00 48782677.00 L 39990552.00 48188977.00 L 40702362.00 48188977.00 L 40702362.00 48332888.00 L 43297638.00 48332888.00 L 43297638.00 48188977.00 L 44009448.00 48188977.00 L 44009448.00 48332888.00 L 44212992.00 48332888.00 L 44212992.00 48320866.00 L 44347061.00 48320866.00 L 44347061.00 48142913.00 L 44203150.00 48142913.00 L 44203150.00 47057087.00 L 44332888.00 47057087.00 L 44332888.00 46867112.00 L 44009448.00 46867112.00 L 44009448.00 47011023.00 L 43297638.00 47011023.00 L 43297638.00 46867112.00 L 40702362.00 46867112.00 L 40702362.00 47011023.00 L 39990552.00 47011023.00 L 39990552.00 46417323.00 L 40702362.00 46417323.00 L 40702362.00 46561234.00 L 43297638.00 46561234.00 L 43297638.00 46417323.00 L 44009448.00 46417323.00 L 44009448.00 46561234.00 L 44370066.00 46561234.00 L 44378201.00 46553099.00 A 193720.19 193720.19 0 0 1 44646901.00 46821799.00 L 44638766.00 46829934.00 L 44638766.00 47057087.00 L 44796850.00 47057087.00 L 44796850.00 48142913.00 L 44652939.00 48142913.00 L 44652939.00 48320866.00 L 44787008.00 48320866.00 L 44787008.00 48435250.00 L 46403633.25 48435250.00 L 46422767.60 48389055.60 L 45791856.00 47758144.00 L 45758703.00 47708527.00 L 45747061.00 47650000.00 L 45747061.00 45663349.95 L 44924839.95 44841128.00 L 44787008.00 44841128.00 L 44787008.00 45150000.03 L 44687008.00 45150000.02 L 44687008.00 45032677.00 L 44312992.00 45032677.00 L 44312992.00 45149999.98 L 44212992.00 45149999.97 L 44212992.00 44738766.00 L 44009448.00 44738766.00 L 44009448.00 44882677.00 L 43297638.00 44882677.00 L 43297638.00 44738766.00 L 40702362.00 44738766.00 L 40702362.00 44882677.00 L 39990552.00 44882677.00 L 39990552.00 44288977.00 L 40702362.00 44288977.00 L 40702362.00 44432888.00 L 43297638.00 44432888.00 L 43297638.00 44288977.00 L 44009448.00 44288977.00 L 44009448.00 44432888.00 L 44212992.00 44432888.00 L 44212992.00 44420866.00 L 44347061.00 44420866.00 L 44347061.00 44242913.00 L 44203150.00 44242913.00 L 44203150.00 43157087.00 L 44347061.00 43157087.00 L 44347061.00 42967112.00 L 44009448.00 42967112.00 L 44009448.00 43111023.00 L 43297638.00 43111023.00 L 43297638.00 42967112.00 L 40702362.00 42967112.00 L 40702362.00 43111023.00 L 39990552.00 43111023.00 L 39990552.00 42517323.00 L 40702362.00 42517323.00 L 40702362.00 42661234.00 L 43297638.00 42661234.00 L 43297638.00 42517323.00 L 44009448.00 42517323.00 L 44009448.00 42661234.00 L 44442525.00 42661234.00 L 44453809.03 42663478.58 L 44462207.00 42660000.00 A 193720.19 193720.19 0 0 1 44661074.00 42957626.00 L 44652939.00 42965761.00 L 44652939.00 43157087.00 L 44796850.00 43157087.00 L 44796850.00 44242913.00 L 44652939.00 44242913.00 L 44652939.00 44420866.00 L 44787008.00 44420866.00 L 44787008.00 44535250.00 L 44988189.00 44535250.00 L 45046716.00 44546892.00 L 45096333.00 44580045.00 L 45950866.60 45434577.67 L 45997061.00 45415443.31 L 45997061.00 41763349.95 L 45174839.95 40941128.00 L 44787008.00 40941128.00 L 44787008.00 41250000.03 L 44687008.00 41250000.02 L 44687008.00 41132677.00 L 44312992.00 41132677.00 L 44312992.00 41249999.98 L 44212992.00 41249999.97 L 44212992.00 40838766.00 L 44009448.00 40838766.00 L 44009448.00 40982677.00 L 43297638.00 40982677.00 L 43297638.00 40838766.00 L 40702362.00 40838766.00 L 40702362.00 40982677.00 L 39990552.00 40982677.00 L 39990552.00 40388977.00 L 40702362.00 40388977.00 L 40702362.00 40532888.00 L 43297638.00 40532888.00 L 43297638.00 40388977.00 L 44009448.00 40388977.00 L 44009448.00 40532888.00 L 44212992.00 40532888.00 L 44212992.00 40520866.00 L 44347061.00 40520866.00 L 44347061.00 40342913.00 L 44203150.00 40342913.00 L 44203150.00 39257087.00 L 44332888.00 39257087.00 L 44332888.00 39067112.00 L 44009448.00 39067112.00 L 44009448.00 39211023.00 L 43297638.00 39211023.00 L 43297638.00 39067112.00 L 40702362.00 39067112.00 L 40702362.00 39211023.00 L 39990552.00 39211023.00 L 39990552.00 38617323.00 L 40702362.00 38617323.00 L 40702362.00 38761234.00 L 43297638.00 38761234.00 L 43297638.00 38617323.00 L 44009448.00 38617323.00 L 44009448.00 38761234.00 L 44370066.00 38761234.00 L 44378201.00 38753099.00 A 193720.19 193720.19 0 0 1 44646901.00 39021799.00 L 44638766.00 39029934.00 L 44638766.00 39257087.00 L 44796850.00 39257087.00 L 44796850.00 40342913.00 L 44652939.00 40342913.00 L 44652939.00 40520866.00 L 44787008.00 40520866.00 L 44787008.00 40635250.00 L 45238189.00 40635250.00 L 45296716.00 40646892.00 L 45346333.00 40680045.00 L 46258144.00 41591855.00 L 46291297.00 41641472.00 L 46302939.00 41700000.00 L 46302939.00 47423047.00 L 46453805.60 47573913.60 L 46500000.00 47554779.25 L 46500000.00 47547339.00 A 403451.33 403451.33 0 0 1 46850000.00 47200000.00 L 46850000.00 47303993.31 L 46821684.00 47307721.00 A 302603.18 302603.18 0 1 0 47192279.00 47678316.00 L 47196006.69 47650000.00 L 47300000.00 47650000.00 A 398715.18 398715.18 0 0 1 47054394.00 47972741.00 L 47007709.95 47985249.83 L 47014292.53 48035250.00 L 47785707.47 48035250.00 L 47792290.05 47985249.83 L 47745606.00 47972741.00 A 403449.21 403449.21 0 1 1 48054394.00 47972741.00 L 48007709.95 47985249.83 L 48014292.53 48035250.00 L 48785707.47 48035250.00 L 48792290.05 47985249.83 L 48745606.00 47972741.00 A 403449.21 403449.21 0 1 1 49054394.00 47972741.00 L 49007709.95 47985249.83 L 49014292.53 48035250.00 L 49785707.47 48035250.00 L 49792290.05 47985249.83 L 49745606.00 47972741.00 A 403449.21 403449.21 0 1 1 50054394.00 47972741.00 L 50007709.95 47985249.83 L 50014292.53 48035250.00 L 50785707.47 48035250.00 L 50792290.05 47985249.83 L 50745606.00 47972741.00 A 403449.21 403449.21 0 1 1 51054394.00 47972741.00 L 51007709.95 47985249.83 L 51014292.53 48035250.00 L 51785707.47 48035250.00 L 51792290.05 47985249.83 L 51745606.00 47972741.00 A 403449.21 403449.21 0 1 1 52054394.00 47972741.00 L 52007709.95 47985249.83 L 52014292.53 48035250.00 L 52785707.47 48035250.00 L 52792290.05 47985249.83 L 52745606.00 47972741.00 A 403449.21 403449.21 0 1 1 53054394.00 47972741.00 L 52957674.52 47998656.65 L 52951536.09 48008878.21 L 52949537.01 48024646.21 L 52951367.92 48050000.31 L 52996333.00 48080045.00 L 59047839.90 54131551.90 A 397878.58 397878.58 0 1 1 58831551.90 54347839.90  zM 44449999.98 49367323.00 L 44212992.00 49367323.00 L 44212992.00 49149999.97 L 44312992.00 49149999.98 L 44312992.00 49267323.00 L 44449999.99 49267323.00 L 44449999.98 49367323.00  zM 46900001.39 47599994.95 m -178433.05 0 a 178433.05 178433.05 0 1 1 356866.10 0a 178433.05 178433.05 0 1 1 -356866.10 0M 47300000.00 47550000.00 L 47196006.69 47550000.00 L 47192279.00 47521684.00 A 302603.18 302603.18 0 0 0 46978316.00 47307721.00 L 46950000.00 47303993.31 L 46950000.00 47200000.00 A 398715.18 398715.18 0 0 1 47272741.00 47445606.00 L 47300000.00 47547339.00 L 47300000.00 47550000.00  zM 44787008.00 49367323.00 L 44549999.98 49367323.00 L 44549999.99 49267323.00 L 44687008.00 49267323.00 L 44687008.00 49150000.02 L 44787008.00 49150000.03 L 44787008.00 49367323.00  zM 47400000.00 52099980.14 m -773745.42 0 a 773745.42 773745.42 0 1 1 1547490.85 0a 773745.42 773745.42 0 1 1 -1547490.85 0M 45273368.00 55226959.00 L 45150253.00 55226959.00 L 45130361.00 55225000.00 L 45009613.00 55200981.00 L 44990487.00 55195179.00 L 44876744.00 55148065.00 L 44859117.00 55138643.00 L 44756751.00 55070245.00 L 44741300.00 55057565.00 L 44654245.00 54970510.00 L 44641565.00 54955059.00 L 44573167.00 54852693.00 L 44563745.00 54835066.00 L 44516631.00 54721323.00 L 44510829.00 54702196.00 L 44486811.00 54581448.00 L 44484852.00 54561557.00 L 44484852.00 54438442.00 L 44486811.00 54418551.00 L 44510829.00 54297803.00 L 44516631.00 54278676.00 L 44563745.00 54164933.00 L 44573167.00 54147306.00 L 44641565.00 54044940.00 L 44654245.00 54029489.00 L 44741300.00 53942434.00 L 44756751.00 53929754.00 L 44859117.00 53861356.00 L 44876744.00 53851934.00 L 44990487.00 53804820.00 L 45009614.00 53799018.00 L 45130362.00 53775000.00 L 45150253.00 53773041.00 L 45273368.00 53773041.00 L 45293259.00 53775000.00 L 45414007.00 53799018.00 L 45433134.00 53804820.00 L 45546877.00 53851934.00 L 45564504.00 53861356.00 L 45666870.00 53929754.00 L 45682321.00 53942434.00 L 45769376.00 54029489.00 L 45782056.00 54044940.00 L 45850454.00 54147306.00 L 45859876.00 54164933.00 L 45906990.00 54278676.00 L 45912792.00 54297802.00 L 45936811.00 54418550.00 L 45938770.00 54438442.00 L 45938770.00 54561557.00 L 45936811.00 54581449.00 L 45912792.00 54702197.00 L 45906990.00 54721323.00 L 45859876.00 54835066.00 L 45850454.00 54852693.00 L 45782056.00 54955059.00 L 45769376.00 54970510.00 L 45682321.00 55057565.00 L 45666870.00 55070245.00 L 45564504.00 55138643.00 L 45546877.00 55148065.00 L 45433134.00 55195179.00 L 45414008.00 55200981.00 L 45293260.00 55225000.00 L 45283216.76 55225000.00 L 45273368.00 55226959.00  zM 46611811.00 54499992.41 m -398693.35 0 a 398693.35 398693.35 0 1 1 797386.70 0a 398693.35 398693.35 0 1 1 -797386.70 0M 47611811.00 54499992.41 m -398693.35 0 a 398693.35 398693.35 0 1 1 797386.70 0a 398693.35 398693.35 0 1 1 -797386.70 0M 48611811.00 54499992.41 m -398693.35 0 a 398693.35 398693.35 0 1 1 797386.70 0a 398693.35 398693.35 0 1 1 -797386.70 0M 49611811.00 54499992.41 m -398693.35 0 a 398693.35 398693.35 0 1 1 797386.70 0a 398693.35 398693.35 0 1 1 -797386.70 0M 50611811.00 54499992.41 m -398693.35 0 a 398693.35 398693.35 0 1 1 797386.70 0a 398693.35 398693.35 0 1 1 -797386.70 0M 52400000.00 52099980.14 m -773745.42 0 a 773745.42 773745.42 0 1 1 1547490.85 0a 773745.42 773745.42 0 1 1 -1547490.85 0M 51611811.00 54499992.41 m -398693.35 0 a 398693.35 398693.35 0 1 1 797386.70 0a 398693.35 398693.35 0 1 1 -797386.70 0M 52611811.00 54499992.41 m -398693.35 0 a 398693.35 398693.35 0 1 1 797386.70 0a 398693.35 398693.35 0 1 1 -797386.70 0M 53611811.00 54499992.41 m -398693.35 0 a 398693.35 398693.35 0 1 1 797386.70 0a 398693.35 398693.35 0 1 1 -797386.70 0M 54611811.00 54499992.41 m -398693.35 0 a 398693.35 398693.35 0 1 1 797386.70 0a 398693.35 398693.35 0 1 1 -797386.70 0M 56007086.00 54895275.00 L 55216536.00 54895275.00 L 55216536.00 54104725.00 L 56007086.00 54104725.00 L 56007086.00 54895275.00  zM 56200000.00 35499992.41 m -398693.35 0 a 398693.35 398693.35 0 1 1 797386.70 0a 398693.35 398693.35 0 1 1 -797386.70 0M 57595275.00 35895275.00 L 56804725.00 35895275.00 L 56804725.00 35104725.00 L 57595275.00 35104725.00 L 57595275.00 35895275.00  zM 58526772.00 37350001.00 L 58426772.00 37350001.00 L 58426772.00 37112992.00 L 58644096.00 37112992.00 L 58644096.00 37212992.00 L 58526772.00 37212992.00 L 58526772.00 37350001.00  zM 60200000.00 35499992.41 m -398693.35 0 a 398693.35 398693.35 0 1 1 797386.70 0a 398693.35 398693.35 0 1 1 -797386.70 0M 61764963.00 37865354.00 L 60856303.00 37865354.00 L 60856303.00 37547033.00 L 59473229.00 37547033.00 L 59473229.00 37687008.00 L 58744096.00 37687008.00 L 58744096.00 37587008.00 L 58861418.00 37587008.00 L 58861418.00 37212992.00 L 58744096.00 37212992.00 L 58744096.00 37112992.00 L 59047061.00 37112992.00 L 59047061.00 35868125.53 A 397872.77 397872.77 0 1 1 59352939.00 35868125.53 L 59352939.00 37112992.00 L 59473229.00 37112992.00 L 59473229.00 37241155.00 L 60856303.00 37241155.00 L 60856303.00 36956694.00 L 61764963.00 36956694.00 L 61764963.00 37865354.00  zM 61200000.00 35499992.41 m -398693.35 0 a 398693.35 398693.35 0 1 1 797386.70 0a 398693.35 398693.35 0 1 1 -797386.70 0M 62200000.00 35499992.41 m -398693.35 0 a 398693.35 398693.35 0 1 1 797386.70 0a 398693.35 398693.35 0 1 1 -797386.70 0M 63200000.00 35499992.41 m -398693.35 0 a 398693.35 398693.35 0 1 1 797386.70 0a 398693.35 398693.35 0 1 1 -797386.70 0M 64595275.00 35895275.00 L 63804725.00 35895275.00 L 63804725.00 35104725.00 L 64595275.00 35104725.00 L 64595275.00 35895275.00  zM 58644096.00 37687008.00 L 58426772.00 37687008.00 L 58426772.00 37450001.00 L 58526772.00 37450001.00 L 58526772.00 37587008.00 L 58644096.00 37587008.00 L 58644096.00 37687008.00  zM 61310633.00 38788977.89 m -458248.57 0 a 458248.57 458248.57 0 1 1 916497.13 0a 458248.57 458248.57 0 1 1 -916497.13 0M 62674536.00 37519168.00 L 62657606.00 37502238.00 A 152940.51 152940.51 0 0 1 62873894.00 37285950.00 L 62890824.00 37302880.00 A 152940.51 152940.51 0 0 1 62674536.00 37519168.00  zM 65273368.00 38226959.00 L 65150253.00 38226959.00 L 65130361.00 38225000.00 L 65009613.00 38200981.00 L 64990487.00 38195179.00 L 64876744.00 38148065.00 L 64859117.00 38138643.00 L 64756751.00 38070245.00 L 64741300.00 38057565.00 L 64654245.00 37970510.00 L 64641565.00 37955059.00 L 64573167.00 37852693.00 L 64563745.00 37835066.00 L 64516631.00 37721323.00 L 64510829.00 37702196.00 L 64486811.00 37581448.00 L 64484852.00 37561557.00 L 64484852.00 37438442.00 L 64486811.00 37418551.00 L 64510829.00 37297803.00 L 64516631.00 37278676.00 L 64563745.00 37164933.00 L 64573167.00 37147306.00 L 64641565.00 37044940.00 L 64654245.00 37029489.00 L 64741300.00 36942434.00 L 64756751.00 36929754.00 L 64859117.00 36861356.00 L 64876744.00 36851934.00 L 64990487.00 36804820.00 L 65009614.00 36799018.00 L 65130362.00 36775000.00 L 65150253.00 36773041.00 L 65273368.00 36773041.00 L 65293259.00 36775000.00 L 65414007.00 36799018.00 L 65433134.00 36804820.00 L 65546877.00 36851934.00 L 65564504.00 36861356.00 L 65666870.00 36929754.00 L 65682321.00 36942434.00 L 65769376.00 37029489.00 L 65782056.00 37044940.00 L 65850454.00 37147306.00 L 65859876.00 37164933.00 L 65906990.00 37278676.00 L 65912792.00 37297802.00 L 65936811.00 37418550.00 L 65938770.00 37438442.00 L 65938770.00 37561557.00 L 65936811.00 37581449.00 L 65912792.00 37702197.00 L 65906990.00 37721323.00 L 65859876.00 37835066.00 L 65850454.00 37852693.00 L 65782056.00 37955059.00 L 65769376.00 37970510.00 L 65682321.00 38057565.00 L 65666870.00 38070245.00 L 65564504.00 38138643.00 L 65546877.00 38148065.00 L 65433134.00 38195179.00 L 65414008.00 38200981.00 L 65293260.00 38225000.00 L 65283216.76 38225000.00 L 65273368.00 38226959.00  zM 61310633.00 42313977.89 m -458248.57 0 a 458248.57 458248.57 0 1 1 916497.13 0a 458248.57 458248.57 0 1 1 -916497.13 0M 65200002.18 38999991.94 m -497968.06 0 a 497968.06 497968.06 0 1 1 995936.12 0a 497968.06 497968.06 0 1 1 -995936.12 0M 59386220.00 45010236.00 L 58713780.00 45010236.00 L 58713780.00 44337796.00 L 59386220.00 44337796.00 L 59386220.00 44470098.00 L 60141518.27 44470098.00 L 60305808.00 44305808.00 L 60371963.00 44261604.00 L 60450000.00 44246082.00 L 60856303.00 44246082.00 L 60856303.00 44006694.00 L 61764963.00 44006694.00 L 61764963.00 44257106.00 L 63439798.00 44257106.00 L 63596082.00 44100822.00 L 63596082.00 41334466.00 L 63401558.00 41139942.00 L 61764963.00 41139942.00 L 61764963.00 41390354.00 L 60856303.00 41390354.00 L 60856303.00 40481694.00 L 61764963.00 40481694.00 L 61764963.00 40732106.00 L 63486024.00 40732106.00 L 63564060.00 40747628.00 L 63630216.00 40791832.00 L 63944192.00 41105808.00 L 63988396.00 41171964.00 L 64003918.00 41250000.00 L 64003919.00 44185288.00 L 63988396.00 44263324.00 L 63944192.00 44329480.00 L 63668456.00 44605216.00 L 63602300.00 44649420.00 L 63524264.00 44664942.00 L 61764963.00 44664942.00 L 61764963.00 44915354.00 L 60856303.00 44915354.00 L 60856303.00 44653918.00 L 60534465.27 44653918.00 L 60370176.00 44818208.00 L 60304020.00 44862412.00 L 60225984.00 44877934.00 L 59386220.00 44877934.00 L 59386220.00 45010236.00  zM 65200002.18 46999991.94 m -497968.06 0 a 497968.06 497968.06 0 1 1 995936.12 0a 497968.06 497968.06 0 1 1 -995936.12 0M 58813780.00 48124016.00 L 58713780.00 48124016.00 L 58713780.00 47837796.00 L 59000000.00 47837796.00 L 59000000.00 47937796.00 L 58813780.00 47937796.00 L 58813780.00 48124016.00  zM 59386220.00 48124016.00 L 59286220.00 48124016.00 L 59286220.00 47937796.00 L 59100000.00 47937796.00 L 59100000.00 47837796.00 L 59386220.00 47837796.00 L 59386220.00 48124016.00  zM 59386220.00 48510236.00 L 59100000.00 48510236.00 L 59100000.00 48410236.00 L 59286220.00 48410236.00 L 59286220.00 48224016.00 L 59386220.00 48224016.00 L 59386220.00 48510236.00  zM 60956303.00 47936024.98 L 60856303.00 47936024.98 L 60856303.00 47531694.00 L 61260632.02 47531694.00 L 61260632.02 47631694.00 L 60956303.00 47631694.00 L 60956303.00 47936024.98  zM 61260631.98 48440354.00 L 60856303.00 48440354.00 L 60856303.00 48036024.98 L 60956303.00 48036024.98 L 60956303.00 48340354.00 L 61260631.98 48340354.00 L 61260631.98 48440354.00  zM 59000000.00 48510236.00 L 58713780.00 48510236.00 L 58713780.00 48224016.00 L 58813780.00 48224016.00 L 58813780.00 48410236.00 L 59000000.00 48410236.00 L 59000000.00 48510236.00  zM 60831551.70 54347840.64 L 57127242.40 50643530.43 L 57081048.00 50662664.77 L 57081048.00 51164760.00 L 60047839.90 54131551.90 A 397878.58 397878.58 0 1 1 59831551.90 54347839.90 L 56819965.00 51336253.00 L 56786812.00 51286636.00 L 56775170.00 51228109.00 L 56775170.00 47757142.98 L 53891856.00 44873828.00 L 53858703.00 44824211.00 L 53847061.00 44765684.00 L 53847061.00 44485659.87 L 53797060.48 44457853.41 L 53724016.00 44472383.00 L 53350000.00 44472383.00 L 53264898.00 44455455.00 L 53192751.00 44407249.00 L 53189871.21 44402939.00 L 52787008.00 44402939.00 L 52787008.00 44523229.00 L 52212992.00 44523229.00 L 52212992.00 44408845.00 L 52059855.00 44408845.00 L 52057626.00 44411074.00 A 193720.19 193720.19 0 1 1 52057626.00 44088926.00 L 52071667.00 44102967.00 L 52212992.00 44102967.00 L 52212992.00 43476772.00 L 52787008.00 43476772.00 L 52787008.00 43597061.00 L 53189871.21 43597061.00 L 53192751.00 43592751.00 L 53264898.00 43544545.00 L 53350000.00 43527617.00 L 53724016.00 43527617.00 A 222389.88 222389.88 0 0 1 53946399.00 43750000.00 L 53945387.77 43755083.77 L 54000866.60 43810562.60 L 54047061.00 43791428.25 L 54047061.00 43021223.00 L 53930834.82 42904996.82 L 53881264.27 42907249.48 L 53809118.00 42955455.00 L 53724016.00 42972383.00 L 53350000.00 42972383.00 L 53264898.00 42955455.00 L 53192751.00 42907249.00 L 53189871.21 42902939.00 L 53000000.00 42902939.00 L 52941473.00 42891297.00 L 52891856.00 42858144.00 L 52837008.40 42803296.40 L 52787008.00 42812152.46 L 52787008.00 43002967.00 L 52855906.00 43002967.00 L 52914433.00 43014609.00 L 52964050.00 43047762.00 L 53013349.00 43097061.00 L 53189871.21 43097061.00 L 53192751.00 43092751.00 L 53264898.00 43044545.00 L 53350000.00 43027617.00 L 53724016.00 43027617.00 A 222389.88 222389.88 0 0 1 53724016.00 43472383.00 L 53350000.00 43472383.00 L 53264898.00 43455455.00 L 53192751.00 43407249.00 L 53189871.21 43402939.00 L 52950000.00 43402939.00 L 52891473.00 43391297.00 L 52841856.00 43358144.00 L 52837008.43 43353296.43 L 52787008.00 43374007.28 L 52787008.00 43423229.00 L 52212992.00 43423229.00 L 52212992.00 43308845.00 L 52059855.00 43308845.00 L 52051720.00 43316980.00 A 193720.19 193720.19 0 1 1 52051720.00 42994832.00 L 52059855.00 43002967.00 L 52212992.00 43002967.00 L 52212992.00 42376772.00 L 52787008.00 42376772.00 L 52787008.00 42491156.00 L 52894095.00 42491156.00 L 52952622.00 42502798.00 L 53002239.00 42535951.00 L 53063349.00 42597061.00 L 53189871.21 42597061.00 L 53192751.00 42592751.00 L 53264898.00 42544545.00 L 53350000.00 42527617.00 L 53724016.00 42527617.00 L 53809118.00 42544545.00 L 53881265.00 42592751.00 L 53884144.79 42597061.00 L 53992126.00 42597061.00 L 54050653.00 42608703.00 L 54100270.00 42641856.00 L 54308144.00 42849730.00 L 54341297.00 42899347.00 L 54352939.00 42957874.00 L 54352939.00 44619492.98 L 55008740.60 45275294.36 L 55054935.00 45256160.01 L 55054935.00 43518110.00 L 55066577.00 43459583.00 L 55099730.00 43409966.00 L 55254612.23 43255083.77 L 55253601.00 43250000.00 A 222389.88 222389.88 0 0 1 55475984.00 43027617.00 L 55510053.00 43027617.00 L 55510053.00 42972383.00 L 55475984.00 42972383.00 A 222389.88 222389.88 0 0 1 55475984.00 42527617.00 L 55850000.00 42527617.00 A 222389.88 222389.88 0 0 1 55850000.00 42972383.00 L 55815931.00 42972383.00 L 55815931.00 43027617.00 L 55850000.00 43027617.00 A 222389.88 222389.88 0 0 1 55850000.00 43472383.00 L 55508163.89 43472383.00 L 55505402.99 43477616.49 L 55535557.12 43527617.00 L 55850000.00 43527617.00 A 222389.88 222389.88 0 0 1 55935102.00 43955455.00 L 55866910.00 43969019.36 L 55866910.00 44030980.64 L 55935102.00 44044545.00 L 55937402.33 44046082.00 L 57500000.00 44046082.00 L 57578036.00 44061604.00 L 57644192.00 44105808.00 L 59002164.00 45463780.00 L 59386220.00 45463780.00 L 59386220.00 45635058.00 L 60903750.22 45635058.00 L 60947079.00 45560011.00 A 458255.75 458255.75 0 1 1 60947079.00 46117941.00 L 60903750.22 46042894.00 L 59386220.00 46042894.00 L 59386220.00 46136220.00 L 58713780.00 46136220.00 L 58713780.00 45752164.00 L 57415534.00 44453918.00 L 55937402.33 44453918.00 L 55935102.00 44455455.00 L 55850000.00 44472383.00 L 55475984.00 44472383.00 L 55410813.53 44459419.66 L 55360813.00 44490921.12 L 55360813.00 45344525.00 L 57508144.00 47491856.00 L 57541297.00 47541473.00 L 57552939.00 47600000.00 L 57552939.00 48786651.00 L 57913349.00 49147061.00 L 58713780.00 49147061.00 L 58713780.00 48963780.00 L 59386220.00 48963780.00 L 59386220.00 49211037.00 L 60881255.93 49211037.00 L 60887265.00 49188611.00 A 458255.75 458255.75 0 1 1 60887265.00 49539341.00 L 60881255.93 49516915.00 L 59386220.00 49516915.00 L 59386220.00 49636220.00 L 58713780.00 49636220.00 L 58713780.00 49452939.00 L 57850000.00 49452939.00 L 57791473.00 49441297.00 L 57741856.00 49408144.00 L 57331048.43 48997336.43 L 57281048.00 49018047.28 L 57281048.00 50364759.99 L 58733288.15 51816999.78 L 58770864.10 51783865.62 L 58770865.95 51549999.00 L 58870866.00 51549999.00 L 58870866.00 51687008.00 L 58988188.00 51687008.00 L 58988188.00 51787008.03 L 58774008.38 51787009.90 L 58740874.22 51824585.85 L 61047840.64 54131551.70 A 397877.12 397877.12 0 1 1 60831551.70 54347840.64  zM 58870866.00 51449999.00 L 58770865.96 51449999.00 L 58770866.00 51212992.00 L 58988188.00 51212992.00 L 58988188.00 51312992.00 L 58870866.00 51312992.00 L 58870866.00 51449999.00  zM 62047061.00 54131874.47 L 62047061.00 51813349.00 L 61897675.00 51663963.00 L 61764963.00 51663963.00 L 61764963.00 51965354.00 L 60856303.00 51965354.00 L 60856303.00 51652939.00 L 59817323.00 51652939.00 L 59817323.00 51787008.00 L 59088188.00 51787008.02 L 59088188.00 51687008.00 L 59205512.00 51687008.00 L 59205512.00 51312992.00 L 59088188.00 51312992.00 L 59088188.00 51212992.00 L 59817323.00 51212992.00 L 59817323.00 51347061.00 L 60856303.00 51347061.00 L 60856303.00 51056694.00 L 61764963.00 51056694.00 L 61764963.00 51358085.00 L 61961024.00 51358085.00 L 62019551.00 51369727.00 L 62069168.00 51402880.00 L 62308144.00 51641856.00 L 62341297.00 51691473.00 L 62352939.00 51750000.00 L 62352939.00 54131874.47 A 397872.77 397872.77 0 1 1 62047061.00 54131874.47  zM 61310629.50 47986033.68 m -240838.32 0 a 240838.32 240838.32 0 1 1 481676.63 0a 240838.32 240838.32 0 1 1 -481676.63 0M 61764963.00 48440354.00 L 61360631.98 48440354.00 L 61360631.98 48340354.00 L 61664963.00 48340354.00 L 61664963.00 48036025.02 L 61764963.00 48036025.02 L 61764963.00 48440354.00  zM 61764963.00 47936025.02 L 61664963.00 47936025.02 L 61664963.00 47631694.00 L 61360632.02 47631694.00 L 61360632.02 47531694.00 L 61764963.00 47531694.00 L 61764963.00 47936025.02  zM 65273368.00 49226959.00 L 65150253.00 49226959.00 L 65130361.00 49225000.00 L 65009613.00 49200981.00 L 64990487.00 49195179.00 L 64876744.00 49148065.00 L 64859117.00 49138643.00 L 64756751.00 49070245.00 L 64741300.00 49057565.00 L 64654245.00 48970510.00 L 64641565.00 48955059.00 L 64573167.00 48852693.00 L 64563745.00 48835066.00 L 64516631.00 48721323.00 L 64510829.00 48702196.00 L 64486811.00 48581448.00 L 64484852.00 48561557.00 L 64484852.00 48438442.00 L 64486811.00 48418551.00 L 64510829.00 48297803.00 L 64516631.00 48278676.00 L 64563745.00 48164933.00 L 64573167.00 48147306.00 L 64641565.00 48044940.00 L 64654245.00 48029489.00 L 64741300.00 47942434.00 L 64756751.00 47929754.00 L 64859117.00 47861356.00 L 64876744.00 47851934.00 L 64990487.00 47804820.00 L 65009614.00 47799018.00 L 65130362.00 47775000.00 L 65150253.00 47773041.00 L 65273368.00 47773041.00 L 65293259.00 47775000.00 L 65414007.00 47799018.00 L 65433134.00 47804820.00 L 65546877.00 47851934.00 L 65564504.00 47861356.00 L 65666870.00 47929754.00 L 65682321.00 47942434.00 L 65769376.00 48029489.00 L 65782056.00 48044940.00 L 65850454.00 48147306.00 L 65859876.00 48164933.00 L 65906990.00 48278676.00 L 65912792.00 48297802.00 L 65936811.00 48418550.00 L 65938770.00 48438442.00 L 65938770.00 48561557.00 L 65936811.00 48581449.00 L 65912792.00 48702197.00 L 65906990.00 48721323.00 L 65859876.00 48835066.00 L 65850454.00 48852693.00 L 65782056.00 48955059.00 L 65769376.00 48970510.00 L 65682321.00 49057565.00 L 65666870.00 49070245.00 L 65564504.00 49138643.00 L 65546877.00 49148065.00 L 65433134.00 49195179.00 L 65414008.00 49200981.00 L 65293260.00 49225000.00 L 65283216.76 49225000.00 L 65273368.00 49226959.00  zM 61310633.00 52888977.89 m -458248.57 0 a 458248.57 458248.57 0 1 1 916497.13 0a 458248.57 458248.57 0 1 1 -916497.13 0M 62674536.00 51619168.00 L 62663512.00 51608144.00 A 152940.51 152940.51 0 0 1 62879800.00 51391856.00 L 62890824.00 51402880.00 A 152940.51 152940.51 0 0 1 62674536.00 51619168.00  zM 63200000.00 54499992.41 m -398693.35 0 a 398693.35 398693.35 0 1 1 797386.70 0a 398693.35 398693.35 0 1 1 -797386.70 0M 64595275.00 54895275.00 L 63804725.00 54895275.00 L 63804725.00 54104725.00 L 64595275.00 54104725.00 L 64595275.00 54895275.00  z"/>
<path id="N" d="M 57051088.00 54242078.00 L 57032713.86 54256176.83 L 51326458.00 48549920.00 L 51288186.59 48534069.00 L 44687008.00 48534069.00 L 44687008.00 48420866.00 L 44554120.00 48420866.00 L 44554120.00 48042913.00 L 44696850.00 48042913.00 L 44696850.00 47688583.00 L 44303150.00 47688583.00 L 44303150.00 48042913.00 L 44445880.00 48042913.00 L 44445880.00 48420866.00 L 44312992.00 48420866.00 L 44312992.00 48431707.00 L 43909448.00 48431707.00 L 43909448.00 48288977.00 L 43397638.00 48288977.00 L 43397638.00 48431707.00 L 40602362.00 48431707.00 L 40602362.00 48288977.00 L 40090552.00 48288977.00 L 40090552.00 48682677.00 L 40602362.00 48682677.00 L 40602362.00 48539947.00 L 43397638.00 48539947.00 L 43397638.00 48682677.00 L 43909448.00 48682677.00 L 43909448.00 48539947.00 L 44312992.00 48539947.00 L 44312992.00 48755512.00 L 44687008.00 48755512.00 L 44687008.00 48642309.00 L 51265771.00 48642309.00 L 56956176.83 54332713.86 L 56942078.00 54351088.00 A 297823.01 297823.01 0 1 0 57051088.00 54242078.00  zM 57200000.44 54499998.65 m -180637.35 0 a 180637.35 180637.35 0 1 1 361274.69 0a 180637.35 180637.35 0 1 1 -361274.69 0"/>
<path id="N" d="M 60965424.00 49271477.00 L 60960371.19 49309856.00 L 59286220.00 49309856.00 L 59286220.00 49063780.00 L 58813780.00 49063780.00 L 58813780.00 49245880.00 L 57872418.00 49245880.00 L 57454120.00 48827582.00 L 57454120.00 47600000.00 L 57438267.29 47561730.29 L 55261994.00 45385456.01 L 55261994.00 43540527.94 L 55439378.77 43363142.51 L 55475984.00 43370424.00 L 55850000.00 43370424.00 A 120431.73 120431.73 0 0 0 55850000.00 43129576.00 L 55717112.00 43129576.00 L 55717112.00 42870424.00 L 55850000.00 42870424.00 A 120431.73 120431.73 0 0 0 55850000.00 42629576.00 L 55475984.00 42629576.00 A 120431.73 120431.73 0 0 0 55475984.00 42870424.00 L 55608872.00 42870424.00 L 55608872.00 43129576.00 L 55475984.00 43129576.00 A 120431.73 120431.73 0 0 0 55355560.00 43250000.00 L 55362841.49 43286605.23 L 55169605.00 43479841.00 L 55153754.00 43518112.41 L 55153753.00 45407874.00 L 55169605.00 45446143.00 L 57345880.00 47622417.01 L 57345879.00 48850000.00 L 57361731.00 48888269.00 L 57811731.00 49338269.00 L 57850000.00 49354120.00 L 58813780.00 49354120.00 L 58813780.00 49536220.00 L 59286220.00 49536220.00 L 59286220.00 49418096.00 L 60960371.19 49418096.00 L 60965424.00 49456475.00 A 357401.20 357401.20 0 1 0 60965424.00 49271477.00  zM 61310629.50 49363985.68 m -240838.32 0 a 240838.32 240838.32 0 1 1 481676.63 0a 240838.32 240838.32 0 1 1 -481676.63 0"/>
<path id="N" d="M 53724016.00 43129576.00 L 53350000.00 43129576.00 L 53303916.00 43138743.00 L 53264847.00 43164847.00 L 53244112.26 43195880.00 L 52972418.00 43195880.00 L 52894175.00 43117637.00 L 52855903.59 43101786.00 L 52687008.00 43101786.00 L 52687008.00 42988583.00 L 52312992.00 42988583.00 L 52312992.00 43101786.00 L 52016173.73 43101786.00 L 52008980.00 43091020.00 A 91761.13 91761.13 0 1 0 52008980.00 43220792.00 L 52016173.73 43210026.00 L 52312992.00 43210026.00 L 52312992.00 43323229.00 L 52687008.00 43323229.00 L 52687008.00 43210026.00 L 52833488.00 43210026.00 L 52911731.00 43288269.00 L 52950002.41 43304120.00 L 53244112.26 43304120.00 L 53264847.00 43335153.00 L 53303916.00 43361257.00 L 53350000.00 43370424.00 L 53724016.00 43370424.00 A 120412.98 120412.98 0 1 0 53724016.00 43129576.00  z"/>
<path id="N" d="M 48899992.67 47599987.81 m -302603.18 0 a 302603.18 302603.18 0 1 1 605206.36 0a 302603.18 302603.18 0 1 1 -605206.36 0M 48900001.39 47599994.95 m -178433.05 0 a 178433.05 178433.05 0 1 1 356866.10 0a 178433.05 178433.05 0 1 1 -356866.10 0"/>
<path id="N" d="M 51199997.35 35499993.57 m -297829.90 0 a 297829.90 297829.90 0 1 1 595659.80 0a 297829.90 297829.90 0 1 1 -595659.80 0M 51200000.44 35499998.65 m -180637.35 0 a 180637.35 180637.35 0 1 1 361274.69 0a 180637.35 180637.35 0 1 1 -361274.69 0"/>
<path id="N" d="M 52199997.35 35499993.57 m -297829.90 0 a 297829.90 297829.90 0 1 1 595659.80 0a 297829.90 297829.90 0 1 1 -595659.80 0M 52200000.44 35499998.65 m -180637.35 0 a 180637.35 180637.35 0 1 1 361274.69 0a 180637.35 180637.35 0 1 1 -361274.69 0"/>
<path id="N" d="M 52687008.00 44304120.00 L 53244112.26 44304120.00 L 53264847.00 44335153.00 L 53303916.00 44361257.00 L 53350000.00 44370424.00 L 53724016.00 44370424.00 A 120431.73 120431.73 0 1 0 53724016.00 44129576.00 L 53350000.00 44129576.00 L 53303916.00 44138743.00 L 53264847.00 44164847.00 L 53244112.26 44195880.00 L 52687008.00 44195880.00 L 52687008.00 44088583.00 L 52312992.00 44088583.00 L 52312992.00 44201786.00 L 52026026.05 44201786.00 L 52014886.00 44185114.00 A 91761.13 91761.13 0 1 0 52014886.00 44314886.00 L 52018133.40 44310026.00 L 52312992.00 44310026.00 L 52312992.00 44423229.00 L 52687008.00 44423229.00 L 52687008.00 44304120.00  z"/>
<path id="N" d="M 61310633.91 38788975.51 m -357387.03 0 a 357387.03 357387.03 0 1 1 714774.05 0a 357387.03 357387.03 0 1 1 -714774.05 0M 61310629.50 38788985.68 m -240838.32 0 a 240838.32 240838.32 0 1 1 481676.63 0a 240838.32 240838.32 0 1 1 -481676.63 0"/>
<path id="N" d="M 61310633.91 42313975.51 m -357387.03 0 a 357387.03 357387.03 0 1 1 714774.05 0a 357387.03 357387.03 0 1 1 -714774.05 0M 61310629.50 42313985.68 m -240838.32 0 a 240838.32 240838.32 0 1 1 481676.63 0a 240838.32 240838.32 0 1 1 -481676.63 0"/>
<path id="N" d="M 61310633.91 52888975.51 m -357387.03 0 a 357387.03 357387.03 0 1 1 714774.05 0a 357387.03 357387.03 0 1 1 -714774.05 0M 61310629.50 52888985.68 m -240838.32 0 a 240838.32 240838.32 0 1 1 481676.63 0a 240838.32 240838.32 0 1 1 -481676.63 0"/>
<path id="N" d="M 49611801.01 54499980.86 m -297844.08 0 a 297844.08 297844.08 0 1 1 595688.15 0a 297844.08 297844.08 0 1 1 -595688.15 0M 49611811.44 54499998.65 m -180637.35 0 a 180637.35 180637.35 0 1 1 361274.69 0a 180637.35 180637.35 0 1 1 -361274.69 0"/>
<path id="N" d="M 44696850.00 43257087.00 L 44554120.00 43257087.00 L 44554120.00 42922079.73 L 44564886.00 42914886.00 A 91761.13 91761.13 0 0 0 44464884.00 42765222.00 L 44461103.87 42767747.84 L 44442522.59 42760053.00 L 43909448.00 42760053.00 L 43909448.00 42617323.00 L 43397638.00 42617323.00 L 43397638.00 42760053.00 L 40602362.00 42760053.00 L 40602362.00 42617323.00 L 40090552.00 42617323.00 L 40090552.00 43011023.00 L 40602362.00 43011023.00 L 40602362.00 42868293.00 L 43397638.00 42868293.00 L 43397638.00 43011023.00 L 43909448.00 43011023.00 L 43909448.00 42868293.00 L 44411875.70 42868293.00 L 44415222.00 42885116.00 L 44435114.00 42914886.00 L 44445880.00 42922079.73 L 44445880.00 43257087.00 L 44303150.00 43257087.00 L 44303150.00 43611417.00 L 44696850.00 43611417.00 L 44696850.00 43257087.00  z"/>
<path id="N" d="M 44696850.00 39357087.00 L 44539947.00 39357087.00 L 44539947.00 38986252.73 L 44550713.00 38979059.00 A 91761.13 91761.13 0 1 0 44420941.00 38849287.00 L 44413747.27 38860053.00 L 43909448.00 38860053.00 L 43909448.00 38717323.00 L 43397638.00 38717323.00 L 43397638.00 38860053.00 L 40602362.00 38860053.00 L 40602362.00 38717323.00 L 40090552.00 38717323.00 L 40090552.00 39111023.00 L 40602362.00 39111023.00 L 40602362.00 38968293.00 L 43397638.00 38968293.00 L 43397638.00 39111023.00 L 43909448.00 39111023.00 L 43909448.00 38968293.00 L 44413747.27 38968293.00 L 44420941.00 38979059.00 L 44431707.00 38986252.73 L 44431707.00 39357087.00 L 44303150.00 39357087.00 L 44303150.00 39711417.00 L 44696850.00 39711417.00 L 44696850.00 39357087.00  z"/>
<path id="N" d="M 44696850.00 47157087.00 L 44539947.00 47157087.00 L 44539947.00 46786252.73 L 44550713.00 46779059.00 A 91761.13 91761.13 0 1 0 44420941.00 46649287.00 L 44413747.27 46660053.00 L 43909448.00 46660053.00 L 43909448.00 46517323.00 L 43397638.00 46517323.00 L 43397638.00 46660053.00 L 40602362.00 46660053.00 L 40602362.00 46517323.00 L 40090552.00 46517323.00 L 40090552.00 46911023.00 L 40602362.00 46911023.00 L 40602362.00 46768293.00 L 43397638.00 46768293.00 L 43397638.00 46911023.00 L 43909448.00 46911023.00 L 43909448.00 46768293.00 L 44413747.27 46768293.00 L 44420941.00 46779059.00 L 44431707.00 46786252.73 L 44431707.00 47157087.00 L 44303150.00 47157087.00 L 44303150.00 47511417.00 L 44696850.00 47511417.00 L 44696850.00 47157087.00  z"/>
<path id="N" d="M 61001127.00 45660283.00 L 60969342.49 45737017.00 L 59286220.00 45737017.00 L 59286220.00 45563780.00 L 58957972.00 45563780.00 L 57572096.00 44177904.00 L 57539018.00 44155802.00 L 57500000.00 44148041.00 L 55910000.01 44148041.00 L 55896084.00 44138743.00 L 55850000.00 44129576.00 L 55764951.00 44129576.00 L 55764951.00 43870424.00 L 55850000.00 43870424.00 A 120431.73 120431.73 0 0 0 55850000.00 43629576.00 L 55475984.00 43629576.00 A 120431.73 120431.73 0 0 0 55475984.00 43870424.00 L 55561033.00 43870424.00 L 55561033.00 44129576.00 L 55475984.00 44129576.00 A 120431.73 120431.73 0 0 0 55475984.00 44370424.00 L 55850000.00 44370424.00 L 55896084.00 44361257.00 L 55910000.01 44351959.00 L 57457767.00 44351959.00 L 58813780.00 45707972.00 L 58813780.00 46036220.00 L 59286220.00 46036220.00 L 59286220.00 45940935.00 L 60969342.49 45940935.00 L 61001127.00 46017669.00 A 357372.21 357372.21 0 1 0 61001127.00 45660283.00  zM 61310629.50 45838985.68 m -240838.32 0 a 240838.32 240838.32 0 1 1 481676.63 0a 240838.32 240838.32 0 1 1 -481676.63 0"/>
<path id="N" d="M 59051088.00 54242078.00 L 59032713.86 54256176.83 L 52926458.00 48149920.00 L 52888186.59 48134069.00 L 46874210.02 48134069.00 L 46204120.00 47463978.02 L 46204120.00 41700000.00 L 46188267.29 41661730.29 L 45276458.00 40749920.00 L 45238186.59 40734069.00 L 44687008.00 40734069.00 L 44687008.00 40620866.00 L 44554120.00 40620866.00 L 44554120.00 40242913.00 L 44696850.00 40242913.00 L 44696850.00 39888583.00 L 44303150.00 39888583.00 L 44303150.00 40242913.00 L 44445880.00 40242913.00 L 44445880.00 40620866.00 L 44312992.00 40620866.00 L 44312992.00 40631707.00 L 43909448.00 40631707.00 L 43909448.00 40488977.00 L 43397638.00 40488977.00 L 43397638.00 40631707.00 L 40602362.00 40631707.00 L 40602362.00 40488977.00 L 40090552.00 40488977.00 L 40090552.00 40882677.00 L 40602362.00 40882677.00 L 40602362.00 40739947.00 L 43397638.00 40739947.00 L 43397638.00 40882677.00 L 43909448.00 40882677.00 L 43909448.00 40739947.00 L 44312992.00 40739947.00 L 44312992.00 40955512.00 L 44687008.00 40955512.00 L 44687008.00 40842309.00 L 45215771.02 40842309.00 L 46095880.00 41722417.02 L 46095879.00 47486396.00 L 46111731.00 47524665.00 L 46813524.00 48226458.00 L 46851793.00 48242309.00 L 52865771.00 48242309.00 L 58956176.83 54332713.86 L 58942078.00 54351088.00 A 297823.01 297823.01 0 1 0 59051088.00 54242078.00  zM 59200000.44 54499998.65 m -180637.35 0 a 180637.35 180637.35 0 1 1 361274.69 0a 180637.35 180637.35 0 1 1 -361274.69 0"/>
<path id="N" d="M 60051088.00 54242078.00 L 60032713.88 54256176.81 L 56982229.00 51205691.00 L 56982229.00 47693793.00 L 56966376.29 47655523.29 L 54054120.00 44743266.01 L 54054120.00 44025984.00 L 54038267.29 43987714.29 L 53837158.59 43786604.86 L 53844440.00 43750000.00 A 120431.73 120431.73 0 0 0 53724016.00 43629576.00 L 53350000.00 43629576.00 L 53303916.00 43638743.00 L 53264847.00 43664847.00 L 53244112.26 43695880.00 L 52687008.00 43695880.00 L 52687008.00 43576772.00 L 52312992.00 43576772.00 L 52312992.00 43911418.00 L 52687008.00 43911418.00 L 52687008.00 43804120.00 L 53244112.26 43804120.00 L 53264847.00 43835153.00 L 53303916.00 43861257.00 L 53350000.00 43870424.00 L 53724016.00 43870424.00 L 53760620.86 43863142.59 L 53945880.00 44048401.06 L 53945879.00 44765684.00 L 53961731.00 44803953.00 L 56873989.00 47716210.01 L 56873988.00 51228109.00 L 56889840.00 51266378.00 L 59956176.81 54332713.88 L 59942078.00 54351088.00 A 297823.01 297823.01 0 1 0 60051088.00 54242078.00  zM 60200000.44 54499998.65 m -180637.35 0 a 180637.35 180637.35 0 1 1 361274.69 0a 180637.35 180637.35 0 1 1 -361274.69 0"/>
<path id="N" d="M 56199997.35 35499993.57 m -297829.90 0 a 297829.90 297829.90 0 1 1 595659.80 0a 297829.90 297829.90 0 1 1 -595659.80 0M 56200000.44 35499998.65 m -180637.35 0 a 180637.35 180637.35 0 1 1 361274.69 0a 180637.35 180637.35 0 1 1 -361274.69 0"/>
<path id="N" d="M 55199997.35 35499993.57 m -297829.90 0 a 297829.90 297829.90 0 1 1 595659.80 0a 297829.90 297829.90 0 1 1 -595659.80 0M 55200000.44 35499998.65 m -180637.35 0 a 180637.35 180637.35 0 1 1 361274.69 0a 180637.35 180637.35 0 1 1 -361274.69 0"/>
<path id="N" d="M 50199997.35 35499993.57 m -297829.90 0 a 297829.90 297829.90 0 1 1 595659.80 0a 297829.90 297829.90 0 1 1 -595659.80 0M 50200000.44 35499998.65 m -180637.35 0 a 180637.35 180637.35 0 1 1 361274.69 0a 180637.35 180637.35 0 1 1 -361274.69 0"/>
<path id="N" d="M 52611801.01 54499980.86 m -297844.08 0 a 297844.08 297844.08 0 1 1 595688.15 0a 297844.08 297844.08 0 1 1 -595688.15 0M 52611811.44 54499998.65 m -180637.35 0 a 180637.35 180637.35 0 1 1 361274.69 0a 180637.35 180637.35 0 1 1 -361274.69 0"/>
<path id="N" d="M 54199997.35 35499993.57 m -297829.90 0 a 297829.90 297829.90 0 1 1 595659.80 0a 297829.90 297829.90 0 1 1 -595659.80 0M 54200000.44 35499998.65 m -180637.35 0 a 180637.35 180637.35 0 1 1 361274.69 0a 180637.35 180637.35 0 1 1 -361274.69 0"/>
<path id="N" d="M 61199997.35 35499993.57 m -297829.90 0 a 297829.90 297829.90 0 1 1 595659.80 0a 297829.90 297829.90 0 1 1 -595659.80 0M 61200000.44 35499998.65 m -180637.35 0 a 180637.35 180637.35 0 1 1 361274.69 0a 180637.35 180637.35 0 1 1 -361274.69 0"/>
<path id="N" d="M 62199997.35 35499993.57 m -297829.90 0 a 297829.90 297829.90 0 1 1 595659.80 0a 297829.90 297829.90 0 1 1 -595659.80 0M 62200000.44 35499998.65 m -180637.35 0 a 180637.35 180637.35 0 1 1 361274.69 0a 180637.35 180637.35 0 1 1 -361274.69 0"/>
<path id="N" d="M 63199997.35 54499993.57 m -297829.90 0 a 297829.90 297829.90 0 1 1 595659.80 0a 297829.90 297829.90 0 1 1 -595659.80 0M 63200000.44 54499998.65 m -180637.35 0 a 180637.35 180637.35 0 1 1 361274.69 0a 180637.35 180637.35 0 1 1 -361274.69 0"/>
<path id="N" d="M 47899992.67 47599987.81 m -302603.18 0 a 302603.18 302603.18 0 1 1 605206.36 0a 302603.18 302603.18 0 1 1 -605206.36 0M 47900001.39 47599994.95 m -178433.05 0 a 178433.05 178433.05 0 1 1 356866.10 0a 178433.05 178433.05 0 1 1 -356866.10 0"/>
<path id="N" d="M 60199997.35 35499993.57 m -297829.90 0 a 297829.90 297829.90 0 1 1 595659.80 0a 297829.90 297829.90 0 1 1 -595659.80 0M 60200000.44 35499998.65 m -180637.35 0 a 180637.35 180637.35 0 1 1 361274.69 0a 180637.35 180637.35 0 1 1 -361274.69 0"/>
<path id="N" d="M 51899992.67 47599987.81 m -302603.18 0 a 302603.18 302603.18 0 1 1 605206.36 0a 302603.18 302603.18 0 1 1 -605206.36 0M 51900001.39 47599994.95 m -178433.05 0 a 178433.05 178433.05 0 1 1 356866.10 0a 178433.05 178433.05 0 1 1 -356866.10 0"/>
<path id="N" d="M 52899992.67 47599987.81 m -302603.18 0 a 302603.18 302603.18 0 1 1 605206.36 0a 302603.18 302603.18 0 1 1 -605206.36 0M 52900001.39 47599994.95 m -178433.05 0 a 178433.05 178433.05 0 1 1 356866.10 0a 178433.05 178433.05 0 1 1 -356866.10 0"/>
<path id="N" d="M 51611801.01 54499980.86 m -297844.08 0 a 297844.08 297844.08 0 1 1 595688.15 0a 297844.08 297844.08 0 1 1 -595688.15 0M 51611811.44 54499998.65 m -180637.35 0 a 180637.35 180637.35 0 1 1 361274.69 0a 180637.35 180637.35 0 1 1 -361274.69 0"/>
<path id="N" d="M 47611801.01 54499980.86 m -297844.08 0 a 297844.08 297844.08 0 1 1 595688.15 0a 297844.08 297844.08 0 1 1 -595688.15 0M 47611811.44 54499998.65 m -180637.35 0 a 180637.35 180637.35 0 1 1 361274.69 0a 180637.35 180637.35 0 1 1 -361274.69 0"/>
<path id="N" d="M 50611801.01 54499980.86 m -297844.08 0 a 297844.08 297844.08 0 1 1 595688.15 0a 297844.08 297844.08 0 1 1 -595688.15 0M 50611811.44 54499998.65 m -180637.35 0 a 180637.35 180637.35 0 1 1 361274.69 0a 180637.35 180637.35 0 1 1 -361274.69 0"/>
<path id="N" d="M 46611801.01 54499980.86 m -297844.08 0 a 297844.08 297844.08 0 1 1 595688.15 0a 297844.08 297844.08 0 1 1 -595688.15 0M 46611811.44 54499998.65 m -180637.35 0 a 180637.35 180637.35 0 1 1 361274.69 0a 180637.35 180637.35 0 1 1 -361274.69 0"/>
<path id="N" d="M 53611801.01 54499980.86 m -297844.08 0 a 297844.08 297844.08 0 1 1 595688.15 0a 297844.08 297844.08 0 1 1 -595688.15 0M 53611811.44 54499998.65 m -180637.35 0 a 180637.35 180637.35 0 1 1 361274.69 0a 180637.35 180637.35 0 1 1 -361274.69 0"/>
<path id="N" d="M 48611801.01 54499980.86 m -297844.08 0 a 297844.08 297844.08 0 1 1 595688.15 0a 297844.08 297844.08 0 1 1 -595688.15 0M 48611811.44 54499998.65 m -180637.35 0 a 180637.35 180637.35 0 1 1 361274.69 0a 180637.35 180637.35 0 1 1 -361274.69 0"/>
<path id="N" d="M 54611801.01 54499980.86 m -297844.08 0 a 297844.08 297844.08 0 1 1 595688.15 0a 297844.08 297844.08 0 1 1 -595688.15 0M 54611811.44 54499998.65 m -180637.35 0 a 180637.35 180637.35 0 1 1 361274.69 0a 180637.35 180637.35 0 1 1 -361274.69 0"/>
<path id="N" d="M 55907086.00 54204725.00 L 55316536.00 54204725.00 L 55316536.00 54795275.00 L 55907086.00 54795275.00 L 55907086.00 54204725.00  zM 55611811.44 54499998.65 m -180637.35 0 a 180637.35 180637.35 0 1 1 361274.69 0a 180637.35 180637.35 0 1 1 -361274.69 0"/>
<path id="N" d="M 64495275.00 54204725.00 L 63904725.00 54204725.00 L 63904725.00 54795275.00 L 64495275.00 54795275.00 L 64495275.00 54204725.00  zM 64200000.44 54499998.65 m -180637.35 0 a 180637.35 180637.35 0 1 1 361274.69 0a 180637.35 180637.35 0 1 1 -361274.69 0"/>
<path id="N" d="M 57495275.00 35204725.00 L 56904725.00 35204725.00 L 56904725.00 35795275.00 L 57495275.00 35795275.00 L 57495275.00 35204725.00  zM 57200000.44 35499998.65 m -180637.35 0 a 180637.35 180637.35 0 1 1 361274.69 0a 180637.35 180637.35 0 1 1 -361274.69 0"/>
<path id="N" d="M 65199997.94 38999997.94 m -200709.51 0 a 200709.51 200709.51 0 1 1 401419.02 0a 200709.51 200709.51 0 1 1 -401419.02 0"/>
<path id="N" d="M 46199997.94 35499997.94 m -200709.51 0 a 200709.51 200709.51 0 1 1 401419.02 0a 200709.51 200709.51 0 1 1 -401419.02 0"/>
<path id="N" d="M 65199997.94 46999997.94 m -200709.51 0 a 200709.51 200709.51 0 1 1 401419.02 0a 200709.51 200709.51 0 1 1 -401419.02 0"/>
<path id="N" d="M 49899992.67 47599987.81 m -302603.18 0 a 302603.18 302603.18 0 1 1 605206.36 0a 302603.18 302603.18 0 1 1 -605206.36 0M 49900001.39 47599994.95 m -178433.05 0 a 178433.05 178433.05 0 1 1 356866.10 0a 178433.05 178433.05 0 1 1 -356866.10 0"/>
<path id="N" d="M 64495275.00 35204725.00 L 63904725.00 35204725.00 L 63904725.00 35795275.00 L 64495275.00 35795275.00 L 64495275.00 35204725.00  zM 64200000.44 35499998.65 m -180637.35 0 a 180637.35 180637.35 0 1 1 361274.69 0a 180637.35 180637.35 0 1 1 -361274.69 0"/>
<path id="N" d="M 63199997.35 35499993.57 m -297829.90 0 a 297829.90 297829.90 0 1 1 595659.80 0a 297829.90 297829.90 0 1 1 -595659.80 0M 63200000.44 35499998.65 m -180637.35 0 a 180637.35 180637.35 0 1 1 361274.69 0a 180637.35 180637.35 0 1 1 -361274.69 0"/>
<path id="N" d="M 50899992.67 47599987.81 m -302603.18 0 a 302603.18 302603.18 0 1 1 605206.36 0a 302603.18 302603.18 0 1 1 -605206.36 0M 50900001.39 47599994.95 m -178433.05 0 a 178433.05 178433.05 0 1 1 356866.10 0a 178433.05 178433.05 0 1 1 -356866.10 0"/>
<path id="N" d="M 58051088.00 54242078.00 L 58032714.41 54256176.41 L 52126458.00 48349920.00 L 52088186.59 48334069.00 L 46660607.00 48334069.00 L 45954120.00 47627582.00 L 45954120.00 45600000.00 L 45938267.29 45561730.29 L 45026458.00 44649920.00 L 44988186.59 44634069.00 L 44687008.00 44634069.00 L 44687008.00 44520866.00 L 44554120.00 44520866.00 L 44554120.00 44142913.00 L 44696850.00 44142913.00 L 44696850.00 43788583.00 L 44303150.00 43788583.00 L 44303150.00 44142913.00 L 44445880.00 44142913.00 L 44445880.00 44520866.00 L 44312992.00 44520866.00 L 44312992.00 44531707.00 L 43909448.00 44531707.00 L 43909448.00 44388977.00 L 43397638.00 44388977.00 L 43397638.00 44531707.00 L 40602362.00 44531707.00 L 40602362.00 44388977.00 L 40090552.00 44388977.00 L 40090552.00 44782677.00 L 40602362.00 44782677.00 L 40602362.00 44639947.00 L 43397638.00 44639947.00 L 43397638.00 44782677.00 L 43909448.00 44782677.00 L 43909448.00 44639947.00 L 44312992.00 44639947.00 L 44312992.00 44855512.00 L 44687008.00 44855512.00 L 44687008.00 44742309.00 L 44965771.02 44742309.00 L 45845880.00 45622417.02 L 45845879.00 47650000.00 L 45861731.00 47688269.00 L 46599920.00 48426458.00 L 46638191.41 48442309.00 L 52065771.00 48442309.00 L 57956176.41 54332714.41 L 57942078.00 54351088.00 A 297823.01 297823.01 0 1 0 58051088.00 54242078.00  zM 58200000.44 54499998.65 m -180637.35 0 a 180637.35 180637.35 0 1 1 361274.69 0a 180637.35 180637.35 0 1 1 -361274.69 0"/>
<path id="N" d="M 62277082.00 54212325.00 L 62254120.00 54209302.01 L 62254120.00 51750000.00 L 62238269.00 51711731.00 L 61999293.00 51472755.00 L 61961021.59 51456904.00 L 61664963.00 51456904.00 L 61664963.00 51156694.00 L 60956303.00 51156694.00 L 60956303.00 51445880.00 L 59717323.00 51445880.00 L 59717323.00 51312992.00 L 59382677.00 51312992.00 L 59382677.00 51687008.00 L 59717323.00 51687008.00 L 59717323.00 51554120.00 L 60956303.00 51554120.00 L 60956303.00 51865354.00 L 61664963.00 51865354.00 L 61664963.00 51565144.00 L 61938606.00 51565144.00 L 62145880.00 51772418.00 L 62145880.00 54209302.01 L 62122918.00 54212325.00 A 297829.90 297829.90 0 1 0 62277082.00 54212325.00  zM 61310629.50 51511033.68 m -240838.32 0 a 240838.32 240838.32 0 1 1 481676.63 0a 240838.32 240838.32 0 1 1 -481676.63 0M 62200000.44 54499998.65 m -180637.35 0 a 180637.35 180637.35 0 1 1 361274.69 0a 180637.35 180637.35 0 1 1 -361274.69 0"/>
<path id="N" d="M 62820948.00 51472755.00 L 62809925.00 51461731.00 A 54119.43 54119.43 0 0 0 62733387.00 51538269.00 L 62744411.00 51549292.00 A 54118.22 54118.22 0 1 0 62820948.00 51472755.00  z"/>
<path id="N" d="M 59286220.00 44775975.00 L 60225984.00 44775975.00 L 60265002.00 44768214.00 L 60298080.00 44746112.00 L 60492233.00 44551959.00 L 60956303.00 44551959.00 L 60956303.00 44815354.00 L 61664963.00 44815354.00 L 61664963.00 44562983.00 L 63524264.00 44562983.00 L 63563282.00 44555222.00 L 63596360.00 44533120.00 L 63872096.00 44257384.00 L 63894198.00 44224306.00 L 63901959.00 44185288.00 L 63901959.00 41250000.00 L 63894198.00 41210982.00 L 63872096.00 41177904.00 L 63558120.00 40863928.00 L 63525042.00 40841826.00 L 63486024.00 40834065.00 L 61664963.00 40834065.00 L 61664963.00 40581694.00 L 60956303.00 40581694.00 L 60956303.00 41290354.00 L 61664963.00 41290354.00 L 61664963.00 41037983.00 L 63443791.00 41037983.00 L 63698041.00 41292233.00 L 63698041.00 44143055.00 L 63482031.00 44359065.00 L 61664963.00 44359065.00 L 61664963.00 44106694.00 L 60956303.00 44106694.00 L 60956303.00 44348041.00 L 60450000.00 44348041.00 L 60410982.00 44355802.00 L 60377904.00 44377904.00 L 60183751.00 44572057.00 L 59286220.00 44572057.00 L 59286220.00 44437796.00 L 58813780.00 44437796.00 L 58813780.00 44910236.00 L 59286220.00 44910236.00 L 59286220.00 44775975.00  zM 61310629.50 40936033.68 m -240838.32 0 a 240838.32 240838.32 0 1 1 481676.63 0a 240838.32 240838.32 0 1 1 -481676.63 0M 61310629.50 44461033.68 m -240838.32 0 a 240838.32 240838.32 0 1 1 481676.63 0a 240838.32 240838.32 0 1 1 -481676.63 0"/>
<path id="N" d="M 61664963.00 37056694.00 L 60956303.00 37056694.00 L 60956303.00 37339974.00 L 59373229.00 37339974.00 L 59373229.00 37212992.00 L 59254120.00 37212992.00 L 59254120.00 35790697.99 L 59277082.00 35787675.00 A 297829.90 297829.90 0 1 0 59122918.00 35787675.00 L 59145880.00 35790697.99 L 59145880.00 37212992.00 L 59038583.00 37212992.00 L 59038583.00 37587008.00 L 59373229.00 37587008.00 L 59373229.00 37448214.00 L 60956303.00 37448214.00 L 60956303.00 37765354.00 L 61664963.00 37765354.00 L 61664963.00 37056694.00  zM 59200000.44 35499998.65 m -180637.35 0 a 180637.35 180637.35 0 1 1 361274.69 0a 180637.35 180637.35 0 1 1 -361274.69 0M 61310629.50 37411033.68 m -240838.32 0 a 240838.32 240838.32 0 1 1 481676.63 0a 240838.32 240838.32 0 1 1 -481676.63 0"/>
<path id="N" d="M 62820949.00 37372756.00 L 62804019.00 37355825.00 A 54119.43 54119.43 0 0 0 62727481.00 37432363.00 L 62744412.00 37449293.00 A 54118.22 54118.22 0 1 0 62820949.00 37372756.00  z"/>
<path id="N" d="M 61051088.00 54242078.00 L 61032713.87 54256176.82 L 57182229.00 50405691.00 L 57182229.00 47610951.00 L 57166376.29 47572681.29 L 54254120.00 44660424.01 L 54254120.00 42957874.00 L 54238267.29 42919604.29 L 54030395.00 42711731.00 L 53992123.59 42695880.00 L 53829903.74 42695880.00 L 53809169.00 42664847.00 L 53770100.00 42638743.00 L 53724016.00 42629576.00 L 53350000.00 42629576.00 L 53303916.00 42638743.00 L 53264847.00 42664847.00 L 53244112.26 42695880.00 L 53022417.15 42695880.00 L 52932364.00 42605826.00 L 52894092.59 42589975.00 L 52687008.00 42589975.00 L 52687008.00 42476772.00 L 52312992.00 42476772.00 L 52312992.00 42811418.00 L 52687008.00 42811418.00 L 52687008.00 42698215.00 L 52871677.15 42698215.00 L 52961731.00 42788269.00 L 53000000.00 42804120.00 L 53244112.26 42804120.00 L 53264847.00 42835153.00 L 53303916.00 42861257.00 L 53350000.00 42870424.00 L 53724016.00 42870424.00 L 53770100.00 42861257.00 L 53809169.00 42835153.00 L 53829903.74 42804120.00 L 53969708.08 42804120.00 L 54145880.00 42980291.08 L 54145879.00 44682842.00 L 54161731.00 44721111.00 L 57073989.00 47633368.01 L 57073988.00 50428109.00 L 57089840.00 50466378.00 L 60956176.82 54332713.87 L 60942078.00 54351088.00 A 297823.01 297823.01 0 1 0 61051088.00 54242078.00  zM 61200000.44 54499998.65 m -180637.35 0 a 180637.35 180637.35 0 1 1 361274.69 0a 180637.35 180637.35 0 1 1 -361274.69 0"/>
</g>
</svg>
