**ABCDEFGHIJKLMNOPQRSTUVWXYZabcdefghijklmnopqrstuvwxyz**************************
**PARASOLID !"#$%&'()*+,-./:;<=>?@[\]^_`{|}~0123456789**************************
**PART1;
MC=AMD64;
MC_MODEL=Intel64 Family 6 Model 140 Stepping 1, GenuineIntel;
MC_ID=unknown;
OS=Windows_NT;
OS_RELEASE=unknown;
FRU=CAD Exchanger 3.13.0 (cadexchanger.com);
APPL=unknown;
SITE=unknown;
USER=unknown;
FORMAT=text;
GUISE=transmit;
KEY=SOD123F_1N4007FLTR;
FILE=SOD123F_1N4007FLTR.x_t;
DATE=Sun Mar  5 00:01:11 2023;
**PART2;
SCH=SCH_1200000_12103;
USFLD_SIZE=0;
**PART3;
**END_OF_HEADER*****************************************************************
T51 : TRANSMIT FILE created by modeller version 120000017 SCH_1200000_121030 74
 10 1 10 0 2 38 433 467 501 535 569 603 637 671 12 2 22 0 3 0 0 0 0 1000.0 1.0e-
08 0 0 0 1 0 3 1 10 12 18 16 9 17 15 70 3 0 2 0 0 4 1 20 0 4 4 1 T74 20 4 1 0 5
 0 0 0 0 0 0 0 0 0 0 0 0 0 0 0 0 0 0 0 81 1 5 5 6 11 0 0 0 0 8 80 1 6 0 7 8001 0
 0 0 0 3 5 0 0 0 FFFFTFTFFFFFFF2 79 15 7 SDL/TYSA_COLOUR83 3 8 1.0 1.0 1.0 19 9
 1 0 2 0 0 10 V13 10 2 0 2 0 11 0 0 9 11 14 11 3 5 1.0e-08 0 0 13 10 12 -0 0 0 0
 10 50 12 4 0 11 0 0 0 +1.2192000000000001e-07 8.1280000000067343e-08 0.0011 -1.
4997597826618576e-32 -6.1232339957367659e-17 -1.0 2.4492935982947066e-16 1.0 -6.
1232339957367659e-17 15 13 6 0 14 11 0 17 14 0 13 22 34 15 19 17 0 27 +18 15 7 0
 14 0 20 16 ?2 29 16 8 0 15 21 0 6.3515955207017658e-04 6.3511891207017657e-04 0
.0011 16 17 9 0 ?14 0 25 18 0 0 2 30 18 10 0 17 26 0 0 +1.2192000000015553e-07 6
.3511891207017684e-04 0.0011 -1.0 2.4492935982947066e-16 0.0 17 19 0 0 0 0 20 14
 17 0 34 -18 20 11 0 19 15 23 21 ?2 29 21 12 0 20 24 16 0.0011351595520702 6.351
1891207017648e-04 0.0011 17 22 0 13 28 14 23 27 25 0 33 +18 23 13 0 22 20 29 24
 ?2 29 24 14 0 23 30 21 6.3515955207017641e-04 -6.3495635207017687e-04 0.0011 16
 25 15 0 ?22 17 31 26 0 0 2 30 26 16 0 25 32 18 0 +6.3515955207017649e-04 8.1280
000000020234e-08 0.0011 -7.4198978237582347e-17 -1.0 6.1232339957367659e-17 17 2
7 0 0 0 0 15 22 25 0 0 -17 28 0 13 34 22 29 33 31 0 37 +18 29 17 0 28 23 0 30 ?2
 29 30 18 0 29 0 24 0.0011351595520702 -6.3495635207017696e-04 0.0011 16 31 19 0
 ?28 25 35 32 0 0 2 30 32 20 0 31 36 26 0 +1.2191999999984444e-07 -6.34956352070
1766e-04 0.0011 1.0 -2.4492935982947066e-16 0.0 17 33 0 0 0 0 23 28 31 0 0 -17 3
4 0 13 14 28 20 37 35 0 0 +16 35 21 0 ?34 31 0 36 0 0 2 30 36 22 0 35 0 32 0 +0.
0011351595520702 8.1279999999789343e-08 0.0011 2.4492935982947066e-16 1.0 -6.123
2339957367659e-17 17 37 0 0 0 0 29 34 35 0 0 -12 38 248 0 39 0 0 0 0 1000.0 1.0e
-08 0 0 0 1 0 3 1 44 46 52 50 43 51 49 70 39 0 38 0 0 4 1 20 0 40 40 1 T74 20 40
 1 0 41 0 0 0 0 0 0 0 0 0 0 0 0 0 0 0 0 0 0 0 81 1 41 5 6 45 0 0 74 0 42 83 3 42
 0.1019607856869698 0.1019607856869698 0.1019607856869698 19 43 1 0 38 0 0 44 V1
3 44 2 0 38 0 45 0 0 43 45 14 45 3 41 1.0e-08 72 0 47 44 46 -0 0 72 0 44 50 46 4
 0 45 73 0 0 +1.2192000000000001e-07 8.1280000000067343e-08 0.0011 -1.4997597826
618576e-32 -6.1232339957367659e-17 -1.0 2.4492935982947066e-16 1.0 -6.1232339957
367659e-17 15 47 6 0 48 45 0 17 48 0 47 56 68 49 53 51 0 61 -18 49 7 0 48 0 54 5
0 ?38 29 50 8 0 49 55 0 6.3515955207017658e-04 6.3511891207017657e-04 0.0011 16
 51 9 0 ?53 0 59 52 0 0 38 30 52 10 0 51 60 0 0 +6.3515955207017649e-04 8.128000
0000020234e-08 0.0011 -7.4198978237582347e-17 -1.0 6.1232339957367659e-17 17 53
 0 0 0 0 54 48 51 0 68 +18 54 11 0 53 49 57 55 ?38 29 55 12 0 54 58 50 6.3515955
207017641e-04 -6.3495635207017687e-04 0.0011 17 56 0 47 62 48 57 61 59 0 67 +18
 57 13 0 56 54 63 58 ?38 29 58 14 0 57 64 55 -0.0011349157120702 6.3511891207017
701e-04 0.0011 16 59 15 0 ?56 51 65 60 0 0 38 30 60 16 0 59 66 52 0 +1.219200000
0015553e-07 6.3511891207017684e-04 0.0011 -1.0 2.4492935982947066e-16 0.0 17 61
 0 322 333 329 49 56 59 0 336 -17 62 0 47 68 56 63 67 65 0 411 +18 63 17 0 71 57
 78 64 ?38 29 64 18 0 63 79 58 -0.0011349157120702 -6.3495635207017642e-04 0.001
1 16 65 19 0 ?62 59 69 66 0 0 38 30 66 20 0 65 70 60 0 +-0.0011349157120702 8.12
80000000345343e-08 0.0011 -2.4492935982947066e-16 -1.0 6.1232339957367659e-17 17
 67 0 377 354 378 57 62 65 0 351 -17 68 0 47 48 62 54 71 69 0 429 +16 69 21 0 ?6
8 65 80 70 0 0 38 30 70 22 0 69 81 66 0 +1.2191999999984444e-07 -6.3495635207017
66e-04 0.0011 1.0 -2.4492935982947066e-16 0.0 17 71 0 428 414 429 63 68 69 0 62
 -14 72 23 74 1.0e-08 125 45 76 44 73 +0 0 125 45 44 50 73 24 0 72 126 46 0 +0.0
0130012192 -7.9991872000000042e-04 4.8985871965894132e-20 0.9961946980917456 -2.
3866057959996252e-16 0.0871557427476584 -0.0871557427476584 8.2346332693927007e-
17 0.9961946980917456 81 1 74 25 6 72 0 0 127 41 75 83 3 75 0.1019607856869698 0
.1019607856869698 0.1019607856869698 15 76 26 0 77 72 0 17 77 0 76 85 121 78 82
 80 0 90 -18 78 27 0 77 63 83 79 ?38 29 79 28 0 78 84 64 0.00130012192 3.2508127
999999972e-04 -1.9900510486144492e-20 16 80 29 0 ?82 69 88 81 0 0 38 30 81 30 0
 80 89 70 0 +0.00130012192 3.2508127999999976e-04 -1.9900510486144494e-20 -0.087
1557427476584 8.2346332693927007e-17 0.9961946980917456 17 82 0 0 0 0 83 77 80 0
 0 +18 83 31 0 121 78 86 84 ?38 29 84 32 0 83 87 79 0.0012826241872948 3.2508127
999999981e-04 1.9999999999999998e-04 17 85 0 76 91 77 86 90 88 0 96 +18 86 33 0
 85 83 92 87 ?38 29 87 34 0 86 93 84 0.00130012192 7.2536667764311886e-04 -4.441
0922034598066e-20 16 88 35 0 ?85 80 94 89 0 0 38 30 89 36 0 88 95 81 0 +0.001300
12192 -7.9991872000000042e-04 4.8985871965894132e-20 2.4492935982947066e-16 1.0
 -6.1232339957367659e-17 17 90 0 240 275 266 78 85 88 0 280 -17 91 0 76 97 85 92
 96 94 0 342 +18 92 37 0 102 86 98 93 ?38 29 93 38 0 92 99 87 0.0012098741544271
 6.3511891207017639e-04 0.0010315366807061 16 94 39 0 ?91 88 100 95 0 0 38 30 95
 40 0 94 101 89 0 +0.0012886230108897 7.1386776853283225e-04 1.314331325552742e-
04 -0.0868265938642478 -0.0868265938642477 0.992432509138967 17 96 0 341 274 342
 86 91 94 0 266 -17 97 0 76 103 91 98 102 100 0 108 +18 98 41 0 97 92 104 99 ?38
 29 99 42 0 98 105 93 0.0012098741544271 -6.3495635207017687e-04 0.0010315366807
061 16 100 43 0 ?97 94 106 101 0 0 38 30 101 44 0 100 107 95 0 +0.00120987415442
71 -7.9991872000000032e-04 0.0010315366807061 -2.4492935982947066e-16 -1.0 6.123
2339957367659e-17 17 102 0 386 363 393 92 97 100 0 91 -17 103 0 76 109 97 104 10
8 106 0 114 +18 104 45 0 103 98 110 105 ?38 29 105 46 0 104 111 99 0.00130012192
 -7.2520411764311952e-04 4.4410922034598057e-20 16 106 47 0 ?103 100 112 107 0 0
 38 30 107 48 0 106 113 101 0 +0.001300685182733 -7.2576738037614019e-04 -6.4381
224986224579e-06 0.0868265938642478 -0.0868265938642479 -0.992432509138967 17 10
8 0 401 402 299 98 103 106 0 393 -17 109 0 76 115 103 110 114 112 0 287 +18 110
 49 0 120 104 116 111 ?38 29 111 50 0 110 117 105 0.00130012192 -3.2491872000000
033e-04 1.9900510486144492e-20 16 112 51 0 ?109 106 118 113 0 0 38 30 113 52 0 1
12 119 107 0 +0.00130012192 -7.9991872000000042e-04 4.8985871965894132e-20 2.449
2935982947066e-16 1.0 -6.1232339957367659e-17 17 114 0 240 291 287 104 109 112 0
 299 -17 115 0 76 121 109 116 120 118 0 124 -18 116 53 0 115 110 131 117 ?38 29
 117 54 0 116 132 111 0.0012826241872948 -3.2491872000000029e-04 2.0000000000000
004e-04 16 118 55 0 ?120 112 122 119 0 0 38 30 119 56 0 118 123 113 0 +0.0013001
2192 -3.2491872000000029e-04 1.9900510486144484e-20 0.0871557427476584 -8.234633
2693927007e-17 -0.9961946980917456 17 120 0 0 0 0 110 115 118 0 109 +17 121 0 76
 77 115 83 124 122 0 82 -16 122 57 0 ?124 118 133 123 0 0 38 30 123 58 0 122 134
 119 0 +0.0012826241872948 -7.9991872000000042e-04 2.0000000000000004e-04 -2.449
2935982947066e-16 -1.0 6.1232339957367659e-17 17 124 0 0 0 0 116 121 122 0 0 +14
 125 59 127 1.0e-08 178 72 129 44 126 +0 0 178 72 44 50 126 60 0 125 179 73 0 +-
0.00129987808 -7.999187199999998e-04 4.8985871965894132e-20 -0.9961946980917456
 2.4933407973828552e-16 0.0871557427476584 -0.0871557427476584 -3.96523321406350
2e-17 -0.9961946980917456 81 1 127 61 6 125 0 0 180 74 128 83 3 128 0.1019607856
869698 0.1019607856869698 0.1019607856869698 15 129 62 0 130 125 0 17 130 0 129
 138 174 131 135 133 0 143 -18 131 63 0 130 116 136 132 ?38 29 132 64 0 131 137
 117 -0.0012823803472948 3.2508128000000043e-04 1.9999999999999998e-04 16 133 65
 0 ?135 122 141 134 0 0 38 30 134 66 0 133 142 123 0 +-0.00129987808 3.250812800
0000043e-04 -1.9900510486144494e-20 -0.0871557427476584 -3.965233214063502e-17 -
0.9961946980917456 17 135 0 0 0 0 136 130 133 0 253 +18 136 67 0 135 131 139 137
 ?38 29 137 68 0 136 140 132 -0.00129987808 3.2508128000000043e-04 -1.9900510486
144494e-20 17 138 0 129 144 130 139 143 141 0 0 -18 139 69 0 149 136 145 140 ?38
 29 140 70 0 139 146 137 -0.0012823803472948 -3.2491871999999966e-04 2.000000000
0000004e-04 16 141 71 0 ?143 133 147 142 0 0 38 30 142 72 0 141 148 134 0 +-0.00
12823803472948 -7.999187199999998e-04 2.0000000000000004e-04 2.4492935982947066e
-16 1.0 -6.1232339957367659e-17 17 143 0 0 0 0 131 138 141 0 0 +17 144 0 129 150
 138 145 149 147 0 246 -18 145 73 0 144 139 151 146 ?38 29 146 74 0 145 152 140
 -0.00129987808 -3.2491871999999966e-04 1.9900510486144492e-20 16 147 75 0 ?149
 141 153 148 0 0 38 30 148 76 0 147 154 142 0 +-0.00129987808 -3.249187199999996
2e-04 1.9900510486144484e-20 0.0871557427476584 3.965233214063502e-17 0.99619469
80917456 17 149 0 0 0 0 139 144 147 0 138 +17 150 0 129 156 144 151 155 153 0 16
1 +18 151 77 0 150 145 157 152 ?38 29 152 78 0 151 158 146 -0.00129987808 -7.252
041176431189e-04 4.4410922034598057e-20 16 153 79 0 ?150 147 159 154 0 0 38 30 1
54 80 0 153 160 148 0 +-0.00129987808 -7.999187199999998e-04 4.8985871965894132e
-20 -2.4492935982947066e-16 -1.0 6.1232339957367659e-17 17 155 0 240 241 300 145
 150 153 0 0 -17 156 0 129 162 150 157 161 159 0 167 +18 157 81 0 156 151 163 15
8 ?38 29 158 82 0 157 164 152 -0.0012096303144271 -6.3495635207017642e-04 0.0010
315366807061 16 159 83 0 ?156 153 165 160 0 0 38 30 160 84 0 159 166 154 0 +-0.0
01300441342733 -7.2576738037613957e-04 -6.4381224986224544e-06 0.086826593864247
8 0.0868265938642479 0.992432509138967 17 161 0 368 308 369 151 156 159 0 300 -1
7 162 0 129 168 156 163 167 165 0 173 +18 163 85 0 162 157 169 164 ?38 29 164 86
 0 163 170 158 -0.0012096303144271 6.3511891207017701e-04 0.0010315366807061 16
 165 87 0 ?162 159 171 166 0 0 38 30 166 88 0 165 172 160 0 +-0.0012096303144271
 -7.999187199999998e-04 0.0010315366807061 2.4492935982947066e-16 1.0 -6.1232339
957367659e-17 17 167 0 377 378 354 157 162 165 0 369 -17 168 0 129 174 162 169 1
73 171 0 265 +18 169 89 0 177 163 184 170 ?38 29 170 90 0 169 185 164 -0.0012998
7808 7.2536667764311958e-04 -4.4410922034598066e-20 16 171 91 0 ?168 165 175 172
 0 0 38 30 172 92 0 171 176 166 0 +-0.0012883791708897 7.1386776853283296e-04 1.
314331325552742e-04 -0.0868265938642478 0.0868265938642478 -0.992432509138967 17
 173 0 313 314 265 163 168 171 0 317 -17 174 0 129 130 168 136 177 175 0 0 +16 1
75 93 0 ?174 171 186 176 0 0 38 30 176 94 0 175 187 172 0 +-0.00129987808 -7.999
187199999998e-04 4.8985871965894132e-20 -2.4492935982947066e-16 -1.0 6.123233995
7367659e-17 17 177 0 240 257 253 169 174 175 0 168 -14 178 95 180 1.0e-08 207 12
5 182 44 179 +0 0 207 125 44 50 179 96 0 178 208 126 0 +-0.00129987808 8.0008128
000000038e-04 -4.8985871965894132e-20 2.4399732966912402e-16 0.9961946980917456
 0.0871557427476583 -2.1347000276645973e-17 -0.0871557427476583 0.99619469809174
56 81 1 180 97 6 178 0 0 209 127 181 83 3 181 0.1019607856869698 0.1019607856869
698 0.1019607856869698 15 182 98 0 183 178 0 17 183 0 182 191 203 184 188 186 0
 0 +18 184 99 0 196 169 189 185 ?38 29 185 100 0 184 190 170 -0.0012251634776431
 8.0008128000000038e-04 -4.8985871965894132e-20 16 186 101 0 ?183 175 194 187 0
 0 38 30 187 102 0 186 195 176 0 +-0.00129987808 8.0008128000000038e-04 -4.89858
71965894132e-20 -1.0 2.4492935982947066e-16 0.0 17 188 0 240 266 257 189 183 186
 0 274 -18 189 103 0 203 184 192 190 ?38 29 190 104 0 189 193 185 0.001225407317
6431 8.0008127999999967e-04 -4.8985871965894132e-20 17 191 0 182 197 183 192 196
 194 0 202 +18 192 105 0 191 189 198 193 ?38 29 193 106 0 192 199 190 -0.0011349
157120702 7.0983351442705791e-04 0.0010315366807061 16 194 107 0 ?191 186 200 19
5 0 0 38 30 195 108 0 194 201 187 0 +-0.0012257267403761 8.0064454273302097e-04
 -6.4381224986225663e-06 0.0868265938642478 -0.0868265938642478 0.99243250913896
7 17 196 0 313 265 314 184 191 194 0 257 -17 197 0 182 203 191 198 202 200 0 206
 +18 198 109 0 197 192 213 199 ?38 29 199 110 0 198 214 193 0.0011351595520702 7
.0983351442705738e-04 0.0010315366807061 16 200 111 0 ?197 194 204 201 0 0 38 30
 201 112 0 200 205 195 0 +-0.00129987808 7.0983351442705791e-04 0.00103153668070
61 1.0 -2.4492935982947066e-16 0.0 17 202 0 322 329 323 192 197 200 0 314 -17 20
3 0 182 183 197 189 206 204 0 188 +16 204 113 0 ?203 200 215 205 0 0 38 30 205 1
14 0 204 216 201 0 +0.0012063695511308 7.8104351348764602e-04 2.1760266696395969
e-04 0.0868265938642478 0.0868265938642477 -0.992432509138967 17 206 0 341 342 2
74 198 203 204 0 345 -14 207 115 209 1.0e-08 236 178 211 44 208 +0 0 236 178 44
 50 208 116 0 207 237 179 0 +-0.00129987808 -7.999187199999998e-04 4.89858719658
94132e-20 -2.4399732966912402e-16 -0.9961946980917456 0.0871557427476584 -2.1347
000276646004e-17 -0.0871557427476584 -0.9961946980917456 81 1 209 117 6 207 0 0
 238 180 210 83 3 210 0.1019607856869698 0.1019607856869698 0.1019607856869698 1
5 211 118 0 212 207 0 17 212 0 211 220 232 213 217 215 0 225 +18 213 119 0 212 1
98 218 214 ?38 29 214 120 0 213 219 199 0.0012254073176431 -7.9991872000000042e-
04 4.8985871965894132e-20 16 215 121 0 ?212 204 223 216 0 0 38 30 216 122 0 215
 224 205 0 +-0.00129987808 -7.999187199999998e-04 4.8985871965894132e-20 1.0 -2.
4492935982947066e-16 0.0 17 217 0 240 300 291 218 212 215 0 232 -18 218 123 0 21
7 213 221 219 ?38 29 219 124 0 218 222 214 -0.0012251634776431 -7.99918719999999
8e-04 4.8985871965894132e-20 17 220 0 211 226 212 221 225 223 0 402 +18 221 125
 0 231 218 227 222 ?38 29 222 126 0 221 228 219 0.0011351595520702 -7.0967095442
705785e-04 0.0010315366807061 16 223 127 0 ?220 215 229 224 0 0 38 30 224 128 0
 223 230 216 0 +0.0012063695511308 -7.8088095348764678e-04 2.1760266696395978e-0
4 -0.0868265938642478 0.0868265938642479 0.992432509138967 17 225 0 401 299 402
 213 220 223 0 291 -17 226 0 211 232 220 227 231 229 0 235 +18 227 129 0 226 221
 242 228 ?38 29 228 130 0 227 243 222 -0.0011349157120702 -7.0967095442705723e-0
4 0.0010315366807061 16 229 131 0 ?226 223 233 230 0 0 38 30 230 132 0 229 234 2
24 0 +-0.00129987808 -7.0967095442705723e-04 0.0010315366807061 -1.0 2.449293598
2947066e-16 0.0 17 231 0 428 423 414 221 226 229 0 220 -17 232 0 211 212 226 218
 235 233 0 308 +16 233 133 0 ?232 229 244 234 0 0 38 30 234 134 0 233 245 230 0
 +-0.0012257267403761 -8.0048198273302038e-04 -6.4381224986224526e-06 -0.0868265
938642478 -0.0868265938642478 -0.992432509138967 17 235 0 368 369 308 227 232 23
3 0 372 -14 236 135 238 1.0e-08 309 207 240 44 237 +0 0 309 207 44 50 237 136 0
 236 310 208 0 +1.2192000000000001e-07 8.1280000000000001e-08 0.0 -1.49975978266
18576e-32 -6.1232339957367659e-17 -1.0 2.4492935982947066e-16 1.0 -6.12323399573
67659e-17 81 1 238 137 6 236 0 0 311 209 239 83 3 239 0.1019607856869698 0.10196
07856869698 0.1019607856869698 15 240 138 0 155 236 0 17 241 0 240 247 155 242 2
46 244 0 252 -18 242 139 0 241 227 248 243 ?38 29 243 140 0 242 249 228 -0.00174
987808 -3.2491871999999957e-04 1.9900510486144492e-20 16 244 141 0 ?246 233 250
 245 0 0 38 30 245 142 0 244 251 234 0 +-0.00174987808 -3.2491871999999957e-04 1
.9900510486144492e-20 1.0 -2.4492935982947066e-16 0.0 17 246 0 0 0 0 145 241 244
 0 155 +17 247 0 240 253 241 248 252 250 0 256 -18 248 143 0 247 242 276 249 ?38
 29 249 144 0 248 277 243 -0.00174987808 3.2508128000000047e-04 -1.9900510486144
492e-20 16 250 145 0 ?252 244 254 251 0 0 38 30 251 146 0 250 255 245 0 +-0.0017
4987808 -3.2491871999999957e-04 1.9900510486144492e-20 -2.4492935982947066e-16 -
1.0 6.1232339957367659e-17 17 252 0 0 0 0 242 247 250 0 0 +17 253 0 240 177 247
 136 256 254 0 174 -16 254 147 0 ?256 250 258 255 0 0 38 30 255 148 0 254 259 25
1 0 +-0.00174987808 3.2508128000000047e-04 -1.9900510486144492e-20 -1.0 2.449293
5982947066e-16 0.0 17 256 0 0 0 0 248 253 254 0 0 +17 257 0 240 188 177 184 265
 258 0 183 +16 258 149 0 ?257 254 267 259 0 0 38 134 259 150 0 258 268 255 0 +26
0 264 136 260 3 4 4 2 1 FFT1 261 262 263 45 16 261 -0.00129987808 7.253666776431
1958e-04 -4.4410922034598066e-20 1.0 -0.0010483840259863 6.203805991990758e-04 -
3.7983341707291444e-20 0.8065248903853482 -0.001023479158534 6.4528546665136944e
-04 -3.9508325017723474e-20 0.8065248903853482 -0.0012251634776431 8.00081280000
00038e-04 -4.8985871965894132e-20 1.0 127 2 262 4 4 128 2 263 5.5015852420554198
 7.0647853723037537 135 264 1 0 17 265 0 313 173 196 169 257 258 0 0 -17 266 0 2
40 90 188 86 274 267 0 0 +16 267 151 0 ?266 258 278 268 0 0 38 134 268 152 0 267
 279 259 0 +269 273 136 269 3 4 4 2 1 FFT1 270 271 272 45 16 270 0.0012254073176
431 8.0008127999999967e-04 -4.8985871965894132e-20 1.0 0.0010236758215633 6.4528
5466651369e-04 -3.9508325017723478e-20 0.8065248903853484 0.0010485806890156 6.2
038059919907545e-04 -3.7983341707291456e-20 0.8065248903853484 0.00130012192 7.2
536667764311886e-04 -4.4410922034598066e-20 1.0 127 2 271 4 4 128 2 272 5.501585
2420554188 7.064785372303751 135 273 1 0 17 274 0 341 206 96 189 266 267 0 0 -17
 275 0 240 281 90 276 280 278 0 286 -18 276 153 0 275 248 282 277 ?38 29 277 154
 0 276 283 249 0.00175012192 3.2508127999999959e-04 -1.9900510486144492e-20 16 2
78 155 0 ?280 267 284 279 0 0 38 30 279 156 0 278 285 268 0 +-0.00174987808 3.25
08128000000047e-04 -1.9900510486144492e-20 -1.0 2.4492935982947066e-16 0.0 17 28
0 0 0 0 0 78 275 278 0 0 +17 281 0 240 287 275 282 286 284 0 0 -18 282 157 0 290
 276 327 283 ?38 29 283 158 0 282 328 277 0.00175012192 -3.2491872000000042e-04
 1.9900510486144492e-20 16 284 159 0 ?286 278 288 285 0 0 38 30 285 160 0 284 28
9 279 0 +0.00175012192 -3.2491872000000042e-04 1.9900510486144492e-20 2.44929359
82947066e-16 1.0 -6.1232339957367659e-17 17 286 0 0 0 0 276 281 284 0 0 +17 287
 0 240 114 281 110 290 288 0 0 -16 288 161 0 ?290 284 292 289 0 0 38 30 289 162
 0 288 293 285 0 +-0.00174987808 -3.2491871999999957e-04 1.9900510486144492e-20
 1.0 -2.4492935982947066e-16 0.0 17 290 0 0 0 0 282 287 288 0 281 +17 291 0 240
 217 114 213 299 292 0 0 +16 292 163 0 ?291 288 301 293 0 0 38 134 293 164 0 292
 302 289 0 +294 298 136 294 3 4 4 2 1 FFT1 295 296 297 45 16 295 0.00130012192 -
7.2520411764311952e-04 4.4410922034598057e-20 1.0 0.0010485806890156 -6.20249490
51289555e-04 3.7983341707291478e-20 0.8065248903853492 0.0010236758215633 -6.451
5435796518892e-04 3.9508325017723504e-20 0.8065248903853492 0.0012254073176431 -
7.9991872000000042e-04 4.8985871965894132e-20 1.0 127 2 296 4 4 128 2 297 5.5015
852420554198 7.0647853723037484 135 298 1 0 17 299 0 401 108 225 104 291 292 0 0
 -17 300 0 240 155 217 151 308 301 0 0 +16 301 165 0 ?300 292 315 302 0 0 38 134
 302 166 0 301 316 293 0 +303 307 136 303 3 4 4 2 1 FFT1 304 305 306 45 16 304 -
0.0012251634776431 -7.999187199999998e-04 4.8985871965894132e-20 1.0 -0.00102347
9158534 -6.4515435796518794e-04 3.9508325017723474e-20 0.8065248903853482 -0.001
0483840259863 -6.2024949051289413e-04 3.7983341707291434e-20 0.8065248903853482
 -0.00129987808 -7.252041176431189e-04 4.4410922034598057e-20 1.0 127 2 305 4 4
 128 2 306 5.5015852420554188 7.0647853723037528 135 307 1 0 17 308 0 368 235 16
1 218 300 301 0 0 -14 309 167 311 1.0e-08 318 236 313 44 310 +0 0 318 236 44 51
 310 168 0 309 319 237 0 +-0.0012136645685328 7.1386776853283296e-04 1.248964518
4919989e-04 -0.0868265938642478 0.0868265938642478 -0.992432509138967 7.49999999
99999964e-05 2.4659941488308924e-16 0.9961946980917456 0.0871557427476583 81 1 3
11 169 6 309 0 0 320 238 312 83 3 312 0.1019607856869698 0.1019607856869698 0.10
19607856869698 15 313 170 0 265 309 0 17 314 0 313 196 173 192 317 315 0 332 -16
 315 171 0 ?317 301 324 316 0 0 38 31 316 172 0 315 325 302 0 +-0.00113491571207
02 6.3511891207017701e-04 0.001025 0.0868265938642467 -0.086826593864247 0.99243
25091389674 -2.4486469140711243e-16 -0.9961946980917456 -0.0871557427476576 7.49
99999999999956e-05 17 317 0 350 351 332 163 314 315 0 354 +14 318 173 320 1.0e-0
8 337 309 322 44 319 +0 0 337 309 44 51 319 174 0 318 338 310 0 +1.2192000000015
553e-07 6.3511891207017684e-04 0.001025 1.0 -2.4492935982947066e-16 0.0 7.499999
9999999982e-05 2.4492935982947066e-16 1.0 -6.1232339957367659e-17 81 1 320 175 6
 318 0 0 339 311 321 83 3 321 0.1019607856869698 0.1019607856869698 0.1019607856
869698 15 322 176 0 323 318 0 17 323 0 322 202 333 198 326 324 0 0 -16 324 177 0
 ?326 315 330 325 0 0 38 31 325 178 0 324 331 316 0 +0.0011351595520702 6.351189
1207017648e-04 0.001025 1.0 -4.9787709066322928e-16 2.8912057932946796e-15 -2.89
12057932946796e-15 6.123233995736836e-17 1.0 7.4999999999999982e-05 17 326 0 359
 360 345 327 323 324 0 333 +18 327 179 0 392 282 388 328 ?38 29 328 180 0 327 38
9 283 0.0011351595520702 6.3511891207017648e-04 0.0011 17 329 0 322 61 202 57 33
2 330 0 0 -16 330 181 0 ?332 324 334 331 0 0 38 31 331 182 0 330 335 325 0 +-0.0
011349157120702 6.3511891207017701e-04 0.001025 -1.0 2.4492935982947066e-16 0.0
 -2.4492935982947066e-16 -1.0 6.1232339957367659e-17 7.4999999999999982e-05 17 3
32 0 350 317 351 192 329 330 0 0 +17 333 0 322 323 61 327 336 334 0 0 -16 334 18
3 0 ?336 330 343 335 0 0 38 30 335 184 0 334 344 331 0 +1.2192000000015553e-07 6
.3511891207017684e-04 0.0011 -1.0 2.4492935982947066e-16 0.0 17 336 0 0 0 0 49 3
33 334 0 0 +14 337 185 339 1.0e-08 346 318 341 44 338 +0 0 346 318 44 51 338 186
 0 337 347 319 0 +0.0012063695511308 7.0632891113076513e-04 2.1106598625788533e-
04 0.0868265938642478 0.0868265938642477 -0.992432509138967 7.4999999999999964e-
05 2.4139524445515881e-16 0.9961946980917456 0.0871557427476583 81 1 339 187 6 3
37 0 0 348 320 340 83 3 340 0.1019607856869698 0.1019607856869698 0.101960785686
9698 15 341 188 0 274 337 0 17 342 0 341 96 206 92 345 343 0 360 -16 343 189 0 ?
345 334 352 344 0 0 38 31 344 190 0 343 353 335 0 +0.0011351595520702 6.35118912
07017639e-04 0.001025 -0.086826593864247 -0.0868265938642469 0.9924325091389672
 -2.5527303226297328e-16 -0.9961946980917456 -0.0871557427476575 7.4999999999999
956e-05 17 345 0 359 326 360 198 342 343 0 323 +14 346 191 348 1.0e-08 355 337 3
50 44 347 +0 0 355 337 44 53 347 192 0 346 356 338 0 +-0.0011349157120702 6.3511
891207017701e-04 0.001025 7.4999999999999992e-05 1.4997597826618576e-32 6.123233
9957367659e-17 1.0 1.0 -2.4492935982947066e-16 0.0 81 1 348 193 6 346 0 0 357 33
9 349 83 3 349 0.1019607856869698 0.1019607856869698 0.1019607856869698 15 350 1
94 0 332 346 0 17 351 0 350 332 317 57 354 352 0 329 -16 352 195 0 ?354 343 361
 353 0 0 38 31 353 196 0 352 362 344 0 +-0.0011349157120702 6.3511891207017701e-
04 0.001025 -2.4492935982947066e-16 -1.0 6.1232339957367659e-17 -1.0 2.449293598
2947066e-16 0.0 7.4999999999999982e-05 17 354 0 377 167 67 163 351 352 0 0 +14 3
55 197 357 1.0e-08 364 346 359 44 356 +0 0 364 346 44 53 356 198 0 355 365 347 0
 +0.0011351595520702 6.3511891207017648e-04 0.001025 7.4999999999999992e-05 1.49
97597826618576e-32 6.1232339957367659e-17 1.0 1.0 -2.4492935982947066e-16 0.0 81
 1 357 199 6 355 0 0 366 348 358 83 3 358 0.1019607856869698 0.1019607856869698
 0.1019607856869698 15 359 200 0 345 355 0 17 360 0 359 345 326 92 363 361 0 0 -
16 361 201 0 ?363 352 370 362 0 0 38 31 362 202 0 361 371 353 0 +0.0011351595520
702 6.3511891207017648e-04 0.001025 -1.69605422469419e-15 -1.0 6.123233995736765
9e-17 -1.0 1.69605422469419e-15 -8.8855771045985694e-32 7.4999999999999982e-05 1
7 363 0 386 387 102 327 360 361 0 326 +14 364 203 366 1.0e-08 373 355 368 44 365
 +0 0 373 355 44 51 365 204 0 364 374 356 0 +-0.0012257267403761 -7.257673803761
3957e-04 -1.2974803204696841e-05 -0.0868265938642478 -0.0868265938642478 -0.9924
32509138967 7.4999999999999964e-05 2.4746677662107764e-16 0.9961946980917456 -0.
0871557427476584 81 1 366 205 6 364 0 0 375 357 367 83 3 367 0.1019607856869698
 0.1019607856869698 0.1019607856869698 15 368 206 0 308 364 0 17 369 0 368 161 2
35 157 372 370 0 381 -16 370 207 0 ?372 361 379 371 0 0 38 31 371 208 0 370 380
 362 0 +-0.0011349157120702 -6.3495635207017642e-04 0.001025 0.086826593864247 0
.0868265938642471 0.9924325091389672 -2.4399732966912402e-16 -0.9961946980917456
 0.0871557427476577 7.4999999999999956e-05 17 372 0 410 411 381 227 369 370 0 41
4 +14 373 209 375 1.0e-08 382 364 377 44 374 +0 0 382 364 44 51 374 210 0 373 38
3 365 0 +-0.0011349157120702 8.128000000034076e-08 0.001025 2.4492935982947066e-
16 1.0 -6.1232339957367659e-17 7.4999999999999982e-05 -1.0 2.4492935982947066e-1
6 0.0 81 1 375 211 6 373 0 0 384 366 376 83 3 376 0.1019607856869698 0.101960785
6869698 0.1019607856869698 15 377 212 0 354 373 0 17 378 0 377 67 167 63 381 379
 0 0 -16 379 213 0 ?381 370 390 380 0 0 38 31 380 214 0 379 391 371 0 +-0.001134
9157120702 -6.3495635207017642e-04 0.001025 -2.4492935982947066e-16 -1.0 6.12323
39957367659e-17 1.0 -2.4492935982947066e-16 0.0 7.4999999999999982e-05 17 381 0
 410 372 411 157 378 379 0 0 +14 382 215 384 1.0e-08 397 373 386 44 383 +0 0 397
 373 44 51 383 216 0 382 398 374 0 +0.0011351595520702 8.127999999978476e-08 0.0
01025 -2.4492935982947066e-16 -1.0 6.1232339957367659e-17 7.4999999999999982e-05
 1.0 -2.4492935982947066e-16 0.0 81 1 384 217 6 382 0 0 399 375 385 83 3 385 0.1
019607856869698 0.1019607856869698 0.1019607856869698 15 386 218 0 363 382 0 17
 387 0 386 393 363 388 392 390 0 396 -18 388 219 0 387 327 0 389 ?38 29 389 220
 0 388 0 328 0.0011351595520702 -6.3495635207017696e-04 0.0011 16 390 221 0 ?392
 379 394 391 0 0 38 30 391 222 0 390 395 380 0 +0.0011351595520702 8.12799999997
89343e-08 0.0011 2.4492935982947066e-16 1.0 -6.1232339957367659e-17 17 392 0 0 0
 0 327 387 390 0 363 +17 393 0 386 102 387 98 396 394 0 405 -16 394 223 0 ?396 3
90 403 395 0 0 38 31 395 224 0 394 404 391 0 +0.0011351595520702 -6.349563520701
7687e-04 0.001025 -1.1845549441259145e-16 -1.0 -1.384370556689972e-15 3.39072994
21684267e-31 1.384370556689972e-15 -1.0 7.4999999999999982e-05 17 396 0 419 420
 405 388 393 394 0 423 +14 397 225 399 1.0e-08 406 382 401 44 398 +0 0 406 382 4
4 51 398 226 0 397 407 383 0 +0.0012259705803761 -7.2576738037614019e-04 -1.2974
803204696832e-05 0.0868265938642478 -0.0868265938642479 -0.992432509138967 7.499
9999999999964e-05 2.379257975032052e-16 0.9961946980917456 -0.0871557427476584 8
1 1 399 227 6 397 0 0 408 384 400 83 3 400 0.1019607856869698 0.1019607856869698
 0.1019607856869698 15 401 228 0 299 397 0 17 402 0 401 225 108 221 405 403 0 42
0 -16 403 229 0 ?405 394 412 404 0 0 38 31 404 230 0 403 413 395 0 +0.0011351595
520702 -6.3495635207017696e-04 0.001025 -0.086826593864247 0.0868265938642472 0.
9924325091389672 -2.4486469140711243e-16 -0.9961946980917456 0.0871557427476577
 7.4999999999999956e-05 17 405 0 419 396 420 98 402 403 0 0 +14 406 231 408 1.0e
-08 415 397 410 44 407 +0 0 415 397 44 53 407 232 0 406 416 398 0 +-0.0011349157
120702 -6.3495635207017642e-04 0.001025 7.4999999999999992e-05 1.499759782661857
6e-32 6.1232339957367659e-17 1.0 1.0 -2.4492935982947066e-16 0.0 81 1 408 233 6
 406 0 0 417 399 409 83 3 409 0.1019607856869698 0.1019607856869698 0.1019607856
869698 15 410 234 0 381 406 0 17 411 0 410 381 372 63 414 412 0 378 -16 412 235
 0 ?414 403 421 413 0 0 38 31 413 236 0 412 422 404 0 +-0.0011349157120702 -6.34
95635207017642e-04 0.001025 1.0 -4.9787709066322954e-16 -2.8912057932946796e-15
 -2.8912057932946804e-15 -1.5068352366047064e-15 -1.0 7.4999999999999982e-05 17
 414 0 428 231 71 227 411 412 0 0 +14 415 237 417 1.0e-08 424 406 419 44 416 +0
 0 424 406 44 53 416 238 0 415 425 407 0 +0.0011351595520702 -6.3495635207017696
e-04 0.001025 7.4999999999999992e-05 1.4997597826618576e-32 6.1232339957367659e-
17 1.0 1.0 -2.4492935982947066e-16 0.0 81 1 417 239 6 415 0 0 426 408 418 83 3 4
18 0.1019607856869698 0.1019607856869698 0.1019607856869698 15 419 240 0 405 415
 0 17 420 0 419 405 396 221 423 421 0 0 -16 421 241 0 ?423 412 430 422 0 0 38 31
 422 242 0 421 431 413 0 +0.0011351595520702 -6.3495635207017696e-04 0.001025 -1
.0 -2.65732036989998e-15 1.7771154209197212e-31 -2.65732036989998e-15 1.0 -6.123
2339957367659e-17 7.4999999999999982e-05 17 423 0 428 429 231 388 420 421 0 432
 +14 424 243 426 1.0e-08 0 415 428 44 425 +0 0 0 415 44 51 425 244 0 424 0 416 0
 +1.2191999999984444e-07 -6.349563520701766e-04 0.001025 -1.0 2.4492935982947066
e-16 0.0 7.4999999999999982e-05 -2.4492935982947066e-16 -1.0 6.1232339957367659e
-17 81 1 426 245 6 424 0 0 0 417 427 83 3 427 0.1019607856869698 0.1019607856869
698 0.1019607856869698 15 428 246 0 414 424 0 17 429 0 428 71 423 54 432 430 0 0
 -16 430 247 0 ?432 421 0 431 0 0 38 30 431 248 0 430 0 422 0 +1.219199999998444
4e-07 -6.349563520701766e-04 0.0011 1.0 -2.4492935982947066e-16 0.0 17 432 0 0 0
 0 388 429 430 0 0 +12 433 22 0 434 0 0 0 0 1000.0 1.0e-08 0 0 0 1 0 3 1 439 441
 447 445 438 446 444 70 434 0 433 0 0 4 1 20 0 435 435 1 T74 20 435 1 0 436 0 0
 0 0 0 0 0 0 0 0 0 0 0 0 0 0 0 0 0 81 1 436 5 6 440 0 0 0 0 437 83 3 437 0.82745
099067688 0.8392156958580018 0.82745099067688 19 438 1 0 433 0 0 439 V13 439 2 0
 433 0 440 0 0 438 440 14 440 3 436 1.0e-08 0 0 442 439 441 -0 0 0 0 439 50 441
 4 0 440 0 0 0 +-0.00174987808 -3.2491871999999957e-04 2.0000000000000004e-04 1.
0 -2.4492935982947066e-16 0.0 2.4492935982947066e-16 1.0 -6.1232339957367659e-17
 15 442 6 0 443 440 0 17 443 0 442 451 463 444 448 446 0 456 +18 444 7 0 443 0 4
49 445 ?433 29 445 8 0 444 450 0 -0.00174987808 -3.2491871999999957e-04 1.990051
0486144492e-20 16 446 9 0 ?443 0 454 447 0 0 433 30 447 10 0 446 455 0 0 +-0.001
74987808 -3.2491871999999957e-04 1.9900510486144492e-20 -2.4492935982947066e-16
 -1.0 6.1232339957367659e-17 17 448 0 0 0 0 449 443 446 0 463 -18 449 11 0 448 4
44 452 450 ?433 29 450 12 0 449 453 445 -0.00174987808 3.2508128000000047e-04 -1
.9900510486144492e-20 17 451 0 442 457 443 452 456 454 0 462 -18 452 13 0 451 44
9 458 453 ?433 29 453 14 0 452 459 450 -0.00174987808 -3.2491871999999957e-04 2.
0000000000000004e-04 16 454 15 0 ?456 446 460 455 0 0 433 30 455 16 0 454 461 44
7 0 +-0.00174987808 -3.2491871999999957e-04 2.0000000000000004e-04 -1.4997597826
618576e-32 -6.1232339957367659e-17 -1.0 17 456 0 0 0 0 444 451 454 0 0 +17 457 0
 442 463 451 458 462 460 0 466 -18 458 17 0 457 452 0 459 ?433 29 459 18 0 458 0
 453 -0.00174987808 3.2508128000000047e-04 1.9999999999999998e-04 16 460 19 0 ?4
62 454 464 461 0 0 433 30 461 20 0 460 465 455 0 +-0.00174987808 -3.249187199999
9957e-04 2.0000000000000004e-04 -2.4492935982947066e-16 -1.0 6.1232339957367659e
-17 17 462 0 0 0 0 452 457 460 0 0 +17 463 0 442 443 457 449 466 464 0 0 +16 464
 21 0 ?463 460 0 465 0 0 433 30 465 22 0 464 0 461 0 +-0.00174987808 3.250812800
0000047e-04 1.9999999999999998e-04 -1.4997597826618576e-32 -6.1232339957367659e-
17 -1.0 17 466 0 0 0 0 458 463 464 0 0 -12 467 22 0 468 0 0 0 0 1000.0 1.0e-08 0
 0 0 1 0 3 1 473 475 481 479 472 480 478 70 468 0 467 0 0 4 1 20 0 469 469 1 T74
 20 469 1 0 470 0 0 0 0 0 0 0 0 0 0 0 0 0 0 0 0 0 0 0 81 1 470 5 6 474 0 0 0 0 4
71 83 3 471 0.82745099067688 0.8392156958580018 0.82745099067688 19 472 1 0 467
 0 0 473 V13 473 2 0 467 0 474 0 0 472 474 14 474 3 470 1.0e-08 0 0 476 473 475
 -0 0 0 0 473 50 475 4 0 474 0 0 0 +1.2192000000000001e-07 8.1280000000012258e-0
8 2.0e-04 -1.4997597826618576e-32 -6.1232339957367659e-17 -1.0 2.449293598294706
6e-16 1.0 -6.1232339957367659e-17 15 476 6 0 477 474 0 17 477 0 476 485 497 478
 482 480 0 490 +18 478 7 0 477 0 483 479 ?467 29 479 8 0 478 484 0 -0.0012823803
472948 -3.2491871999999966e-04 2.0000000000000004e-04 16 480 9 0 ?477 0 488 481
 0 0 467 30 481 10 0 480 489 0 0 +-0.00174987808 -3.2491871999999957e-04 2.00000
00000000004e-04 1.0 -2.4492935982947066e-16 0.0 17 482 0 0 0 0 483 477 480 0 497
 -18 483 11 0 482 478 486 484 ?467 29 484 12 0 483 487 479 -0.00174987808 -3.249
1871999999957e-04 2.0000000000000004e-04 17 485 0 476 491 477 486 490 488 0 496
 +18 486 13 0 485 483 492 487 ?467 29 487 14 0 486 493 484 -0.0012823803472948 3
.2508128000000043e-04 1.9999999999999998e-04 16 488 15 0 ?485 480 494 489 0 0 46
7 30 489 16 0 488 495 481 0 +-0.0012823803472948 -7.999187199999998e-04 2.000000
0000000004e-04 2.4492935982947066e-16 1.0 -6.1232339957367659e-17 17 490 0 0 0 0
 478 485 488 0 0 -17 491 0 476 497 485 492 496 494 0 500 +18 492 17 0 491 486 0
 493 ?467 29 493 18 0 492 0 487 -0.00174987808 3.2508128000000047e-04 1.99999999
99999998e-04 16 494 19 0 ?491 488 498 495 0 0 467 30 495 20 0 494 499 489 0 +-0.
00174987808 3.2508128000000047e-04 1.9999999999999998e-04 -1.0 2.449293598294706
6e-16 0.0 17 496 0 0 0 0 486 491 494 0 0 -17 497 0 476 477 491 483 500 498 0 0 +
16 498 21 0 ?497 494 0 499 0 0 467 30 499 22 0 498 0 495 0 +-0.00174987808 -3.24
91871999999957e-04 2.0000000000000004e-04 -2.4492935982947066e-16 -1.0 6.1232339
957367659e-17 17 500 0 0 0 0 492 497 498 0 0 -12 501 22 0 502 0 0 0 0 1000.0 1.0
e-08 0 0 0 1 0 3 1 507 509 515 513 506 514 512 70 502 0 501 0 0 4 1 20 0 503 503
 1 T74 20 503 1 0 504 0 0 0 0 0 0 0 0 0 0 0 0 0 0 0 0 0 0 0 81 1 504 5 6 508 0 0
 0 0 505 83 3 505 0.82745099067688 0.8392156958580018 0.82745099067688 19 506 1
 0 501 0 0 507 V13 507 2 0 501 0 508 0 0 506 508 14 508 3 504 1.0e-08 0 0 510 50
7 509 -0 0 0 0 507 50 509 4 0 508 0 0 0 +-0.00174987808 -3.2491871999999957e-04
 2.0000000000000004e-04 2.4492935982947066e-16 1.0 -6.1232339957367659e-17 -1.0
 2.4492935982947066e-16 0.0 15 510 6 0 511 508 0 17 511 0 510 519 531 512 516 51
4 0 524 +18 512 7 0 511 0 517 513 ?501 29 513 8 0 512 518 0 -0.00129987808 -3.24
91871999999966e-04 1.9900510486144492e-20 16 514 9 0 ?511 0 522 515 0 0 501 30 5
15 10 0 514 523 0 0 +-0.00174987808 -3.2491871999999957e-04 1.9900510486144492e-
20 1.0 -2.4492935982947066e-16 0.0 17 516 0 0 0 0 517 511 514 0 531 -18 517 11 0
 516 512 520 518 ?501 29 518 12 0 517 521 513 -0.00174987808 -3.2491871999999957
e-04 1.9900510486144492e-20 17 519 0 510 525 511 520 524 522 0 0 +18 520 13 0 53
0 517 526 521 ?501 29 521 14 0 520 527 518 -0.0012823803472948 -3.24918719999999
66e-04 2.0000000000000004e-04 16 522 15 0 ?519 514 528 523 0 0 501 30 523 16 0 5
22 529 515 0 +-0.00129987808 -3.2491871999999962e-04 1.9900510486144484e-20 0.08
71557427476584 3.965233214063502e-17 0.9961946980917456 17 524 0 0 0 0 512 519 5
22 0 0 -17 525 0 510 531 519 526 530 528 0 534 -18 526 17 0 525 520 0 527 ?501 2
9 527 18 0 526 0 521 -0.00174987808 -3.2491871999999957e-04 2.0000000000000004e-
04 16 528 19 0 ?530 522 532 529 0 0 501 30 529 20 0 528 533 523 0 +-0.0017498780
8 -3.2491871999999957e-04 2.0000000000000004e-04 1.0 -2.4492935982947066e-16 0.0
 17 530 0 0 0 0 520 525 528 0 519 +17 531 0 510 511 525 517 534 532 0 0 +16 532
 21 0 ?531 528 0 533 0 0 501 30 533 22 0 532 0 529 0 +-0.00174987808 -3.24918719
99999957e-04 2.0000000000000004e-04 -1.4997597826618576e-32 -6.1232339957367659e
-17 -1.0 17 534 0 0 0 0 526 531 532 0 0 -12 535 22 0 536 0 0 0 0 1000.0 1.0e-08
 0 0 0 1 0 3 1 541 543 549 547 540 548 546 70 536 0 535 0 0 4 1 20 0 537 537 1 T
74 20 537 1 0 538 0 0 0 0 0 0 0 0 0 0 0 0 0 0 0 0 0 0 0 81 1 538 5 6 542 0 0 0 0
 539 83 3 539 0.82745099067688 0.8392156958580018 0.82745099067688 19 540 1 0 53
5 0 0 541 V13 541 2 0 535 0 542 0 0 540 542 14 542 3 538 1.0e-08 0 0 544 541 543
 -0 0 0 0 541 50 543 4 0 542 0 0 0 +-0.00174987808 3.2508128000000047e-04 1.9999
999999999998e-04 -2.4492935982947066e-16 -1.0 6.1232339957367659e-17 1.0 -2.4492
935982947066e-16 0.0 15 544 6 0 545 542 0 17 545 0 544 553 565 546 550 548 0 558
 -18 546 7 0 545 0 551 547 ?535 29 547 8 0 546 552 0 -0.0012823803472948 3.25081
28000000043e-04 1.9999999999999998e-04 16 548 9 0 ?550 0 556 549 0 0 535 30 549
 10 0 548 557 0 0 +-0.00174987808 3.2508128000000047e-04 1.9999999999999998e-04
 -1.0 2.4492935982947066e-16 0.0 17 550 0 0 0 0 551 545 548 0 565 +18 551 11 0 5
50 546 554 552 ?535 29 552 12 0 551 555 547 -0.00174987808 3.2508128000000047e-0
4 1.9999999999999998e-04 17 553 0 544 559 545 554 558 556 0 564 +18 554 13 0 553
 551 560 555 ?535 29 555 14 0 554 561 552 -0.00129987808 3.2508128000000043e-04
 -1.9900510486144494e-20 16 556 15 0 ?553 548 562 557 0 0 535 30 557 16 0 556 56
3 549 0 +-0.00129987808 3.2508128000000043e-04 -1.9900510486144494e-20 -0.087155
7427476584 -3.965233214063502e-17 -0.9961946980917456 17 558 0 0 0 0 546 553 556
 0 0 -17 559 0 544 565 553 560 564 562 0 0 +18 560 17 0 568 554 0 561 ?535 29 56
1 18 0 560 0 555 -0.00174987808 3.2508128000000047e-04 -1.9900510486144492e-20 1
6 562 19 0 ?559 556 566 563 0 0 535 30 563 20 0 562 567 557 0 +-0.00174987808 3.
2508128000000047e-04 -1.9900510486144492e-20 -1.0 2.4492935982947066e-16 0.0 17
 564 0 0 0 0 554 559 562 0 0 -17 565 0 544 545 559 551 568 566 0 0 -16 566 21 0
 ?568 562 0 567 0 0 535 30 567 22 0 566 0 563 0 +-0.00174987808 3.25081280000000
47e-04 1.9999999999999998e-04 -1.4997597826618576e-32 -6.1232339957367659e-17 -1
.0 17 568 0 0 0 0 560 565 566 0 559 +12 569 22 0 570 0 0 0 0 1000.0 1.0e-08 0 0
 0 1 0 3 1 575 577 583 581 574 582 580 70 570 0 569 0 0 4 1 20 0 571 571 1 T74 2
0 571 1 0 572 0 0 0 0 0 0 0 0 0 0 0 0 0 0 0 0 0 0 0 81 1 572 5 6 576 0 0 0 0 573
 83 3 573 0.82745099067688 0.8392156958580018 0.82745099067688 19 574 1 0 569 0
 0 575 V13 575 2 0 569 0 576 0 0 574 576 14 576 3 572 1.0e-08 0 0 578 575 577 -0
 0 0 0 575 50 577 4 0 576 0 0 0 +1.2192000000000001e-07 8.1280000000012258e-08 2
.0e-04 -1.4997597826618576e-32 -6.1232339957367659e-17 -1.0 2.4492935982947066e-
16 1.0 -6.1232339957367659e-17 15 578 6 0 579 576 0 17 579 0 578 587 599 580 584
 582 0 592 +18 580 7 0 579 0 585 581 ?569 29 581 8 0 580 586 0 0.001282624187294
8 3.2508127999999981e-04 1.9999999999999998e-04 16 582 9 0 ?579 0 590 583 0 0 56
9 30 583 10 0 582 591 0 0 +-0.00174987808 3.2508128000000047e-04 1.9999999999999
998e-04 -1.0 2.4492935982947066e-16 0.0 17 584 0 0 0 0 585 579 582 0 599 -18 585
 11 0 584 580 588 586 ?569 29 586 12 0 585 589 581 0.00175012192 3.2508127999999
959e-04 1.9999999999999998e-04 17 587 0 578 593 579 588 592 590 0 598 +18 588 13
 0 587 585 594 589 ?569 29 589 14 0 588 595 586 0.0012826241872948 -3.2491872000
000029e-04 2.0000000000000004e-04 16 590 15 0 ?587 582 596 591 0 0 569 30 591 16
 0 590 597 583 0 +0.0012826241872948 -7.9991872000000042e-04 2.0000000000000004e
-04 -2.4492935982947066e-16 -1.0 6.1232339957367659e-17 17 592 0 0 0 0 580 587 5
90 0 0 -17 593 0 578 599 587 594 598 596 0 602 +18 594 17 0 593 588 0 595 ?569 2
9 595 18 0 594 0 589 0.00175012192 -3.2491872000000042e-04 2.0000000000000004e-0
4 16 596 19 0 ?593 590 600 597 0 0 569 30 597 20 0 596 601 591 0 +-0.00174987808
 -3.2491871999999957e-04 2.0000000000000004e-04 1.0 -2.4492935982947066e-16 0.0
 17 598 0 0 0 0 588 593 596 0 0 -17 599 0 578 579 593 585 602 600 0 0 +16 600 21
 0 ?599 596 0 601 0 0 569 30 601 22 0 600 0 597 0 +0.00175012192 -3.249187200000
0042e-04 2.0000000000000004e-04 2.4492935982947066e-16 1.0 -6.1232339957367659e-
17 17 602 0 0 0 0 594 599 600 0 0 -12 603 22 0 604 0 0 0 0 1000.0 1.0e-08 0 0 0
 1 0 3 1 609 611 617 615 608 616 614 70 604 0 603 0 0 4 1 20 0 605 605 1 T74 20
 605 1 0 606 0 0 0 0 0 0 0 0 0 0 0 0 0 0 0 0 0 0 0 81 1 606 5 6 610 0 0 0 0 607
 83 3 607 0.82745099067688 0.8392156958580018 0.82745099067688 19 608 1 0 603 0
 0 609 V13 609 2 0 603 0 610 0 0 608 610 14 610 3 606 1.0e-08 0 0 612 609 611 -0
 0 0 0 609 50 611 4 0 610 0 0 0 +-0.00174987808 3.2508128000000047e-04 1.9999999
999999998e-04 -2.4492935982947066e-16 -1.0 6.1232339957367659e-17 1.0 -2.4492935
982947066e-16 0.0 15 612 6 0 613 610 0 17 613 0 612 621 633 614 618 616 0 626 +1
8 614 7 0 613 0 619 615 ?603 29 615 8 0 614 620 0 0.00130012192 3.25081279999999
72e-04 -1.9900510486144492e-20 16 616 9 0 ?613 0 624 617 0 0 603 30 617 10 0 616
 625 0 0 +-0.00174987808 3.2508128000000047e-04 -1.9900510486144492e-20 -1.0 2.4
492935982947066e-16 0.0 17 618 0 0 0 0 619 613 616 0 633 -18 619 11 0 618 614 62
2 620 ?603 29 620 12 0 619 623 615 0.00175012192 3.2508127999999959e-04 -1.99005
10486144492e-20 17 621 0 612 627 613 622 626 624 0 0 +18 622 13 0 632 619 628 62
3 ?603 29 623 14 0 622 629 620 0.0012826241872948 3.2508127999999981e-04 1.99999
99999999998e-04 16 624 15 0 ?621 616 630 625 0 0 603 30 625 16 0 624 631 617 0 +
0.00130012192 3.2508127999999976e-04 -1.9900510486144494e-20 -0.0871557427476584
 8.2346332693927007e-17 0.9961946980917456 17 626 0 0 0 0 614 621 624 0 0 -17 62
7 0 612 633 621 628 632 630 0 636 -18 628 17 0 627 622 0 629 ?603 29 629 18 0 62
8 0 623 0.00175012192 3.2508127999999959e-04 1.9999999999999998e-04 16 630 19 0
 ?632 624 634 631 0 0 603 30 631 20 0 630 635 625 0 +-0.00174987808 3.2508128000
000047e-04 1.9999999999999998e-04 -1.0 2.4492935982947066e-16 0.0 17 632 0 0 0 0
 622 627 630 0 621 +17 633 0 612 613 627 619 636 634 0 0 +16 634 21 0 ?633 630 0
 635 0 0 603 30 635 22 0 634 0 631 0 +0.00175012192 3.2508127999999959e-04 1.999
9999999999998e-04 -1.4997597826618576e-32 -6.1232339957367659e-17 -1.0 17 636 0
 0 0 0 628 633 634 0 0 -12 637 22 0 638 0 0 0 0 1000.0 1.0e-08 0 0 0 1 0 3 1 643
 645 651 649 642 650 648 70 638 0 637 0 0 4 1 20 0 639 639 1 T74 20 639 1 0 640
 0 0 0 0 0 0 0 0 0 0 0 0 0 0 0 0 0 0 0 81 1 640 5 6 644 0 0 0 0 641 83 3 641 0.8
2745099067688 0.8392156958580018 0.82745099067688 19 642 1 0 637 0 0 643 V13 643
 2 0 637 0 644 0 0 642 644 14 644 3 640 1.0e-08 0 0 646 643 645 -0 0 0 0 643 50
 645 4 0 644 0 0 0 +-0.00174987808 -3.2491871999999957e-04 2.0000000000000004e-0
4 2.4492935982947066e-16 1.0 -6.1232339957367659e-17 -1.0 2.4492935982947066e-16
 0.0 15 646 6 0 647 644 0 17 647 0 646 655 667 648 652 650 0 660 -18 648 7 0 647
 0 653 649 ?637 29 649 8 0 648 654 0 0.0012826241872948 -3.2491872000000029e-04
 2.0000000000000004e-04 16 650 9 0 ?652 0 658 651 0 0 637 30 651 10 0 650 659 0
 0 +-0.00174987808 -3.2491871999999957e-04 2.0000000000000004e-04 1.0 -2.4492935
982947066e-16 0.0 17 652 0 0 0 0 653 647 650 0 667 +18 653 11 0 652 648 656 654
 ?637 29 654 12 0 653 657 649 0.00175012192 -3.2491872000000042e-04 2.0000000000
000004e-04 17 655 0 646 661 647 656 660 658 0 666 +18 656 13 0 655 653 662 657 ?
637 29 657 14 0 656 663 654 0.00130012192 -3.2491872000000033e-04 1.990051048614
4492e-20 16 658 15 0 ?655 650 664 659 0 0 637 30 659 16 0 658 665 651 0 +0.00130
012192 -3.2491872000000029e-04 1.9900510486144484e-20 0.0871557427476584 -8.2346
332693927007e-17 -0.9961946980917456 17 660 0 0 0 0 648 655 658 0 0 -17 661 0 64
6 667 655 662 666 664 0 670 +18 662 17 0 661 656 0 663 ?637 29 663 18 0 662 0 65
7 0.00175012192 -3.2491872000000042e-04 1.9900510486144492e-20 16 664 19 0 ?661
 658 668 665 0 0 637 30 665 20 0 664 669 659 0 +-0.00174987808 -3.24918719999999
57e-04 1.9900510486144492e-20 1.0 -2.4492935982947066e-16 0.0 17 666 0 0 0 0 656
 661 664 0 0 -17 667 0 646 647 661 653 670 668 0 0 -16 668 21 0 ?670 664 0 669 0
 0 637 30 669 22 0 668 0 665 0 +0.00175012192 -3.2491872000000042e-04 2.00000000
00000004e-04 -1.4997597826618576e-32 -6.1232339957367659e-17 -1.0 17 670 0 0 0 0
 662 667 668 0 0 +12 671 22 0 672 0 0 0 0 1000.0 1.0e-08 0 0 0 1 0 3 1 677 679 6
85 683 676 684 682 70 672 0 671 0 0 4 1 20 0 673 673 1 T74 20 673 1 0 674 0 0 0
 0 0 0 0 0 0 0 0 0 0 0 0 0 0 0 0 81 1 674 5 6 678 0 0 0 0 675 83 3 675 0.8274509
9067688 0.8392156958580018 0.82745099067688 19 676 1 0 671 0 0 677 V13 677 2 0 6
71 0 678 0 0 676 678 14 678 3 674 1.0e-08 0 0 680 677 679 -0 0 0 0 677 50 679 4
 0 678 0 0 0 +0.00175012192 -3.2491872000000042e-04 2.0000000000000004e-04 -1.0
 2.4492935982947066e-16 0.0 -2.4492935982947066e-16 -1.0 6.1232339957367659e-17
 15 680 6 0 681 678 0 17 681 0 680 689 701 682 686 684 0 694 +18 682 7 0 681 0 6
87 683 ?671 29 683 8 0 682 688 0 0.00175012192 3.2508127999999959e-04 -1.9900510
486144492e-20 16 684 9 0 ?681 0 692 685 0 0 671 30 685 10 0 684 693 0 0 +0.00175
012192 -3.2491872000000042e-04 1.9900510486144492e-20 2.4492935982947066e-16 1.0
 -6.1232339957367659e-17 17 686 0 0 0 0 687 681 684 0 701 -18 687 11 0 686 682 6
90 688 ?671 29 688 12 0 687 691 683 0.00175012192 -3.2491872000000042e-04 1.9900
510486144492e-20 17 689 0 680 695 681 690 694 692 0 700 -18 690 13 0 689 687 696
 691 ?671 29 691 14 0 690 697 688 0.00175012192 3.2508127999999959e-04 1.9999999
999999998e-04 16 692 15 0 ?694 684 698 693 0 0 671 30 693 16 0 692 699 685 0 +0.
00175012192 3.2508127999999959e-04 1.9999999999999998e-04 -1.4997597826618576e-3
2 -6.1232339957367659e-17 -1.0 17 694 0 0 0 0 682 689 692 0 0 +17 695 0 680 701
 689 696 700 698 0 704 -18 696 17 0 695 690 0 697 ?671 29 697 18 0 696 0 691 0.0
0175012192 -3.2491872000000042e-04 2.0000000000000004e-04 16 698 19 0 ?700 692 7
02 699 0 0 671 30 699 20 0 698 703 693 0 +0.00175012192 -3.2491872000000042e-04
 2.0000000000000004e-04 2.4492935982947066e-16 1.0 -6.1232339957367659e-17 17 70
0 0 0 0 0 690 695 698 0 0 +17 701 0 680 681 695 687 704 702 0 0 +16 702 21 0 ?70
1 698 0 703 0 0 671 30 703 22 0 702 0 699 0 +0.00175012192 -3.2491872000000042e-
04 2.0000000000000004e-04 -1.4997597826618576e-32 -6.1232339957367659e-17 -1.0 1
7 704 0 0 0 0 696 701 702 0 0 -1 0 
